<?xml version="1.0" encoding="utf-8" ?>
<svg baseProfile="full" height="300mm" version="1.1" viewBox="0,0,200,300" width="200mm" xmlns="http://www.w3.org/2000/svg" xmlns:ev="http://www.w3.org/2001/xml-events" xmlns:xlink="http://www.w3.org/1999/xlink"><defs /><rect fill="#222222" height="300" width="200" x="0" y="0" /><text fill="#FFFFFF" style="font-size:12px; font-family:Arial; font-weight:bold;" x="10" y="20">Over 3km Runs</text><text fill="#FFFFFF" style="font-size:4px; font-family:Arial" x="10" y="280">ATHLETE</text><text fill="#FFFFFF" style="font-size:9px; font-family:Arial" x="10" y="290">arinic</text><text fill="#FFFFFF" style="font-size:4px; font-family:Arial" x="120" y="280">STATISTICS</text><text fill="#FFFFFF" style="font-size:3px; font-family:Arial" x="120" y="285">Number: 6</text><text fill="#FFFFFF" style="font-size:3px; font-family:Arial" x="120" y="290">Weekly: 1.2</text><text fill="#FFFFFF" style="font-size:3px; font-family:Arial" x="141" y="285">Total: 22.6 km</text><text fill="#FFFFFF" style="font-size:3px; font-family:Arial" x="141" y="290">Avg: 3.8 km</text><text fill="#FFFFFF" style="font-size:3px; font-family:Arial" x="167" y="285">Min: 3.1 km</text><text fill="#FFFFFF" style="font-size:3px; font-family:Arial" x="167" y="290">Max: 5.1 km</text><polyline fill="none" points="63.012048192322254,62.71388089377433 53.03614457882941,73.2662373133935 43.060240963473916,80.30112902494147 23.97590361535549,73.2662373133935 16.602409640327096,69.24629467912018 22.240963857620955,58.19143550330773 24.84337349422276,56.18145843828097 63.012048192322254,61.70889338944107 72.98795180767775,78.79365307744592 68.65060240961611,80.30112902494147 60.40963855572045,84.32106263097376 57.37349397689104,85.82853688718751 46.53012048266828,86.83351946715266 42.626506024971604,85.82853688718751 39.156626507639885,84.82355410140008 33.08433734998107,81.808604513295 29.61445783264935,80.80362090561539 19.638554219156504,76.78368442691863 14.0,69.24629467912018 26.14457831531763,58.19143550330773 30.048192771151662,56.18145843828097 35.25301204994321,54.171480554156005 42.19277108646929,53.668985954951495 60.40963855572045,58.69392964011058 63.87951807305217,62.71388089377433 72.12048192694783,66.733828864526 77.32530120573938,72.26125196414068 71.25301204994321,79.79863709304482 66.91566265001893,81.3061127346009 62.144578313454986,82.81358791375533 44.36144578456879,85.82853688718751 30.91566265374422,81.3061127346009 31.78313253261149,56.683952781837434 35.68674698844552,54.67397510353476 64.74698795191944,83.31607953691855 45.66265060380101,87.3360106809996 20.506024098023772,61.70889338944107 22.674698796123266,60.20141174457967 22.674698796123266,58.19143550330773 25.277108434587717,57.68894131341949 27.445783134549856,56.18145843828097 29.180722890421748,55.67896404489875 31.78313253261149,54.67397510353476 31.78313253261149,54.171480554156005 31.78313253261149,54.171480554156005 33.08433734998107,54.171480554156005 33.08433734998107,54.171480554156005 33.08433734998107,54.67397510353476 33.95180722884834,54.67397510353476 54.33734939806163,59.196423726156354 67.34939759038389,80.30112902494147 62.57831325381994,82.81358791375533 33.51807228848338,81.808604513295 28.313253013417125,79.79863709304482 17.036144578829408,72.7637446639128 16.602409640327096,66.733828864526 21.807228917255998,62.71388089377433 43.060240963473916,55.67896404489875 64.74698795191944,62.21138716721907 69.51807228848338,65.22634876146913 75.15662650763988,74.271222459618 75.15662650763988,74.77371495589614 72.12048192694783,77.78866885369644 69.95180722884834,78.79365307744592 68.2168674711138,79.79863709304482 65.1807228922844,80.80362090561539 63.87951807305217,82.3110962389037 59.10843373462558,83.31607953691855 56.50602409802377,85.32604552060366 54.771084336563945,86.33102820301428 48.26506024412811,87.83850184222683 46.53012048266828,86.83351946715266 45.228915663436055,84.82355410140008 39.156626507639885,83.81857111025602 36.9879518058151,83.31607953691855 34.81927710957825,82.81358791375533 31.349397590383887,81.808604513295 29.180722890421748,81.3061127346009 27.0120481941849,80.80362090561539 25.71084337309003,79.79863709304482 22.240963857620955,76.2811921350658 20.939759036526084,74.77371495589614 18.771084336563945,73.2662373133935 17.036144578829408,71.75875921174884 14.433734942227602,68.74380161939189 17.036144578829408,63.718868194147944 20.072289157658815,60.70390567695722 22.240963857620955,60.20141174457967 24.84337349422276,59.196423726156354 27.0120481941849,58.19143550330773 31.349397590383887,56.18145843828097 34.81927710957825,53.668985954951495 38.72289156913757,51.659007045440376 42.626506024971604,52.66399660194293 45.228915663436055,55.176469599828124 49.56626506149769,58.19143550330773 54.771084336563945,58.69392964011058 60.40963855572045,58.19143550330773 60.40963855572045,58.69392964011058 66.91566265001893,64.22136176703498 63.87951807305217,82.3110962389037 54.771084336563945,86.33102820301428 46.53012048266828,86.83351946715266 30.48192771151662,81.808604513295 28.313253013417125,81.3061127346009 26.14457831531763,80.80362090561539 23.542168674990535,77.78866885369644 22.240963857620955,76.2811921350658 20.072289157658815,74.271222459618 18.771084336563945,73.2662373133935 16.602409640327096,71.25626640720293 16.602409640327096,64.22136176703498 18.33734939992428,62.71388089377433 22.240963857620955,60.70390567695722 24.40963855572045,59.69891776051372 28.746987951919436,58.19143550330773 30.91566265374422,56.18145843828097 33.08433734998107,54.67397510353476 34.81927710957825,53.668985954951495 40.02409638650715,51.659007045440376 43.060240963473916,56.683952781837434 55.2048192769289,56.683952781837434 59.542168674990535,59.196423726156354 64.74698795191944,66.23133554775268 66.48192771151662,67.23632212961093 74.72289156727493,67.73881534487009 75.15662650763988,72.26125196414068 72.55421686917543,75.77869979431853 70.3855421692133,76.78368442691863 66.91566265001893,79.79863709304482 59.97590361535549,82.3110962389037 58.24096385575831,84.32106263097376 57.37349397689104,85.82853688718751 53.469879519194365,88.34099295455962 49.56626506149769,88.34099295455962 45.66265060380101,85.82853688718751 44.36144578456879,84.82355410140008 40.02409638650715,83.31607953691855 35.68674698844552,83.81857111025602 33.08433734998107,82.81358791375533 30.91566265374422,81.808604513295 29.180722890421748,81.3061127346009 27.445783134549856,80.30112902494147 26.14457831531763,79.79863709304482 25.277108434587717,78.79365307744592 23.108433736488223,77.78866885369644 21.37349397689104,76.78368442691863 19.638554219156504,75.2762074014172 18.33734939992428,74.271222459618 16.602409640327096,73.2662373133935 14.433734942227602,67.73881534487009 15.301204819232225,66.733828864526 19.204819278791547,62.21138716721907 22.240963857620955,60.20141174457967 23.542168674990535,59.69891776051372 25.71084337309003,58.19143550330773 28.313253013417125,57.18644707277417 33.95180722884834,52.66399660194293 42.19277108646929,55.67896404489875 44.36144578456879,56.683952781837434 46.096385542303324,58.19143550330773 50.86746987886727,59.196423726156354 53.469879519194365,57.18644707277417 59.97590361535549,56.18145843828097 63.87951807305217,62.21138716721907 69.51807228848338,67.73881534487009 71.68674699030817,67.73881534487009 75.15662650763988,73.2662373133935 74.72289156727493,73.76872991304845 71.68674699030817,77.78866885369644 69.51807228848338,79.29614511085674 67.78313253261149,79.79863709304482 65.61445783264935,81.3061127346009 58.674698796123266,83.81857111025602 57.37349397689104,85.32604552060366 53.90361445955932,87.3360106809996 49.56626506149769,87.83850184222683 45.66265060380101,85.82853688718751 42.626506024971604,83.81857111025602 43.49397590383887,81.3061127346009 45.228915663436055,81.3061127346009 47.39759036153555,80.80362090561539 48.698795180767775,80.80362090561539 49.13253012299538,81.3061127346009 50.86746987886727,82.3110962389037 53.469879519194365,79.79863709304482 53.90361445955932,79.79863709304482 53.90361445955932,79.79863709304482 54.771084336563945,78.29116099094972 56.939759036526084,74.271222459618 60.40963855572045,70.75377355143428 65.61445783264935,70.75377355143428 69.08433735184371,73.2662373133935 64.74698795191944,77.28617666568607 64.74698795191944,72.7637446639128 67.34939759038389,71.75875921174884 68.2168674711138,75.2762074014172 65.1807228922844,77.78866885369644 66.04819277115166,72.7637446639128 69.51807228848338,73.76872991304845 70.8192771077156,73.2662373133935 73.42168674618006,73.76872991304845 76.02409638650715,75.77869979431853 71.25301204994321,77.78866885369644 71.25301204994321,77.78866885369644 73.85542168654501,77.28617666568607 75.5903614461422,77.78866885369644 78.19277108460665,78.29116099094972 80.7951807230711,78.29116099094972 82.09638554230332,78.29116099094972 83.39759036153555,78.79365307744592 84.26506024040282,77.78866885369644 86.0,77.28617666568607" stroke="#4dd2ff" stroke-linecap="round" stroke-linejoin="round" stroke-width="0.5"><title>2022-09-07 3.1km</title></polyline><polyline fill="none" points="121.8616805053316,77.62007602903759 122.96379338623956,77.53944973426405 123.85926010226831,77.29757079848787 125.37466531363316,76.89443906734232 127.02783463522792,78.26508607936557 127.16559874545783,74.8787772024516 127.02783463522792,74.15313762141159 127.16559874545783,73.2662438583211 129.3698245077394,72.54060273634968 131.78069643466733,72.1374684800976 132.538399040699,72.05684160301462 133.9849221969489,71.73433400958311 136.32691206922755,71.33119932527188 137.77343522571027,71.00869142386364 138.5311378315091,73.02436356147518 139.219958382193,75.44316306395922 139.4266045470722,76.1688014123938 139.90877893264405,78.50696470710682 140.11542509798892,79.39385234948713 140.73536359355785,80.92574674647767 140.6664815384429,81.49012811365537 140.8042456486728,83.18326969898771 141.21753797889687,85.03765853261575 141.28642003401183,85.76328771276167 141.6997123642359,88.18204664002405 141.63083030935377,88.26267180481227 141.8374764744658,89.0689229829004 142.11300469492562,89.8751733052195 142.18188674980775,90.11704823485343 142.31965086003765,90.43954802141525 142.45741497026756,90.68142277130391 142.59517908026464,91.0845471835928 143.35288168606348,90.43954802141525 145.28157922788523,87.77892068697838 146.65922032948583,86.9726681393804 147.8990973206237,86.73079220799264 148.5190358159598,86.81141752708936 149.69003075221553,86.65016688057221 150.58549746824428,86.56954154465348 152.2386667896062,86.24704011459835 153.75407200097106,86.08578934817342 154.30512844165787,86.00516395230079 154.30512844165787,85.9245385476388 154.6495387169998,85.76328771276167 156.44047214882448,85.60203684371663 157.33593886438757,85.36016047594603 158.98910818621516,85.19890952127753 159.746810792014,85.1182840312249 161.12445189338177,84.79578198492527 162.3643288842868,84.4732798015466 162.84650326985866,84.4732798015466 163.0531494349707,84.4732798015466 163.32867765519768,84.4732798015466 164.29302642610855,84.15077748132171 165.46402136259712,83.98952627007384 166.22172396816313,83.90890065138228 167.5993650695309,83.58639809145825 168.97700617089868,83.42514676012797 169.87247288646176,83.18326969898771 170.49241138226353,83.1026439947891 170.49241138226353,83.26389539474621 170.49241138226353,83.34452108171536 171.31899604317732,83.02201828209218 171.66340631828643,82.86076683091233 172.35222686920315,82.78014109266223 172.7655191991944,82.78014109266223 173.5232218054589,82.53826382587431 173.867632080568,82.69951534550637 173.72986797057092,82.4576380533399 173.66098591545597,82.29638648254331 173.93651413545012,82.37701227224898 173.79875002522022,81.97388323757332 173.109929475002,78.42633850657148 173.109929475002,78.1038336182828 172.7655191991944,77.62007602903759 172.7655191991944,76.57193352846662 172.48999097920023,76.81381269561825 172.14558070409112,76.9750654308009 172.21446275897324,77.05569178547012 172.83440125454217,75.84629556548316 172.48999097920023,74.95940377976513 172.07669864874333,73.66937751532532 172.00781659362838,72.78248318727128 171.66340631828643,71.08931841200683 171.38787809805945,70.2024210706004 170.90570371272042,67.94485952751711 170.49241138226353,65.60666371078696 170.35464727226645,64.8003876216244 170.14800110692158,63.59097188315354 170.28576521691866,62.945949368178844 170.21688316226937,62.70406578388065 170.21688316226937,62.54281001823256 170.0102369969245,61.978414568526205 169.4591805562377,60.68836625106633 169.25253439089283,60.04334127070615 168.97700617089868,58.26951974898111 168.83924206066877,57.86637791612884 168.97700617089868,57.86637791612884 168.7703600055538,57.30197899066843 168.56371384044178,56.656951133627445 168.56371384044178,56.415065545530524 168.3570676750969,56.011922728444915 168.2881856202148,55.528151064994745 168.21930356533267,55.286265117581934 168.0815394546371,54.88312170113204 167.94377534464002,54.076834225445054 167.87489328999072,53.75431899545947 167.80601123487577,53.3511747654411 167.73712917952798,52.86740140680922 167.6682471248787,52.464256705890875 167.73712917952798,52.22236978268484 167.5993650695309,51.899853765033185 167.39271890441887,50.3679008106119 166.7727804086171,48.51342730940087 166.56613424350508,47.545874119503424 166.3594880781602,46.25580128171714 166.29060602281243,45.852653070294764 166.15284191304818,45.04635600553593 166.08395985793322,44.24005808471702 165.9461957477033,43.91753867652733 165.87731369305402,43.5950191313168 165.87731369305402,43.27249944937648 165.67066752747633,42.949979630007874 165.6017854725942,42.546829663508106 165.6017854725942,42.14367948292056 166.15284191304818,42.14367948292056 166.15284191304818,42.06304942094721 165.11961108702235,40.6923370603472 164.70631875656545,39.07973111484898 164.56855464656837,38.43468777782982 164.3619084812235,35.451355214987416 164.15526231611148,34.80630879517412 163.8797340958845,34.0 163.8797340958845,34.72567795426585 163.94861615123227,35.048201266967226 164.22414437122643,35.451355214987416 164.29302642610855,35.451355214987416 164.15526231611148,35.53198597888695 164.15526231611148,35.612616734346375 164.3619084812235,35.451355214987416 164.15526231611148,35.85450894897804 164.22414437122643,36.177031782106496 164.49967259168625,36.177031782106496 164.43079053633846,36.66081577469595 164.3619084812235,36.98333826533053 164.3619084812235,37.22523004352115 164.49967259168625,37.547752294223756 164.49967259168625,38.595948663249146 164.49967259168625,38.837839927640744 164.43079053633846,39.1603614934138 164.77520081191324,39.72477390390122 164.91296492191032,39.9666648087441 165.05072903214023,40.531076619867235 165.05072903214023,40.77296726760687 165.11961108702235,41.01485783839598 165.11961108702235,41.25674833205994 165.25737519725226,41.579268870467786 165.25737519725226,41.65989898372209 165.3262572523672,41.98241935065016 165.46402136259712,42.30493958084844 165.6017854725942,42.62745967385126 165.80843163770624,43.27249944937648 165.80843163770624,43.5950191313168 165.9461957477033,44.15942824538797 165.9461957477033,44.15942824538797 166.08395985793322,44.48194755060831 166.08395985793322,44.88509648985928 166.29060602281243,45.53013434703462 166.22172396816313,46.33643089822726 166.0150778030511,46.65894927899353 165.80843163770624,46.820208418008406 165.53290341724642,46.90083797450643 165.3262572523672,47.303985629521776 165.3262572523672,47.1427265930688 165.53290341724642,46.90083797450643 166.15284191304818,46.73957885260461 166.428370133508,47.06209706212394 166.49725218839012,47.4652446313994 166.428370133508,47.545874119503424 166.63501629862003,48.02965086867334 166.63501629862003,48.27153912751237 166.70389835373498,48.6746860545245 166.9105445186142,49.23909139272291 166.97942657396197,49.56160854053451 167.11719068419188,49.884125551150646 167.2549547944218,50.206642425153404 167.32383684907109,50.448529990622774 167.53048301418312,51.416079481714405 168.0815394546371,54.560606813582126 168.21930356533267,55.20563645142829 168.7703600055538,56.89883664401714 168.9081241155509,57.70512112299912 169.1836523360107,58.43077642220305 169.52806261135265,60.20459756726632 169.5969446664676,60.76899433520157 169.7347087764647,61.414018699433655 169.87247288646176,62.38155421812553 170.0102369969245,62.945949368178844 170.0102369969245,63.429716305749025 170.07911905180663,63.913482934993226 170.35464727226645,64.63913230138132 170.56129343737848,65.36478097375948 170.49241138226353,65.60666371078696 170.49241138226353,65.92917390645016 170.56129343737848,66.17105646361597 170.63017549249344,66.41293894359842 170.69905754737556,66.65482134639751 170.76793960249051,66.97733109717956 170.76793960249051,67.2998407111154 170.83682165760547,67.2998407111154 170.97458576783538,67.94485952751711 170.97458576783538,68.18674144236138 170.97458576783538,68.5092505424982 171.11234987783246,68.83175950567238 171.1812319329474,68.99301393586211 171.31899604317732,69.47677702101646 171.7322883734014,71.65370709006675 172.35222686920315,73.99188428698108 172.42110892408527,74.79815061675617 173.0410474196542,76.9750654308009 173.17881152988411,76.81381269561825 173.24769358499907,76.81381269561825 173.24769358499907,76.89443906734232 173.66098591545597,77.13631813158281 173.592103860341,76.9750654308009 173.31657564011402,76.89443906734232 173.31657564011402,76.81381269561825 173.31657564011402,76.89443906734232 173.109929475002,77.37819711893098 172.97216536477208,77.70070231513819 173.109929475002,78.99072173150489 173.31657564011402,79.47447844751878 173.31657564011402,79.79698275349801 173.5232218054589,80.28073895600392 173.867632080568,80.28073895600392 173.66098591545597,80.44199095485965 173.592103860341,81.08699860866182 173.72986797057092,81.32887633744394 173.72986797057092,81.97388323757332 173.66098591545597,82.29638648254331 173.79875002522022,82.6188895899104 173.867632080568,82.94139256095514 174.2120423556771,83.50577243010048 174.48757057636976,83.74764938856242 174.48757057636976,83.82827502425062 174.48757057636976,83.74764938856242 174.5564526312519,84.39265423448524 174.625334686134,84.71515645179898 174.625334686134,85.1182840312249 174.625334686134,85.4407859405037 174.6942167414818,85.6826622824301 174.96974496170878,86.16641473554773 175.0386270165909,86.32766548485961 175.10750907170586,86.24704011459835 175.10750907170586,86.24704011459835 175.10750907170586,86.32766548485961 175.38303729193285,88.18204664002405 175.52080140216276,88.74642261461122 175.65856551239267,88.82704771938734 175.79632962238975,89.23017311602598 175.93409373261966,90.03642326692352 176.07185784284957,90.76204767095624 176.20962195284665,91.72954579768702 176.14073989749886,91.56829619547352 176.14073989749886,92.13266965345247 176.2785040079616,92.69704269181238 176.34738606284373,92.85829205444315 176.55403222795576,93.50328916253056 176.6917963384185,94.22891025384888 176.76067839330062,94.39015929109883 176.76067839330062,94.4707837968017 176.6917963384185,94.95453065191396 176.76067839330062,95.1964039640734 176.76067839330062,95.51890159328468 176.82956044841558,95.51890159328468 176.89844250353053,95.8413990859408 176.82956044841558,96.16389644157607 176.82956044841558,96.48639366019052 176.82956044841558,96.80889074190054 176.96732455841266,97.53450867469655 176.89844250353053,97.61513284686953 177.10508866864257,97.93762944918126 177.10508866864257,98.42137409601128 177.10508866864257,98.58262224291684 177.03620661376044,98.8244943995378 176.89844250353053,98.8244943995378 176.41626811795868,98.90511843463173 176.2785040079616,99.06636647885898 176.34738606284373,99.06636647885898 176.2785040079616,99.14699048810871 176.07185784284957,99.22761448903475 176.00297578750178,99.46948644006625 176.00297578750178,99.55011040647514 176.00297578750178,99.63073436438572 176.14073989749886,99.55011040647514 176.14073989749886,99.55011040647514 176.07185784284957,99.79198225494474 176.14073989749886,100.1144779327442 176.07185784284957,100.1144779327442 176.14073989749886,100.1144779327442 176.2785040079616,100.19510183099192 176.2785040079616,100.19510183099192 176.2785040079616,100.19510183099192 176.34738606284373,100.1144779327442 176.34738606284373,100.1144779327442 176.41626811795868,99.95323011110304 176.41626811795868,100.03385402617278 176.55403222795576,99.95323011110304 176.48515017330647,99.95323011110304 176.41626811795868,100.1144779327442 176.41626811795868,100.03385402617278 176.48515017330647,100.19510183099192 176.48515017330647,99.87260618718574 176.41626811795868,99.79198225494474 176.34738606284373,99.71135831420543 176.2785040079616,99.38886246504262 176.2785040079616,99.06636647885898 176.34738606284373,98.98574246081989 176.96732455841266,98.74387035577092 177.10508866864257,98.8244943995378 177.10508866864257,98.8244943995378 177.24285277887248,98.98574246081989 177.31173483398743,99.30823848117143 177.38061688886955,99.63073436438572 177.38061688886955,99.87260618718574 177.38061688886955,100.19510183099192 177.65614510909654,100.75946887786267 177.65614510909654,101.24321172724012 177.65614510909654,101.24321172724012 177.65614510909654,101.24321172724012 177.65614510909654,101.24321172724012 177.79390921932645,101.80757799523417 177.8627912744414,102.1300728173228 177.8627912744414,102.37194384395843 178.00055538467132,102.77506205049576 178.06943743955344,103.17818004317814 178.1383194946684,103.33942718018079 178.1383194946684,104.06503887369763 178.20720154955052,104.30690928408876 178.34496565978043,104.54877961735474 178.4138477151282,105.1131434289855 178.34496565978043,105.03252005315153 178.34496565978043,105.03252005315153 178.2760836048983,105.1131434289855 178.2760836048983,105.19376679655397 178.2760836048983,105.1131434289855 178.2760836048983,105.19376679655397 178.2760836048983,105.19376679655397 178.20720154955052,105.1131434289855 178.1383194946684,105.03252005315153 178.1383194946684,104.95189666841179 177.79390921932645,105.43563684733817 177.72502716444433,105.35501350573031 177.79390921932645,105.27439015527489 177.8627912744414,105.27439015527489 177.8627912744414,105.27439015527489 177.58726305421442,105.35501350573031 177.31173483398743,105.35501350573031 177.10508866864257,105.27439015527489 176.82956044841558,105.43563684733817 176.6917963384185,105.43563684733817 176.76067839330062,105.43563684733817 176.76067839330062,105.43563684733817 176.41626811795868,105.51626018050592 176.07185784284957,105.59688350529177 175.86521167727187,105.59688350529177 175.52080140216276,105.67750682140468 175.24527318193577,105.75813012890285 174.48757057636976,105.9193767181714 174.14316030102782,106.0 173.72986797057092,105.75813012890285 173.66098591545597,105.35501350573031 173.4543397501111,105.1131434289855 173.24769358499907,104.46815618139226 173.24769358499907,103.82316838623956 173.24769358499907,103.17818004317814 173.17881152988411,102.93630927312188 173.17881152988411,102.69443842634792 173.109929475002,102.45256750256522 173.0410474196542,102.21069650136633 172.97216536477208,101.88820171379484 172.90328330965713,101.56570678896969 172.48999097920023,99.87260618718574 172.42110892408527,99.79198225494474 172.35222686920315,99.55011040647514 172.14558070409112,98.8244943995378 172.07669864874333,98.90511843463173 171.8700524836313,97.77638116513845 171.66340631828643,97.61513284686953 171.66340631828643,96.88951499084942 171.7322883734014,96.97013923118357 171.66340631828643,96.97013923118357 171.52564220828936,95.8413990859408 171.52564220828936,95.35765279567568 171.52564220828936,95.11577953514643 171.25011398806237,94.4707837968017 171.1812319329474,94.22891025384888 171.11234987783246,93.90641207643785 171.0434678227175,93.66453835368156 170.97458576783538,93.42266455374192 170.83682165760547,92.61641799792415 170.63017549249344,91.97142013697885 170.56129343737848,91.56829619547352 170.35464727226645,91.32642172800843 170.28576521691866,90.92329744430026 170.21688316226937,90.52017294667894 170.21688316226937,90.35892308771145 169.7347087764647,89.63329829846043 169.94135494180955,89.14954805379966 169.7347087764647,88.90767281572334 169.52806261135265,88.98829790373566 169.1836523360107,89.0689229829004 168.83924206066877,89.14954805379966 168.56371384044178,89.391423214518 168.21930356533267,89.391423214518 167.6682471248787,89.71392330946401 167.186072739074,89.79454831156181 166.63501629862003,89.63329829846043 165.87731369305402,89.63329829846043 165.39513930724934,89.79454831156181 165.18849314237013,89.71392330946401 164.84408286679536,89.79454831156181 164.56855464656837,89.79454831156181 164.3619084812235,89.95579829020426 163.60420587542467,90.19767319440143 163.4664417654276,90.43954802141525 162.70873915986158,90.43954802141525 162.3643288842868,90.43954802141525 162.08880066429265,90.52017294667894 161.055569838034,90.92329744430026 160.71115956292488,90.92329744430026 160.36674928758293,91.0845471835928 159.746810792014,91.16517204017146 159.746810792014,91.24579688848462 159.12687229621224,91.40704655926675 158.71357996575534,91.4876713816193 158.23140558041632,91.64892100100406 157.95587736018933,91.64892100100406 157.54258502973244,91.72954579768702 157.33593886438757,91.72954579768702 157.06041064462624,91.72954579768702 156.7848824239336,91.89079536590725 156.44047214882448,91.89079536590725 156.23382598371245,92.05204489949392 155.6138874879107,92.13266965345247 155.26947721280158,92.13266965345247 154.85618488211185,92.13266965345247 154.5117746067699,92.21329439902911 153.82295405608602,92.13266965345247 152.7897232300602,92.3745438643382 152.3764308996033,92.45516858412884 152.03202062426135,92.53579329530476 151.68761034915224,92.61641799792415 151.27431801869534,92.61641799792415 149.7589128073305,92.85829205444315 149.48338458687067,92.85829205444315 149.07009225641377,92.77766737760976 148.79456403641962,92.85829205444315 148.2435075957328,92.93891672306927 147.96797937550582,92.93891672306927 146.86586649436504,93.42266455374192 146.17704594368115,93.74516293645138 144.73052278719842,94.87390619755024 144.04170223674737,94.63203278288711 143.83505607163534,93.8257875108975 143.9039381267503,93.50328916253056 143.28399963118136,92.45516858412884 143.14623552095145,92.13266965345247 143.0773534658365,91.8101705860463 142.93958935537376,91.40704655926675 142.87070730072446,91.32642172800843 142.2507688049227,91.4876713816193 141.9063585298136,91.40704655926675 141.9063585298136,91.40704655926675 141.6997123642359,91.40704655926675 141.5619482542388,91.4876713816193 141.21753797889687,91.56829619547352 140.87312770355493,91.72954579768702 140.52871742844582,91.8101705860463 139.8398968775291,91.97142013697885 139.49548660218716,91.97142013697885 138.80666605127044,92.05204489949392 138.25560961081646,92.21329439902911 137.63567111548036,92.21329439902911 137.0846146750264,92.21329439902911 136.87796850991435,92.2939191358164 136.2580300141126,92.45516858412884 135.5692094634287,92.61641799792415 135.1559171329718,92.53579329530476 134.88038891274482,92.61641799792415 134.6737427476328,92.61641799792415 134.32933247229084,92.69704269181238 133.91604014183395,92.69704269181238 133.6405119218398,92.69704269181238 132.9516913711559,92.85829205444315 132.67616315092891,92.85829205444315 132.33175287535414,92.85829205444315 132.26287082047202,92.93891672306927 131.84957849001512,93.10016603430267 131.50516821467318,93.10016603430267 130.74746560887434,93.18079067696817 129.9897630030755,93.26141531119356 129.57647067308426,93.3420399366878 129.3009424523916,93.3420399366878 128.6121219014749,93.50328916253056 128.33659368148074,93.66453835368156 128.06106546102092,93.74516293645138 127.78553724125959,93.8257875108975 127.57889107591473,93.90641207643785 127.23448080080561,93.98703663377091 126.47677819477394,93.98703663377091 126.27013202919625,94.06766118243104 126.27013202919625,94.14828572241822 126.27013202919625,93.98703663377091 125.7190755889751,94.06766118243104 124.68584476294927,93.90641207643785 124.06590626738034,93.8257875108975 123.7214959920384,93.8257875108975 123.44596777181141,93.8257875108975 122.89491133159027,93.98703663377091 123.03267544135451,93.74516293645138 123.23932160669938,93.58391376247164 123.1015574967023,92.85829205444315 123.17043955135159,92.53579329530476 122.96379338623956,92.21329439902911 122.89491133159027,91.89079536590725 122.7571472208947,91.4876713816193 122.7571472208947,91.16517204017146 122.61938311089762,90.52017294667894 122.68826516601257,89.8751733052195 122.55050105578266,89.63329829846043 122.48161900113337,89.391423214518 122.2749728357885,89.14954805379966 122.13720872532576,88.90767281572334 122.20609078044072,88.74642261461122 122.34385489090346,88.34329696110217 122.20609078044072,87.94017109385459 122.20609078044072,87.61767024616711 122.20609078044072,87.2145439935266 122.13720872532576,87.2145439935266 122.13720872532576,87.13391871744534 122.13720872532576,87.05329343286576 122.13720872532576,86.65016688057221 122.13720872532576,85.52141139638843 122.06832667067647,85.19890952127753 121.99944461532868,84.876407509204 121.99944461532868,84.55390536034247 121.99944461532868,84.4732798015466 121.8616805053316,83.90890065138228 121.7239163951017,83.1026439947891 121.65503434021957,82.78014109266223 121.65503434021957,82.37701227224898 121.58615228487179,82.0545090616215" stroke="#4dd2ff" stroke-linecap="round" stroke-linejoin="round" stroke-width="0.5"><title>2022-09-04 4.0km</title></polyline><polyline fill="none" points="78.2857142854482,164.59743711852934 70.74285714328289,131.82771780632902 77.59999999962747,162.41280633828137 75.37142857164145,162.61140923725907 81.02857142779976,165.98765542800538 65.94285714253783,159.4337604115717 38.8571428572759,158.6393473938806 58.05714285746217,161.22118851495907 78.97142857126892,166.1862579633016 75.88571428600699,164.20023170451168 16.057142856530845,149.90078278875444 14.342857142910361,149.50357437389903 14.0,149.30497013614513 16.057142856530845,149.90078278875444 16.057142856530845,149.90078278875444 16.057142856530845,150.09938696585596 49.82857142854482,161.02258547383826 62.34285714291036,158.83795067854226 79.82857142854482,165.39184770279098 76.57142857089639,164.00162896700203 81.7142857145518,166.3848604769446 77.08571428619325,164.20023170451168 81.54285714309663,166.1862579633016 76.74285714235157,164.20023170451168 78.79999999981374,164.99464245105628 75.7142857145518,163.80302620923612 78.97142857126892,165.19324508681893 71.42857142817229,161.8169975177152 16.057142856530845,150.09938696585596 16.057142856530845,150.09938696585596 16.057142856530845,150.09938696585596 21.714285714551806,150.695199374808 59.59999999962747,162.41280633828137 68.68571428582072,162.81001211726107 78.97142857126892,165.19324508681893 75.88571428600699,163.80302620923612 86.0,168.17228219355457 78.2857142854482,164.79603979492094 79.1428571427241,165.19324508681893 76.05714285746217,163.80302620923612 78.97142857126892,165.19324508681893" stroke="#4dd2ff" stroke-linecap="round" stroke-linejoin="round" stroke-width="0.5"><title>2022-07-31 3.1km</title></polyline><polyline fill="none" points="186.0,141.9027379139734 185.6766839378979,142.07351271272637 185.0051813472528,142.27274985209806 184.30880829016678,142.301212289487 183.93575129541568,142.301212289487 183.41347150260117,142.27274985209806 183.28911917097867,142.27274985209806 183.13989637303166,142.27274985209806 183.01554404152557,142.27274985209806 182.89119170990307,142.24428741188603 182.31917098443955,142.21582496888004 182.19481865281705,142.21582496888004 181.92124352324754,142.1873625231965 181.32435233169235,142.1589000747481 181.00103626935743,142.1304376234475 180.32953367882874,142.07351271272637 179.88186528498773,142.1589000747481 179.90673575142864,142.4150620115688 180.15544041444082,142.9558475872327 180.23005181341432,143.0981594149489 180.30466321238782,143.21200882745325 180.40414507768583,143.38278286310378 180.40414507768583,143.35432053066324 180.55336787574925,143.6389437300386 180.62797927460633,143.89510437301942 180.57823834195733,143.9520289299835 180.62797927460633,143.86664209037554 179.68290155450813,141.6181130282639 178.6632124352036,141.58965052451822 178.315025906777,141.6181130282639 177.6435233161319,141.7035005230573 177.2953367875889,141.7888879928796 176.6487046632683,141.84581295895623 176.32538860104978,141.87427543790545 175.67875647661276,141.98812532576267 174.70880829019006,142.07351271272637 174.46010362706147,142.10197516946937 173.96269430045504,142.1873625231965 173.73886010365095,142.21582496888004 173.51502590673044,142.24428741188603 173.06735751288943,142.35813715602853 172.86839378240984,142.4150620115688 172.64455958548933,142.50044927408453 172.24663212441374,142.6996861231455 172.02279792749323,142.7850733026571 171.79896373057272,142.87046045743045 171.40103626949713,143.06969705494703 171.20207253890112,143.18354647845263 171.00310880830511,143.32585819557426 170.3564766839845,143.43970751954475 170.1077720207395,143.35432053066324 169.5606217617169,143.15508412665804 169.2870466321474,143.06969705494703 168.7150259068003,142.92738521340652 168.41658031090628,142.87046045743045 167.76994818658568,142.64276132298983 167.52124352322426,142.55737410191796 166.92435233166907,142.35813715602853 166.65077720221598,142.27274985209806 166.10362694307696,142.10197516946937 165.83005181350745,141.98812532576267 165.45699481863994,141.87427543790545 165.23316062183585,141.81735047727125 165.00932642491534,141.7604255056358 164.61139896372333,141.6181130282639 164.41243523312733,141.56118801792036 164.21347150264774,141.4473379641131 163.74093264259864,141.33348786612623 163.51709844567813,141.2765628005145 163.31813471508212,141.21963772387244 162.9202072538901,141.07732498380938 162.7212435232941,141.0203998683719 162.52227979281452,140.96347474202048 162.099481865298,140.79269929634756 161.8756476683775,140.73577412572922 161.651813471457,140.678848943935 161.0300518134609,140.4796107208531 160.8559585493058,140.42268548943684 160.6072538860608,140.36576024687383 160.20932642486878,140.22344709205208 159.9854922280647,140.1665218108683 159.76165803114418,140.10959651845042 159.38860103627667,139.99574590072734 158.99067357520107,139.93882057524752 158.79170984460507,139.9672832393553 158.51813471503556,139.91035790831666 158.56787564780097,139.88189523870824 158.61761658033356,139.91035790831666 158.64248704665806,139.85343256630586 158.66735751298256,139.73958184890216 158.69222797930706,139.56880569001078 158.71709844563156,139.17032759872382 158.71709844563156,139.17032759872382 158.66735751298256,139.4264921482245 158.64248704665806,139.54034298713668 158.66735751298256,139.5972683901491 158.64248704665806,139.71111916270456 158.31917098443955,139.91035790831666 158.14507772028446,139.88189523870824 157.89637305703945,139.91035790831666 157.42383419699036,139.93882057524752 157.20000000006985,139.93882057524752 156.95129533682484,139.93882057524752 156.50362694298383,139.93882057524752 156.27979274617974,139.93882057524752 156.05595854925923,139.9672832393553 155.60829015541822,139.9672832393553 155.35958549228963,139.99574590072734 155.13575129536912,139.99574590072734 154.68808290164452,139.99574590072734 154.464248704724,140.0242085593054 154.2901554404525,139.99574590072734 153.8424870467279,140.0242085593054 153.6435233160155,139.99574590072734 153.41968911909498,140.0242085593054 152.97202072537038,140.0242085593054 152.7730569948908,140.0526712151477 152.57409326417837,140.0526712151477 151.92746113985777,140.08113386819605 151.72849740937818,140.08113386819605 151.45492227980867,140.08113386819605 151.00725388608407,140.10959651845042 150.78341968916357,140.10959651845042 150.60932642489206,140.10959651845042 150.18652849749196,140.08113386819605 149.73886010365095,140.13805916605634 149.53989637305494,140.10959651845042 149.29119170992635,140.1665218108683 148.84352331608534,140.1665218108683 148.61968911916483,140.13805916605634 148.42072538868524,140.13805916605634 148.0227979273768,140.13805916605634 147.79896373057272,140.13805916605634 147.64974093274213,140.13805916605634 147.50051813479513,140.1665218108683 147.37616580317263,140.1665218108683 147.20207253890112,140.1665218108683 147.10259067360312,140.1665218108683 147.00310880830511,140.1665218108683 146.8787564766826,140.1665218108683 146.8290155440336,140.1665218108683 146.8538860103581,140.1665218108683 146.72953367885202,140.1665218108683 146.65492227987852,140.1665218108683 146.50569948193152,140.19498445285717 146.3564766839845,140.1665218108683 145.7595854923129,140.22344709205208 145.5108808290679,140.22344709205208 145.26217616570648,140.25190972856944 144.8642487047473,140.25190972856944 144.61554404138587,140.25190972856944 144.36683937825728,140.25190972856944 143.49637305701617,140.30883499325137 143.29740932642017,140.28037236226373 142.97409326431807,140.30883499325137 142.52642487047706,140.33729762138682 142.32746113999747,140.30883499325137 142.12849740940146,140.33729762138682 141.70569948188495,140.33729762138682 141.53160621761344,140.33729762138682 141.33264248713385,140.33729762138682 141.08393782377243,140.33729762138682 140.90984455961734,140.30883499325137 140.81036269431934,140.30883499325137 140.71088082902133,140.33729762138682 140.68601036269683,140.28037236226373 140.68601036269683,140.28037236226373 140.71088082902133,140.28037236226373 140.53678756474983,140.33729762138682 140.43730569945183,140.33729762138682 140.33782383415382,140.33729762138682 140.36269430059474,140.33729762138682 140.38756476680283,140.33729762138682 140.43730569945183,140.30883499325137 140.43730569945183,140.30883499325137 140.43730569945183,140.30883499325137 140.43730569945183,140.30883499325137 140.43730569945183,140.30883499325137 140.43730569945183,140.30883499325137 140.43730569945183,140.30883499325137 140.43730569945183,140.28037236226373 140.43730569945183,140.28037236226373 140.43730569945183,140.28037236226373 140.33782383415382,140.30883499325137 140.11398963734973,140.33729762138682 139.86528497410472,140.33729762138682 139.4673575129127,140.36576024687383 139.04455958551262,140.36576024687383 138.84559585503303,140.39422286947956 138.62176165811252,140.36576024687383 138.1740932642715,140.39422286947956 137.950259067351,140.39422286947956 137.7264248705469,140.39422286947956 137.3036269430304,140.42268548943684 137.0797927462263,140.42268548943684 136.88082901551388,140.42268548943684 136.45803108811378,140.42268548943684 136.25906735751778,140.42268548943684 135.98549222794827,140.45114810648374 135.53782383422367,140.4796107208531 135.31398963730317,140.4796107208531 134.64248704665806,140.53653594126808 134.49326424871106,140.50807333248667 134.39378238352947,140.53653594126808 134.24455958558246,140.53653594126808 134.09533678751905,140.50807333248667 133.77202072541695,140.4796107208531 133.62279792746995,140.4796107208531 133.49844559584744,140.4796107208531 133.37409326422494,140.4796107208531 133.27461139904335,140.4796107208531 133.02590673579834,140.4796107208531 132.92642487050034,140.4796107208531 132.82694300531875,140.4796107208531 132.70259067369625,140.50807333248667 132.62797927472275,140.53653594126808 132.37927461136132,140.53653594126808 132.23005181341432,140.53653594126808 132.05595854937565,140.56499854737194 131.90673575131223,140.53653594126808 131.55854922276922,140.56499854737194 131.45906735758763,140.56499854737194 131.26010362699162,140.59346115062363 131.13575129548553,140.59346115062363 131.03626943007112,140.59346115062363 130.9367875647731,140.62192375122686 130.83730569959152,140.62192375122686 130.7129533678526,140.62192375122686 130.61347150267102,140.62192375122686 130.3896373057505,140.65038634897792 130.265284974128,140.678848943935 130.1906735751545,140.678848943935 130.06632124364842,140.70731153621455 129.9419689119095,140.70731153621455 129.51917098439299,140.70731153621455 129.3699481865624,140.70731153621455 129.2207253886154,140.73577412572922 129.0715025907848,140.73577412572922 128.9222797928378,140.73577412572922 128.87253886007238,140.73577412572922 128.7979274612153,140.76423671242082 128.7233160622418,140.76423671242082 128.6238341969438,140.79269929634756 128.5243523316458,140.79269929634756 128.40000000002328,140.79269929634756 128.3005181348417,140.79269929634756 128.20103626942728,140.82116187748034 128.1015544042457,140.82116187748034 127.85284974100068,140.84962445593555 127.75336787570268,140.8780870315968 127.57927461143117,140.8780870315968 127.43005181348417,140.9065496045223 127.25595854932908,140.9065496045223 126.75854922272265,140.93501217468292 126.53471502591856,140.93501217468292 126.31088082899805,140.96347474202048 125.88808290159795,140.99193730656407 125.68911917100195,141.0203998683719 125.49015544052236,141.0203998683719 124.96787564782426,141.07732498380938 124.66943005193025,141.07732498380938 123.99792746116873,141.1342500881001 123.72435233159922,141.1627126361127 123.27668393787462,141.19117518133135 122.60518134722952,141.24810026353225 121.983419689117,141.2765628005145 121.83419689128641,141.305025334761 121.6601036270149,141.2765628005145 121.5357512953924,141.305025334761 121.11295336787589,141.33348786612623 120.96373056992888,141.33348786612623 120.8393782384228,141.33348786612623 120.54093264252879,141.3619503947848 120.39170984458178,141.3904129206203 120.26735751295928,141.41887544377823 120.11813471501227,141.4473379641131 119.96891191706527,141.47580048174132 119.72020725393668,141.53272550867405 119.59585492231417,141.58965052451822 119.29740932642017,141.6750380275189 119.17305699479766,141.73196301574353 119.04870466317516,141.7888879928796 118.92435233166907,141.81735047727125 118.80000000016298,141.9027379139734 118.52642487047706,141.98812532576267 118.40207253885455,142.0450502531312 118.27772020734847,142.10197516946937 118.15336787572596,142.1589000747481 118.00414507777896,142.24428741188603 117.75544041453395,142.386599585152 117.63108808291145,142.47198685599142 117.50673575140536,142.55737410191796 117.38238341978285,142.64276132298983 117.25803108816035,142.6996861231455 117.03419689123984,142.84199807533878 116.95958549226634,142.92738521340652 116.86010362696834,143.0127723266196 116.73575129546225,143.0981594149489 116.63626943004783,143.18354647845263 116.43730569956824,143.35432053066324 116.36269430059474,143.41124519272125 116.28808290162124,143.49663216486806 116.21347150264774,143.55355679921922 116.16373056999873,143.6389437300386 116.03937823849265,143.72433063588687 116.03937823849265,143.72433063588687 115.93989637307823,143.86664209037554 115.84041450778022,143.92356665284024 115.79067357513122,144.00895347585902 115.66632124362513,144.17972704715794 115.69119170983322,144.1512647921336 115.54196891188622,144.37896275447565 115.44248704670463,144.46434944472276 115.36787564773113,144.57819832634414 115.24352331610862,144.7489715659176 115.29326424875762,144.72050936616142 115.31813471508212,144.72050936616142 115.26839378243312,144.72050936616142 115.26839378243312,144.72050936616142 115.26839378243312,144.72050936616142 115.06943005183712,145.0051312384894 114.96994818665553,145.20436638465617 114.84559585491661,145.43206352874404 114.59689119178802,145.97284353678697 114.54715025913902,146.17207802497433 114.37305699486751,146.65593264673953 114.27357512956951,146.85516667054617 114.198963730596,147.33902016450884 114.149222797947,147.5667156499112 114.099481865298,147.82287285945495 114.0,148.477495822357 114.0,148.5913431448571 114.0,148.67672860776656 114.0,148.76211404573405 114.0,148.84749945890508 114.0,148.98980842539459 114.0,149.07519377220888 114.0,149.44519665409462 114.0248704663245,149.72981393762166 114.07461139908992,149.92904587162775 114.0248704663245,149.9005841751059 114.0,150.09981599301682 114.0,150.2421243514109 114.0248704663245,150.3844326408289 114.049740932649,150.4698175812373 114.049740932649,150.5836641297792 114.07461139908992,150.75443386964616 114.12435233173892,151.40905028409907 114.12435233173892,151.69366566033568 114.149222797947,152.17751116570435 114.149222797947,152.2628955836699 114.149222797947,152.34827997678076 114.1740932642715,152.49058724343195 114.149222797947,152.60443300692714 114.1740932642715,152.71827872624272 114.1740932642715,152.77520156934042 114.1740932642715,153.0028928310785 114.198963730596,153.14519977979944 114.2238341969205,153.37289075402077 114.27357512956951,154.16980777090066 114.29844559589401,154.51134297187673 114.32331606221851,155.19441217984422 114.37305699486751,155.53594618677744 114.39792746119201,156.16209083251306 114.44766839384101,156.44670159296948 114.57202072546352,157.357454168814 114.59689119178802,157.67052471305942 114.6466321243206,158.23974302777788 114.67150259076152,158.4389691767865 114.67150259076152,158.55281262969947 114.79585492226761,159.29279399558436 114.82072538870852,159.4066371168301 114.84559585491661,159.548940956156 114.87046632124111,159.66278397792485 114.87046632124111,159.77662695545587 114.89533678756561,159.91893061518203 114.89533678756561,159.91893061518203 114.92020725400653,159.97585205972428 115.16891191713512,159.86200915960944 115.26839378243312,159.83354842764675 115.29326424875762,159.83354842764675 115.31813471508212,159.8050876929192 115.31813471508212,159.74816621516948 115.29326424875762,159.66278397792485 115.29326424875762,159.6058624726429 115.26839378243312,159.5204801937798 115.26839378243312,159.5204801937798 115.26839378243312,159.46355866084923 115.26839378243312,159.4066371168301 115.24352331610862,159.37817634062958 115.24352331610862,159.32125477999216 115.24352331610862,159.2643332084117 115.21865284978412,159.20741162559716 115.24352331610862,159.1789508301008 115.21865284978412,159.09356842699344 115.21865284978412,159.06510762046673 115.21865284978412,158.9797251841519 115.31813471508212,158.9797251841519 115.39274611393921,158.9797251841519 115.46735751302913,158.9797251841519 115.49222797935363,158.95126436656574 115.56683937832713,158.95126436656574 115.56683937832713,158.95126436656574 115.59170984465163,158.95126436656574 115.59170984465163,158.95126436656574 115.64145077718422,158.9797251841519 115.64145077718422,158.9797251841519 115.66632124362513,159.0081859989732 115.66632124362513,159.03664681111695 115.66632124362513,159.06510762046673 115.69119170983322,159.06510762046673 115.69119170983322,159.06510762046673 115.66632124362513,159.15049003186869 115.66632124362513,159.1789508301008 115.69119170983322,159.23587241844507 115.69119170983322,159.2643332084117 115.69119170983322,159.29279399558436 115.71606217615772,159.46355866084923 115.74093264248222,159.6058624726429 115.76580310880672,159.71970547223464 115.79067357513122,159.86200915960944 115.79067357513122,160.00431277783355 115.81554404157214,160.2889198071207 115.84041450778022,160.37430186197162 115.86528497410472,160.34584117980557 115.84041450778022,160.43122321806732 115.84041450778022,160.54506589710945 115.86528497410472,160.63044787736726 115.89015544054564,160.7158298327413 115.91502590675373,160.82967240127618 115.89015544054564,160.80121176331886 115.89015544054564,160.80121176331886 115.84041450778022,160.43122321806732 115.81554404157214,160.34584117980557 115.81554404157214,160.26045911660185 115.81554404157214,160.14661632699426 115.81554404157214,160.14661632699426 115.84041450778022,160.14661632699426 115.84041450778022,160.08969491560129 115.81554404157214,160.14661632699426 115.79067357513122,160.14661632699426 115.79067357513122,160.14661632699426 115.81554404157214,160.14661632699426 115.79067357513122,160.14661632699426 115.79067357513122,160.17507702857256 115.81554404157214,160.14661632699426 115.81554404157214,160.14661632699426 115.81554404157214,160.4027625414601 115.81554404157214,160.43122321806732 115.84041450778022,160.43122321806732 115.84041450778022,160.4027625414601 115.86528497410472,160.37430186197162 115.86528497410472,160.37430186197162 115.86528497410472,160.37430186197162 115.86528497410472,160.37430186197162 115.86528497410472,160.37430186197162 115.86528497410472,160.37430186197162 115.86528497410472,160.37430186197162 115.86528497410472,160.37430186197162 115.86528497410472,160.37430186197162 115.89015544054564,160.37430186197162 115.89015544054564,160.37430186197162 115.86528497410472,160.37430186197162 115.86528497410472,160.37430186197162 115.86528497410472,160.37430186197162 115.86528497410472,160.37430186197162 115.84041450778022,160.37430186197162 115.84041450778022,160.37430186197162 115.84041450778022,160.4027625414601 115.84041450778022,160.4027625414601 115.81554404157214,160.4027625414601 115.81554404157214,160.4027625414601 115.81554404157214,160.43122321806732 115.84041450778022,160.45968389196787 115.84041450778022,160.45968389196787 115.84041450778022,160.45968389196787 115.84041450778022,160.45968389196787 115.81554404157214,160.43122321806732 115.81554404157214,160.4027625414601 115.81554404157214,160.34584117980557 115.84041450778022,160.2889198071207 115.84041450778022,160.2889198071207 115.84041450778022,160.2889198071207 115.76580310880672,159.8050876929192 115.76580310880672,159.74816621516948 115.76580310880672,159.69124472644762 115.74093264248222,159.6058624726429 115.74093264248222,159.548940956156 115.74093264248222,159.46355866084923 115.74093264248222,159.4066371168301 115.71606217615772,159.4066371168301 115.74093264248222,159.3497155617224 115.71606217615772,159.32125477999216 115.71606217615772,159.32125477999216 115.74093264248222,159.29279399558436 115.74093264248222,159.2643332084117 115.74093264248222,159.2643332084117 115.71606217615772,159.23587241844507 115.69119170983322,159.20741162559716 115.69119170983322,159.1789508301008 115.69119170983322,159.15049003186869 115.69119170983322,159.1220292308426 115.69119170983322,159.06510762046673 115.69119170983322,159.03664681111695 115.69119170983322,159.0081859989732 115.69119170983322,159.0081859989732 115.64145077718422,158.9228035462147 115.61658031085972,158.9228035462147 115.61658031085972,158.95126436656574 115.61658031085972,158.95126436656574 115.61658031085972,158.9797251841519 115.54196891188622,158.9797251841519 115.34300518129021,159.0081859989732 115.26839378243312,159.0081859989732 115.24352331610862,159.0081859989732 115.24352331610862,158.9797251841519 115.29326424875762,158.9797251841519 115.29326424875762,158.9797251841519 115.29326424875762,159.0081859989732 115.24352331610862,158.9797251841519 115.24352331610862,159.03664681111695 115.24352331610862,159.1220292308426 115.26839378243312,159.20741162559716 115.24352331610862,159.29279399558436" stroke="#4dd2ff" stroke-linecap="round" stroke-linejoin="round" stroke-width="0.5"><title>2022-07-25 3.9km</title></polyline><polyline fill="none" points="14.064285714644939,215.81266509438865 14.321428571362048,214.99342512281146 14.192857143003494,212.3122696916107 15.028571428498253,211.56750254530925 15.028571428498253,210.30139665136812 15.671428571688011,213.1315126743866 14.0,215.58923610241618 15.864285714458674,216.63190414605197 16.50714285718277,217.7490468248143 17.214285714086145,217.89799905277323 17.471428571501747,217.5256184260361 17.792857142863795,217.07876142283203 18.628571428824216,216.70638037775643 21.457142857136205,214.84447230165824 24.09285714291036,212.6846529796021 25.314285714179277,211.19511868688278 25.25000000023283,213.87627822393551 25.635714285774156,215.06790152174653 27.307142857229337,213.42941898549907 27.692857142770663,214.54656656854786 28.271428571548313,213.7273251749575 30.32857142877765,214.69551945023704 31.357142857043073,215.2168542969739 33.15714285732247,215.3658070419333 33.864285714458674,217.07876142283203 35.40714285708964,217.89799905277323 34.700000000186265,218.56828370178118 35.66428571450524,218.04695125017315 36.56428571441211,219.83437524770852 37.85000000009313,223.1113078687922 38.75000000023283,224.22844062530203 38.75000000023283,225.12214559857966 37.01428571436554,228.02667920081876 37.4000000001397,227.87772904121084 39.00714285718277,226.53717623394914 40.48571428563446,226.0903247508104 40.550000000046566,226.0158494770876 37.97857142868452,227.72877885092748 38.42857142887078,228.54800452076597 42.6071428572759,228.17562933027511 43.76428571459837,227.2819280975964 45.5,228.47352949797641 44.47142857173458,231.2291002817219 44.60000000009313,230.4843524475 46.4000000001397,229.6651289521251 45.82142857136205,231.00567601120565 42.47857142868452,234.28255845268723 39.77857142849825,234.58045612636488 41.449999999953434,234.58045612636488 43.50714285718277,232.19727132940898 43.76428571459837,235.548622726521 60.35000000009313,236.3678396154428 62.60000000032596,236.2933653909131 60.09285714267753,240.16601498995442 60.028571428731084,234.9528280478553 57.71428571455181,231.89937268215 49.550000000046566,236.14441691886168 50.0,232.2717459720443 43.76428571459837,233.83571171364747 42.028571428731084,237.63390027085552 50.96428571455181,228.69695454399334 47.10714285704307,231.2291002817219 44.34285714314319,232.34622060722904 45.24285714305006,231.00567601120565 46.4000000001397,230.26092794910073 38.23571428563446,232.34622060722904 37.785714285681024,233.76123723061755 37.785714285681024,234.9528280478553 44.92142857145518,230.33540278940927 46.207142857136205,230.4843524475 45.114285714458674,230.6333020752063 42.86428571422584,229.36722927103983 46.207142857136205,227.80325394973624 46.97857142868452,226.8350770706893 47.300000000046566,226.76060187298572 50.192857143236324,226.31375052669318 48.457142857369035,228.02667920081876 48.90714285708964,228.69695454399334 50.51428571459837,230.6333020752063 51.028571428731084,230.85672645957675 53.1500000001397,232.79306825844105 53.92142857145518,233.46333922212943 54.17857142887078,233.53781373560196 54.43571428558789,233.83571171364747 55.07857142854482,234.28255845268723 57.32857142877765,234.9528280478553 57.6500000001397,235.39967410248937 58.42142857122235,236.14441691886168 58.871428571408615,236.5167880419176 59.57857142854482,238.15521872544196 59.964285714318976,239.27232844551327 60.800000000046566,240.7618054114282 61.121428571641445,241.13417417771416 64.46428571431898,242.9960151584819 64.91428571427241,243.21943575702608 66.20000000018626,243.5918032688205 67.2928571428638,243.81522368465085 67.87142857164145,244.1875908926013 69.02857142873108,244.70890466443961 69.28571428568102,244.70890466443961 69.54285714309663,245.00679808104178 69.80000000051223,245.6025845494005 69.99285714305006,245.75153109029634 70.31428571464494,245.97495084494585 70.37857142882422,246.04942408122588 70.50714285718277,246.12389731005533 70.70000000018626,246.19837053108495 70.9571428571362,246.34731695055962 71.08571428596042,246.5707365226117 71.60000000032596,246.79415602621157 71.7928571428638,246.94310232420685 71.98571428610012,247.16652171383612 72.24285714281723,247.31546793546295 72.62857142859139,247.46441412699642 72.88571428577416,247.53888721123803 73.20714285736904,247.83677947241813 73.33571428572759,247.91125251870835 73.4642857145518,247.91125251870835 73.59285714314319,248.06019858829677 74.1071428572759,248.2091446276754 74.36428571445867,248.50703661510488 74.81428571441211,248.87940142833395 75.20000000018626,249.1028202251764 75.32857142854482,249.02834730048198 75.6500000001397,249.1028202251764 75.84285714314319,249.251766051515 76.03571428591385,249.32623895345023 76.35714285750873,249.40071184758563 76.48571428586729,249.47518473438686 77.00000000023283,249.47518473438686 77.32142857159488,249.32623895345023 77.89999999990687,249.32623895345023 78.35000000032596,249.47518473438686 78.8000000002794,249.47518473438686 78.8000000002794,249.62413048482267 79.18571428605355,249.69860334857367 79.69999999995343,249.62413048482267 80.02142857154831,249.54965761327185 80.27857142849825,249.62413048482267 80.53571428591385,249.54965761327185 80.72857142891735,249.40071184758563 80.8571428572759,249.47518473438686 81.05000000004657,249.40071184758563 81.50000000023283,249.32623895345023 81.56428571417928,249.251766051515 81.88571428600699,249.251766051515 82.27142857131548,249.1772931421874 82.52857142873108,249.1772931421874 82.78571428614669,249.1772931421874 83.1071428572759,249.02834730048198 83.42857142863795,248.95387436827878 83.62142857164145,248.87940142833395 83.75,248.87940142833395 84.45714285736904,248.95387436827878 84.77857142896391,249.02834730048198 85.03571428568102,249.02834730048198 84.90714285732247,249.1028202251764 85.22857142891735,248.95387436827878 85.5500000002794,249.02834730048198 85.74285714305006,249.02834730048198 86.0,249.02834730048198 85.67857142887078,249.02834730048198 85.35714285750873,249.02834730048198 85.29285714309663,249.02834730048198 85.10000000009313,249.02834730048198 84.97142857173458,249.02834730048198 84.45714285736904,248.87940142833395 84.39285714318976,248.80492848076392 84.20000000018626,248.80492848076392 83.94285714277066,248.73045552585972 83.3000000002794,248.87940142833395 82.20714285736904,249.32623895345023 81.94999999995343,249.1772931421874 81.56428571417928,249.1028202251764 80.66428571427241,249.1772931421874 80.02142857154831,249.32623895345023 79.4428571430035,249.32623895345023 79.25000000023283,249.40071184758563 78.47857142868452,249.62413048482267 77.7071428571362,249.69860334857367 77.32142857159488,249.62413048482267 77.06428571441211,249.54965761327185 76.42142857168801,249.40071184758563 76.35714285750873,249.32623895345023 76.2928571428638,249.32623895345023 74.81428571441211,248.95387436827878 74.23571428563446,248.50703661510488 73.65714285708964,248.06019858829677 73.33571428572759,247.98572555731516 73.07857142877765,247.91125251870835 72.7571428574156,247.68783335702028 72.17857142863795,247.31546793546295 72.05000000004657,247.16652171383612 71.72857142868452,247.01757546170847 71.1500000001397,246.64520969823934 70.82857142877765,246.49626333959168 70.63571428600699,246.34731695055962 70.37857142882422,246.34731695055962 70.05714285722934,246.34731695055962 69.54285714309663,245.6770578236319 69.35000000009313,245.6025845494005 69.09285714314319,245.3046913758153 68.45000000018626,244.93232473841636 67.80714285746217,244.70890466443961 67.74285714305006,244.55995791044552 67.61428571422584,244.48548452212708 67.22857142868452,244.0386440322618 66.65000000037253,243.5918032688205 66.32857142877765,243.44285628694342 65.68571428582072,243.1449622316868 65.30000000004657,242.92154161055805 64.91428571427241,242.6981209209771 64.46428571431898,242.32575295260176 64.52857142849825,242.17680571228266 64.52857142849825,241.80443747818936 64.4000000001397,241.65549013123382 64.46428571431898,241.2831216310733 64.46428571431898,241.13417417771416 64.07857142877765,240.7618054114282 63.75714285764843,240.68733163550496 62.535714285681024,241.20864790835185 62.14999999990687,240.9852266939124 61.82857142877765,239.64469797199126 61.82857142877765,239.34680236590793 61.31428571464494,238.82548476272495 61.121428571641445,238.97443268750794 60.542857143096626,238.89995872875443 59.964285714318976,238.37864080624422 59.77142857154831,238.00627063354477 59.19285714300349,237.33600384369493 59.0,236.8146848034812 58.74285714305006,236.4423138325801 57.90714285708964,236.2188911587582 57.39285714295693,235.4741484184633 57.32857142877765,235.17625110963127 57.39285714295693,234.72940491797635 57.26428571413271,234.80387930222787 56.68571428582072,234.9528280478553 56.300000000046566,234.80387930222787 56.1071428572759,234.72940491797635 55.85000000032596,234.50598171941238 55.33571428596042,234.05913511727704 55.07857142854482,233.98466065706452 54.950000000186265,233.9101861891104 54.75714285718277,233.83571171364747 54.628571428591385,233.6122882415657 54.30714285722934,233.46333922212943 53.40714285732247,233.01649198139785 53.1500000001397,232.86754284030758 52.76428571413271,232.64411907171598 52.44285714277066,232.34622060722904 52.378571428824216,232.2717459720443 52.31428571441211,231.89937268215 52.18571428582072,231.75042331317673 51.99285714305006,231.37804975704057 51.542857142863795,231.2291002817219 51.285714285913855,231.00567601120565 51.028571428731084,231.00567601120565 50.32142857159488,230.7822516724118 49.80714285746217,230.7822516724118 49.16428571427241,230.26092794910073 49.035714285913855,229.8140787468874 49.035714285913855,229.51617912651272 48.77857142849825,229.2182793848915 48.6500000001397,229.14380443032132 48.32857142854482,228.9948544985382 48.07142857159488,228.62247953610495 47.81428571441211,228.54800452076597 47.49285714281723,228.17562933027511 47.10714285704307,228.02667920081876 46.46428571455181,227.9522041248274 46.27142857154831,227.9522041248274 46.27142857154831,227.6543037443189 46.07857142877765,227.2074529454112 45.82142857136205,227.13297778571723 45.628571428824216,226.9095522609423 45.24285714305006,226.1648000171408 44.92142857145518,225.56899767456343 44.66428571427241,225.49452234763885 43.957142857369035,225.42004701308906 43.31428571441211,225.42004701308906 42.8000000002794,224.97319484571926 42.542857142863795,224.52634240454063 42.41428571450524,224.52634240454063 42.15714285708964,224.30291608150583 41.64285714295693,223.4836856443435 41.51428571459837,223.33473455684725 41.06428571417928,223.03683229081798 40.80714285722934,222.73892990325112 40.42142857168801,222.4410273937392 40.22857142868452,222.29207609355217 40.42142857168801,222.21760043204995 39.84285714291036,222.73892990325112 39.3928571427241,222.96235670539318 38.878571428591385,222.21760043204995 38.81428571441211,221.91969770978903 38.299999999813735,221.54731913574506 37.85000000009313,221.24941613996634 37.65714285732247,220.9515130223008 37.33571428596042,220.65360978298122 37.14285714295693,220.4301822737907 36.56428571441211,219.75989933533128 36.30714285722934,219.31304370088037 35.857142857508734,218.86618779279524 35.535714285913855,218.71723576256773 34.89285714295693,218.64275973598706 34.57142857159488,218.1959034173051 34.50714285718277,217.6745706992806 34.121428571408615,217.07876142283203 34.05714285746217,217.1532376090181 34.05714285746217,217.4511422777432 34.31428571441211,218.1214273372898 34.44285714277066,218.79171178146498 34.18571428582072,218.56828370178118 33.800000000046566,218.86618779279524 33.73571428563446,219.16409176186426 32.51428571436554,218.27037948946236 32.38571428600699,217.82352294248994 32.32142857159488,217.1532376090181 31.614285714225844,216.63190414605197 31.807142857462168,216.03609401796712 31.67857142863795,215.4402834031498 31.614285714225844,215.2168542969739 31.550000000046566,214.84447230165824 31.550000000046566,214.62104301317595 31.16428571427241,214.17418423085473 30.90714285732247,214.17418423085473 30.714285714551806,214.17418423085473 30.457142857136205,214.09970774059184 30.58571428549476,213.5783720954787 29.81428571464494,213.35494241910055 28.528571428731084,213.35494241910055 28.014285714598373,213.1315126743866 28.014285714598373,212.90808286127867 27.628571428824216,212.5356996873743 26.66428571450524,212.3122696916107 25.82857142901048,212.5356996873743 25.57142857136205,212.6846529796021 25.378571428824216,212.83360624162015 25.121428571641445,212.90808286127867 24.542857143096626,213.28046584519325 24.09285714291036,213.42941898549907 23.83571428572759,213.5783720954787 23.771428571548313,213.80180170323 23.642857142724097,213.80180170323 22.228571428684518,215.14237791317282 22.16428571427241,214.91894871601835 21.714285714551806,214.99342512281146 21.0071428574156,215.14237791317282 19.850000000093132,216.03609401796712 19.33571428596042,216.1105703105568 19.142857142956927,216.25952287303517 18.885714285774156,216.48295165976742 18.564285714412108,216.78085660206852 18.75714285718277,217.00428522913717 18.75714285718277,217.07876142283203 19.014285714365542,217.30218995857285 16.82857142854482,217.37666612211615 16.057142857229337,216.78085660206852 15.992857142817229,216.85533281852258 16.185714285820723,216.85533281852258 16.442857142770663,217.30218995857285 16.314285714412108,217.37666612211615 15.992857142817229,216.85533281852258 15.992857142817229,215.4402834031498 15.864285714458674,214.99342512281146 15.73571428610012,214.91894871601835 15.928571428637952,214.24866071360884 17.08571428572759,213.5038955443888 16.892857143189758,213.42941898549907 16.699999999953434,212.9825594734284" stroke="#4dd2ff" stroke-linecap="round" stroke-linejoin="round" stroke-width="0.5"><title>2019-05-06 3.4km</title></polyline><polyline fill="none" points="161.6785714281723,233.10348253324628 160.0714285718277,233.7241195087554 159.6428571427241,233.84824686602224 158.78571428591385,234.2206288613379 158.1428571427241,234.46888346155174 158.0357142854482,234.46888346155174 157.82142857136205,234.59301074256655 157.7142857145518,234.59301074256655 151.71428571408615,236.08253712777514 128.57142857136205,243.28188892942853 120.2142857145518,248.4951860369183 118.92857142817229,249.11581515555736 115.2857142854482,246.13679249526467 114.0,244.7714046697365 125.57142857136205,250.85357500368264 125.3571428572759,250.72944938240107 118.92857142817229,240.67523199343123 118.3928571427241,236.08253712777514 115.82142857182771,238.93745759804733 115.6071428572759,246.01266639283858 116.8928571427241,247.12980085983872 118.28571428591385,248.37106017488986 118.92857142817229,248.9916893573245 131.25,254.32908724842127 124.82142857136205,250.48119810270146 116.57142857136205,246.01266639283858 126.2142857145518,251.1018262077123 122.78571428591385,249.36406671488658 127.82142857136205,251.970705022919 135.0,255.6944643406896 129.75,253.58433546102606 119.89285714225844,249.48819247516803 119.4642857145518,249.2399409414502 131.46428571408615,254.45321250206325 124.82142857136205,250.48119810270146 115.17857142863795,245.26790951099247 116.0357142854482,239.18571123480797 117.0,232.35871774400584 117.64285714318976,227.51773549348582 118.17857142863795,234.84126526722685 119.25,248.37106017488986 119.35714285681024,248.9916893573245 119.35714285681024,249.11581515555736 119.35714285681024,249.11581515555736 135.8571428572759,256.3150897852611 136.60714285681024,256.6874648996163 125.1428571427241,250.6053237488959 116.0357142854482,246.26091858535074 119.1428571427241,248.9916893573245 115.6071428572759,246.01266639283858 131.8928571427241,254.20496198220644 134.67857142863795,255.6944643406896 134.67857142863795,255.6944643406896 119.57142857136205,249.36406671488658 115.71428571408615,246.13679249526467 115.6071428572759,246.01266639283858 116.8928571427241,247.12980085983872 115.6071428572759,246.01266639283858 115.5,246.01266639283858 116.78571428591385,247.12980085983872 119.25,249.11581515555736 119.35714285681024,249.2399409414502 115.6071428572759,246.01266639283858 186.0,203.3125351005001 125.25,245.1437833198579 123.42857142863795,246.38504466228187 119.67857142863795,248.9916893573245 131.46428571408615,254.32908724842127 122.67857142817229,249.48819247516803 155.24999999953434,235.08951974031515 120.9642857145518,227.64186348416843 119.7857142854482,227.51773549348582 119.4642857145518,235.08951974031515 119.25,248.9916893573245 118.5,237.9444425428519 118.60714285681024,238.4409501714399 131.25,252.71545779891312 129.2142857145518,253.3360847637523 136.3928571427241,256.56333987403195 161.57142857136205,251.1018262077123 120.42857142863795,249.2399409414502 146.03571428591385,235.83428285690024 146.3571428572759,234.71713801124133 147.00000000046566,235.21364695823286 148.8214285718277,235.33777416334487 154.92857142863795,230.24854836356826 154.07142857136205,229.75203738873824 153.10714285774156,229.6279096135404 152.57142857136205,229.37965402472764 151.92857142863795,228.51075906469487 150.21428571408615,228.0142473806627 149.78571428591385,228.38663116283715 149.78571428591385,228.75901483092457 148.28571428591385,228.88314269518014 147.8571428572759,229.13139838539064 147.75,229.37965402472764 147.10714285681024,230.37267607543617 146.3571428572759,230.7450591356028 145.2857142854482,230.8691867965972 145.07142857136205,230.0002929015318 145.5,231.24156970449258 145.2857142854482,231.7380800708197 147.10714285681024,234.46888346155174 147.8571428572759,234.59301074256655 149.25000000046566,234.2206288613379 150.53571428591385,233.97237421071623 151.17857142863795,233.97237421071623 153.0,233.10348253324628 154.07142857136205,232.60697272408288 155.35714285681024,231.7380800708197 155.4642857145518,230.8691867965972 154.7142857145518,229.6279096135404 153.0,229.13139838539064 151.71428571408615,228.75901483092457 152.0357142854482,229.00727054686286 153.8571428572759,230.12442063866183 151.3928571427241,234.46888346155174 150.8571428572759,235.08951974031515 144.53571428591385,234.46888346155174 143.0357142854482,233.84824686602224 142.28571428591385,233.22760995361023 140.6785714281723,232.11046271247324 140.0357142854482,231.61395249841735 139.07142857136205,230.24854836356826 139.28571428591385,228.88314269518014 141.21428571408615,227.76599146227818 142.1785714281723,227.2694794740528 142.8214285718277,227.39360749011394 143.6785714291036,227.39360749011394 143.89285714318976,227.39360749011394 144.42857142863795,226.64883920317516 145.1785714281723,227.51773549348582 144.96428571408615,228.26250324817374 145.5,227.76599146227818 147.10714285681024,227.89011942781508 147.2142857145518,228.26250324817374 147.42857142863795,228.0142473806627 147.3214285718277,228.1383753210539 149.6785714281723,228.51075906469487 150.74999999953434,227.64186348416843" stroke="#4dd2ff" stroke-linecap="round" stroke-linejoin="round" stroke-width="0.5"><title>2019-04-30 5.1km</title></polyline></svg>