<?xml version="1.0" encoding="utf-8" ?>
<svg baseProfile="full" height="300mm" version="1.1" viewBox="0,0,200,300" width="200mm" xmlns="http://www.w3.org/2000/svg" xmlns:ev="http://www.w3.org/2001/xml-events" xmlns:xlink="http://www.w3.org/1999/xlink"><defs /><rect fill="#222222" height="300" width="200" x="0" y="0" /><text fill="#FFFFFF" style="font-size:12px; font-family:Arial; font-weight:bold;" x="10" y="20">Over 3km Runs</text><text fill="#FFFFFF" style="font-size:4px; font-family:Arial" x="10" y="280">ATHLETE</text><text fill="#FFFFFF" style="font-size:9px; font-family:Arial" x="10" y="290">arinic</text><text fill="#FFFFFF" style="font-size:4px; font-family:Arial" x="120" y="280">STATISTICS</text><text fill="#FFFFFF" style="font-size:3px; font-family:Arial" x="120" y="285">Number: 5</text><text fill="#FFFFFF" style="font-size:3px; font-family:Arial" x="120" y="290">Weekly: 1.2</text><text fill="#FFFFFF" style="font-size:3px; font-family:Arial" x="141" y="285">Total: 19.5 km</text><text fill="#FFFFFF" style="font-size:3px; font-family:Arial" x="141" y="290">Avg: 3.9 km</text><text fill="#FFFFFF" style="font-size:3px; font-family:Arial" x="167" y="285">Min: 3.1 km</text><text fill="#FFFFFF" style="font-size:3px; font-family:Arial" x="167" y="290">Max: 5.1 km</text><polyline fill="none" points="21.861680505331606,77.62007602903759 22.96379338623956,77.53944973426405 23.85926010226831,77.29757079848787 25.37466531363316,76.89443906734232 27.02783463522792,78.26508607936557 27.165598745457828,74.8787772024516 27.02783463522792,74.15313762141159 27.165598745457828,73.2662438583211 29.369824507739395,72.54060273634968 31.780696434667334,72.1374684800976 32.538399040699005,72.05684160301462 33.9849221969489,71.73433400958311 36.32691206922755,71.33119932527188 37.77343522571027,71.00869142386364 38.53113783150911,73.02436356147518 39.219958382193,75.44316306395922 39.4266045470722,76.1688014123938 39.908778932644054,78.50696470710682 40.11542509798892,79.39385234948713 40.73536359355785,80.92574674647767 40.666481538442895,81.49012811365537 40.804245648672804,83.18326969898771 41.21753797889687,85.03765853261575 41.286420034011826,85.76328771276167 41.69971236423589,88.18204664002405 41.63083030935377,88.26267180481227 41.8374764744658,89.0689229829004 42.11300469492562,89.8751733052195 42.181886749807745,90.11704823485343 42.319650860037655,90.43954802141525 42.457414970267564,90.68142277130391 42.59517908026464,91.0845471835928 43.35288168606348,90.43954802141525 45.28157922788523,87.77892068697838 46.659220329485834,86.9726681393804 47.899097320623696,86.73079220799264 48.519035815959796,86.81141752708936 49.690030752215534,86.65016688057221 50.585497468244284,86.56954154465348 52.238666789606214,86.24704011459835 53.754072000971064,86.08578934817342 54.30512844165787,86.00516395230079 54.30512844165787,85.9245385476388 54.649538716999814,85.76328771276167 56.44047214882448,85.60203684371663 57.33593886438757,85.36016047594603 58.98910818621516,85.19890952127753 59.746810792014,85.1182840312249 61.124451893381774,84.79578198492527 62.364328884286806,84.4732798015466 62.84650326985866,84.4732798015466 63.05314943497069,84.4732798015466 63.32867765519768,84.4732798015466 64.29302642610855,84.15077748132171 65.46402136259712,83.98952627007384 66.22172396816313,83.90890065138228 67.5993650695309,83.58639809145825 68.97700617089868,83.42514676012797 69.87247288646176,83.18326969898771 70.49241138226353,83.1026439947891 70.49241138226353,83.26389539474621 70.49241138226353,83.34452108171536 71.31899604317732,83.02201828209218 71.66340631828643,82.86076683091233 72.35222686920315,82.78014109266223 72.76551919919439,82.78014109266223 73.52322180545889,82.53826382587431 73.867632080568,82.69951534550637 73.72986797057092,82.4576380533399 73.66098591545597,82.29638648254331 73.93651413545012,82.37701227224898 73.79875002522022,81.97388323757332 73.10992947500199,78.42633850657148 73.10992947500199,78.1038336182828 72.76551919919439,77.62007602903759 72.76551919919439,76.57193352846662 72.48999097920023,76.81381269561825 72.14558070409112,76.9750654308009 72.21446275897324,77.05569178547012 72.83440125454217,75.84629556548316 72.48999097920023,74.95940377976513 72.07669864874333,73.66937751532532 72.00781659362838,72.78248318727128 71.66340631828643,71.08931841200683 71.38787809805945,70.2024210706004 70.90570371272042,67.94485952751711 70.49241138226353,65.60666371078696 70.35464727226645,64.8003876216244 70.14800110692158,63.59097188315354 70.28576521691866,62.945949368178844 70.21688316226937,62.70406578388065 70.21688316226937,62.54281001823256 70.0102369969245,61.978414568526205 69.4591805562377,60.68836625106633 69.25253439089283,60.04334127070615 68.97700617089868,58.26951974898111 68.83924206066877,57.86637791612884 68.97700617089868,57.86637791612884 68.77036000555381,57.30197899066843 68.56371384044178,56.656951133627445 68.56371384044178,56.415065545530524 68.35706767509691,56.011922728444915 68.28818562021479,55.528151064994745 68.21930356533267,55.286265117581934 68.0815394546371,54.88312170113204 67.94377534464002,54.076834225445054 67.87489328999072,53.75431899545947 67.80601123487577,53.3511747654411 67.73712917952798,52.86740140680922 67.66824712487869,52.464256705890875 67.73712917952798,52.22236978268484 67.5993650695309,51.899853765033185 67.39271890441887,50.3679008106119 66.77278040861711,48.51342730940087 66.56613424350508,47.545874119503424 66.35948807816021,46.25580128171714 66.29060602281243,45.852653070294764 66.15284191304818,45.04635600553593 66.08395985793322,44.24005808471702 65.94619574770331,43.91753867652733 65.87731369305402,43.5950191313168 65.87731369305402,43.27249944937648 65.67066752747633,42.949979630007874 65.6017854725942,42.546829663508106 65.6017854725942,42.14367948292056 66.15284191304818,42.14367948292056 66.15284191304818,42.06304942094721 65.11961108702235,40.6923370603472 64.70631875656545,39.07973111484898 64.56855464656837,38.43468777782982 64.36190848122351,35.451355214987416 64.15526231611148,34.80630879517412 63.87973409588449,34.0 63.87973409588449,34.72567795426585 63.94861615123227,35.048201266967226 64.22414437122643,35.451355214987416 64.29302642610855,35.451355214987416 64.15526231611148,35.53198597888695 64.15526231611148,35.612616734346375 64.36190848122351,35.451355214987416 64.15526231611148,35.85450894897804 64.22414437122643,36.177031782106496 64.49967259168625,36.177031782106496 64.43079053633846,36.66081577469595 64.36190848122351,36.98333826533053 64.36190848122351,37.22523004352115 64.49967259168625,37.547752294223756 64.49967259168625,38.595948663249146 64.49967259168625,38.837839927640744 64.43079053633846,39.1603614934138 64.77520081191324,39.72477390390122 64.91296492191032,39.9666648087441 65.05072903214023,40.531076619867235 65.05072903214023,40.77296726760687 65.11961108702235,41.01485783839598 65.11961108702235,41.25674833205994 65.25737519725226,41.579268870467786 65.25737519725226,41.65989898372209 65.32625725236721,41.98241935065016 65.46402136259712,42.30493958084844 65.6017854725942,42.62745967385126 65.80843163770624,43.27249944937648 65.80843163770624,43.5950191313168 65.94619574770331,44.15942824538797 65.94619574770331,44.15942824538797 66.08395985793322,44.48194755060831 66.08395985793322,44.88509648985928 66.29060602281243,45.53013434703462 66.22172396816313,46.33643089822726 66.0150778030511,46.65894927899353 65.80843163770624,46.820208418008406 65.53290341724642,46.90083797450643 65.32625725236721,47.303985629521776 65.32625725236721,47.1427265930688 65.53290341724642,46.90083797450643 66.15284191304818,46.73957885260461 66.428370133508,47.06209706212394 66.49725218839012,47.4652446313994 66.428370133508,47.545874119503424 66.63501629862003,48.02965086867334 66.63501629862003,48.27153912751237 66.70389835373498,48.6746860545245 66.91054451861419,49.23909139272291 66.97942657396197,49.56160854053451 67.11719068419188,49.884125551150646 67.25495479442179,50.206642425153404 67.32383684907109,50.448529990622774 67.53048301418312,51.416079481714405 68.0815394546371,54.560606813582126 68.21930356533267,55.20563645142829 68.77036000555381,56.89883664401714 68.90812411555089,57.70512112299912 69.18365233601071,58.43077642220305 69.52806261135265,60.20459756726632 69.5969446664676,60.76899433520157 69.73470877646469,61.414018699433655 69.87247288646176,62.38155421812553 70.0102369969245,62.945949368178844 70.0102369969245,63.429716305749025 70.07911905180663,63.913482934993226 70.35464727226645,64.63913230138132 70.56129343737848,65.36478097375948 70.49241138226353,65.60666371078696 70.49241138226353,65.92917390645016 70.56129343737848,66.17105646361597 70.63017549249344,66.41293894359842 70.69905754737556,66.65482134639751 70.76793960249051,66.97733109717956 70.76793960249051,67.2998407111154 70.83682165760547,67.2998407111154 70.97458576783538,67.94485952751711 70.97458576783538,68.18674144236138 70.97458576783538,68.5092505424982 71.11234987783246,68.83175950567238 71.18123193294741,68.99301393586211 71.31899604317732,69.47677702101646 71.73228837340139,71.65370709006675 72.35222686920315,73.99188428698108 72.42110892408527,74.79815061675617 73.0410474196542,76.9750654308009 73.17881152988411,76.81381269561825 73.24769358499907,76.81381269561825 73.24769358499907,76.89443906734232 73.66098591545597,77.13631813158281 73.59210386034101,76.9750654308009 73.31657564011402,76.89443906734232 73.31657564011402,76.81381269561825 73.31657564011402,76.89443906734232 73.10992947500199,77.37819711893098 72.97216536477208,77.70070231513819 73.10992947500199,78.99072173150489 73.31657564011402,79.47447844751878 73.31657564011402,79.79698275349801 73.52322180545889,80.28073895600392 73.867632080568,80.28073895600392 73.66098591545597,80.44199095485965 73.59210386034101,81.08699860866182 73.72986797057092,81.32887633744394 73.72986797057092,81.97388323757332 73.66098591545597,82.29638648254331 73.79875002522022,82.6188895899104 73.867632080568,82.94139256095514 74.21204235567711,83.50577243010048 74.48757057636976,83.74764938856242 74.48757057636976,83.82827502425062 74.48757057636976,83.74764938856242 74.55645263125189,84.39265423448524 74.62533468613401,84.71515645179898 74.62533468613401,85.1182840312249 74.62533468613401,85.4407859405037 74.6942167414818,85.6826622824301 74.96974496170878,86.16641473554773 75.03862701659091,86.32766548485961 75.10750907170586,86.24704011459835 75.10750907170586,86.24704011459835 75.10750907170586,86.32766548485961 75.38303729193285,88.18204664002405 75.52080140216276,88.74642261461122 75.65856551239267,88.82704771938734 75.79632962238975,89.23017311602598 75.93409373261966,90.03642326692352 76.07185784284957,90.76204767095624 76.20962195284665,91.72954579768702 76.14073989749886,91.56829619547352 76.14073989749886,92.13266965345247 76.2785040079616,92.69704269181238 76.34738606284373,92.85829205444315 76.55403222795576,93.50328916253056 76.6917963384185,94.22891025384888 76.76067839330062,94.39015929109883 76.76067839330062,94.4707837968017 76.6917963384185,94.95453065191396 76.76067839330062,95.1964039640734 76.76067839330062,95.51890159328468 76.82956044841558,95.51890159328468 76.89844250353053,95.8413990859408 76.82956044841558,96.16389644157607 76.82956044841558,96.48639366019052 76.82956044841558,96.80889074190054 76.96732455841266,97.53450867469655 76.89844250353053,97.61513284686953 77.10508866864257,97.93762944918126 77.10508866864257,98.42137409601128 77.10508866864257,98.58262224291684 77.03620661376044,98.8244943995378 76.89844250353053,98.8244943995378 76.41626811795868,98.90511843463173 76.2785040079616,99.06636647885898 76.34738606284373,99.06636647885898 76.2785040079616,99.14699048810871 76.07185784284957,99.22761448903475 76.00297578750178,99.46948644006625 76.00297578750178,99.55011040647514 76.00297578750178,99.63073436438572 76.14073989749886,99.55011040647514 76.14073989749886,99.55011040647514 76.07185784284957,99.79198225494474 76.14073989749886,100.1144779327442 76.07185784284957,100.1144779327442 76.14073989749886,100.1144779327442 76.2785040079616,100.19510183099192 76.2785040079616,100.19510183099192 76.2785040079616,100.19510183099192 76.34738606284373,100.1144779327442 76.34738606284373,100.1144779327442 76.41626811795868,99.95323011110304 76.41626811795868,100.03385402617278 76.55403222795576,99.95323011110304 76.48515017330647,99.95323011110304 76.41626811795868,100.1144779327442 76.41626811795868,100.03385402617278 76.48515017330647,100.19510183099192 76.48515017330647,99.87260618718574 76.41626811795868,99.79198225494474 76.34738606284373,99.71135831420543 76.2785040079616,99.38886246504262 76.2785040079616,99.06636647885898 76.34738606284373,98.98574246081989 76.96732455841266,98.74387035577092 77.10508866864257,98.8244943995378 77.10508866864257,98.8244943995378 77.24285277887248,98.98574246081989 77.31173483398743,99.30823848117143 77.38061688886955,99.63073436438572 77.38061688886955,99.87260618718574 77.38061688886955,100.19510183099192 77.65614510909654,100.75946887786267 77.65614510909654,101.24321172724012 77.65614510909654,101.24321172724012 77.65614510909654,101.24321172724012 77.65614510909654,101.24321172724012 77.79390921932645,101.80757799523417 77.8627912744414,102.1300728173228 77.8627912744414,102.37194384395843 78.00055538467132,102.77506205049576 78.06943743955344,103.17818004317814 78.1383194946684,103.33942718018079 78.1383194946684,104.06503887369763 78.20720154955052,104.30690928408876 78.34496565978043,104.54877961735474 78.41384771512821,105.1131434289855 78.34496565978043,105.03252005315153 78.34496565978043,105.03252005315153 78.2760836048983,105.1131434289855 78.2760836048983,105.19376679655397 78.2760836048983,105.1131434289855 78.2760836048983,105.19376679655397 78.2760836048983,105.19376679655397 78.20720154955052,105.1131434289855 78.1383194946684,105.03252005315153 78.1383194946684,104.95189666841179 77.79390921932645,105.43563684733817 77.72502716444433,105.35501350573031 77.79390921932645,105.27439015527489 77.8627912744414,105.27439015527489 77.8627912744414,105.27439015527489 77.58726305421442,105.35501350573031 77.31173483398743,105.35501350573031 77.10508866864257,105.27439015527489 76.82956044841558,105.43563684733817 76.6917963384185,105.43563684733817 76.76067839330062,105.43563684733817 76.76067839330062,105.43563684733817 76.41626811795868,105.51626018050592 76.07185784284957,105.59688350529177 75.86521167727187,105.59688350529177 75.52080140216276,105.67750682140468 75.24527318193577,105.75813012890285 74.48757057636976,105.9193767181714 74.14316030102782,106.0 73.72986797057092,105.75813012890285 73.66098591545597,105.35501350573031 73.4543397501111,105.1131434289855 73.24769358499907,104.46815618139226 73.24769358499907,103.82316838623956 73.24769358499907,103.17818004317814 73.17881152988411,102.93630927312188 73.17881152988411,102.69443842634792 73.10992947500199,102.45256750256522 73.0410474196542,102.21069650136633 72.97216536477208,101.88820171379484 72.90328330965713,101.56570678896969 72.48999097920023,99.87260618718574 72.42110892408527,99.79198225494474 72.35222686920315,99.55011040647514 72.14558070409112,98.8244943995378 72.07669864874333,98.90511843463173 71.8700524836313,97.77638116513845 71.66340631828643,97.61513284686953 71.66340631828643,96.88951499084942 71.73228837340139,96.97013923118357 71.66340631828643,96.97013923118357 71.52564220828936,95.8413990859408 71.52564220828936,95.35765279567568 71.52564220828936,95.11577953514643 71.25011398806237,94.4707837968017 71.18123193294741,94.22891025384888 71.11234987783246,93.90641207643785 71.0434678227175,93.66453835368156 70.97458576783538,93.42266455374192 70.83682165760547,92.61641799792415 70.63017549249344,91.97142013697885 70.56129343737848,91.56829619547352 70.35464727226645,91.32642172800843 70.28576521691866,90.92329744430026 70.21688316226937,90.52017294667894 70.21688316226937,90.35892308771145 69.73470877646469,89.63329829846043 69.94135494180955,89.14954805379966 69.73470877646469,88.90767281572334 69.52806261135265,88.98829790373566 69.18365233601071,89.0689229829004 68.83924206066877,89.14954805379966 68.56371384044178,89.391423214518 68.21930356533267,89.391423214518 67.66824712487869,89.71392330946401 67.186072739074,89.79454831156181 66.63501629862003,89.63329829846043 65.87731369305402,89.63329829846043 65.39513930724934,89.79454831156181 65.18849314237013,89.71392330946401 64.84408286679536,89.79454831156181 64.56855464656837,89.79454831156181 64.36190848122351,89.95579829020426 63.60420587542467,90.19767319440143 63.46644176542759,90.43954802141525 62.70873915986158,90.43954802141525 62.364328884286806,90.43954802141525 62.08880066429265,90.52017294667894 61.05556983803399,90.92329744430026 60.71115956292488,90.92329744430026 60.366749287582934,91.0845471835928 59.746810792014,91.16517204017146 59.746810792014,91.24579688848462 59.12687229621224,91.40704655926675 58.71357996575534,91.4876713816193 58.23140558041632,91.64892100100406 57.955877360189334,91.64892100100406 57.542585029732436,91.72954579768702 57.33593886438757,91.72954579768702 57.060410644626245,91.72954579768702 56.784882423933595,91.89079536590725 56.44047214882448,91.89079536590725 56.23382598371245,92.05204489949392 55.61388748791069,92.13266965345247 55.269477212801576,92.13266965345247 54.85618488211185,92.13266965345247 54.511774606769904,92.21329439902911 53.82295405608602,92.13266965345247 52.78972323006019,92.3745438643382 52.37643089960329,92.45516858412884 52.03202062426135,92.53579329530476 51.68761034915224,92.61641799792415 51.27431801869534,92.61641799792415 49.75891280733049,92.85829205444315 49.48338458687067,92.85829205444315 49.07009225641377,92.77766737760976 48.794564036419615,92.85829205444315 48.24350759573281,92.93891672306927 47.96797937550582,92.93891672306927 46.86586649436504,93.42266455374192 46.17704594368115,93.74516293645138 44.730522787198424,94.87390619755024 44.04170223674737,94.63203278288711 43.835056071635336,93.8257875108975 43.90393812675029,93.50328916253056 43.28399963118136,92.45516858412884 43.14623552095145,92.13266965345247 43.077353465836495,91.8101705860463 42.939589355373755,91.40704655926675 42.87070730072446,91.32642172800843 42.2507688049227,91.4876713816193 41.90635852981359,91.40704655926675 41.90635852981359,91.40704655926675 41.69971236423589,91.40704655926675 41.561948254238814,91.4876713816193 41.21753797889687,91.56829619547352 40.87312770355493,91.72954579768702 40.528717428445816,91.8101705860463 39.8398968775291,91.97142013697885 39.49548660218716,91.97142013697885 38.80666605127044,92.05204489949392 38.255609610816464,92.21329439902911 37.63567111548036,92.21329439902911 37.08461467502639,92.21329439902911 36.87796850991435,92.2939191358164 36.25803001411259,92.45516858412884 35.569209463428706,92.61641799792415 35.15591713297181,92.53579329530476 34.88038891274482,92.61641799792415 34.67374274763279,92.61641799792415 34.329332472290844,92.69704269181238 33.916040141833946,92.69704269181238 33.64051192183979,92.69704269181238 32.9516913711559,92.85829205444315 32.676163150928915,92.85829205444315 32.33175287535414,92.85829205444315 32.26287082047202,92.93891672306927 31.84957849001512,93.10016603430267 31.505168214673176,93.10016603430267 30.747465608874336,93.18079067696817 29.989763003075495,93.26141531119356 29.57647067308426,93.3420399366878 29.30094245239161,93.3420399366878 28.612121901474893,93.50328916253056 28.336593681480736,93.66453835368156 28.061065461020917,93.74516293645138 27.78553724125959,93.8257875108975 27.578891075914726,93.90641207643785 27.234480800805613,93.98703663377091 26.476778194773942,93.98703663377091 26.270132029196247,94.06766118243104 26.270132029196247,94.14828572241822 26.270132029196247,93.98703663377091 25.7190755889751,94.06766118243104 24.685844762949273,93.90641207643785 24.065906267380342,93.8257875108975 23.7214959920384,93.8257875108975 23.44596777181141,93.8257875108975 22.894911331590265,93.98703663377091 23.032675441354513,93.74516293645138 23.239321606699377,93.58391376247164 23.1015574967023,92.85829205444315 23.170439551351592,92.53579329530476 22.96379338623956,92.21329439902911 22.894911331590265,91.89079536590725 22.757147220894694,91.4876713816193 22.757147220894694,91.16517204017146 22.619383110897616,90.52017294667894 22.68826516601257,89.8751733052195 22.55050105578266,89.63329829846043 22.481619001133367,89.391423214518 22.274972835788503,89.14954805379966 22.137208725325763,88.90767281572334 22.206090780440718,88.74642261461122 22.343854890903458,88.34329696110217 22.206090780440718,87.94017109385459 22.206090780440718,87.61767024616711 22.206090780440718,87.2145439935266 22.137208725325763,87.2145439935266 22.137208725325763,87.13391871744534 22.137208725325763,87.05329343286576 22.137208725325763,86.65016688057221 22.137208725325763,85.52141139638843 22.06832667067647,85.19890952127753 21.999444615328684,84.876407509204 21.999444615328684,84.55390536034247 21.999444615328684,84.4732798015466 21.861680505331606,83.90890065138228 21.723916395101696,83.1026439947891 21.655034340219572,82.78014109266223 21.655034340219572,82.37701227224898 21.586152284871787,82.0545090616215" stroke="#4dd2ff" stroke-linecap="round" stroke-linejoin="round" stroke-width="0.5"><title>2022-09-04 4.0km</title></polyline><polyline fill="none" points="178.2857142854482,84.59743711852934 170.7428571432829,51.82771780632902 177.59999999962747,82.41280633828137 175.37142857164145,82.61140923725907 181.02857142779976,85.98765542800538 165.94285714253783,79.43376041157171 138.8571428572759,78.6393473938806 158.05714285746217,81.22118851495907 178.97142857126892,86.18625796330161 175.885714286007,84.20023170451168 116.05714285653085,69.90078278875444 114.34285714291036,69.50357437389903 114.0,69.30497013614513 116.05714285653085,69.90078278875444 116.05714285653085,69.90078278875444 116.05714285653085,70.09938696585596 149.82857142854482,81.02258547383826 162.34285714291036,78.83795067854226 179.82857142854482,85.39184770279098 176.5714285708964,84.00162896700203 181.7142857145518,86.3848604769446 177.08571428619325,84.20023170451168 181.54285714309663,86.18625796330161 176.74285714235157,84.20023170451168 178.79999999981374,84.99464245105628 175.7142857145518,83.80302620923612 178.97142857126892,85.19324508681893 171.4285714281723,81.81699751771521 116.05714285653085,70.09938696585596 116.05714285653085,70.09938696585596 116.05714285653085,70.09938696585596 121.7142857145518,70.695199374808 159.59999999962747,82.41280633828137 168.68571428582072,82.81001211726107 178.97142857126892,85.19324508681893 175.885714286007,83.80302620923612 186.0,88.17228219355457 178.2857142854482,84.79603979492094 179.1428571427241,85.19324508681893 176.05714285746217,83.80302620923612 178.97142857126892,85.19324508681893" stroke="#4dd2ff" stroke-linecap="round" stroke-linejoin="round" stroke-width="0.5"><title>2022-07-31 3.1km</title></polyline><polyline fill="none" points="86.0,141.9027379139734 85.6766839378979,142.07351271272637 85.0051813472528,142.27274985209806 84.30880829016678,142.301212289487 83.93575129541568,142.301212289487 83.41347150260117,142.27274985209806 83.28911917097867,142.27274985209806 83.13989637303166,142.27274985209806 83.01554404152557,142.27274985209806 82.89119170990307,142.24428741188603 82.31917098443955,142.21582496888004 82.19481865281705,142.21582496888004 81.92124352324754,142.1873625231965 81.32435233169235,142.1589000747481 81.00103626935743,142.1304376234475 80.32953367882874,142.07351271272637 79.88186528498773,142.1589000747481 79.90673575142864,142.4150620115688 80.15544041444082,142.9558475872327 80.23005181341432,143.0981594149489 80.30466321238782,143.21200882745325 80.40414507768583,143.38278286310378 80.40414507768583,143.35432053066324 80.55336787574925,143.6389437300386 80.62797927460633,143.89510437301942 80.57823834195733,143.9520289299835 80.62797927460633,143.86664209037554 79.68290155450813,141.6181130282639 78.6632124352036,141.58965052451822 78.31502590677701,141.6181130282639 77.6435233161319,141.7035005230573 77.2953367875889,141.7888879928796 76.64870466326829,141.84581295895623 76.32538860104978,141.87427543790545 75.67875647661276,141.98812532576267 74.70880829019006,142.07351271272637 74.46010362706147,142.10197516946937 73.96269430045504,142.1873625231965 73.73886010365095,142.21582496888004 73.51502590673044,142.24428741188603 73.06735751288943,142.35813715602853 72.86839378240984,142.4150620115688 72.64455958548933,142.50044927408453 72.24663212441374,142.6996861231455 72.02279792749323,142.7850733026571 71.79896373057272,142.87046045743045 71.40103626949713,143.06969705494703 71.20207253890112,143.18354647845263 71.00310880830511,143.32585819557426 70.35647668398451,143.43970751954475 70.1077720207395,143.35432053066324 69.5606217617169,143.15508412665804 69.2870466321474,143.06969705494703 68.71502590680029,142.92738521340652 68.41658031090628,142.87046045743045 67.76994818658568,142.64276132298983 67.52124352322426,142.55737410191796 66.92435233166907,142.35813715602853 66.65077720221598,142.27274985209806 66.10362694307696,142.10197516946937 65.83005181350745,141.98812532576267 65.45699481863994,141.87427543790545 65.23316062183585,141.81735047727125 65.00932642491534,141.7604255056358 64.61139896372333,141.6181130282639 64.41243523312733,141.56118801792036 64.21347150264774,141.4473379641131 63.74093264259864,141.33348786612623 63.51709844567813,141.2765628005145 63.318134715082124,141.21963772387244 62.92020725389011,141.07732498380938 62.721243523294106,141.0203998683719 62.522279792814516,140.96347474202048 62.099481865298,140.79269929634756 61.875647668377496,140.73577412572922 61.65181347145699,140.678848943935 61.03005181346089,140.4796107208531 60.8559585493058,140.42268548943684 60.60725388606079,140.36576024687383 60.20932642486878,140.22344709205208 59.985492228064686,140.1665218108683 59.76165803114418,140.10959651845042 59.38860103627667,139.99574590072734 58.99067357520107,139.93882057524752 58.791709844605066,139.9672832393553 58.51813471503556,139.91035790831666 58.567875647800975,139.88189523870824 58.61761658033356,139.91035790831666 58.64248704665806,139.85343256630586 58.66735751298256,139.73958184890216 58.69222797930706,139.56880569001078 58.717098445631564,139.17032759872382 58.717098445631564,139.17032759872382 58.66735751298256,139.4264921482245 58.64248704665806,139.54034298713668 58.66735751298256,139.5972683901491 58.64248704665806,139.71111916270456 58.31917098443955,139.91035790831666 58.14507772028446,139.88189523870824 57.896373057039455,139.91035790831666 57.423834196990356,139.93882057524752 57.20000000006985,139.93882057524752 56.95129533682484,139.93882057524752 56.50362694298383,139.93882057524752 56.27979274617974,139.93882057524752 56.05595854925923,139.9672832393553 55.60829015541822,139.9672832393553 55.359585492289625,139.99574590072734 55.13575129536912,139.99574590072734 54.68808290164452,139.99574590072734 54.464248704724014,140.0242085593054 54.29015544045251,139.99574590072734 53.84248704672791,140.0242085593054 53.64352331601549,139.99574590072734 53.41968911909498,140.0242085593054 52.972020725370385,140.0242085593054 52.773056994890794,140.0526712151477 52.57409326417837,140.0526712151477 51.92746113985777,140.08113386819605 51.72849740937818,140.08113386819605 51.45492227980867,140.08113386819605 51.00725388608407,140.10959651845042 50.783419689163566,140.10959651845042 50.60932642489206,140.10959651845042 50.18652849749196,140.08113386819605 49.73886010365095,140.13805916605634 49.539896373054944,140.10959651845042 49.29119170992635,140.1665218108683 48.84352331608534,140.1665218108683 48.61968911916483,140.13805916605634 48.42072538868524,140.13805916605634 48.022797927376814,140.13805916605634 47.79896373057272,140.13805916605634 47.649740932742134,140.13805916605634 47.50051813479513,140.1665218108683 47.376165803172626,140.1665218108683 47.20207253890112,140.1665218108683 47.10259067360312,140.1665218108683 47.003108808305115,140.1665218108683 46.87875647668261,140.1665218108683 46.82901554403361,140.1665218108683 46.85388601035811,140.1665218108683 46.72953367885202,140.1665218108683 46.65492227987852,140.1665218108683 46.505699481931515,140.19498445285717 46.35647668398451,140.1665218108683 45.75958549231291,140.22344709205208 45.5108808290679,140.22344709205208 45.26217616570648,140.25190972856944 44.8642487047473,140.25190972856944 44.615544041385874,140.25190972856944 44.36683937825728,140.25190972856944 43.49637305701617,140.30883499325137 43.297409326420166,140.28037236226373 42.97409326431807,140.30883499325137 42.52642487047706,140.33729762138682 42.32746113999747,140.30883499325137 42.12849740940146,140.33729762138682 41.70569948188495,140.33729762138682 41.531606217613444,140.33729762138682 41.33264248713385,140.33729762138682 41.08393782377243,140.33729762138682 40.90984455961734,140.30883499325137 40.81036269431934,140.30883499325137 40.710880829021335,140.33729762138682 40.686010362696834,140.28037236226373 40.686010362696834,140.28037236226373 40.710880829021335,140.28037236226373 40.53678756474983,140.33729762138682 40.43730569945183,140.33729762138682 40.337823834153824,140.33729762138682 40.36269430059474,140.33729762138682 40.387564766802825,140.33729762138682 40.43730569945183,140.30883499325137 40.43730569945183,140.30883499325137 40.43730569945183,140.30883499325137 40.43730569945183,140.30883499325137 40.43730569945183,140.30883499325137 40.43730569945183,140.30883499325137 40.43730569945183,140.30883499325137 40.43730569945183,140.28037236226373 40.43730569945183,140.28037236226373 40.43730569945183,140.28037236226373 40.337823834153824,140.30883499325137 40.11398963734973,140.33729762138682 39.865284974104725,140.33729762138682 39.46735751291271,140.36576024687383 39.044559585512616,140.36576024687383 38.845595855033025,140.39422286947956 38.62176165811252,140.36576024687383 38.174093264271505,140.39422286947956 37.950259067351,140.39422286947956 37.72642487054691,140.39422286947956 37.303626943030395,140.42268548943684 37.0797927462263,140.42268548943684 36.88082901551388,140.42268548943684 36.458031088113785,140.42268548943684 36.25906735751778,140.42268548943684 35.98549222794827,140.45114810648374 35.53782383422367,140.4796107208531 35.313989637303166,140.4796107208531 34.64248704665806,140.53653594126808 34.49326424871106,140.50807333248667 34.39378238352947,140.53653594126808 34.244559585582465,140.53653594126808 34.095336787519045,140.50807333248667 33.77202072541695,140.4796107208531 33.622797927469946,140.4796107208531 33.49844559584744,140.4796107208531 33.37409326422494,140.4796107208531 33.27461139904335,140.4796107208531 33.025906735798344,140.4796107208531 32.92642487050034,140.4796107208531 32.82694300531875,140.4796107208531 32.70259067369625,140.50807333248667 32.62797927472275,140.53653594126808 32.379274611361325,140.53653594126808 32.23005181341432,140.53653594126808 32.055958549375646,140.56499854737194 31.906735751312226,140.53653594126808 31.558549222769216,140.56499854737194 31.459067357587628,140.56499854737194 31.260103626991622,140.59346115062363 31.135751295485534,140.59346115062363 31.036269430071115,140.59346115062363 30.936787564773113,140.62192375122686 30.837305699591525,140.62192375122686 30.712953367852606,140.62192375122686 30.61347150267102,140.62192375122686 30.38963730575051,140.65038634897792 30.265284974128008,140.678848943935 30.190673575154506,140.678848943935 30.066321243648417,140.70731153621455 29.9419689119095,140.70731153621455 29.519170984392986,140.70731153621455 29.369948186562397,140.70731153621455 29.220725388615392,140.73577412572922 29.071502590784803,140.73577412572922 28.9222797928378,140.73577412572922 28.872538860072382,140.73577412572922 28.797927461215295,140.76423671242082 28.723316062241793,140.76423671242082 28.62383419694379,140.79269929634756 28.524352331645787,140.79269929634756 28.400000000023283,140.79269929634756 28.300518134841695,140.79269929634756 28.201036269427277,140.82116187748034 28.10155440424569,140.82116187748034 27.852849741000682,140.84962445593555 27.75336787570268,140.8780870315968 27.579274611431174,140.8780870315968 27.43005181348417,140.9065496045223 27.25595854932908,140.9065496045223 26.75854922272265,140.93501217468292 26.53471502591856,140.93501217468292 26.31088082899805,140.96347474202048 25.888082901597954,140.99193730656407 25.68911917100195,141.0203998683719 25.490155440522358,141.0203998683719 24.967875647824258,141.07732498380938 24.66943005193025,141.07732498380938 23.99792746116873,141.1342500881001 23.72435233159922,141.1627126361127 23.276683937874623,141.19117518133135 22.605181347229518,141.24810026353225 21.983419689117,141.2765628005145 21.83419689128641,141.305025334761 21.660103627014905,141.2765628005145 21.5357512953924,141.305025334761 21.11295336787589,141.33348786612623 20.963730569928885,141.33348786612623 20.839378238422796,141.33348786612623 20.540932642528787,141.3619503947848 20.391709844581783,141.3904129206203 20.26735751295928,141.41887544377823 20.118134715012275,141.4473379641131 19.96891191706527,141.47580048174132 19.720207253936678,141.53272550867405 19.595854922314174,141.58965052451822 19.297409326420166,141.6750380275189 19.173056994797662,141.73196301574353 19.048704663175158,141.7888879928796 18.92435233166907,141.81735047727125 18.80000000016298,141.9027379139734 18.526424870477058,141.98812532576267 18.402072538854554,142.0450502531312 18.277720207348466,142.10197516946937 18.153367875725962,142.1589000747481 18.004145077778958,142.24428741188603 17.75544041453395,142.386599585152 17.631088082911447,142.47198685599142 17.50673575140536,142.55737410191796 17.382383419782855,142.64276132298983 17.25803108816035,142.6996861231455 17.034196891239844,142.84199807533878 16.959585492266342,142.92738521340652 16.86010362696834,143.0127723266196 16.73575129546225,143.0981594149489 16.636269430047832,143.18354647845263 16.437305699568242,143.35432053066324 16.36269430059474,143.41124519272125 16.288082901621237,143.49663216486806 16.213471502647735,143.55355679921922 16.163730569998734,143.6389437300386 16.039378238492645,143.72433063588687 16.039378238492645,143.72433063588687 15.939896373078227,143.86664209037554 15.840414507780224,143.92356665284024 15.790673575131223,144.00895347585902 15.666321243625134,144.17972704715794 15.69119170983322,144.1512647921336 15.541968911886215,144.37896275447565 15.442487046704628,144.46434944472276 15.367875647731125,144.57819832634414 15.243523316108622,144.7489715659176 15.293264248757623,144.72050936616142 15.318134715082124,144.72050936616142 15.268393782433122,144.72050936616142 15.268393782433122,144.72050936616142 15.268393782433122,144.72050936616142 15.069430051837116,145.0051312384894 14.969948186655529,145.20436638465617 14.84559585491661,145.43206352874404 14.596891191788018,145.97284353678697 14.547150259139016,146.17207802497433 14.373056994867511,146.65593264673953 14.273575129569508,146.85516667054617 14.198963730596006,147.33902016450884 14.149222797947004,147.5667156499112 14.099481865298003,147.82287285945495 14.0,148.477495822357 14.0,148.5913431448571 14.0,148.67672860776656 14.0,148.76211404573405 14.0,148.84749945890508 14.0,148.98980842539459 14.0,149.07519377220888 14.0,149.44519665409462 14.0248704663245,149.72981393762166 14.074611399089918,149.92904587162775 14.0248704663245,149.9005841751059 14.0,150.09981599301682 14.0,150.2421243514109 14.0248704663245,150.3844326408289 14.049740932649001,150.4698175812373 14.049740932649001,150.5836641297792 14.074611399089918,150.75443386964616 14.124352331738919,151.40905028409907 14.124352331738919,151.69366566033568 14.149222797947004,152.17751116570435 14.149222797947004,152.2628955836699 14.149222797947004,152.34827997678076 14.174093264271505,152.49058724343195 14.149222797947004,152.60443300692714 14.174093264271505,152.71827872624272 14.174093264271505,152.77520156934042 14.174093264271505,153.0028928310785 14.198963730596006,153.14519977979944 14.223834196920507,153.37289075402077 14.273575129569508,154.16980777090066 14.298445595894009,154.51134297187673 14.32331606221851,155.19441217984422 14.373056994867511,155.53594618677744 14.397927461192012,156.16209083251306 14.447668393841013,156.44670159296948 14.572020725463517,157.357454168814 14.596891191788018,157.67052471305942 14.646632124320604,158.23974302777788 14.67150259076152,158.4389691767865 14.67150259076152,158.55281262969947 14.795854922267608,159.29279399558436 14.820725388708524,159.4066371168301 14.84559585491661,159.548940956156 14.87046632124111,159.66278397792485 14.87046632124111,159.77662695545587 14.895336787565611,159.91893061518203 14.895336787565611,159.91893061518203 14.920207254006527,159.97585205972428 15.16891191713512,159.86200915960944 15.268393782433122,159.83354842764675 15.293264248757623,159.83354842764675 15.318134715082124,159.8050876929192 15.318134715082124,159.74816621516948 15.293264248757623,159.66278397792485 15.293264248757623,159.6058624726429 15.268393782433122,159.5204801937798 15.268393782433122,159.5204801937798 15.268393782433122,159.46355866084923 15.268393782433122,159.4066371168301 15.243523316108622,159.37817634062958 15.243523316108622,159.32125477999216 15.243523316108622,159.2643332084117 15.218652849784121,159.20741162559716 15.243523316108622,159.1789508301008 15.218652849784121,159.09356842699344 15.218652849784121,159.06510762046673 15.218652849784121,158.9797251841519 15.318134715082124,158.9797251841519 15.39274611393921,158.9797251841519 15.467357513029128,158.9797251841519 15.492227979353629,158.95126436656574 15.566839378327131,158.95126436656574 15.566839378327131,158.95126436656574 15.591709844651632,158.95126436656574 15.591709844651632,158.95126436656574 15.641450777184218,158.9797251841519 15.641450777184218,158.9797251841519 15.666321243625134,159.0081859989732 15.666321243625134,159.03664681111695 15.666321243625134,159.06510762046673 15.69119170983322,159.06510762046673 15.69119170983322,159.06510762046673 15.666321243625134,159.15049003186869 15.666321243625134,159.1789508301008 15.69119170983322,159.23587241844507 15.69119170983322,159.2643332084117 15.69119170983322,159.29279399558436 15.71606217615772,159.46355866084923 15.740932642482221,159.6058624726429 15.765803108806722,159.71970547223464 15.790673575131223,159.86200915960944 15.790673575131223,160.00431277783355 15.815544041572139,160.2889198071207 15.840414507780224,160.37430186197162 15.865284974104725,160.34584117980557 15.840414507780224,160.43122321806732 15.840414507780224,160.54506589710945 15.865284974104725,160.63044787736726 15.89015544054564,160.7158298327413 15.915025906753726,160.82967240127618 15.89015544054564,160.80121176331886 15.89015544054564,160.80121176331886 15.840414507780224,160.43122321806732 15.815544041572139,160.34584117980557 15.815544041572139,160.26045911660185 15.815544041572139,160.14661632699426 15.815544041572139,160.14661632699426 15.840414507780224,160.14661632699426 15.840414507780224,160.08969491560129 15.815544041572139,160.14661632699426 15.790673575131223,160.14661632699426 15.790673575131223,160.14661632699426 15.815544041572139,160.14661632699426 15.790673575131223,160.14661632699426 15.790673575131223,160.17507702857256 15.815544041572139,160.14661632699426 15.815544041572139,160.14661632699426 15.815544041572139,160.4027625414601 15.815544041572139,160.43122321806732 15.840414507780224,160.43122321806732 15.840414507780224,160.4027625414601 15.865284974104725,160.37430186197162 15.865284974104725,160.37430186197162 15.865284974104725,160.37430186197162 15.865284974104725,160.37430186197162 15.865284974104725,160.37430186197162 15.865284974104725,160.37430186197162 15.865284974104725,160.37430186197162 15.865284974104725,160.37430186197162 15.865284974104725,160.37430186197162 15.89015544054564,160.37430186197162 15.89015544054564,160.37430186197162 15.865284974104725,160.37430186197162 15.865284974104725,160.37430186197162 15.865284974104725,160.37430186197162 15.865284974104725,160.37430186197162 15.840414507780224,160.37430186197162 15.840414507780224,160.37430186197162 15.840414507780224,160.4027625414601 15.840414507780224,160.4027625414601 15.815544041572139,160.4027625414601 15.815544041572139,160.4027625414601 15.815544041572139,160.43122321806732 15.840414507780224,160.45968389196787 15.840414507780224,160.45968389196787 15.840414507780224,160.45968389196787 15.840414507780224,160.45968389196787 15.815544041572139,160.43122321806732 15.815544041572139,160.4027625414601 15.815544041572139,160.34584117980557 15.840414507780224,160.2889198071207 15.840414507780224,160.2889198071207 15.840414507780224,160.2889198071207 15.765803108806722,159.8050876929192 15.765803108806722,159.74816621516948 15.765803108806722,159.69124472644762 15.740932642482221,159.6058624726429 15.740932642482221,159.548940956156 15.740932642482221,159.46355866084923 15.740932642482221,159.4066371168301 15.71606217615772,159.4066371168301 15.740932642482221,159.3497155617224 15.71606217615772,159.32125477999216 15.71606217615772,159.32125477999216 15.740932642482221,159.29279399558436 15.740932642482221,159.2643332084117 15.740932642482221,159.2643332084117 15.71606217615772,159.23587241844507 15.69119170983322,159.20741162559716 15.69119170983322,159.1789508301008 15.69119170983322,159.15049003186869 15.69119170983322,159.1220292308426 15.69119170983322,159.06510762046673 15.69119170983322,159.03664681111695 15.69119170983322,159.0081859989732 15.69119170983322,159.0081859989732 15.641450777184218,158.9228035462147 15.616580310859717,158.9228035462147 15.616580310859717,158.95126436656574 15.616580310859717,158.95126436656574 15.616580310859717,158.9797251841519 15.541968911886215,158.9797251841519 15.34300518129021,159.0081859989732 15.268393782433122,159.0081859989732 15.243523316108622,159.0081859989732 15.243523316108622,158.9797251841519 15.293264248757623,158.9797251841519 15.293264248757623,158.9797251841519 15.293264248757623,159.0081859989732 15.243523316108622,158.9797251841519 15.243523316108622,159.03664681111695 15.243523316108622,159.1220292308426 15.268393782433122,159.20741162559716 15.243523316108622,159.29279399558436" stroke="#4dd2ff" stroke-linecap="round" stroke-linejoin="round" stroke-width="0.5"><title>2022-07-25 3.9km</title></polyline><polyline fill="none" points="114.06428571464494,135.81266509438865 114.32142857136205,134.99342512281146 114.1928571430035,132.3122696916107 115.02857142849825,131.56750254530925 115.02857142849825,130.30139665136812 115.67142857168801,133.1315126743866 114.0,135.58923610241618 115.86428571445867,136.63190414605197 116.50714285718277,137.7490468248143 117.21428571408615,137.89799905277323 117.47142857150175,137.5256184260361 117.7928571428638,137.07876142283203 118.62857142882422,136.70638037775643 121.4571428571362,134.84447230165824 124.09285714291036,132.6846529796021 125.31428571417928,131.19511868688278 125.25000000023283,133.87627822393551 125.63571428577416,135.06790152174653 127.30714285722934,133.42941898549907 127.69285714277066,134.54656656854786 128.2714285715483,133.7273251749575 130.32857142877765,134.69551945023704 131.35714285704307,135.2168542969739 133.15714285732247,135.3658070419333 133.86428571445867,137.07876142283203 135.40714285708964,137.89799905277323 134.70000000018626,138.56828370178118 135.66428571450524,138.04695125017315 136.5642857144121,139.83437524770852 137.85000000009313,143.1113078687922 138.75000000023283,144.22844062530203 138.75000000023283,145.12214559857966 137.01428571436554,148.02667920081876 137.4000000001397,147.87772904121084 139.00714285718277,146.53717623394914 140.48571428563446,146.0903247508104 140.55000000004657,146.0158494770876 137.97857142868452,147.72877885092748 138.42857142887078,148.54800452076597 142.6071428572759,148.17562933027511 143.76428571459837,147.2819280975964 145.5,148.47352949797641 144.47142857173458,151.2291002817219 144.60000000009313,150.4843524475 146.4000000001397,149.6651289521251 145.82142857136205,151.00567601120565 142.47857142868452,154.28255845268723 139.77857142849825,154.58045612636488 141.44999999995343,154.58045612636488 143.50714285718277,152.19727132940898 143.76428571459837,155.548622726521 160.35000000009313,156.3678396154428 162.60000000032596,156.2933653909131 160.09285714267753,160.16601498995442 160.02857142873108,154.9528280478553 157.7142857145518,151.89937268215 149.55000000004657,156.14441691886168 150.0,152.2717459720443 143.76428571459837,153.83571171364747 142.02857142873108,157.63390027085552 150.9642857145518,148.69695454399334 147.10714285704307,151.2291002817219 144.3428571431432,152.34622060711263 145.24285714305006,151.00567601120565 146.4000000001397,150.26092794910073 138.23571428563446,152.34622060711263 137.78571428568102,153.76123723061755 137.78571428568102,154.9528280478553 144.92142857145518,150.33540278940927 146.2071428571362,150.4843524475 145.11428571445867,150.6333020752063 142.86428571422584,149.36722927103983 146.2071428571362,147.80325394973624 146.97857142868452,146.8350770706893 147.30000000004657,146.76060187298572 150.19285714323632,146.31375052669318 148.45714285736904,148.02667920081876 148.90714285708964,148.69695454399334 150.51428571459837,150.6333020752063 151.02857142873108,150.85672645957675 153.1500000001397,152.79306825844105 153.92142857145518,153.46333922212943 154.17857142887078,153.53781373560196 154.4357142855879,153.83571171364747 155.07857142854482,154.28255845268723 157.32857142877765,154.9528280478553 157.6500000001397,155.39967410248937 158.42142857122235,156.14441691886168 158.87142857140861,156.5167880419176 159.57857142854482,158.15521872544196 159.96428571431898,159.27232844551327 160.80000000004657,160.7618054114282 161.12142857164145,161.13417417771416 164.46428571431898,162.9960151584819 164.9142857142724,163.21943575702608 166.20000000018626,163.5918032688205 167.2928571428638,163.81522368465085 167.87142857164145,164.1875908926013 169.02857142873108,164.70890466443961 169.28571428568102,164.70890466443961 169.54285714309663,165.00679808104178 169.80000000051223,165.6025845494005 169.99285714305006,165.75153109029634 170.31428571464494,165.97495084494585 170.37857142882422,166.04942408122588 170.50714285718277,166.12389731005533 170.70000000018626,166.19837053108495 170.9571428571362,166.34731695055962 171.08571428596042,166.5707365226117 171.60000000032596,166.79415602621157 171.7928571428638,166.94310232420685 171.98571428610012,167.16652171383612 172.24285714281723,167.31546793546295 172.62857142859139,167.46441412699642 172.88571428577416,167.53888721123803 173.20714285736904,167.83677947241813 173.3357142857276,167.91125251870835 173.4642857145518,167.91125251870835 173.5928571431432,168.06019858829677 174.1071428572759,168.2091446276754 174.36428571445867,168.50703661510488 174.8142857144121,168.87940142833395 175.20000000018626,169.1028202251764 175.32857142854482,169.02834730048198 175.6500000001397,169.1028202251764 175.8428571431432,169.251766051515 176.03571428591385,169.32623895345023 176.35714285750873,169.40071184758563 176.4857142858673,169.47518473438686 177.00000000023283,169.47518473438686 177.32142857159488,169.32623895345023 177.89999999990687,169.32623895345023 178.35000000032596,169.47518473438686 178.8000000002794,169.47518473438686 178.8000000002794,169.62413048482267 179.18571428605355,169.69860334857367 179.69999999995343,169.62413048482267 180.0214285715483,169.54965761327185 180.27857142849825,169.62413048482267 180.53571428591385,169.54965761327185 180.72857142891735,169.40071184758563 180.8571428572759,169.47518473438686 181.05000000004657,169.40071184758563 181.50000000023283,169.32623895345023 181.56428571417928,169.251766051515 181.885714286007,169.251766051515 182.27142857131548,169.1772931421874 182.52857142873108,169.1772931421874 182.78571428614669,169.1772931421874 183.1071428572759,169.02834730048198 183.42857142863795,168.95387436827878 183.62142857164145,168.87940142833395 183.75,168.87940142833395 184.45714285736904,168.95387436827878 184.77857142896391,169.02834730048198 185.03571428568102,169.02834730048198 184.90714285732247,169.1028202251764 185.22857142891735,168.95387436827878 185.5500000002794,169.02834730048198 185.74285714305006,169.02834730048198 186.0,169.02834730048198 185.67857142887078,169.02834730048198 185.35714285750873,169.02834730048198 185.29285714309663,169.02834730048198 185.10000000009313,169.02834730048198 184.97142857173458,169.02834730048198 184.45714285736904,168.87940142833395 184.39285714318976,168.80492848076392 184.20000000018626,168.80492848076392 183.94285714277066,168.73045552585972 183.3000000002794,168.87940142833395 182.20714285736904,169.32623895345023 181.94999999995343,169.1772931421874 181.56428571417928,169.1028202251764 180.6642857142724,169.1772931421874 180.0214285715483,169.32623895345023 179.4428571430035,169.32623895345023 179.25000000023283,169.40071184758563 178.47857142868452,169.62413048482267 177.7071428571362,169.69860334857367 177.32142857159488,169.62413048482267 177.0642857144121,169.54965761327185 176.421428571688,169.40071184758563 176.35714285750873,169.32623895345023 176.2928571428638,169.32623895345023 174.8142857144121,168.95387436827878 174.23571428563446,168.50703661510488 173.65714285708964,168.06019858829677 173.3357142857276,167.98572555731516 173.07857142877765,167.91125251870835 172.7571428574156,167.68783335702028 172.17857142863795,167.31546793546295 172.05000000004657,167.16652171383612 171.72857142868452,167.01757546170847 171.1500000001397,166.64520969823934 170.82857142877765,166.49626333959168 170.635714286007,166.34731695055962 170.37857142882422,166.34731695055962 170.05714285722934,166.34731695055962 169.54285714309663,165.6770578236319 169.35000000009313,165.6025845494005 169.0928571431432,165.3046913758153 168.45000000018626,164.93232473841636 167.80714285746217,164.70890466443961 167.74285714305006,164.55995791044552 167.61428571422584,164.48548452212708 167.22857142868452,164.0386440322618 166.65000000037253,163.5918032688205 166.32857142877765,163.44285628694342 165.68571428582072,163.1449622316868 165.30000000004657,162.92154161055805 164.9142857142724,162.6981209209771 164.46428571431898,162.32575295260176 164.52857142849825,162.17680571228266 164.52857142849825,161.80443747818936 164.4000000001397,161.65549013123382 164.46428571431898,161.2831216310733 164.46428571431898,161.13417417771416 164.07857142877765,160.7618054114282 163.75714285764843,160.68733163550496 162.53571428568102,161.20864790835185 162.14999999990687,160.9852266939124 161.82857142877765,159.64469797199126 161.82857142877765,159.34680236590793 161.31428571464494,158.82548476272495 161.12142857164145,158.97443268750794 160.54285714309663,158.89995872875443 159.96428571431898,158.37864080624422 159.7714285715483,158.00627063354477 159.1928571430035,157.33600384369493 159.0,156.8146848034812 158.74285714305006,156.4423138325801 157.90714285708964,156.2188911587582 157.39285714295693,155.4741484184633 157.32857142877765,155.17625110963127 157.39285714295693,154.72940491797635 157.2642857141327,154.80387930222787 156.68571428582072,154.9528280478553 156.30000000004657,154.80387930222787 156.1071428572759,154.72940491797635 155.85000000032596,154.50598171941238 155.33571428596042,154.05913511727704 155.07857142854482,153.98466065706452 154.95000000018626,153.9101861891104 154.75714285718277,153.83571171364747 154.62857142859139,153.6122882415657 154.30714285722934,153.46333922212943 153.40714285732247,153.01649198139785 153.1500000001397,152.86754284030758 152.7642857141327,152.64411907171598 152.44285714277066,152.34622060711263 152.37857142882422,152.2717459720443 152.3142857144121,151.89937268215 152.18571428582072,151.75042331317673 151.99285714305006,151.37804975704057 151.5428571428638,151.2291002817219 151.28571428591385,151.00567601120565 151.02857142873108,151.00567601120565 150.32142857159488,150.7822516724118 149.80714285746217,150.7822516724118 149.1642857142724,150.26092794910073 149.03571428591385,149.8140787468874 149.03571428591385,149.51617912651272 148.77857142849825,149.2182793848915 148.6500000001397,149.14380443032132 148.32857142854482,148.9948544985382 148.07142857159488,148.62247953610495 147.8142857144121,148.54800452076597 147.49285714281723,148.17562933027511 147.10714285704307,148.02667920081876 146.4642857145518,147.9522041248274 146.2714285715483,147.9522041248274 146.2714285715483,147.6543037443189 146.07857142877765,147.2074529454112 145.82142857136205,147.13297778571723 145.62857142882422,146.9095522609423 145.24285714305006,146.1648000171408 144.92142857145518,145.56899767456343 144.6642857142724,145.49452234763885 143.95714285736904,145.42004701308906 143.3142857144121,145.42004701308906 142.8000000002794,144.97319484571926 142.5428571428638,144.52634240454063 142.41428571450524,144.52634240454063 142.15714285708964,144.30291608150583 141.64285714295693,143.4836856443435 141.51428571459837,143.33473455684725 141.06428571417928,143.03683229081798 140.80714285722934,142.73892990325112 140.421428571688,142.4410273937392 140.22857142868452,142.29207609355217 140.421428571688,142.21760043204995 139.84285714291036,142.73892990325112 139.3928571427241,142.96235670539318 138.87857142859139,142.21760043204995 138.8142857144121,141.91969770978903 138.29999999981374,141.54731913574506 137.85000000009313,141.24941613996634 137.65714285732247,140.9515130223008 137.33571428596042,140.65360978298122 137.14285714295693,140.4301822737907 136.5642857144121,139.75989933533128 136.30714285722934,139.31304370088037 135.85714285750873,138.86618779279524 135.53571428591385,138.71723576256773 134.89285714295693,138.64275973598706 134.57142857159488,138.1959034173051 134.50714285718277,137.6745706992806 134.12142857140861,137.07876142283203 134.05714285746217,137.1532376090181 134.05714285746217,137.4511422777432 134.3142857144121,138.1214273372898 134.44285714277066,138.79171178146498 134.18571428582072,138.56828370178118 133.80000000004657,138.86618779279524 133.73571428563446,139.16409176186426 132.51428571436554,138.27037948946236 132.385714286007,137.82352294248994 132.32142857159488,137.1532376090181 131.61428571422584,136.63190414605197 131.80714285746217,136.03609401796712 131.67857142863795,135.4402834031498 131.61428571422584,135.2168542969739 131.55000000004657,134.84447230165824 131.55000000004657,134.62104301317595 131.1642857142724,134.17418423085473 130.90714285732247,134.17418423085473 130.7142857145518,134.17418423085473 130.4571428571362,134.09970774059184 130.58571428549476,133.5783720954787 129.81428571464494,133.35494241910055 128.52857142873108,133.35494241910055 128.01428571459837,133.1315126743866 128.01428571459837,132.90808286127867 127.62857142882422,132.5356996873743 126.66428571450524,132.3122696916107 125.82857142901048,132.5356996873743 125.57142857136205,132.6846529796021 125.37857142882422,132.83360624162015 125.12142857164145,132.90808286127867 124.54285714309663,133.28046584519325 124.09285714291036,133.42941898549907 123.83571428572759,133.5783720954787 123.77142857154831,133.80180170323 123.6428571427241,133.80180170323 122.22857142868452,135.14237791317282 122.16428571427241,134.91894871601835 121.7142857145518,134.99342512281146 121.0071428574156,135.14237791317282 119.85000000009313,136.03609401796712 119.33571428596042,136.1105703105568 119.14285714295693,136.25952287303517 118.88571428577416,136.48295165976742 118.56428571441211,136.78085660206852 118.75714285718277,137.00428522913717 118.75714285718277,137.07876142283203 119.01428571436554,137.30218995857285 116.82857142854482,137.37666612211615 116.05714285722934,136.78085660206852 115.99285714281723,136.85533281852258 116.18571428582072,136.85533281852258 116.44285714277066,137.30218995857285 116.31428571441211,137.37666612211615 115.99285714281723,136.85533281852258 115.99285714281723,135.4402834031498 115.86428571445867,134.99342512281146 115.73571428610012,134.91894871601835 115.92857142863795,134.24866071360884 117.08571428572759,133.5038955443888 116.89285714318976,133.42941898549907 116.69999999995343,132.9825594734284" stroke="#4dd2ff" stroke-linecap="round" stroke-linejoin="round" stroke-width="0.5"><title>2019-05-06 3.4km</title></polyline><polyline fill="none" points="61.67857142817229,233.10348253324628 60.07142857182771,233.7241195087554 59.6428571427241,233.84824686602224 58.785714285913855,234.2206288613379 58.1428571427241,234.46888346155174 58.03571428544819,234.46888346155174 57.82142857136205,234.59301074256655 57.71428571455181,234.59301074256655 51.714285714086145,236.08253712777514 28.57142857136205,243.28188892942853 20.214285714551806,248.4951860369183 18.92857142817229,249.11581515555736 15.285714285448194,246.13679249526467 14.0,244.7714046697365 25.57142857136205,250.85357500368264 25.357142857275903,250.72944938240107 18.92857142817229,240.67523199343123 18.392857142724097,236.08253712777514 15.82142857182771,238.93745759804733 15.607142857275903,246.01266639283858 16.892857142724097,247.12980085983872 18.285714285913855,248.37106017488986 18.92857142817229,248.9916893573245 31.25,254.32908724842127 24.82142857136205,250.48119810270146 16.57142857136205,246.01266639283858 26.214285714551806,251.1018262077123 22.785714285913855,249.36406671488658 27.82142857136205,251.970705022919 35.0,255.6944643406896 29.75,253.58433546102606 19.892857142258435,249.48819247516803 19.464285714551806,249.2399409414502 31.464285714086145,254.45321250206325 24.82142857136205,250.48119810270146 15.178571428637952,245.26790951099247 16.035714285448194,239.18571123480797 17.0,232.35871774400584 17.642857143189758,227.51773549348582 18.17857142863795,234.84126526722685 19.25,248.37106017488986 19.357142856810242,248.9916893573245 19.357142856810242,249.11581515555736 19.357142856810242,249.11581515555736 35.8571428572759,256.3150897852611 36.60714285681024,256.6874648996163 25.142857142724097,250.6053237488959 16.035714285448194,246.26091858535074 19.142857142724097,248.9916893573245 15.607142857275903,246.01266639283858 31.892857142724097,254.20496198220644 34.67857142863795,255.6944643406896 34.67857142863795,255.6944643406896 19.57142857136205,249.36406671488658 15.714285714086145,246.13679249526467 15.607142857275903,246.01266639283858 16.892857142724097,247.12980085983872 15.607142857275903,246.01266639283858 15.5,246.01266639283858 16.785714285913855,247.12980085983872 19.25,249.11581515555736 19.357142856810242,249.2399409414502 15.607142857275903,246.01266639283858 86.0,203.3125351005001 25.25,245.1437833198579 23.42857142863795,246.38504466228187 19.67857142863795,248.9916893573245 31.464285714086145,254.32908724842127 22.67857142817229,249.48819247516803 55.24999999953434,235.08951974031515 20.964285714551806,227.64186348416843 19.785714285448194,227.51773549348582 19.464285714551806,235.08951974031515 19.25,248.9916893573245 18.5,237.9444425428519 18.607142856810242,238.4409501714399 31.25,252.71545779891312 29.214285714551806,253.3360847637523 36.3928571427241,256.56333987403195 61.57142857136205,251.1018262077123 20.42857142863795,249.2399409414502 46.035714285913855,235.83428285690024 46.3571428572759,234.71713801124133 47.00000000046566,235.21364695823286 48.82142857182771,235.33777416334487 54.92857142863795,230.24854836356826 54.07142857136205,229.75203738873824 53.107142857741565,229.6279096135404 52.57142857136205,229.37965402472764 51.92857142863795,228.51075906469487 50.214285714086145,228.0142473806627 49.785714285913855,228.38663116283715 49.785714285913855,228.75901483092457 48.285714285913855,228.88314269518014 47.8571428572759,229.13139838539064 47.75,229.37965402472764 47.10714285681024,230.37267607543617 46.3571428572759,230.7450591356028 45.28571428544819,230.8691867965972 45.07142857136205,230.0002929015318 45.5,231.24156970449258 45.28571428544819,231.7380800708197 47.10714285681024,234.46888346155174 47.8571428572759,234.59301074256655 49.25000000046566,234.2206288613379 50.535714285913855,233.97237421071623 51.17857142863795,233.97237421071623 53.0,233.10348253324628 54.07142857136205,232.60697272408288 55.35714285681024,231.7380800708197 55.46428571455181,230.8691867965972 54.71428571455181,229.6279096135404 53.0,229.13139838539064 51.714285714086145,228.75901483092457 52.03571428544819,229.00727054686286 53.8571428572759,230.12442063866183 51.3928571427241,234.46888346155174 50.8571428572759,235.08951974031515 44.535714285913855,234.46888346155174 43.03571428544819,233.84824686602224 42.285714285913855,233.22760995361023 40.67857142817229,232.11046271247324 40.03571428544819,231.61395249841735 39.07142857136205,230.24854836356826 39.285714285913855,228.88314269518014 41.214285714086145,227.76599146227818 42.17857142817229,227.2694794740528 42.82142857182771,227.39360749011394 43.67857142910361,227.39360749011394 43.89285714318976,227.39360749011394 44.42857142863795,226.64883920317516 45.17857142817229,227.51773549348582 44.964285714086145,228.26250324817374 45.5,227.76599146227818 47.10714285681024,227.89011942781508 47.21428571455181,228.26250324817374 47.42857142863795,228.0142473806627 47.32142857182771,228.1383753210539 49.67857142817229,228.51075906469487 50.74999999953434,227.64186348416843" stroke="#4dd2ff" stroke-linecap="round" stroke-linejoin="round" stroke-width="0.5"><title>2019-04-30 5.1km</title></polyline></svg>