<?xml version="1.0" encoding="utf-8" ?>
<svg baseProfile="full" height="300mm" version="1.1" viewBox="0,0,200,300" width="200mm" xmlns="http://www.w3.org/2000/svg" xmlns:ev="http://www.w3.org/2001/xml-events" xmlns:xlink="http://www.w3.org/1999/xlink"><defs /><rect fill="#222222" height="300" width="200" x="0" y="0" /><text fill="#FFFFFF" style="font-size:12px; font-family:Arial; font-weight:bold;" x="10" y="20">Over 3km Runs</text><text fill="#FFFFFF" style="font-size:4px; font-family:Arial" x="10" y="280">ATHLETE</text><text fill="#FFFFFF" style="font-size:9px; font-family:Arial" x="10" y="290">arinic</text><text fill="#FFFFFF" style="font-size:4px; font-family:Arial" x="120" y="280">STATISTICS</text><text fill="#FFFFFF" style="font-size:3px; font-family:Arial" x="120" y="285">Number: 7</text><text fill="#FFFFFF" style="font-size:3px; font-family:Arial" x="120" y="290">Weekly: 1.2</text><text fill="#FFFFFF" style="font-size:3px; font-family:Arial" x="141" y="285">Total: 25.7 km</text><text fill="#FFFFFF" style="font-size:3px; font-family:Arial" x="141" y="290">Avg: 3.7 km</text><text fill="#FFFFFF" style="font-size:3px; font-family:Arial" x="167" y="285">Min: 3.1 km</text><text fill="#FFFFFF" style="font-size:3px; font-family:Arial" x="167" y="290">Max: 5.1 km</text><polyline fill="none" points="45.60312038753182,39.02098429715261 52.911538284271955,80.60287007212173 64.28018834721297,45.230103750363924 50.96262684557587,87.0 63.305732627399266,47.111650969600305 53.073947571218014,80.22656762052793 63.79296048730612,45.04194892302621 50.96262684557587,86.62369885470252 16.044630225747824,42.407779319328256 16.044630225747824,42.407779319328256 16.044630225747824,42.407779319328256 16.044630225747824,42.407779319328256 15.882220938801765,42.407779319328256 15.882220938801765,42.407779319328256 39.91879535652697,43.72486459161155 52.09949185140431,77.96875129500404 64.11777906026691,44.101174496579915 52.424310425296426,82.10807911178563 63.14332334045321,47.111650969600305 63.468141914345324,46.359032312757336 53.88599400408566,77.21614523848984 64.28018834721297,43.34855460980907 64.11777906026691,44.101174496579915 52.74912899918854,80.97917244769633 63.305732627399266,46.547187005518936 63.468141914345324,46.359032312757336 63.63055120036006,45.606413347646594 52.74912899918854,80.79102126939688 63.79296048730612,45.230103750363924 52.424310425296426,81.91992804862093 63.305732627399266,46.359032312757336 63.468141914345324,46.17087760020513 56.97177045047283,67.0559333980782 63.9553697751835,44.477484324597754 54.04840329103172,76.6516904947348 63.468141914345324,45.9827228684444 64.11777906026691,44.101174496579915 64.28018834721297,43.53670961013995 54.21081257797778,75.89908390049823 16.044630225747824,42.407779319328256 21.404136682860553,40.71438258618582 20.59209025092423,35.8223388385959 20.754499537870288,33.94078009354416 20.916908823885024,33.0 51.44985470548272,40.902537855436094 63.305732627399266,44.66563920979388 52.26190113835037,86.62369885470252 16.044630225747824,42.407779319328256 16.694267372600734,42.59593441628385 43.329390374943614,44.28932941996027 52.424310425296426,80.4147188559873 64.44259763415903,45.606413347646594 63.9553697751835,45.230103750363924 53.073947571218014,80.60287007212173 63.79296048730612,45.606413347646594 63.79296048730612,45.230103750363924 57.13417973648757,67.0559333980782 16.044630225747824,42.407779319328256 15.557402365840971,41.46700354886707 15.557402365840971,41.27884833724238 46.90239468123764,80.22656762052793 63.468141914345324,51.43920228455681 64.11777906026691,49.18135069240816" stroke="#4dd2ff" stroke-linecap="round" stroke-linejoin="round" stroke-width="0.5"><title>2023-01-16 3.1km</title></polyline><polyline fill="none" points="169.75903614237905,54.53541067033075 162.27710843272507,62.44967798516154 154.7951807230711,67.72584676882252 140.48192770965397,62.44967798516154 134.95180722884834,59.43472100910731 139.1807228922844,51.14357662736438 141.1325301192701,49.63609382859431 169.75903614237905,53.781670042313635 177.2409638557583,66.59523980808444 173.98795180767775,67.72584676882252 167.80722891539335,70.74079697323032 165.53012048080564,71.87140266550705 157.39759036153555,72.62513960036449 154.46987951733172,71.87140266550705 151.86746987886727,71.11766557605006 147.31325301155448,68.85645338497125 144.71084337309003,68.10271567921154 137.22891566343606,65.08776332018897 133.0,59.43472100910731 142.10843373462558,51.14357662736438 145.03614457696676,49.63609382859431 148.93975903652608,48.128610415617004 154.14457831345499,47.75173946633004 167.80722891539335,51.52044723019935 170.4096385538578,54.53541067033075 176.59036144427955,57.55037164851092 180.49397590383887,61.6959389729891 175.93975903652608,67.34897781978361 172.68674698658288,68.4795845511835 169.10843373462558,69.61019093520008 155.7710843384266,71.87140266550705 145.68674698844552,68.4795845511835 146.33734939806163,50.01296458649449 149.26506024040282,48.5054813278839 171.06024096347392,69.98705965280533 156.74698795191944,73.00200801063329 137.87951807305217,53.781670042313635 139.50602409616113,52.651058808434755 139.50602409616113,51.14357662736438 141.45783132500947,50.766705985181034 143.08433734998107,49.63609382859431 144.38554216735065,49.25922303367406 146.33734939806163,48.5054813278839 146.33734939806163,48.128610415617004 146.33734939806163,48.128610415617004 147.31325301155448,48.128610415617004 147.31325301155448,48.128610415617004 147.31325301155448,48.5054813278839 147.9638554211706,48.5054813278839 163.25301204808056,51.897317794617265 173.01204819232225,67.72584676882252 169.43373494036496,69.61019093520008 147.6385542154312,68.85645338497125 143.73493975959718,67.34897781978361 135.27710843272507,62.07280849805102 134.95180722884834,57.55037164851092 138.85542168654501,54.53541067033075 154.7951807230711,49.25922303367406 171.06024096347392,54.15854037529789 174.6385542154312,56.419761570869014 178.86746987886727,63.20341684482992 178.86746987886727,63.580286216922104 176.59036144427955,65.84150164015591 174.96385541930795,66.59523980808444 173.66265060193837,67.34897781978361 171.3855421692133,68.10271567921154 170.4096385538578,69.2333221794106 166.83132530003786,69.98705965280533 164.87951807305217,71.49453414068557 163.5783132519573,72.2482711521443 158.69879518263042,73.37887638178654 157.39759036153555,72.62513960036449 156.42168674618006,71.11766557605006 151.86746987886727,70.36392833269201 150.24096385389566,69.98705965280533 148.6144578307867,69.61019093520008 146.01204819232225,68.85645338497125 144.38554216735065,68.4795845511835 142.75903614610434,68.10271567921154 141.7831325288862,67.34897781978361 139.1807228922844,64.71089410153218 138.2048192769289,63.580286216922104 136.5783132519573,62.44967798516154 135.27710843272507,61.31906940904446 133.32530120573938,59.0578512144275 135.27710843272507,55.28915114561096 137.5542168673128,53.02792925783433 139.1807228922844,52.651058808434755 141.1325301192701,51.897317794617265 142.75903614610434,51.14357662736438 146.01204819232225,49.63609382859431 148.6144578307867,47.75173946633004 151.54216867499053,46.24425528408028 154.46987951733172,46.99799745157361 156.42168674618006,48.88235219987109 159.67469879426062,51.14357662736438 163.5783132519573,51.52044723019935 167.80722891539335,51.14357662736438 167.80722891539335,51.52044723019935 172.68674698658288,55.66602132515982 170.4096385538578,69.2333221794106 163.5783132519573,72.2482711521443 157.39759036153555,72.62513960036449 145.36144578270614,68.85645338497125 143.73493975959718,68.4795845511835 142.10843373462558,68.10271567921154 140.15662650577724,65.84150164015591 139.1807228922844,64.71089410153218 137.5542168673128,63.20341684482992 136.5783132519573,62.44967798516154 134.95180722884834,60.94219980528578 134.95180722884834,55.66602132515982 136.2530120499432,54.53541067033075 139.1807228922844,53.02792925783433 140.80722891539335,52.27418832038529 144.06024096347392,51.14357662736438 145.68674698844552,49.63609382859431 147.31325301155448,48.5054813278839 148.6144578307867,47.75173946633004 152.51807228848338,46.24425528408028 154.7951807230711,50.01296458649449 163.90361445583403,50.01296458649449 167.1566265039146,51.897317794617265 171.06024096347392,57.17350166081451 172.36144578270614,57.92724159732461 178.5421686731279,58.30411150865257 178.86746987886727,61.6959389729891 176.91566265001893,64.33402484562248 175.28915662504733,65.08776332018897 172.68674698658288,67.34897781978361 167.48192770965397,69.2333221794106 166.1807228922844,70.74079697323032 165.53012048080564,71.87140266550705 162.60240963846445,73.75574471591972 159.67469879426062,73.75574471591972 156.74698795191944,71.87140266550705 155.7710843384266,71.11766557605006 152.51807228848338,69.98705965280533 149.26506024040282,70.36392833269201 147.31325301155448,69.61019093520008 145.68674698844552,68.85645338497125 144.38554216735065,68.4795845511835 143.08433734998107,67.72584676882252 142.10843373462558,67.34897781978361 141.45783132500947,66.59523980808444 139.8313253019005,65.84150164015591 138.53012048080564,65.08776332018897 137.22891566343606,63.9571555510629 136.2530120499432,63.20341684482992 134.95180722884834,62.44967798516154 133.32530120573938,58.30411150865257 133.97590361349285,57.55037164851092 136.90361445769668,54.15854037529789 139.1807228922844,52.651058808434755 140.15662650577724,52.27418832038529 141.7831325288862,51.14357662736438 143.73493975959718,50.38983530481346 147.9638554211706,46.99799745157361 154.14457831345499,49.25922303367406 155.7710843384266,50.01296458649449 157.07228915579617,51.14357662736438 160.65060240775347,51.897317794617265 162.60240963846445,50.38983530481346 167.48192770965397,49.63609382859431 170.4096385538578,54.15854037529789 174.6385542154312,58.30411150865257 176.26506024226546,58.30411150865257 178.86746987886727,62.44967798516154 178.5421686731279,62.826547434786335 176.26506024226546,65.84150164015591 174.6385542154312,66.97210883302614 173.33734939806163,67.34897781978361 171.71084337309003,68.4795845511835 166.50602409616113,70.36392833269201 165.53012048080564,71.49453414068557 162.92771084420383,73.00200801063329 159.67469879426062,73.37887638178654 156.74698795191944,71.87140266550705 154.46987951733172,70.36392833269201 155.12048192694783,68.4795845511835 156.42168674618006,68.4795845511835 158.04819277115166,68.10271567921154 159.0240963846445,68.10271567921154 159.3493975903839,68.4795845511835 160.65060240775347,69.2333221794106 162.60240963846445,67.34897781978361 162.92771084420383,67.34897781978361 162.92771084420383,67.34897781978361 163.5783132519573,66.2183707433287 165.2048192769289,63.20341684482992 167.80722891539335,60.56533016380854 171.71084337309003,60.56533016380854 174.31325301341712,62.44967798516154 171.06024096347392,65.46463249949738 171.06024096347392,62.07280849805102 173.01204819232225,61.31906940904446 173.66265060193837,63.9571555510629 171.3855421692133,65.84150164015591 172.03614457696676,62.07280849805102 174.6385542154312,62.826547434786335 175.6144578307867,62.44967798516154 177.56626505963504,62.826547434786335 179.51807228848338,64.33402484562248 175.93975903652608,65.84150164015591 175.93975903652608,65.84150164015591 177.89156626351178,65.46463249949738 179.19277108460665,65.84150164015591 181.14457831159234,66.2183707433287 183.09638554044068,66.2183707433287 184.07228915579617,66.2183707433287 185.04819277115166,66.59523980808444 185.69879517890513,65.84150164015591 187.0,65.46463249949738" stroke="#4dd2ff" stroke-linecap="round" stroke-linejoin="round" stroke-width="0.5"><title>2022-09-07 3.1km</title></polyline><polyline fill="none" points="18.89626037911512,125.71505702176364 19.722845039796084,125.65458730072714 20.394445076817647,125.47317809885135 21.530998985283077,125.17082930047764 22.77087597642094,126.19881455949508 22.87419905909337,123.6590829018387 22.77087597642094,123.11485321604414 22.87419905909337,122.44968289375538 24.52736838092096,121.90545205230592 26.335522326175123,121.60310136008775 26.903799280524254,121.54263120226096 27.988691647769883,121.30075050715823 29.745184052037075,120.99839949392481 30.830076419282705,120.75651856791228 31.398353373631835,122.26827267115004 31.914968786528334,124.08237229799852 32.06995341042057,124.6266010592808 32.431584199657664,126.38022353034467 32.5865688235499,127.04538926214445 33.051522695226595,128.19431005982915 32.99986115377396,128.61759608524153 33.103184236679226,129.8874522742699 33.41315348423086,131.2782438994618 33.46481502568349,131.8224657845567 33.77478427323513,133.6365349800326 33.72312273201533,133.69700385362376 33.87810735590756,134.3016922371462 34.08475352125242,134.90637997892918 34.136415062472224,135.08778617612552 34.239738145144656,135.32966101606144 34.34306122781709,135.51106707850704 34.44638431025669,135.8134103877237 35.01466126460582,135.32966101606144 36.46118442108855,133.33419051527744 37.494415247114375,132.7295011045062 38.42432299046777,132.54809415602358 38.88927686214447,132.60856314533157 39.767523064278066,132.48762516042916 40.43912310129963,132.4271561584901 41.67900009220466,132.18528008594876 42.81555400067009,132.06434201117372 43.22884633135982,132.00387296424014 43.22884633135982,131.9434039107291 43.48715403792448,131.8224657845567 44.83035411173478,131.70152763277292 45.50195414852351,131.52012035693042 46.7418311398942,131.3991821409436 47.3101080940105,131.33871302340413 48.34333892003633,131.09683648869395 49.27324666338973,130.85495985118905 49.634877452393994,130.85495985118905 49.78986207628623,130.85495985118905 49.99650824163109,130.85495985118905 50.71976981963962,130.61308311100584 51.59801602200605,130.49214470258448 52.16629297612235,130.4316754885367 53.19952380214818,130.18979856860824 54.23275462817401,130.06886007013964 54.90435466496274,129.8874522742699 55.36930853663944,129.82698299607728 55.36930853663944,129.94792154605966 55.36930853663944,130.00839081127197 55.9892470324412,129.76651371159824 56.24755473877303,129.6455751231988 56.76417015213519,129.58510581951123 57.074139399454,129.58510581951123 57.64241635403596,129.4036978694494 57.90072406060062,129.52463650912978 57.79740097792819,129.34322854003403 57.74573943647556,129.2222898619366 57.952385601820424,129.28275920415763 57.84906251914799,128.9804124282091 57.33244710625149,126.31975387991406 57.33244710625149,126.07787521369755 57.074139399454,125.71505702176364 57.074139399454,124.92895014636451 56.867493234574795,125.11035952169914 56.60918552801013,125.23129907308612 56.66084706922993,125.29176883911714 57.12580094090663,124.38472167414147 56.867493234574795,123.7195528348675 56.5575239865575,122.75203313649399 56.50586244510487,122.08686239045346 56.24755473877303,120.81698880903423 56.040908573661,120.15181580296485 55.67927778465673,118.45864464563783 55.36930853663944,116.70499778306112 55.265985454199836,116.1002907162183 55.1110008303076,115.19322891236516 55.214323912747204,114.70946202613413 55.162662371760234,114.52804933791049 55.162662371760234,114.40710751368897 55.007677747868,113.9838109263801 54.594385417411104,113.01627468829975 54.43940079328604,112.53250595304416 54.23275462817401,111.20213981170673 54.129431545501575,110.89978343714029 54.23275462817401,110.89978343714029 54.077770004281774,110.47648424300132 53.92278538038954,109.99271335022058 53.92278538038954,109.81129915919155 53.76780075649731,109.50894204631913 53.71613921527751,109.14611329871695 53.66447767405771,108.96469883818645 53.561154591152444,108.66234127583448 53.45783150871284,108.0576256691129 53.40616996749304,107.81573924660916 53.35450842627324,107.51338107406627 53.30284688482061,107.15055105515057 53.25118534360081,106.84819252946181 53.30284688482061,106.66677733702818 53.19952380214818,106.42489032377489 53.044539178255945,105.27592560794437 52.57958530657925,103.8850704820361 52.424600682687014,103.15940558962757 52.26961605879478,102.1918509613024 52.21795451734215,101.88948980270652 52.11463143490255,101.2847670041956 52.06296989344992,100.68004356353777 51.959646810777485,100.4381540074246 51.907985269790515,100.1962643485167 51.907985269790515,99.95437458704691 51.75300064566545,99.71248472249135 51.70133910444565,99.41012224764563 51.70133910444565,99.10775961220497 52.11463143490255,99.10775961220497 52.11463143490255,99.0472870657104 51.339708315441385,98.0192527952604 51.02973906765692,96.80979833612218 50.92641598498449,96.32601583335781 50.771431360859424,94.08851641125511 50.61644673720002,93.60473159642424 50.40980057208799,93.0 50.40980057208799,93.54425846569939 50.46146211354062,93.78615095023997 50.66810827841982,94.08851641125511 50.71976981963962,94.08851641125511 50.61644673720002,94.14898948417976 50.61644673720002,94.20946255075978 50.771431360859424,94.08851641125511 50.61644673720002,94.39088171173353 50.66810827841982,94.63277383660898 50.87475444376469,94.63277383660898 50.823092902312055,94.99561183102196 50.771431360859424,95.237503699027 50.771431360859424,95.41892253264086 50.87475444376469,95.66081422066782 50.87475444376469,96.44696149742231 50.87475444376469,96.62837994575966 50.823092902312055,96.8702711200458 51.08140060887672,97.29358042794047 51.18472369154915,97.47499860654352 51.288046774221584,97.89830746490043 51.288046774221584,98.0797254507197 51.339708315441385,98.2611433788552 51.339708315441385,98.44256124901585 51.44303139811382,98.68445165286539 51.44303139811382,98.74492423783522 51.49469293933362,98.98681451298762 51.59801602200605,99.22870468563633 51.70133910444565,99.4705947553739 51.856323728337884,99.95437458704691 51.856323728337884,100.1962643485167 51.959646810777485,100.61957118404098 51.959646810777485,100.61957118404098 52.06296989344992,100.86146066297079 52.06296989344992,101.16382236737991 52.21795451734215,101.64760076027596 52.16629297612235,102.252323173685 52.01130835223012,102.49421195924515 51.856323728337884,102.61515631352086 51.64967756299302,102.67562848085072 51.49469293933362,102.97798922215588 51.49469293933362,102.8570449447725 51.64967756299302,102.67562848085072 52.11463143490255,102.5546841394389 52.32127760024741,102.79657279659295 52.372939141467214,103.09893347357865 52.32127760024741,103.15940558962757 52.476262224139646,103.52223815151956 52.476262224139646,103.70365434564883 52.527923765359446,104.00601454090793 52.68290838901885,104.42931854457129 52.73456993047148,104.67120640544454 52.83789301314391,104.91309416334843 52.941216095816344,105.15498181886505 52.992877636803314,105.33639749296708 53.14786226069555,106.06205961131491 53.561154591152444,108.42045511020115 53.66447767405771,108.90422733855667 54.077770004281774,110.17412748298375 54.181093086721376,110.77884084224934 54.38773925206624,111.32308231666684 54.646046958630905,112.65344817546429 54.697708500083536,113.07674575143028 54.80103158252314,113.56051402457524 54.90435466496274,114.28616566362325 55.007677747868,114.70946202613413 55.007677747868,115.07228722929722 55.05933928885497,115.43511220125947 55.265985454199836,115.97934922605054 55.42097007809207,116.52358573034871 55.36930853663944,116.70499778306112 55.36930853663944,116.94688042986672 55.42097007809207,117.12829234771198 55.47263161931187,117.30970420769881 55.5242931607645,117.49111600976903 55.5759547019843,117.73299832287012 55.5759547019843,117.9748805333511 55.62761624343693,117.9748805333511 55.730939326109365,118.45864464563783 55.730939326109365,118.64005608181469 55.730939326109365,118.88193790684454 55.834262408548966,119.12381962925429 55.88592394976877,119.24476045189658 55.9892470324412,119.6075827657478 56.299216279992834,121.24028031760827 56.76417015213519,122.9939132152358 56.81583169312216,123.59861296258168 57.28078556479886,125.23129907308612 57.384108647471294,125.11035952169914 57.435770188691095,125.11035952169914 57.435770188691095,125.17082930047764 57.74573943647556,125.35223859868711 57.69407789525576,125.23129907308612 57.487431730143726,125.17082930047764 57.487431730143726,125.11035952169914 57.487431730143726,125.17082930047764 57.33244710625149,125.53364783921279 57.22912402357906,125.7755267363973 57.33244710625149,126.74304129864322 57.487431730143726,127.10585883562453 57.487431730143726,127.34773706516717 57.64241635403596,127.71055421704659 57.90072406060062,127.71055421704659 57.74573943647556,127.83149321615929 57.69407789525576,128.31524895649636 57.79740097792819,128.4966572530684 57.79740097792819,128.9804124282091 57.74573943647556,129.2222898619366 57.84906251914799,129.4641671924037 57.90072406060062,129.70604442071635 58.15903176693246,130.12932932260446 58.36567793227732,130.31073704146547 58.36567793227732,130.3712062682025 58.36567793227732,130.31073704146547 58.41733947349712,130.79449067584937 58.46900101471692,131.03636733884923 58.46900101471692,131.33871302340413 58.46900101471692,131.58058945537778 58.520662556169555,131.76199671183713 58.72730872128159,132.12481105170446 58.77897026250139,132.2457491136738 58.83063180372119,132.18528008594876 58.83063180372119,132.18528008594876 58.83063180372119,132.2457491136738 59.037277969066054,133.6365349800326 59.140601051738486,134.05981696094386 59.24392413441092,134.1202857895405 59.34724721685052,134.42262983700493 59.45057029952295,135.0273174502072 59.55389338219538,135.57153575326083 59.657216464634985,136.29715934826527 59.60555492318235,136.17622214660514 59.60555492318235,136.5995022400748 59.708878006087616,137.02278201887384 59.760539547074586,137.14371904084692 59.91552417096682,137.62746687192703 60.01884725387208,138.17168269038666 60.07050879509188,138.29261946835322 60.07050879509188,138.35308784764493 60.01884725387208,138.71589798893547 60.07050879509188,138.89730297302594 60.07050879509188,139.1391761949635 60.122170336544514,139.1391761949635 60.173831877764314,139.3810493144556 60.122170336544514,139.62292233121116 60.122170336544514,139.864795245172 60.122170336544514,140.1066680564545 60.225493418984115,140.65088150603697 60.173831877764314,140.71134963515215 60.32881650165655,140.95322208688594 60.32881650165655,141.3160305719939 60.32881650165655,141.43696668220218 60.27715496043675,141.6183707996388 60.173831877764314,141.6183707996388 59.81220108852722,141.67883882601745 59.708878006087616,141.7997748591588 59.760539547074586,141.7997748591588 59.708878006087616,141.8602428660961 59.55389338219538,141.92071086680517 59.50223184074275,142.1021148300497 59.50223184074275,142.16258280485636 59.50223184074275,142.2230507733184 59.60555492318235,142.16258280485636 59.60555492318235,142.16258280485636 59.55389338219538,142.34398669120856 59.60555492318235,142.5858584495727 59.55389338219538,142.5858584495727 59.60555492318235,142.5858584495727 59.708878006087616,142.64632637321483 59.708878006087616,142.64632637321483 59.708878006087616,142.64632637321483 59.760539547074586,142.5858584495727 59.760539547074586,142.5858584495727 59.81220108852722,142.46492258331273 59.81220108852722,142.52539051964413 59.91552417096682,142.46492258331273 59.86386262997985,142.46492258331273 59.81220108852722,142.5858584495727 59.81220108852722,142.52539051964413 59.86386262997985,142.64632637321483 59.86386262997985,142.40445464040386 59.81220108852722,142.34398669120856 59.760539547074586,142.28351873566862 59.708878006087616,142.04164684878197 59.708878006087616,141.7997748591588 59.760539547074586,141.73930684564402 60.225493418984115,141.5579027668573 60.32881650165655,141.6183707996388 60.32881650165655,141.6183707996388 60.43213958432898,141.73930684564402 60.48380112554878,141.98117886087857 60.53546266676858,142.2230507733184 60.53546266676858,142.40445464040386 60.53546266676858,142.64632637321483 60.742108831880614,143.06960165838245 60.742108831880614,143.432408795401 60.742108831880614,143.432408795401 60.742108831880614,143.432408795401 60.742108831880614,143.432408795401 60.845431914553046,143.85568349645473 60.89709345577285,144.097554612963 60.89709345577285,144.27895788295427 61.00041653844528,144.58129653788637 61.05207807966508,144.88363503239816 61.10373962111771,145.00457038515015 61.10373962111771,145.54877915530233 61.15540116233751,145.73018196306657 61.258724245009944,145.9115847130306 61.310385786462575,146.33485757175367 61.258724245009944,146.2743900398491 61.258724245009944,146.2743900398491 61.20706270379014,146.33485757175367 61.20706270379014,146.39532509743003 61.20706270379014,146.33485757175367 61.20706270379014,146.39532509743003 61.20706270379014,146.39532509743003 61.15540116233751,146.33485757175367 61.10373962111771,146.2743900398491 61.10373962111771,146.21392250130884 60.845431914553046,146.57672763551818 60.793770373333246,146.51626012928318 60.845431914553046,146.45579261647072 60.89709345577285,146.45579261647072 60.89709345577285,146.45579261647072 60.69044729066081,146.51626012928318 60.48380112554878,146.51626012928318 60.32881650165655,146.45579261647072 60.122170336544514,146.57672763551818 60.01884725387208,146.57672763551818 60.07050879509188,146.57672763551818 60.07050879509188,146.57672763551818 59.81220108852722,146.63719513540855 59.55389338219538,146.69766262895428 59.39890875807032,146.69766262895428 59.140601051738486,146.75813011603896 58.93395488662645,146.81859759666258 58.36567793227732,146.9395325386431 58.10737022594549,147.0 57.79740097792819,146.81859759666258 57.74573943647556,146.51626012928318 57.59075481258333,146.33485757175367 57.435770188691095,145.8511171360733 57.435770188691095,145.36737628967967 57.435770188691095,144.88363503239816 57.384108647471294,144.7022319548414 57.384108647471294,144.5208288197755 57.33244710625149,144.33942562690936 57.28078556479886,144.1580223760102 57.22912402357906,143.91615128534613 57.17746248235926,143.67428009171272 56.867493234574795,142.40445464040386 56.81583169312216,142.34398669120856 56.76417015213519,142.16258280485636 56.60918552801013,141.6183707996388 56.5575239865575,141.67883882601745 56.402539362665266,140.83228587388294 56.24755473877303,140.71134963515215 56.24755473877303,140.16713624313707 56.299216279992834,140.22760442341678 56.24755473877303,140.22760442341678 56.14423165633343,139.3810493144556 56.14423165633343,139.0182395967422 56.14423165633343,138.83683465135982 55.9375854912214,138.35308784764493 55.88592394976877,138.17168269038666 55.834262408548966,137.92980905732838 55.782600867096335,137.74840376526117 55.730939326109365,137.56699841533555 55.62761624343693,136.96231349842856 55.47263161931187,136.47856510273414 55.42097007809207,136.17622214660514 55.265985454199836,135.99481629603542 55.214323912747204,135.69247308321064 55.162662371760234,135.39012971002376 55.162662371760234,135.2691923158127 54.80103158252314,134.72497372387443 54.95601620641537,134.3621610403643 54.80103158252314,134.1807546117925 54.646046958630905,134.2412234278163 54.38773925206624,134.3016922371462 54.129431545501575,134.3621610403643 53.92278538038954,134.54356741090305 53.66447767405771,134.54356741090305 53.25118534360081,134.785442482098 52.88955455436371,134.8459112336859 52.476262224139646,134.72497372387443 51.907985269790515,134.72497372387443 51.54635448055342,134.8459112336859 51.391369856894016,134.785442482098 51.13306215032935,134.8459112336859 50.92641598498449,134.8459112336859 50.771431360859424,134.9668487176532 50.203154406743124,135.14825489581563 50.09983132430352,135.32966101606144 49.53155436995439,135.32966101606144 49.27324666338973,135.32966101606144 49.066600498277694,135.39012971002376 48.2916773785837,135.69247308321064 48.033369672251865,135.69247308321064 47.77506196592003,135.8134103877237 47.3101080940105,135.87387903017225 47.3101080940105,135.93434766639257 46.845154222333804,136.05528491945006 46.53518497454934,136.11575353622902 46.17355418531224,136.23669075075304 45.96690802020021,136.23669075075304 45.65693877241574,136.29715934826527 45.50195414852351,136.29715934826527 45.295307983411476,136.29715934826527 45.08866181806661,136.41809652443044 44.83035411173478,136.41809652443044 44.675369487842545,136.539033674635 44.210415615933016,136.5995022400748 43.95210790960118,136.5995022400748 43.642138661583886,136.5995022400748 43.38383095525205,136.65997079928638 42.86721554212272,136.5995022400748 42.09229242266156,136.7809078982682 41.78232317464426,136.84137643809663 41.52401546831243,136.90184497146402 41.26570776198059,136.96231349842856 40.95573851419613,136.96231349842856 39.81918460549787,137.14371904084692 39.612538440153,137.14371904084692 39.30256919236854,137.08325053320732 39.095923027489334,137.14371904084692 38.68263069703244,137.2041875423165 38.47598453168757,137.2041875423165 37.64939987100661,137.56699841533555 37.13278445787728,137.8088722023531 36.04789209039882,138.65542964817723 35.53127667773515,138.47402458719444 35.37629205384292,137.86934063315857 35.42795359529555,137.62746687192703 34.96299972338602,136.84137643809663 34.85967664071359,136.5995022400748 34.80801509949379,136.35762793954927 34.704692016588524,136.05528491945006 34.653030475601554,135.99481629603542 34.188076603924856,136.11575353622902 33.92976889736019,136.05528491945006 33.92976889736019,136.05528491945006 33.77478427323513,136.05528491945006 33.671461190795526,136.11575353622902 33.41315348423086,136.17622214660514 33.15484577789903,136.29715934826527 32.89653807133436,136.35762793954927 32.37992265820503,136.47856510273414 32.1216149518732,136.47856510273414 31.604999538511038,136.539033674635 31.19170720828697,136.65997079928638 30.726753336610273,136.65997079928638 30.313461006386206,136.65997079928638 30.158476382493973,136.7204393518623 29.693522510817274,136.84137643809663 29.176907097687945,136.96231349842856 28.86693784990348,136.90184497146402 28.660291684791446,136.96231349842856 28.505307060666382,136.96231349842856 28.246999354334548,137.02278201887384 27.937030106550083,137.02278201887384 27.73038394143805,137.02278201887384 27.21376852830872,137.14371904084692 27.007122363196686,137.14371904084692 26.74881465663202,137.14371904084692 26.69715311541222,137.2041875423165 26.387183867627755,137.3251245256979 26.12887616106309,137.3251245256979 25.56059920671396,137.38559300772613 24.99232225236483,137.44606148340972 24.682353004813194,137.50652995251585 24.47570683946833,137.50652995251585 23.959091426339,137.62746687192703 23.752445261226967,137.74840376526117 23.545799095882103,137.8088722023531 23.3391529310029,137.86934063315857 23.184168307110667,137.92980905732838 22.925860600546002,137.99027747532818 22.357583646196872,137.99027747532818 22.20259902207181,138.05074588680873 22.20259902207181,138.11121429182822 22.20259902207181,137.99027747532818 21.78930669184774,138.05074588680873 21.014383572386578,137.92980905732838 20.54942970047705,137.86934063315857 20.291121994145215,137.86934063315857 20.08447582903318,137.86934063315857 19.671183498809114,137.99027747532818 19.774506581248716,137.8088722023531 19.92949120514095,137.68793532182463 19.826168122701347,137.14371904084692 19.877829663688317,136.90184497146402 19.722845039796084,136.65997079928638 19.671183498809114,136.41809652443044 19.56786041590385,136.11575353622902 19.56786041590385,135.87387903017225 19.46453733323142,135.39012971002376 19.51619887445122,134.90637997892918 19.412875791778788,134.72497372387443 19.361214250791818,134.54356741090305 19.206229626899585,134.3621610403643 19.102906543994322,134.1807546117925 19.154568085446954,134.05981696094386 19.257891168119386,133.75747272081207 19.154568085446954,133.4551283203764 19.154568085446954,133.21325268462533 19.154568085446954,132.9109079951886 19.102906543994322,132.9109079951886 19.102906543994322,132.85043903812766 19.102906543994322,132.78997007466387 19.102906543994322,132.48762516042916 19.102906543994322,131.64105854730587 19.051245003007352,131.3991821409436 18.99958346155472,131.157305631903 18.99958346155472,130.9154290203005 18.99958346155472,130.85495985118905 18.89626037911512,130.4316754885367 18.792937296442688,129.82698299607728 18.741275755222887,129.58510581951123 18.741275755222887,129.28275920415763 18.689614213770255,129.04088179621613" stroke="#4dd2ff" stroke-linecap="round" stroke-linejoin="round" stroke-width="0.5"><title>2022-09-04 4.0km</title></polyline><polyline fill="none" points="181.21428571408615,130.94807783898432 175.5571428569965,106.37078835477587 180.70000000018626,129.30960475374013 179.02857142826542,129.4585569279734 183.27142857108265,131.99074157106224 171.95714285690337,127.0753203087952 151.64285714318976,126.47951054549776 166.04285714309663,128.41589138633572 181.7285714284517,132.13969347253442 179.4142857142724,130.65017377852928 134.54285714263096,119.92558709159493 133.25714285764843,119.62768078048248 133.0,119.47872760216706 134.54285714263096,119.92558709159493 134.54285714263096,119.92558709159493 134.54285714263096,120.07454022439197 159.87142857117578,128.266939105466 169.25714285764843,126.62846300902311 182.37142857164145,131.54388577712234 179.92857142863795,130.50122172536794 183.7857142854482,132.28864535782486 180.31428571464494,130.65017377852928 183.65714285708964,132.13969347253442 180.0571428569965,130.65017377852928 181.60000000009313,131.2459818383213 179.28571428591385,130.3522696569562 181.7285714284517,131.39493381523062 176.07142857136205,128.86274813837372 134.54285714263096,120.07454022439197 134.54285714263096,120.07454022439197 134.54285714263096,120.07454022439197 138.78571428591385,120.5213995311642 167.1999999997206,129.30960475374013 174.01428571389988,129.607509088004 181.7285714284517,131.39493381523062 179.4142857142724,130.3522696569562 187.0,133.62921164522413 181.21428571408615,131.09702984627802 181.8571428572759,131.39493381523062 179.54285714309663,130.3522696569562 181.7285714284517,131.39493381523062" stroke="#4dd2ff" stroke-linecap="round" stroke-linejoin="round" stroke-width="0.5"><title>2022-07-31 3.1km</title></polyline><polyline fill="none" points="67.0,173.92705343547277 66.75751295348164,174.05513453454478 66.2538860103814,174.20456238907354 65.7316062176833,174.22590921711526 65.45181347150356,174.22590921711526 65.06010362692177,174.20456238907354 64.966839378234,174.20456238907354 64.85492227983195,174.20456238907354 64.76165803114418,174.20456238907354 64.6683937824564,174.18321555890725 64.23937823832966,174.16186872664548 64.14611398964189,174.16186872664548 63.940932642435655,174.14052189240465 63.49326424882747,174.11917505606834 63.25077720207628,174.09782821757835 62.74715025909245,174.05513453454478 62.4113989637699,174.11917505606834 62.430051813600585,174.31129650866205 62.61658031085972,174.71688569041726 62.67253886011895,174.82361956121167 62.72849740937818,174.9090066205681 62.80310880835168,175.03708714732784 62.80310880835168,175.01574039799743 62.91502590687014,175.2292077975144 62.97098445601296,175.42132827977184 62.933678756468,175.46402169748035 62.97098445601296,175.39998156778165 62.26217616582289,173.71358477119065 61.4974093263736,173.6922378933814 61.23626943002455,173.71358477119065 60.732642487157136,173.77762539229298 60.47150259069167,173.84166599465243 59.98652849753853,173.88435971921717 59.744041450787336,173.90570657841454 59.25906735751778,173.991093994322 58.531606217613444,174.05513453454478 58.34507772035431,174.07648137709475 57.972020725370385,174.14052189240465 57.80414507770911,174.16186872664548 57.63626943004783,174.18321555890725 57.30051813472528,174.26860286702868 57.151295336778276,174.31129650866205 56.983419689117,174.37533695554885 56.684974093339406,174.5247645923664 56.51709844567813,174.5888049770001 56.34922279790044,174.65284534306556 56.050777202122845,174.802272791203 55.90155440417584,174.88765985882492 55.75233160634525,174.99439364667342 55.26735751295928,175.079780639644 55.08082901558373,175.01574039799743 54.67046632128768,174.8663130950008 54.46528497408144,174.802272791203 54.036269430071115,174.69553891004762 53.812435233267024,174.65284534306556 53.32746113999747,174.48207099224965 53.140932642505504,174.4180305764312 52.693264248780906,174.26860286702868 52.48808290169109,174.20456238907354 52.07772020727862,174.07648137709475 51.87253886007238,173.991093994322 51.59274611400906,173.90570657841454 51.4248704664642,173.86301285793888 51.25699481868651,173.82031912922685 50.9585492227925,173.71358477119065 50.809326424845494,173.670891013433 50.660103627014905,173.58550347307755 50.30569948197808,173.5001158995874 50.13782383420039,173.45742210038588 49.9886010363698,173.41472829288978 49.690155440359376,173.30799373784976 49.54093264252879,173.26529990127892 49.39170984458178,173.2226060565008 49.0746113989735,173.0945244722534 48.906735751312226,173.05183059429692 48.73886010365095,173.00913670794398 48.272538860095665,172.85970804063254 48.14196891197935,172.81701411707036 47.9554404146038,172.77432018514082 47.65699481870979,172.66758531903906 47.489119171048515,172.62489135815122 47.32124352338724,172.5821973888378 47.0414507772075,172.49680942553096 46.74300518142991,172.45411543143564 46.5937823834829,172.47546242951648 46.38860103627667,172.43276843123022 46.42590673582163,172.41142142901663 46.46321243525017,172.43276843123022 46.48186528496444,172.39007442472212 46.50051813479513,172.30468638667662 46.5191709845094,172.1766042675008 46.53782383422367,171.87774569905014 46.53782383422367,171.87774569905014 46.50051813479513,172.0698691111611 46.48186528496444,172.15525724034524 46.50051813479513,172.19795129260456 46.48186528496444,172.28333937202115 46.239378238329664,172.43276843123022 46.10880829021335,172.41142142901663 45.9222797928378,172.43276843123022 45.56787564768456,172.45411543143564 45.40000000002328,172.45411543143564 45.213471502647735,172.45411543143564 44.87772020720877,172.45411543143564 44.70984455966391,172.45411543143564 44.541968911886215,172.47546242951648 44.20621761656366,172.47546242951648 44.019689119188115,172.49680942553096 43.85181347152684,172.49680942553096 43.51606217620429,172.49680942553096 43.348186528659426,172.51815641947906 43.21761658031028,172.49680942553096 42.881865284987725,172.51815641947906 42.73264248704072,172.49680942553096 42.564766839379445,172.51815641947906 42.22901554405689,172.51815641947906 42.07979274610989,172.53950341136078 41.93056994816288,172.53950341136078 41.44559585489333,172.56085040114704 41.29637305706274,172.56085040114704 41.0911917098565,172.56085040114704 40.75544041453395,172.5821973888378 40.587564766872674,172.5821973888378 40.45699481875636,172.5821973888378 40.139896373148076,172.56085040114704 39.80414507770911,172.60354437453498 39.65492227987852,172.5821973888378 39.468393782386556,172.62489135815122 39.132642487064004,172.62489135815122 38.96476683940273,172.60354437453498 38.81554404157214,172.60354437453498 38.517098445561714,172.60354437453498 38.34922279790044,172.60354437453498 38.23730569961481,172.60354437453498 38.12538860109635,172.62489135815122 38.03212435240857,172.62489135815122 37.90155440417584,172.62489135815122 37.82694300520234,172.62489135815122 37.75233160634525,172.62489135815122 37.65906735754106,172.62489135815122 37.6217616579961,172.62489135815122 37.64041450782679,172.62489135815122 37.547150259139016,172.62489135815122 37.491191709879786,172.62489135815122 37.37927461147774,172.64623833964288 37.26735751295928,172.62489135815122 36.81968911923468,172.66758531903906 36.63316062185913,172.66758531903906 36.44663212436717,172.68893229642708 36.14818652858958,172.68893229642708 35.96165803109761,172.68893229642708 35.775129533722065,172.68893229642708 35.12227979279123,172.73162624493125 34.97305699484423,172.71027927169052 34.730569948325865,172.73162624493125 34.3948186528869,172.75297321603284 34.24559585505631,172.73162624493125 34.096373057109304,172.75297321603284 33.77927461138461,172.75297321603284 33.64870466326829,172.75297321603284 33.499481865321286,172.75297321603284 33.31295336782932,172.75297321603284 33.182383419713005,172.73162624493125 33.1077720207395,172.73162624493125 33.033160621766,172.75297321603284 33.01450777205173,172.71027927169052 33.01450777205173,172.71027927169052 33.033160621766,172.71027927169052 32.902590673649684,172.75297321603284 32.827979274559766,172.75297321603284 32.753367875586264,172.75297321603284 32.77202072541695,172.75297321603284 32.79067357513122,172.75297321603284 32.827979274559766,172.73162624493125 32.827979274559766,172.73162624493125 32.827979274559766,172.73162624493125 32.827979274559766,172.73162624493125 32.827979274559766,172.73162624493125 32.827979274559766,172.73162624493125 32.827979274559766,172.73162624493125 32.827979274559766,172.71027927169052 32.827979274559766,172.71027927169052 32.827979274559766,172.71027927169052 32.753367875586264,172.73162624493125 32.5854922280414,172.75297321603284 32.398963730665855,172.75297321603284 32.100518134771846,172.77432018514082 31.783419689163566,172.77432018514082 31.63419689121656,172.79566715210967 31.466321243555285,172.77432018514082 31.130569948232733,172.79566715210967 30.962694300571457,172.79566715210967 30.79481865291018,172.79566715210967 30.4777202073019,172.81701411707036 30.309844559640624,172.81701411707036 30.160621761577204,172.81701411707036 29.84352331608534,172.81701411707036 29.69430051825475,172.81701411707036 29.489119171048515,172.8383610798628 29.153367875725962,172.85970804063254 28.98549222794827,172.85970804063254 28.481865284964442,172.9024019559438 28.369948186562397,172.881054999365 28.29533678770531,172.9024019559438 28.18341968918685,172.9024019559438 28.071502590668388,172.881054999365 27.829015544150025,172.85970804063254 27.717098445631564,172.85970804063254 27.62383419694379,172.85970804063254 27.530569948256016,172.85970804063254 27.455958549282514,172.85970804063254 27.269430051906966,172.85970804063254 27.194818652933463,172.85970804063254 27.12020725395996,172.85970804063254 27.026943005272187,172.881054999365 26.970984456012957,172.9024019559438 26.78445595863741,172.9024019559438 26.672538860118948,172.9024019559438 26.54196891200263,172.9237489105144 26.43005181348417,172.9024019559438 26.16891191713512,172.9237489105144 26.094300518161617,172.9237489105144 25.945077720331028,172.945095862975 25.851813471643254,172.945095862975 25.777202072553337,172.945095862975 25.702590673579834,172.96644281341287 25.627979274722748,172.96644281341287 25.53471502591856,172.96644281341287 25.460103626945056,172.96644281341287 25.29222797928378,172.98778976172616 25.198963730596006,173.00913670794398 25.14300518145319,173.00913670794398 25.049740932765417,173.03048365215363 24.956476683961228,173.03048365215363 24.639378238352947,173.03048365215363 24.5274611399509,173.03048365215363 24.41554404143244,173.05183059429692 24.30362694314681,173.05183059429692 24.19170984462835,173.05183059429692 24.15440414508339,173.05183059429692 24.098445595940575,173.07317753430107 24.042487046681345,173.07317753430107 23.967875647707842,173.0945244722534 23.89326424873434,173.0945244722534 23.800000000046566,173.0945244722534 23.72538860118948,173.0945244722534 23.65077720209956,173.11587140811025 23.57616580312606,173.11587140811025 23.38963730575051,173.1372183419444 23.31502590677701,173.15856527368305 23.184455958660692,173.15856527368305 23.07253886014223,173.17991220338445 22.941968912025914,173.17991220338445 22.568911917041987,173.20125913100492 22.401036269497126,173.20125913100492 22.23316062183585,173.2226060565008 21.91606217622757,173.24395297991578 21.766839378280565,173.26529990127892 21.617616580449976,173.26529990127892 21.225906735868193,173.30799373784976 21.002072538947687,173.30799373784976 20.498445595963858,173.35068756608234 20.293264248757623,173.37203447708453 19.95751295343507,173.39338138599123 19.453886010451242,173.4360751976492 18.987564766895957,173.45742210038588 18.87564766849391,173.4787690010562 18.74507772026118,173.45742210038588 18.651813471573405,173.4787690010562 18.334715025965124,173.5001158995874 18.222797927446663,173.5001158995874 18.129533678875305,173.5001158995874 17.905699481954798,173.52146279608132 17.793782383436337,173.54280969046522 17.700518134748563,173.5641565828264 17.588601036346518,173.58550347307755 17.476683937828057,173.606850361306 17.290155440568924,173.64954413149098 17.196891191764735,173.6922378933814 16.973056994844228,173.75627852063917 16.879792746156454,173.7989722617931 16.78652849746868,173.84166599465243 16.693264248780906,173.86301285793888 16.600000000093132,173.92705343547277 16.394818652886897,173.991093994322 16.301554404199123,174.03378768984112 16.20829015551135,174.07648137709475 16.115025906823575,174.11917505606834 16.003108808305115,174.18321555890725 15.816580310929567,174.28994968885672 15.723316062241793,174.3539901419863 15.630051813554019,174.4180305764312 15.536787564866245,174.48207099224965 15.44352331617847,174.5247645923664 15.27564766840078,174.6314985564968 15.219689119257964,174.69553891004762 15.145077720284462,174.75957924495742 15.051813471596688,174.82361956121167 14.977202072623186,174.88765985882492 14.827979274676181,175.01574039799743 14.77202072541695,175.05843389454822 14.71606217615772,175.12247412365105 14.660103627014905,175.16516759940714 14.622797927586362,175.2292077975144 14.529533678898588,175.29324797690788 14.529533678898588,175.29324797690788 14.45492227980867,175.39998156778165 14.380310880835168,175.4426749896229 14.343005181406625,175.5067151068797 14.24974093271885,175.6347952853539 14.268393782433122,175.6134485941002 14.156476684031077,175.78422206586401 14.081865285057575,175.84826208354207 14.025906735798344,175.9336487447581 13.93264248711057,176.06172867442365 13.969948186539114,176.0403820246138 13.9886010363698,176.0403820246138 13.951295336824842,176.0403820246138 13.951295336824842,176.0403820246138 13.951295336824842,176.0403820246138 13.802072538877837,176.25384842886706 13.72746114002075,176.40327478849213 13.634196891216561,176.57404764654348 13.447668393841013,176.97963265258295 13.410362694296055,177.12905851872347 13.279792746179737,177.49194948504737 13.205181347206235,177.6413750029169 13.149222797947004,178.00426512336708 13.111917098518461,178.1750367374334 13.074611398973502,178.3671546445985 13.0,178.85812186676776 13.0,178.9435073586501 13.0,179.0075464558322 13.0,179.07158553430054 13.0,179.13562459417153 13.0,179.24235631903866 13.0,179.30639532915666 13.0,179.5838974905637 13.018652849830687,179.7973604532017 13.05595854925923,179.94678440371354 13.018652849830687,179.92543813132215 13.0,180.07486199475534 13.0,180.18159326356545 13.018652849830687,180.2883244806144 13.037305699544959,180.35236318591342 13.037305699544959,180.4377480973344 13.05595854925923,180.56582540222735 13.09326424880419,181.05678771308158 13.09326424880419,181.27024924525176 13.111917098518461,181.63313337427098 13.111917098518461,181.69717168774514 13.111917098518461,181.7612099825783 13.130569948232733,181.86794043258124 13.111917098518461,181.95332475520263 13.130569948232733,182.0387090446893 13.130569948232733,182.08140117699804 13.130569948232733,182.25216962331615 13.149222797947004,182.3588998348423 13.167875647661276,182.52966806551558 13.205181347206235,183.12735582816822 13.223834196920507,183.38350722890755 13.242487046751194,183.8958091348759 13.279792746179737,184.1519596400758 13.298445595894009,184.62156812437752 13.335751295438968,184.83502619471983 13.429015544126742,185.51809062660323 13.447668393841013,185.75289353479457 13.484974093269557,186.1798072708334 13.503626943100244,186.32922688258986 13.503626943100244,186.41460947228188 13.596891191788018,186.96959549668827 13.61554404150229,187.0549778376153 13.634196891216561,187.16170571710973 13.652849740930833,187.24708798342908 13.652849740930833,187.33247021659918 13.671502590645105,187.43919796138653 13.671502590645105,187.43919796138653 13.690155440475792,187.4818890447932 13.87668393785134,187.3965068696998 13.951295336824842,187.37516132074234 13.969948186539114,187.37516132074234 13.9886010363698,187.3538157696894 13.9886010363698,187.31112466136983 13.969948186539114,187.24708798342908 13.969948186539114,187.2043968544749 13.951295336824842,187.1403601453203 13.951295336824842,187.1403601453203 13.951295336824842,187.09766899562965 13.951295336824842,187.0549778376153 13.93264248711057,187.0336322554649 13.93264248711057,186.99094108499412 13.93264248711057,186.9482499063015 13.913989637279883,186.90555871918332 13.93264248711057,186.88421312256833 13.913989637279883,186.8201763202378 13.913989637279883,186.79883071534277 13.913989637279883,186.73479388811393 13.9886010363698,186.73479388811393 14.044559585512616,186.73479388811393 14.100518134771846,186.73479388811393 14.119170984486118,186.71344827490975 14.175129533745348,186.71344827490975 14.175129533745348,186.71344827490975 14.19378238345962,186.71344827490975 14.19378238345962,186.71344827490975 14.231088082888164,186.73479388811393 14.231088082888164,186.73479388811393 14.24974093271885,186.75613949923718 14.24974093271885,186.77748510833771 14.24974093271885,186.79883071534277 14.268393782433122,186.79883071534277 14.268393782433122,186.79883071534277 14.24974093271885,186.8628675239015 14.24974093271885,186.88421312256833 14.268393782433122,186.92690431381925 14.268393782433122,186.9482499063015 14.268393782433122,186.96959549668827 14.287046632147394,187.09766899562965 14.305699481861666,187.2043968544749 14.324352331692353,187.28977910416143 14.343005181406625,187.3965068696998 14.343005181406625,187.50323458337516 14.361658031120896,187.71668985532597 14.380310880835168,187.78072639646416 14.398963730665855,187.7593808848469 14.380310880835168,187.82341741355776 14.380310880835168,187.9087994228321 14.398963730665855,187.97283590801817 14.417616580380127,188.0368723745487 14.436269430094399,188.12225430094986 14.417616580380127,188.10090882248187 14.417616580380127,188.10090882248187 14.380310880835168,187.82341741355776 14.361658031120896,187.7593808848469 14.361658031120896,187.69534433743684 14.361658031120896,187.6099622452457 14.361658031120896,187.6099622452457 14.380310880835168,187.6099622452457 14.380310880835168,187.5672711866937 14.361658031120896,187.6099622452457 14.343005181406625,187.6099622452457 14.343005181406625,187.6099622452457 14.361658031120896,187.6099622452457 14.343005181406625,187.6099622452457 14.343005181406625,187.63130777141487 14.361658031120896,187.6099622452457 14.361658031120896,187.6099622452457 14.361658031120896,187.8020719060878 14.361658031120896,187.82341741355776 14.380310880835168,187.82341741355776 14.380310880835168,187.8020719060878 14.398963730665855,187.78072639646416 14.398963730665855,187.78072639646416 14.398963730665855,187.78072639646416 14.398963730665855,187.78072639646416 14.398963730665855,187.78072639646416 14.398963730665855,187.78072639646416 14.398963730665855,187.78072639646416 14.398963730665855,187.78072639646416 14.398963730665855,187.78072639646416 14.417616580380127,187.78072639646416 14.417616580380127,187.78072639646416 14.398963730665855,187.78072639646416 14.398963730665855,187.78072639646416 14.398963730665855,187.78072639646416 14.398963730665855,187.78072639646416 14.380310880835168,187.78072639646416 14.380310880835168,187.78072639646416 14.380310880835168,187.8020719060878 14.380310880835168,187.8020719060878 14.361658031120896,187.8020719060878 14.361658031120896,187.8020719060878 14.361658031120896,187.82341741355776 14.380310880835168,187.8447629189759 14.380310880835168,187.8447629189759 14.380310880835168,187.8447629189759 14.380310880835168,187.8447629189759 14.361658031120896,187.82341741355776 14.361658031120896,187.8020719060878 14.361658031120896,187.7593808848469 14.380310880835168,187.71668985532597 14.380310880835168,187.71668985532597 14.380310880835168,187.71668985532597 14.324352331692353,187.3538157696894 14.324352331692353,187.31112466136983 14.324352331692353,187.26843354482844 14.305699481861666,187.2043968544749 14.305699481861666,187.16170571710973 14.305699481861666,187.09766899562965 14.305699481861666,187.0549778376153 14.287046632147394,187.0549778376153 14.305699481861666,187.01228667127725 14.287046632147394,186.99094108499412 14.287046632147394,186.99094108499412 14.305699481861666,186.96959549668827 14.305699481861666,186.9482499063015 14.305699481861666,186.9482499063015 14.287046632147394,186.92690431381925 14.268393782433122,186.90555871918332 14.268393782433122,186.88421312256833 14.268393782433122,186.8628675239015 14.268393782433122,186.84152192313923 14.268393782433122,186.79883071534277 14.268393782433122,186.77748510833771 14.268393782433122,186.75613949923718 14.268393782433122,186.75613949923718 14.231088082888164,186.69210265965376 14.212435233173892,186.69210265965376 14.212435233173892,186.71344827490975 14.212435233173892,186.71344827490975 14.212435233173892,186.73479388811393 14.156476684031077,186.73479388811393 14.007253885967657,186.75613949923718 13.951295336824842,186.75613949923718 13.93264248711057,186.75613949923718 13.93264248711057,186.73479388811393 13.969948186539114,186.73479388811393 13.969948186539114,186.73479388811393 13.969948186539114,186.75613949923718 13.93264248711057,186.73479388811393 13.93264248711057,186.77748510833771 13.93264248711057,186.84152192313923 13.951295336824842,186.90555871918332 13.93264248711057,186.96959549668827" stroke="#4dd2ff" stroke-linecap="round" stroke-linejoin="round" stroke-width="0.5"><title>2022-07-25 3.9km</title></polyline><polyline fill="none" points="133.0482142858673,169.3594988207915 133.24107142840512,168.7450688420795 133.1446428571362,166.73420226870803 133.77142857131548,166.17562690901104 133.77142857131548,165.22604748856975 134.25357142859139,167.34863450576086 133.0,169.19192707678303 134.3982142857276,169.97392810950987 134.88035714277066,170.81178511859616 135.4107142854482,170.92349928955082 135.6035714284517,170.64421381952707 135.84464285708964,170.30907106713858 136.47142857150175,170.02978528331732 138.59285714267753,168.63335422624368 140.56964285718277,167.01348973473068 141.48571428563446,165.89633901516208 141.4375,167.90720866795164 141.7267857142724,168.80092614132445 142.9803571428638,167.5720642391243 143.26964285690337,168.4099249264109 143.70357142854482,167.79549388121814 145.24642857140861,168.52163958764868 146.0178571427241,168.91264072275953 147.36785714281723,169.02435528143542 147.8982142857276,170.30907106713858 149.05535714281723,170.92349928955082 148.52499999990687,171.4262127763359 149.24821428582072,171.03521343762986 149.92321428563446,172.3757814358105 150.88749999995343,174.8334809016087 151.5625,175.67133046896197 151.5625,176.3416091989493 150.26071428577416,178.52000940061407 150.55000000004657,178.40829678089358 151.75535714277066,177.40288217546185 152.864285713993,177.06774356315145 152.9124999998603,177.01188710780116 150.98392857122235,178.29658413818106 151.32142857159488,178.91100339061813 154.45535714295693,178.63172199775 155.32321428577416,177.9614460731973 156.625,178.85514712351141 155.85357142868452,180.92182521132054 155.94999999995343,180.36326433561044 157.29999999981374,179.74884671409382 156.86607142840512,180.75425700843334 154.35892857145518,183.21191883954452 152.33392857131548,183.43534209474456 153.58749999990687,183.43534209474456 155.13035714277066,181.64795349707128 155.32321428577416,184.1614670449053 167.76249999995343,184.7758797116112 169.44999999995343,184.72002404317027 167.56964285694994,187.62451124249492 167.5214285715483,183.71462103590602 165.78571428568102,181.42452951159794 159.6624999998603,184.60831268911716 160.0,181.70380947907688 155.32321428577416,182.8767837852356 154.02142857131548,185.72542520309798 160.72321428568102,179.02271590795135 157.8303571427241,180.92182521132054 155.75714285718277,181.75966545543633 156.4321428569965,180.75425700843334 157.29999999981374,180.19569596182555 151.17678571422584,181.75966545543633 150.83928571408615,182.82092792296316 150.83928571408615,183.71462103590602 156.19107142835855,180.25155209208606 157.15535714267753,180.36326433561044 156.3357142857276,180.47497655643383 154.64821428549476,179.52542195329443 157.15535714267753,178.35244046227308 157.73392857145518,177.62630780303152 157.9749999998603,177.57045140472474 160.14464285736904,177.23531289503444 158.84285714291036,178.52000940061407 159.1803571425844,179.02271590795135 160.38571428577416,180.47497655643383 160.77142857131548,180.64254484465346 162.36250000004657,182.0948011938599 162.94107142859139,182.59750441659708 163.13392857159488,182.65336030168692 163.3267857141327,182.8767837852356 163.80892857117578,183.21191883954452 165.49642857140861,183.71462103590602 165.73750000004657,184.04975557688158 166.31607142835855,184.60831268911716 166.65357142849825,184.8875910314382 167.18392857140861,186.11641404411057 167.47321428568102,186.9542463341495 168.0999999998603,188.07135405857116 168.34107142849825,188.35063063330017 170.84821428568102,189.74701136886142 171.1857142855879,189.91457681776956 172.14999999990687,190.19385245162994 172.96964285708964,190.36141776345903 173.40357142849825,190.64069316943642 174.27142857131548,191.03167849831516 174.46428571408615,191.03167849831516 174.65714285708964,191.25509856076678 174.85000000009313,191.70193841203582 174.99464285722934,191.8136483177077 175.2357142858673,191.98121313372394 175.28392857150175,192.0370680608903 175.38035714277066,192.09292298258515 175.52499999990687,192.14877789834281 175.71785714267753,192.2604877129197 175.81428571417928,192.42805239197332 176.20000000018626,192.59561701962957 176.34464285708964,192.7073267431697 176.48928571445867,192.8748912853771 176.6821428569965,192.98660095158266 176.97142857126892,193.09831059526186 177.1642857142724,193.15416540845763 177.40535714291036,193.3775846043136 177.50178571417928,193.43343938904582 177.59821428568102,193.43343938904582 177.69464285718277,193.54514894122258 178.0803571427241,193.65685847075656 178.2732142857276,193.8802774613141 178.61071428563446,194.15955107129412 178.89999999990687,194.3271151689114 178.99642857117578,194.27126047533238 179.23750000004657,194.3271151689114 179.3821428574156,194.43882453866536 179.52678571431898,194.49467921507312 179.76785714295693,194.55053388571832 179.86428571422584,194.6063885508338 180.25,194.6063885508338 180.49107142863795,194.49467921507312 180.92499999981374,194.49467921507312 181.26249999995343,194.6063885508338 181.60000000009313,194.6063885508338 181.60000000009313,194.71809786366066 181.88928571436554,194.77395251143025 182.27499999990687,194.71809786366066 182.51607142854482,194.66224320995389 182.70892857131548,194.71809786366066 182.90178571431898,194.66224320995389 183.04642857145518,194.55053388571832 183.1428571427241,194.6063885508338 183.2874999998603,194.55053388571832 183.62500000023283,194.49467921507312 183.67321428563446,194.43882453866536 183.91428571450524,194.43882453866536 184.203571428312,194.38296985661145 184.39642857131548,194.38296985661145 184.58928571431898,194.38296985661145 184.83035714295693,194.27126047533238 185.07142857136205,194.21540577622363 185.21607142849825,194.15955107129412 185.31249999976717,194.15955107129412 185.84285714291036,194.21540577622363 186.0839285715483,194.27126047533238 186.27678571408615,194.27126047533238 186.18035714281723,194.3271151689114 186.42142857145518,194.21540577622363 186.66250000009313,194.27126047533238 186.80714285722934,194.27126047533238 187.0,194.27126047533238 186.75892857136205,194.27126047533238 186.51785714295693,194.27126047533238 186.46964285708964,194.27126047533238 186.32499999995343,194.27126047533238 186.22857142868452,194.27126047533238 185.84285714291036,194.15955107129412 185.7946428572759,194.10369636060204 185.64999999990687,194.10369636060204 185.45714285690337,194.04784164443845 184.97500000009313,194.15955107129412 184.15535714291036,194.49467921507312 183.96249999990687,194.38296985661145 183.67321428563446,194.3271151689114 182.9982142855879,194.38296985661145 182.51607142854482,194.49467921507312 182.0821428571362,194.49467921507312 181.9375,194.55053388571832 181.35892857145518,194.71809786366066 180.78035714267753,194.77395251143025 180.49107142863795,194.71809786366066 180.2982142858673,194.66224320995389 179.81607142859139,194.55053388571832 179.76785714295693,194.49467921507312 179.71964285708964,194.49467921507312 178.61071428563446,194.21540577622363 178.17678571422584,193.8802774613141 177.7428571425844,193.54514894122258 177.50178571417928,193.48929416801548 177.30892857140861,193.43343938904582 177.0678571430035,193.2658750177361 176.63392857136205,192.98660095158266 176.5374999998603,192.8748912853771 176.29642857145518,192.7631815962959 175.86249999981374,192.4839072736795 175.62142857140861,192.37219750473741 175.4767857142724,192.2604877129197 175.28392857150175,192.2604877129197 175.0428571428638,192.2604877129197 174.65714285708964,191.75779336772393 174.51249999995343,191.70193841203582 174.31964285718277,191.4785185318906 173.8375000001397,191.19924355379771 173.3553571428638,191.03167849831516 173.30714285722934,190.91996843286324 173.21071428549476,190.86411339160986 172.92142857145518,190.5289830241818 172.48750000004657,190.19385245162994 172.24642857140861,190.08214221522212 171.76428571436554,189.85872167377966 171.4749999998603,189.6911562079331 171.1857142855879,189.52359069074737 170.84821428568102,189.24431471445132 170.89642857131548,189.132604284212 170.89642857131548,188.85332810867112 170.80000000004657,188.74161759845447 170.84821428568102,188.46234122331953 170.84821428568102,188.35063063330017 170.55892857140861,188.07135405857116 170.3178571430035,188.01549872662872 169.40178571431898,188.40648593124934 169.11249999981374,188.2389200204634 168.87142857140861,187.23352347902255 168.87142857140861,187.0101017744746 168.4857142858673,186.61911357205827 168.34107142849825,186.73082451563096 167.90714285708964,186.67496904655127 167.47321428568102,186.2839806046686 167.32857142854482,186.00470297515858 166.8946428571362,185.5020028827712 166.74999999976717,185.11101360264 166.55714285722934,184.83173537440598 165.9303571425844,184.6641683690832 165.54464285704307,184.10561131383292 165.49642857140861,183.8821883322089 165.54464285704307,183.54705368849682 165.44821428554133,183.6029094766709 165.0142857141327,183.71462103590602 164.7249999998603,183.6029094766709 164.5803571427241,183.54705368849682 164.38750000018626,183.37948628957383 164.00178571417928,183.04435133794323 163.80892857117578,182.98849549284205 163.71249999990687,182.9326396418037 163.56785714277066,182.8767837852356 163.47142857126892,182.70921618118882 163.2303571428638,182.59750441659708 162.55535714281723,182.26236898603383 162.36250000004657,182.15065713023068 162.07321428554133,181.98308930383064 161.8321428571362,181.75966545543633 161.78392857150175,181.70380947907688 161.73571428563446,181.42452951159794 161.6392857141327,181.3128174848971 161.49464285722934,181.03353731782408 161.15714285708964,180.92182521132054 160.96428571431898,180.75425700843334 160.77142857131548,180.75425700843334 160.24107142863795,180.5866887543234 159.8553571428638,180.5866887543234 159.3732142855879,180.19569596182555 159.27678571431898,179.8605590601801 159.27678571431898,179.6371343448991 159.08392857131548,179.41370953869773 158.98750000004657,179.35785332275555 158.74642857140861,179.24614087393275 158.55357142840512,178.9668596520787 158.36071428563446,178.91100339061813 158.1196428569965,178.63172199775 157.8303571427241,178.52000940061407 157.34821428568102,178.4641530936351 157.20357142854482,178.4641530936351 157.20357142854482,178.24072780821007 157.05892857140861,177.9055897090584 156.86607142840512,177.84973333927337 156.72142857150175,177.68216419569217 156.4321428569965,177.1236000128556 156.19107142835855,176.67674825590802 155.9982142855879,176.6208917607437 155.46785714291036,176.5650352598168 154.98571428563446,176.5650352598168 154.60000000009313,176.22989613428945 154.40714285708964,175.89475680340547 154.3107142855879,175.89475680340547 154.1178571425844,175.72718706110027 153.73214285704307,175.11276423325762 153.63571428577416,175.00105091766454 153.29821428563446,174.7776242181426 153.10535714263096,174.55419742746744 152.81607142859139,174.33077054534806 152.67142857145518,174.21905707014957 152.81607142859139,174.163200324052 152.38214285718277,174.55419742746744 152.04464285704307,174.72176752903033 151.65892857126892,174.163200324052 151.61071428563446,173.93977328232722 151.2249999998603,173.6604893517797 150.88749999995343,173.4370621049893 150.74285714281723,173.2136347667547 150.5017857144121,172.99020733725047 150.35714285704307,172.82263670529937 149.92321428563446,172.31992450152757 149.73035714263096,171.98478277563117 149.39285714295693,171.64964084461099 149.15178571431898,171.53792682191124 148.66964285704307,171.48206980200484 148.42857142863795,171.14692756300792 148.38035714277066,170.755928024475 148.09107142849825,170.30907106713858 148.04285714309663,170.36492820677813 148.04285714309663,170.58835670829285 148.23571428563446,171.09107050299644 148.33214285690337,171.59378383605508 148.13928571436554,171.4262127763359 147.85000000009313,171.64964084461099 147.80178571422584,171.87306882144185 146.88571428577416,171.20278461708222 146.7892857142724,170.86764220683835 146.74107142863795,170.36492820677813 146.21071428549476,169.97392810950987 146.3553571428638,169.52707051346079 146.25892857136205,169.08021255239146 146.21071428549476,168.91264072275953 146.1624999998603,168.63335422624368 146.1624999998603,168.46578225988196 145.8732142855879,168.13063817314105 145.68035714281723,168.13063817314105 145.53571428568102,168.13063817314105 145.34285714267753,168.07478080544388 145.43928571394645,167.68377907160902 144.8607142858673,167.51620681432541 143.8964285715483,167.51620681432541 143.51071428577416,167.34863450576086 143.51071428577416,167.18106214597356 143.22142857150175,166.90177476551617 142.49821428582072,166.73420226870803 141.87142857164145,166.90177476551617 141.67857142840512,167.01348973473068 141.53392857150175,167.1252046812442 141.34107142849825,167.18106214597356 140.90714285708964,167.4603493839386 140.56964285718277,167.5720642391243 140.37678571417928,167.68377907160902 140.32857142854482,167.85135127743706 140.23214285704307,167.85135127743706 139.17142857145518,168.85678343492327 139.1232142855879,168.68921153701376 138.78571428568102,168.7450688420795 138.2553571430035,168.85678343492327 137.38749999995343,169.52707051346079 137.00178571417928,169.58292773290304 136.85714285704307,169.69464215479093 136.66428571403958,169.86221374484012 136.42321428563446,170.08564245159505 136.56785714277066,170.25321392185288 136.56785714277066,170.30907106713858 136.76071428554133,170.4766424689442 135.12142857140861,170.5324995915871 134.54285714263096,170.08564245159505 134.4946428569965,170.1414996139356 134.6392857141327,170.1414996139356 134.8321428571362,170.4766424689442 134.73571428563446,170.5324995915871 134.4946428569965,170.1414996139356 134.4946428569965,169.08021255239146 134.3982142857276,168.7450688420795 134.30178571445867,168.68921153701376 134.44642857136205,168.18649553519208 135.31428571417928,167.62792165827705 135.1696428572759,167.5720642391243 135.02499999990687,167.23691960511496" stroke="#4dd2ff" stroke-linecap="round" stroke-linejoin="round" stroke-width="0.5"><title>2019-05-06 3.4km</title></polyline><polyline fill="none" points="48.75892857089639,242.3276118998765 47.55357142863795,242.79308963153744 47.23214285681024,242.88618514948757 46.589285714086145,243.16547164594522 46.1071428572759,243.3516625961638 46.026785714086145,243.3516625961638 45.86607142863795,243.4447580568376 45.785714285913855,243.4447580568376 41.28571428544819,244.56190284580225 23.92857142863795,249.9614166970714 17.660714285913855,253.87138952763053 16.696428570896387,254.3368613666389 13.964285714086145,252.1025943714194 13.0,251.0785535023315 21.67857142863795,255.64018125273287 21.517857142724097,255.5470870367717 16.696428570896387,248.00642399507342 16.294642856810242,244.56190284580225 14.366071428637952,246.7030931984773 14.205357142724097,252.00949979457073 15.169642856810242,252.84735064482084 16.214285714551806,253.7782951311674 16.696428570896387,254.24376701790607 25.9375,258.24681543622864 21.11607142817229,255.36089857696788 14.928571428637952,252.00949979457073 22.160714285913855,255.82636965578422 19.589285714086145,254.52305003610672 23.36607142863795,256.47802876716014 28.75,259.2708482554881 24.8125,257.68825159571134 17.419642856810242,254.61614435631782 17.098214285913855,254.42995570605854 26.098214285913855,258.33990937651834 21.11607142817229,255.36089857696788 13.883928571362048,251.45093213318614 14.526785714086145,246.88928342610598 15.25,241.76903830794618 15.732142857275903,238.13830162008526 16.13392857136205,243.63094895036193 16.9375,253.7782951311674 17.017857142724097,254.24376701790607 17.017857142724097,254.3368613666389 17.017857142724097,254.3368613666389 29.392857142724097,259.7363173389458 29.955357142724097,260.01559867465403 21.357142856810242,255.45399281161372 14.526785714086145,252.19568893895485 16.857142857275903,254.24376701790607 14.205357142724097,252.00949979457073 26.419642857275903,258.1537214866257 28.50892857136205,259.2708482554881 28.50892857136205,259.2708482554881 17.17857142863795,254.52305003610672 14.285714285448194,252.1025943714194 14.205357142724097,252.00949979457073 15.169642856810242,252.84735064482084 14.205357142724097,252.00949979457073 14.125,252.00949979457073 15.089285714551806,252.84735064482084 16.9375,254.3368613666389 17.017857142724097,254.42995570605854 14.205357142724097,252.00949979457073 67.0,219.98440132534597 21.4375,251.35783748986432 20.07142857136205,252.2887834967114 17.25892857136205,254.24376701790607 26.098214285913855,258.24681543622864 19.50892857136205,254.61614435631782 43.93749999953434,243.81713980523637 18.223214285913855,238.2313976130681 17.339285714086145,238.13830162008526 17.098214285913855,243.81713980523637 16.9375,254.24376701790607 16.375,245.95833190710982 16.455357142724097,246.33071262860904 25.9375,257.03659334918484 24.410714285913855,257.502063572756 29.794642856810242,259.92250490549486 48.67857142863795,255.82636965578422 17.82142857182771,254.42995570605854 37.02678571455181,244.37571214267518 37.26785714318976,243.537853508431 37.75000000046566,243.91023521864554 39.11607142863795,244.00333062245045 43.69642857136205,240.186411272618 43.05357142863795,239.81402804149548 42.33035714318976,239.7209322101553 41.92857142817229,239.53474051854573 41.44642857136205,238.88306929852115 40.16071428544819,238.51068553543882 39.839285714086145,238.78997337212786 39.839285714086145,239.06926112313522 38.71428571455181,239.1623570212978 38.39285714318976,239.34854878904298 38.3125,239.53474051854573 37.8303571427241,240.27950705651892 37.26785714318976,240.55879435164388 36.464285714086145,240.6518900974188 36.30357142863795,240.00021967606153 36.625,240.93117727834033 36.464285714086145,241.30356005305657 37.8303571427241,243.3516625961638 38.39285714318976,243.4447580568376 39.4375,243.16547164594522 40.401785714086145,242.97928065794986 40.88392857136205,242.97928065794986 42.25,242.3276118998765 43.05357142863795,241.95522954297485 44.0178571427241,241.30356005305657 44.098214285913855,240.6518900974188 43.535714285913855,239.7209322101553 42.25,239.34854878904298 41.28571428544819,239.06926112313522 41.526785714086145,239.25545291008893 42.8928571427241,240.09331547899637 41.04464285681024,243.3516625961638 40.6428571427241,243.81713980523637 35.90178571455181,243.3516625961638 34.776785714086145,242.88618514948757 34.214285714086145,242.42070746514946 33.00892857136205,241.58284703432582 32.526785714086145,241.210464373813 31.80357142863795,240.186411272618 31.964285714551806,239.1623570212978 33.41071428544819,238.32449359667953 34.13392857136205,237.9521096055396 34.61607142863795,238.04520561755635 35.25892857182771,238.04520561755635 35.4196428572759,238.04520561755635 35.82142857136205,237.48662940232316 36.38392857089639,238.13830162008526 36.22321428544819,238.6968774361303 36.625,238.32449359667953 37.8303571427241,238.4175895708031 37.910714285913855,238.6968774361303 38.07142857136205,238.51068553543882 37.99107142863795,238.60378149076132 39.75892857136205,238.88306929852115 40.5625,238.2313976130681" stroke="#4dd2ff" stroke-linecap="round" stroke-linejoin="round" stroke-width="0.5"><title>2019-04-30 5.1km</title></polyline></svg>