<?xml version="1.0" encoding="utf-8" ?>
<svg baseProfile="full" height="300mm" version="1.1" viewBox="0,0,200,300" width="200mm" xmlns="http://www.w3.org/2000/svg" xmlns:ev="http://www.w3.org/2001/xml-events" xmlns:xlink="http://www.w3.org/1999/xlink"><defs /><rect fill="#222222" height="300" width="200" x="0" y="0" /><text fill="#FFFFFF" style="font-size:12px; font-family:Arial; font-weight:bold;" x="10" y="20">Over 3km Runs</text><text fill="#FFFFFF" style="font-size:4px; font-family:Arial" x="10" y="280">ATHLETE</text><text fill="#FFFFFF" style="font-size:9px; font-family:Arial" x="10" y="290">arinic</text><text fill="#FFFFFF" style="font-size:4px; font-family:Arial" x="120" y="280">STATISTICS</text><text fill="#FFFFFF" style="font-size:3px; font-family:Arial" x="120" y="285">Number: 8</text><text fill="#FFFFFF" style="font-size:3px; font-family:Arial" x="120" y="290">Weekly: 1.1</text><text fill="#FFFFFF" style="font-size:3px; font-family:Arial" x="141" y="285">Total: 30.7 km</text><text fill="#FFFFFF" style="font-size:3px; font-family:Arial" x="141" y="290">Avg: 3.8 km</text><text fill="#FFFFFF" style="font-size:3px; font-family:Arial" x="167" y="285">Min: 3.1 km</text><text fill="#FFFFFF" style="font-size:3px; font-family:Arial" x="167" y="290">Max: 5.1 km</text><polyline fill="none" points="66.55822906643152,47.89784761806368 66.24639076041058,48.34943865434616 65.83060635230504,48.98166494324687 64.32338787300978,49.28272460435983 64.03753609245177,49.37304244271945 64.01154956698883,49.52357211196795 64.03753609245177,49.88484300451819 64.71318575565238,50.75791250105249 64.71318575565238,51.540662265819265 64.32338787300978,52.02235339602339 63.90760346502066,52.44383248954546 63.69971126096789,52.654571810388006 63.25794032739941,53.10615556218545 62.99807507218793,53.28678886932903 62.55630413861945,53.73837165310397 62.374398460262455,53.94911004882306 61.98460057761986,54.370586388598895 61.69874879706185,54.73185134315281 61.62078922055662,55.27374794523348 61.750721847987734,55.695222391805146 61.93262752657756,55.8758541130519 62.114533205050975,56.116696235956624 62.478344562114216,56.56827468625852 62.01058710296638,57.29079876848846 61.20500481245108,57.32090390013764 60.997112608281896,57.351009028818225 60.76323387876619,57.351009028818225 60.21751684322953,57.471429512428585 59.90567853720859,57.53163973579649 59.04812319541816,57.65206014580326 58.76227141497657,57.68216524051968 58.26852743024938,57.77248050653725 58.00866217527073,57.80258558908827 57.748796920175664,57.83269066846697 56.995187680469826,58.013321080536116 56.68334937444888,58.04342613843619 56.44947064493317,58.10363624509773 55.9557266603224,58.19395138201071 55.773820981848985,58.254161457851296 55.30606352270115,58.28426649115863 55.04619826760609,58.31437152143917 54.656400385079905,58.344476548576495 54.26660250243731,58.43479161176947 54.0327237729216,58.46489662662498 53.95476419641636,58.46489662662498 53.79884504340589,58.525106647226494 53.512993262847885,58.55521165285609 53.38306063530035,58.55521165285609 53.22714148228988,58.585316655487986 53.07122232916299,58.61542165506398 52.941289701731876,58.64552665152587 52.681424446520396,58.705736635194626 52.52550529362634,58.735841622401495 52.369586140615866,58.76594660661067 52.265640038531274,58.79605158776394 52.13570741110016,58.826156565744895 51.61597690102644,58.97668140969472 51.40808469674084,59.03689132578438 50.39461020217277,59.27773086717934 50.26467757462524,59.33794072183082 50.16073147265706,59.398150564171374 49.900866217562,59.458360394171905 49.796920115477405,59.48846530454466 49.692974013625644,59.51857021194883 49.66698748804629,59.51857021194883 49.61501443712041,59.578780017385725 49.45909528399352,59.63898981056991 49.35514918190893,59.63898981056991 49.147256977972575,59.699199591355864 48.88739172287751,59.729304477223195 48.23772858513985,59.90993372767116 47.58806544763502,60.18087739584735 46.96438883547671,60.42171600306756 46.652550529455766,60.48192562404438 45.976900866255164,60.662554413458565 45.14533205004409,60.903392627311405 44.91145332052838,60.9636021500628 44.625601539970376,61.053916411096 44.07988450443372,61.17433538282057 43.76804619829636,61.23454485027469 43.196342637296766,61.35496374822105 43.11838306079153,61.38506846508244 42.98845043312758,61.41517317877151 42.91049085673876,61.47538259695284 42.70259865256958,61.47538259695284 42.57266602513846,61.47538259695284 41.81905678543262,61.62590608885512 41.50721847929526,61.71622014706372 40.883541867369786,61.836638848355506 40.597690086695366,61.89684818056412 40.025986525579356,62.0172668081068 39.79210779594723,62.047371457272675 39.688161693979055,62.047371457272675 39.55822906643152,62.07747610332444 39.22040423494764,62.137685386464 39.06448508182075,62.19789465723443 38.908565928810276,62.22799928794848 38.8046198268421,62.258103915606625 38.70067372475751,62.258103915606625 38.4667949952418,62.34841778027476 38.36284889315721,62.37852239568019 38.20692974026315,62.438731617236044 38.10298363817856,62.49894082653918 37.947064485168085,62.5290454266069 37.63522617914714,62.64946379594039 37.50529355148319,62.67956838058308 37.375360924052075,62.739777540788054 37.24542829650454,62.7999866886239 37.11549566895701,62.860195824090624 36.67372473550495,63.07092770165764 36.36188642936759,63.25155490546604 35.84215591929387,63.552599999296945 35.58229066408239,63.763331382127944 35.06256015400868,64.12458483094815 34.80269489903003,64.30521138937911 34.30895091430284,64.72667292898404 34.07507218490355,64.93740347292623 33.607314725755714,65.32875979793607 33.113570741261356,65.81042840809096 32.98363811371382,65.93084543765872 32.853705486049876,65.99105393412174 32.77574590954464,66.05126241815742 32.67179980757646,66.14157512126258 32.59384023118764,66.20178357465193 32.35996150155552,66.38240886101266 32.28200192505028,66.47272146269097 32.230028874007985,66.50282565705129 32.204042348545045,66.53292984841391 32.178055823082104,66.56303403672064 31.99615014437586,66.71355493192095 31.892204042407684,66.80386743225972 31.788257940439507,66.89417990486254 31.684311838354915,66.98449234987493 31.554379210807383,67.1049089001026 31.294513955828734,67.34574185320525 31.112608277238905,67.52636643892038 30.56689124170225,67.9478233755508 30.333012512070127,68.098343564081 29.86525505303871,68.36927970987745 29.605389797943644,68.51979968330124 28.695861405227333,68.8509433544823 27.994225216680206,69.0917748818174 27.86429258924909,69.06167095169076 27.786333012627438,69.0917748818174 27.630413859616965,69.0917748818174 27.422521655564196,69.18208665392012 27.214629451395012,69.21219057182316 27.110683349426836,69.18208665392012 26.512993262847885,69.36271011512144 26.25312800775282,69.48312569438713 26.071222329279408,69.51322958155652 25.915303176268935,69.54333346558269 25.265640038531274,69.75406056817155 24.2521655439632,69.93468367899186 23.680461982730776,70.05509902481572 23.394610202289186,70.1755143214832 22.407122232951224,71.28935348486993 22.381135707371868,71.4398719680612 22.12127045239322,71.86132331256522 21.549566891393624,72.10215238190722 21.08180943224579,72.10215238190722 20.74398460064549,71.95163423664053 20.40615976904519,71.65059771557571 20.224254090571776,71.5000793399231 20.068334937561303,71.379664584063 19.80846968246624,71.2592497789301 19.158806544844992,70.98831628795597 18.613089509308338,71.07862747926265 18.353224254213274,71.10873120359611 17.67757459101267,71.2592497789301 17.05389797897078,71.379664584063 16.40423484123312,71.530183021212 16.09239653509576,71.59039037456387 15.54667949967552,71.68070138155599 15.2608277190011,71.74090870423242 14.611164581379853,71.86132331256522 14.325312800821848,71.89142695700866 14.195380173274316,71.89142695700866 13.935514918295667,71.98173787185806 13.805582290748134,72.01184150399058 13.727622714242898,72.01184150399058 13.415784408221953,72.10215238190722 13.0,72.10215238190722 13.129932627547532,72.10215238190722 13.675649663200602,71.98173787185806 13.805582290748134,71.95163423664053 13.935514918295667,71.9215305983671 14.039461020263843,71.89142695700866 14.247353224316612,71.86132331256522 14.559191530337557,71.80111601459794 15.078922040527686,71.83121966509498 15.156881617032923,71.80111601459794 15.2608277190011,71.77101236095768 15.390760346548632,71.74090870423242 15.494706448633224,71.71080504448037 15.806544754654169,71.59039037456387 15.988450433243997,71.530183021212 16.248315688222647,71.530183021212 16.742059672717005,71.4097682776337 16.897978825843893,71.34956088740728 17.05389797897078,71.31945718772477 17.183830606401898,71.28935348486993 17.36573628487531,71.2592497789301 17.62560154008679,71.19904235808644 17.755534167517908,71.19904235808644 17.88546679506544,71.168938643008 18.015399422496557,71.13883492481546 18.327237728633918,71.04852375187329 18.45717035618145,71.04852375187329 18.63907603477128,70.98831628795597 18.769008662202395,70.92810881169862 19.080846968339756,70.92810881169862 19.392685274477117,71.01842002142803 19.60057747841347,71.07862747926265 19.91241578455083,71.2592497789301 20.17228103952948,71.46997565557831 20.302213667077012,71.530183021212 20.76997112610843,71.77101236095768 21.107795957825147,71.89142695700866 21.237728585256264,71.9215305983671 21.52358036581427,71.86132331256522 21.67949951882474,71.86132331256522 22.017324350308627,71.80111601459794 22.173243503435515,71.74090870423242 22.45909528399352,71.59039037456387 22.589027911541052,71.5000793399231 22.74494706466794,70.98831628795597 22.79692011559382,70.65717501635663 22.874879692099057,70.38624097229331 23.082771896151826,70.23572195137967 23.524542829720303,70.1755143214832 23.65447545715142,70.14541050186381 23.784408084931783,70.11530667930492 23.888354186783545,70.08520285363193 24.018286814331077,70.08520285363193 24.122232916299254,70.05509902481572 24.226179018383846,69.9948913580447 24.51203079894185,70.02499519300181 24.849855630425736,69.90457983489614 25.005774783552624,69.8744759876572 25.161693936563097,69.84437213742058 25.343599615152925,69.81426828406984 25.94128970161546,69.7239567055367 26.097208854742348,69.66374897121568 26.48700673726853,69.51322958155652 26.720885466900654,69.45302180419094 27.26660250243731,69.21219057182316 27.552454282995313,69.2723983982869 27.682386910542846,69.2723983982869 27.994225216680206,69.21219057182316 28.12415784422774,69.12187880891724 28.28007699723821,69.0917748818174 28.41000962466933,69.00146308221156 28.53994225221686,68.97135914277169 28.747834456386045,68.88104730614577 28.87776708381716,68.8509433544823 28.981713185901754,68.82083939979202 29.189605389838107,68.67031957992003 29.475457170512527,68.51979968330124 29.57940327236429,68.42948770846124 29.709335900028236,68.3993837107264 29.813282001996413,68.30907169895363 29.917228104081005,68.2488636757771 30.15110683371313,68.12844759254949 30.410972088575363,68.00803146016551 30.46294513961766,67.88761527859606 30.59287776716519,67.82740716938861 30.72281039459631,67.7370949825563 30.8267564966809,67.64678276795894 30.930702598765492,67.55647052582935 31.034648700850084,67.46615825599292 31.242540904786438,67.31563774481765 31.37247353233397,67.22532540123211 31.502406159881502,67.16511715689558 31.580365736270323,67.07480476715136 31.658325312891975,66.98449234987493 31.892204042407684,66.80386743225972 31.97016361891292,66.71355493192095 32.10009624646045,66.62324240399175 32.178055823082104,66.56303403672064 32.256015399470925,66.50282565705129 32.307988450396806,66.4125130645989 32.51588065456599,66.23188779671909 32.61982675653417,66.14157512126258 32.801732435123995,65.99105393412174 33.087584215682,65.96094968752004 33.19153031765018,65.8706369290303 33.26948989427183,65.7502198748407 33.399422521702945,65.65990705194417 33.50336862367112,65.56959420139901 33.711260827840306,65.38896841721726 33.78922040434554,65.29865548360976 33.89316650631372,65.20834252244094 33.99711260839831,65.08792519781855 34.10105871036649,64.99761217215564 34.36092396546155,64.81698603773839 34.46487006742973,64.69656855324865 34.59480269497726,64.63635979266837 34.69874879694544,64.51594223442953 34.80269489903003,64.42562903364887 35.06256015400868,64.24500254890881 35.16650625609327,64.12458483094815 35.27045235817786,64.03427151023061 35.400384985725395,63.94395816177712 35.53031761315651,63.88374924752861 35.63426371512469,63.793435853061965 35.84215591929387,63.673017950728536 35.998075072304346,63.612808981211856 36.10202117427252,63.522495503741084 36.257940327282995,63.462286503374344 36.38787295483053,63.371972979890415 36.67372473550495,63.221450379205635 36.829643888399005,63.16124131742981 36.95957651594654,63.131136781856185 37.06352261803113,63.07092770165764 37.193455245462246,62.98061405829503 37.45332050055731,62.860195824090624 37.60923965356778,62.7999866886239 37.739172281115316,62.739777540788054 37.86910490866285,62.709672962198965 38.02502406167332,62.64946379594039 38.25890279118903,62.5591500235314 38.4148219441995,62.5290454266069 38.57074109732639,62.49894082653918 38.70067372475751,62.46883622338646 38.856592877884395,62.438731617236044 38.96053897996899,62.408627008029725 39.22040423494764,62.31831316178432 39.35033686249517,62.28820854017977 39.506256015389226,62.22799928794848 39.636188643053174,62.19789465723443 39.79210779594723,62.07747610332444 39.922040423494764,61.987162155797705 40.025986525579356,61.987162155797705 40.10394610208459,61.95705750049092 40.233878729632124,61.95705750049092 40.3378248316003,61.89684818056412 40.49374398472719,61.836638848355506 40.623676612158306,61.8065341776819 40.75360923970584,61.8065341776819 41.0134744948009,61.74632482699235 41.14340712223202,61.74632482699235 41.29932627535891,61.74632482699235 41.429258902790025,61.68611546405009 41.5851780558005,61.65601077795145 41.84504331089556,61.62590608885512 41.974975938443094,61.595801396644674 42.10490856599063,61.56569670132012 42.2608277190011,61.53559200299787 42.546679499559104,61.44527788940468 42.650625601643696,61.44527788940468 42.80654475465417,61.41517317877151 42.9364773822017,61.38506846508244 43.092396535212174,61.35496374822105 43.37824831577018,61.324859028391074 43.508180943201296,61.29475430538878 43.664100096328184,61.23454485027469 43.76804619829636,61.23454485027469 43.92396535142325,61.20444011813379 44.027911453391425,61.17433538282057 44.23580365732778,61.11412590308464 44.33974975941237,61.08402115869103 44.49566891253926,61.053916411096 44.651588065433316,61.02381166050327 44.80750721867662,60.993706906883745 45.04138594807591,60.903392627311405 45.06737247353885,60.87328786132275 45.04138594807591,60.8431830923073 45.04138594807591,60.8431830923073 45.119345524464734,60.87328786132275 45.27526467759162,60.87328786132275 45.431183830602095,60.8431830923073 45.58710298372898,60.78297354502138 45.717035611276515,60.78297354502138 45.976900866255164,60.662554413458565 46.13282001938205,60.632449623022694 46.288739172392525,60.602344829327194 46.3926852743607,60.5421352328558 46.49663137644529,60.5120304300508 46.60057747841347,60.48192562404438 46.912415784434415,60.39161118789343 47.04234841209836,60.33140154837747 47.32820019253995,60.24108706609695 47.666025024140254,60.12066771334503 47.769971126224846,60.090562867349945 47.87391722807661,60.03035316648311 48.003849855740555,60.000248311349424 48.05582290678285,59.97014345321804 48.15976900875103,59.94003859194345 48.44562078930903,59.849723989813356 48.601539942319505,59.819619116344256 48.75745909532998,59.75940935994731 48.88739172287751,59.699199591355864 49.04331087588798,59.66909470249084 49.147256977972575,59.63898981056991 49.433108758414164,59.578780017385725 49.58902791154105,59.51857021194883 49.770933590014465,59.458360394171905 49.900866217562,59.42825548071414 50.23869104904588,59.307835796062136 50.39461020217277,59.217521000275156 50.52454282960389,59.217521000275156 50.62848893168848,59.18741606219555 50.73243503377307,59.15731112103094 50.862367661320604,59.09710122953402 51.14821944187861,59.00678636934026 51.30413859488908,58.97668140969472 51.460057747899555,58.916471481352346 51.71992300299462,58.916471481352346 51.92781520704739,58.856261540640844 52.265640038531274,58.735841622401495 52.39557266619522,58.705736635194626 52.4995187681634,58.67563164484454 52.603464870131575,58.705736635194626 52.73339749767911,58.64552665152587 52.889316650805995,58.64552665152587 53.201154956710525,58.55521165285609 53.357074109721,58.55521165285609 53.48700673726853,58.525106647226494 53.64292589039542,58.46489662662498 53.79884504340589,58.46489662662498 53.92877767095342,58.46489662662498 54.18864292593207,58.40468659385806 54.318575553479604,58.40468659385806 54.656400385079905,58.31437152143917 54.78633301262744,58.31437152143917 54.916265640058555,58.31437152143917 55.12415784411132,58.28426649115863 55.12415784411132,58.28426649115863 55.12415784411132,58.224056421458954 55.15014436969068,58.224056421458954 55.15014436969068,58.224056421458954 55.176130895270035,58.224056421458954 55.176130895270035,58.224056421458954 55.176130895270035,58.224056421458954 55.176130895270035,58.224056421458954 55.202117420732975,58.224056421458954 55.202117420732975,58.254161457851296 55.202117420732975,58.224056421458954 55.280076997121796,58.16384633941925 55.30606352270115,58.19395138201071 55.33205004828051,58.224056421458954 55.487969201174565,58.254161457851296 55.825794032774866,58.224056421458954 55.9557266603224,58.16384633941925 56.08565928786993,58.10363624509773 56.18960538983811,58.07353119328036 56.44947064493317,58.04342613843619 56.57940327236429,58.013321080536116 56.76130895095412,58.013321080536116 56.91722810396459,57.98321601955104 57.04716073139571,57.98321601955104 57.30702598660719,57.92300588832586 57.4369586140383,57.89290081814397 57.566891241585836,57.86279574481887 57.72281039459631,57.83269066846697 57.90471607330255,57.83269066846697 58.19056785374414,57.80258558908827 58.320500481291674,57.74237542093033 58.5024061598815,57.71227033229661 58.63233878731262,57.71227033229661 58.76227141497657,57.68216524051968 59.15206929750275,57.68216524051968 59.4119345524814,57.621955047914525 59.51588065456599,57.59184994699899 59.801732435123995,57.53163973579649 60.087584215682,57.50153462571325 60.24350336869247,57.471429512428585 60.373435996240005,57.411219276778866 60.55534167471342,57.381114154384704 60.685274302377366,57.381114154384704 61.02309913386125,57.351009028818225 61.15303176140878,57.32090390013764 61.41289701638743,57.29079876848846 61.62078922055662,57.32090390013764 61.750721847987734,57.29079876848846 61.93262752657756,57.260693633696064 62.062560154125094,57.260693633696064 62.40038498560898,57.230588495964184 62.58229066419881,56.80911624370492 62.478344562114216,56.68869548957446 62.374398460262455,56.56827468625852 62.29643888375722,56.417748613021104 62.088546679588035,56.176906736014644 62.01058710296638,56.02638046289212 61.93262752657756,55.936064662237186 61.880654475535266,55.8457488338172 61.802694898913614,55.7855382663256 61.750721847987734,55.695222391805146 61.62078922055662,55.45437992468942 61.750721847987734,55.303853282821365 61.880654475535266,55.21353726089001 62.062560154125094,55.00279976869933 62.114533205050975,54.912483654450625 62.19249278155621,54.73185134315281 62.40038498560898,54.52111350669293 62.53031761327293,54.400691818329506 62.60827718966175,54.28027008075151 62.686236766166985,54.18995374531369 62.81616939371452,54.06953192167566 63.050048123230226,53.8286881269014 63.15399422531482,53.76847714744508 63.30991337832529,53.678160655195825 63.43984600587282,53.61794964506407 63.56977863330394,53.52763310674345 63.77767083735671,53.316894409799716 64.01154956698883,53.10615556218545 64.24542829650454,52.74488861611462 64.32338787300978,52.62446620236733 64.40134744963143,52.534149359795265 64.60923965356778,52.38362122734543 64.71318575565238,52.23309301806148 64.81713185773697,52.172881712875096 64.94706448516808,52.05245906551136 65.25890279118903,51.72129653178854 65.33686236769427,51.600873700139346 65.59672762278933,51.4503450912307 65.96053897985257,51.14928764314391 65.96053897985257,50.84822988760425 65.88257940334734,50.72780669937492 65.88257940334734,50.39664267809712 65.83060635230504,50.27621930537862 65.98652550543193,50.09558415415813 66.22040423494764,49.91494889225578 66.61020211747382,49.734313519787975 66.58421559201088,49.70420761354035 66.61020211747382,49.674101704353234 66.58421559201088,49.70420761354035 66.11645813286304,49.25261865206994 66.1424446584424,49.13219481223496 66.01251203089487,48.861240992700914 65.83060635230504,48.951558960194234 65.7526467757998,49.04187690006802 65.72666025022045,49.07198287383653 65.72666025022045,49.07198287383653 65.72666025022045,49.07198287383653 65.72666025022045,49.07198287383653 65.7526467757998,49.10208884452004 65.7526467757998,49.10208884452004 65.7526467757998,49.13219481223496 65.83060635230504,49.07198287383653 66.03849855635781,48.891346984921256 66.19441770936828,48.80102899900521 66.50625601538923,48.74081699299859 66.63618864305317,48.80102899900521 67.0,48.861240992700914" stroke="#4dd2ff" stroke-linecap="round" stroke-linejoin="round" stroke-width="0.5"><title>2023-02-07 5.0km</title></polyline><polyline fill="none" points="165.60312038753182,39.02098429715261 172.91153828427196,80.60287007212173 184.28018834721297,45.230103750363924 170.96262684557587,87.0 183.30573262739927,47.111650969600305 173.073947571218,80.22656762052793 183.79296048730612,45.04194892302621 170.96262684557587,86.62369885470252 136.04463022574782,42.407779319328256 136.04463022574782,42.407779319328256 136.04463022574782,42.407779319328256 136.04463022574782,42.407779319328256 135.88222093880177,42.407779319328256 135.88222093880177,42.407779319328256 159.91879535652697,43.72486459161155 172.0994918514043,77.96875129500404 184.1177790602669,44.101174496579915 172.42431042529643,82.10807911178563 183.1433233404532,47.111650969600305 183.46814191434532,46.359032312757336 173.88599400408566,77.21614523848984 184.28018834721297,43.34855460980907 184.1177790602669,44.101174496579915 172.74912899918854,80.97917244769633 183.30573262739927,46.547187005518936 183.46814191434532,46.359032312757336 183.63055120036006,45.606413347646594 172.74912899918854,80.79102126939688 183.79296048730612,45.230103750363924 172.42431042529643,81.91992804862093 183.30573262739927,46.359032312757336 183.46814191434532,46.17087760020513 176.97177045047283,67.0559333980782 183.9553697751835,44.477484324597754 174.04840329103172,76.6516904947348 183.46814191434532,45.9827228684444 184.1177790602669,44.101174496579915 184.28018834721297,43.53670961013995 174.21081257797778,75.89908390049823 136.04463022574782,42.407779319328256 141.40413668286055,40.71438258618582 140.59209025092423,35.8223388385959 140.7544995378703,33.94078009354416 140.91690882388502,33.0 171.44985470548272,40.902537855436094 183.30573262739927,44.66563920979388 172.26190113835037,86.62369885470252 136.04463022574782,42.407779319328256 136.69426737260073,42.59593441628385 163.3293903749436,44.28932941996027 172.42431042529643,80.4147188559873 184.44259763415903,45.606413347646594 183.9553697751835,45.230103750363924 173.073947571218,80.60287007212173 183.79296048730612,45.606413347646594 183.79296048730612,45.230103750363924 177.13417973648757,67.0559333980782 136.04463022574782,42.407779319328256 135.55740236584097,41.46700354886707 135.55740236584097,41.27884833724238 166.90239468123764,80.22656762052793 183.46814191434532,51.43920228455681 184.1177790602669,49.18135069240816" stroke="#4dd2ff" stroke-linecap="round" stroke-linejoin="round" stroke-width="0.5"><title>2023-01-16 3.1km</title></polyline><polyline fill="none" points="49.759036142379045,114.53541067033075 42.27710843272507,122.44967798516154 34.7951807230711,127.72584676882252 20.481927709653974,122.44967798516154 14.951807228848338,119.4347210091073 19.180722892284393,111.14357662736438 21.132530119270086,109.63609382859431 49.759036142379045,113.78167004231364 57.24096385575831,126.59523980808444 53.987951807677746,127.72584676882252 47.80722891539335,130.74079697323032 45.530120480805635,131.87140266550705 37.39759036153555,132.6251396003645 34.46987951733172,131.87140266550705 31.86746987886727,131.11766557605006 27.31325301155448,128.85645338497125 24.71084337309003,128.10271567921154 17.228915663436055,125.08776332018897 13.0,119.4347210091073 22.108433734625578,111.14357662736438 25.036144576966763,109.63609382859431 28.939759036526084,108.128610415617 34.144578313454986,107.75173946633004 47.80722891539335,111.52044723019935 50.4096385538578,114.53541067033075 56.59036144427955,117.55037164851092 60.49397590383887,121.6959389729891 55.939759036526084,127.34897781978361 52.686746986582875,128.4795845511835 49.10843373462558,129.61019093520008 35.77108433842659,131.87140266550705 25.68674698844552,128.4795845511835 26.337349398061633,110.01296458649449 29.265060240402818,108.5054813278839 51.060240963473916,129.98705965280533 36.74698795191944,133.0020080106333 17.879518073052168,113.78167004231364 19.506024096161127,112.65105880843475 19.506024096161127,111.14357662736438 21.457831325009465,110.76670598518103 23.08433734998107,109.63609382859431 24.38554216735065,109.25922303367406 26.337349398061633,108.5054813278839 26.337349398061633,108.128610415617 26.337349398061633,108.128610415617 27.31325301155448,108.128610415617 27.31325301155448,108.128610415617 27.31325301155448,108.5054813278839 27.963855421170592,108.5054813278839 43.25301204808056,111.89731779461727 53.012048192322254,127.72584676882252 49.43373494036496,129.61019093520008 27.638554215431213,128.85645338497125 23.734939759597182,127.34897781978361 15.277108432725072,122.07280849805102 14.951807228848338,117.55037164851092 18.855421686545014,114.53541067033075 34.7951807230711,109.25922303367406 51.060240963473916,114.15854037529789 54.63855421543121,116.41976157086901 58.86746987886727,123.20341684482992 58.86746987886727,123.5802862169221 56.59036144427955,125.84150164015591 54.96385541930795,126.59523980808444 53.66265060193837,127.34897781978361 51.385542169213295,128.10271567921154 50.4096385538578,129.2333221794106 46.83132530003786,129.98705965280533 44.87951807305217,131.49453414068557 43.5783132519573,132.2482711521443 38.69879518263042,133.37887638178654 37.39759036153555,132.6251396003645 36.42168674618006,131.11766557605006 31.86746987886727,130.363928332692 30.240963853895664,129.98705965280533 28.614457830786705,129.61019093520008 26.012048192322254,128.85645338497125 24.38554216735065,128.4795845511835 22.759036146104336,128.10271567921154 21.7831325288862,127.34897781978361 19.180722892284393,124.71089410153218 18.2048192769289,123.5802862169221 16.578313251957297,122.44967798516154 15.277108432725072,121.31906940904446 13.325301205739379,119.0578512144275 15.277108432725072,115.28915114561096 17.55421686731279,113.02792925783433 19.180722892284393,112.65105880843475 21.132530119270086,111.89731779461727 22.759036146104336,111.14357662736438 26.012048192322254,109.63609382859431 28.614457830786705,107.75173946633004 31.542168674990535,106.24425528408028 34.46987951733172,106.99799745157361 36.42168674618006,108.8823521998711 39.67469879426062,111.14357662736438 43.5783132519573,111.52044723019935 47.80722891539335,111.14357662736438 47.80722891539335,111.52044723019935 52.686746986582875,115.66602132515982 50.4096385538578,129.2333221794106 43.5783132519573,132.2482711521443 37.39759036153555,132.6251396003645 25.36144578270614,128.85645338497125 23.734939759597182,128.4795845511835 22.108433734625578,128.10271567921154 20.15662650577724,125.84150164015591 19.180722892284393,124.71089410153218 17.55421686731279,123.20341684482992 16.578313251957297,122.44967798516154 14.951807228848338,120.94219980528578 14.951807228848338,115.66602132515982 16.25301204994321,114.53541067033075 19.180722892284393,113.02792925783433 20.807228915393353,112.27418832038529 24.060240963473916,111.14357662736438 25.68674698844552,109.63609382859431 27.31325301155448,108.5054813278839 28.614457830786705,107.75173946633004 32.51807228848338,106.24425528408028 34.7951807230711,110.01296458649449 43.90361445583403,110.01296458649449 47.156626503914595,111.89731779461727 51.060240963473916,117.17350166081451 52.36144578270614,117.92724159732461 58.54216867312789,118.30411150865257 58.86746987886727,121.6959389729891 56.91566265001893,124.33402484562248 55.289156625047326,125.08776332018897 52.686746986582875,127.34897781978361 47.481927709653974,129.2333221794106 46.18072289228439,130.74079697323032 45.530120480805635,131.87140266550705 42.60240963846445,133.75574471591972 39.67469879426062,133.75574471591972 36.74698795191944,131.87140266550705 35.77108433842659,131.11766557605006 32.51807228848338,129.98705965280533 29.265060240402818,130.363928332692 27.31325301155448,129.61019093520008 25.68674698844552,128.85645338497125 24.38554216735065,128.4795845511835 23.08433734998107,127.72584676882252 22.108433734625578,127.34897781978361 21.457831325009465,126.59523980808444 19.831325301900506,125.84150164015591 18.530120480805635,125.08776332018897 17.228915663436055,123.9571555510629 16.25301204994321,123.20341684482992 14.951807228848338,122.44967798516154 13.325301205739379,118.30411150865257 13.975903613492846,117.55037164851092 16.903614457696676,114.15854037529789 19.180722892284393,112.65105880843475 20.15662650577724,112.27418832038529 21.7831325288862,111.14357662736438 23.734939759597182,110.38983530481346 27.963855421170592,106.99799745157361 34.144578313454986,109.25922303367406 35.77108433842659,110.01296458649449 37.07228915579617,111.14357662736438 40.65060240775347,111.89731779461727 42.60240963846445,110.38983530481346 47.481927709653974,109.63609382859431 50.4096385538578,114.15854037529789 54.63855421543121,118.30411150865257 56.26506024226546,118.30411150865257 58.86746987886727,122.44967798516154 58.54216867312789,122.82654743478633 56.26506024226546,125.84150164015591 54.63855421543121,126.97210883302614 53.33734939806163,127.34897781978361 51.71084337309003,128.4795845511835 46.50602409616113,130.363928332692 45.530120480805635,131.49453414068557 42.92771084420383,133.0020080106333 39.67469879426062,133.37887638178654 36.74698795191944,131.87140266550705 34.46987951733172,130.363928332692 35.12048192694783,128.4795845511835 36.42168674618006,128.4795845511835 38.04819277115166,128.10271567921154 39.02409638464451,128.10271567921154 39.34939759038389,128.4795845511835 40.65060240775347,129.2333221794106 42.60240963846445,127.34897781978361 42.92771084420383,127.34897781978361 42.92771084420383,127.34897781978361 43.5783132519573,126.2183707433287 45.2048192769289,123.20341684482992 47.80722891539335,120.56533016380854 51.71084337309003,120.56533016380854 54.313253013417125,122.44967798516154 51.060240963473916,125.46463249949738 51.060240963473916,122.07280849805102 53.012048192322254,121.31906940904446 53.66265060193837,123.9571555510629 51.385542169213295,125.84150164015591 52.03614457696676,122.07280849805102 54.63855421543121,122.82654743478633 55.614457830786705,122.44967798516154 57.56626505963504,122.82654743478633 59.51807228848338,124.33402484562248 55.939759036526084,125.84150164015591 55.939759036526084,125.84150164015591 57.89156626351178,125.46463249949738 59.19277108460665,125.84150164015591 61.14457831159234,126.2183707433287 63.09638554044068,126.2183707433287 64.07228915579617,126.2183707433287 65.04819277115166,126.59523980808444 65.69879517890513,125.84150164015591 67.0,125.46463249949738" stroke="#4dd2ff" stroke-linecap="round" stroke-linejoin="round" stroke-width="0.5"><title>2022-09-07 3.1km</title></polyline><polyline fill="none" points="138.89626037911512,125.71505702176364 139.72284503979608,125.65458730072714 140.39444507681765,125.47317809885135 141.53099898528308,125.17082930047764 142.77087597642094,126.19881455949508 142.87419905909337,123.6590829018387 142.77087597642094,123.11485321604414 142.87419905909337,122.44968289375538 144.52736838092096,121.90545205230592 146.33552232617512,121.60310136008775 146.90379928052425,121.54263120226096 147.98869164776988,121.30075050715823 149.74518405203708,120.99839949392481 150.8300764192827,120.75651856791228 151.39835337363183,122.26827267115004 151.91496878652833,124.08237229799852 152.06995341042057,124.6266010592808 152.43158419965766,126.38022353034467 152.5865688235499,127.04538926214445 153.0515226952266,128.19431005982915 152.99986115377396,128.61759608524153 153.10318423667923,129.8874522742699 153.41315348423086,131.2782438994618 153.4648150256835,131.8224657845567 153.77478427323513,133.6365349800326 153.72312273201533,133.69700385362376 153.87810735590756,134.3016922371462 154.08475352125242,134.90637997892918 154.13641506247222,135.08778617612552 154.23973814514466,135.32966101606144 154.3430612278171,135.51106707850704 154.4463843102567,135.8134103877237 155.01466126460582,135.32966101606144 156.46118442108855,133.33419051527744 157.49441524711438,132.7295011045062 158.42432299046777,132.54809415602358 158.88927686214447,132.60856314533157 159.76752306427807,132.48762516042916 160.43912310129963,132.4271561584901 161.67900009220466,132.18528008594876 162.8155540006701,132.06434201117372 163.22884633135982,132.00387296424014 163.22884633135982,131.9434039107291 163.48715403792448,131.8224657845567 164.83035411173478,131.70152763277292 165.5019541485235,131.52012035693042 166.7418311398942,131.3991821409436 167.3101080940105,131.33871302340413 168.34333892003633,131.09683648869395 169.27324666338973,130.85495985118905 169.634877452394,130.85495985118905 169.78986207628623,130.85495985118905 169.9965082416311,130.85495985118905 170.71976981963962,130.61308311100584 171.59801602200605,130.49214470258448 172.16629297612235,130.4316754885367 173.19952380214818,130.18979856860824 174.232754628174,130.06886007013964 174.90435466496274,129.8874522742699 175.36930853663944,129.82698299607728 175.36930853663944,129.94792154605966 175.36930853663944,130.00839081127197 175.9892470324412,129.76651371159824 176.24755473877303,129.6455751231988 176.7641701521352,129.58510581951123 177.074139399454,129.58510581951123 177.64241635403596,129.4036978694494 177.90072406060062,129.52463650912978 177.7974009779282,129.34322854003403 177.74573943647556,129.2222898619366 177.95238560182042,129.28275920415763 177.849062519148,128.9804124282091 177.3324471062515,126.31975387991406 177.3324471062515,126.07787521369755 177.074139399454,125.71505702176364 177.074139399454,124.92895014636451 176.8674932345748,125.11035952169914 176.60918552801013,125.23129907308612 176.66084706922993,125.29176883911714 177.12580094090663,124.38472167414147 176.8674932345748,123.7195528348675 176.5575239865575,122.75203313649399 176.50586244510487,122.08686239045346 176.24755473877303,120.81698880903423 176.040908573661,120.15181580296485 175.67927778465673,118.45864464563783 175.36930853663944,116.70499778306112 175.26598545419984,116.1002907162183 175.1110008303076,115.19322891236516 175.2143239127472,114.70946202613413 175.16266237176023,114.52804933791049 175.16266237176023,114.40710751368897 175.007677747868,113.9838109263801 174.5943854174111,113.01627468829975 174.43940079328604,112.53250595304416 174.232754628174,111.20213981170673 174.12943154550157,110.89978343714029 174.232754628174,110.89978343714029 174.07777000428177,110.47648424300132 173.92278538038954,109.99271335022058 173.92278538038954,109.81129915919155 173.7678007564973,109.50894204631913 173.7161392152775,109.14611329871695 173.6644776740577,108.96469883818645 173.56115459115244,108.66234127583448 173.45783150871284,108.0576256691129 173.40616996749304,107.81573924660916 173.35450842627324,107.51338107406627 173.3028468848206,107.15055105515057 173.2511853436008,106.84819252946181 173.3028468848206,106.66677733702818 173.19952380214818,106.42489032377489 173.04453917825595,105.27592560794437 172.57958530657925,103.8850704820361 172.42460068268701,103.15940558962757 172.26961605879478,102.1918509613024 172.21795451734215,101.88948980270652 172.11463143490255,101.2847670041956 172.06296989344992,100.68004356353777 171.95964681077749,100.4381540074246 171.90798526979052,100.1962643485167 171.90798526979052,99.95437458704691 171.75300064566545,99.71248472249135 171.70133910444565,99.41012224764563 171.70133910444565,99.10775961220497 172.11463143490255,99.10775961220497 172.11463143490255,99.0472870657104 171.33970831544138,98.0192527952604 171.02973906765692,96.80979833612218 170.9264159849845,96.32601583335781 170.77143136085942,94.08851641125511 170.61644673720002,93.60473159642424 170.409800572088,93.0 170.409800572088,93.54425846569939 170.46146211354062,93.78615095023997 170.66810827841982,94.08851641125511 170.71976981963962,94.08851641125511 170.61644673720002,94.14898948417976 170.61644673720002,94.20946255075978 170.77143136085942,94.08851641125511 170.61644673720002,94.39088171173353 170.66810827841982,94.63277383660898 170.8747544437647,94.63277383660898 170.82309290231206,94.99561183102196 170.77143136085942,95.237503699027 170.77143136085942,95.41892253264086 170.8747544437647,95.66081422066782 170.8747544437647,96.44696149742231 170.8747544437647,96.62837994575966 170.82309290231206,96.8702711200458 171.08140060887672,97.29358042794047 171.18472369154915,97.47499860654352 171.28804677422158,97.89830746490043 171.28804677422158,98.0797254507197 171.33970831544138,98.2611433788552 171.33970831544138,98.44256124901585 171.44303139811382,98.68445165286539 171.44303139811382,98.74492423783522 171.49469293933362,98.98681451298762 171.59801602200605,99.22870468563633 171.70133910444565,99.4705947553739 171.85632372833788,99.95437458704691 171.85632372833788,100.1962643485167 171.95964681077749,100.61957118404098 171.95964681077749,100.61957118404098 172.06296989344992,100.86146066297079 172.06296989344992,101.16382236737991 172.21795451734215,101.64760076027596 172.16629297612235,102.252323173685 172.01130835223012,102.49421195924515 171.85632372833788,102.61515631352086 171.64967756299302,102.67562848085072 171.49469293933362,102.97798922215588 171.49469293933362,102.8570449447725 171.64967756299302,102.67562848085072 172.11463143490255,102.5546841394389 172.3212776002474,102.79657279659295 172.3729391414672,103.09893347357865 172.3212776002474,103.15940558962757 172.47626222413965,103.52223815151956 172.47626222413965,103.70365434564883 172.52792376535945,104.00601454090793 172.68290838901885,104.42931854457129 172.73456993047148,104.67120640544454 172.8378930131439,104.91309416334843 172.94121609581634,105.15498181886505 172.9928776368033,105.33639749296708 173.14786226069555,106.06205961131491 173.56115459115244,108.42045511020115 173.6644776740577,108.90422733855667 174.07777000428177,110.17412748298375 174.18109308672138,110.77884084224934 174.38773925206624,111.32308231666684 174.6460469586309,112.65344817546429 174.69770850008354,113.07674575143028 174.80103158252314,113.56051402457524 174.90435466496274,114.28616566362325 175.007677747868,114.70946202613413 175.007677747868,115.07228722929722 175.05933928885497,115.43511220125947 175.26598545419984,115.97934922605054 175.42097007809207,116.52358573034871 175.36930853663944,116.70499778306112 175.36930853663944,116.94688042986672 175.42097007809207,117.12829234771198 175.47263161931187,117.30970420769881 175.5242931607645,117.49111600976903 175.5759547019843,117.73299832287012 175.5759547019843,117.9748805333511 175.62761624343693,117.9748805333511 175.73093932610936,118.45864464563783 175.73093932610936,118.64005608181469 175.73093932610936,118.88193790684454 175.83426240854897,119.12381962925429 175.88592394976877,119.24476045189658 175.9892470324412,119.6075827657478 176.29921627999283,121.24028031760827 176.7641701521352,122.9939132152358 176.81583169312216,123.59861296258168 177.28078556479886,125.23129907308612 177.3841086474713,125.11035952169914 177.4357701886911,125.11035952169914 177.4357701886911,125.17082930047764 177.74573943647556,125.35223859868711 177.69407789525576,125.23129907308612 177.48743173014373,125.17082930047764 177.48743173014373,125.11035952169914 177.48743173014373,125.17082930047764 177.3324471062515,125.53364783921279 177.22912402357906,125.7755267363973 177.3324471062515,126.74304129864322 177.48743173014373,127.10585883562453 177.48743173014373,127.34773706516717 177.64241635403596,127.71055421704659 177.90072406060062,127.71055421704659 177.74573943647556,127.83149321615929 177.69407789525576,128.31524895649636 177.7974009779282,128.4966572530684 177.7974009779282,128.9804124282091 177.74573943647556,129.2222898619366 177.849062519148,129.4641671924037 177.90072406060062,129.70604442071635 178.15903176693246,130.12932932260446 178.36567793227732,130.31073704146547 178.36567793227732,130.3712062682025 178.36567793227732,130.31073704146547 178.41733947349712,130.79449067584937 178.46900101471692,131.03636733884923 178.46900101471692,131.33871302340413 178.46900101471692,131.58058945537778 178.52066255616955,131.76199671183713 178.7273087212816,132.12481105170446 178.7789702625014,132.2457491136738 178.8306318037212,132.18528008594876 178.8306318037212,132.18528008594876 178.8306318037212,132.2457491136738 179.03727796906605,133.6365349800326 179.14060105173849,134.05981696094386 179.24392413441092,134.1202857895405 179.34724721685052,134.42262983700493 179.45057029952295,135.0273174502072 179.55389338219538,135.57153575326083 179.65721646463498,136.29715934826527 179.60555492318235,136.17622214660514 179.60555492318235,136.5995022400748 179.70887800608762,137.02278201887384 179.7605395470746,137.14371904084692 179.91552417096682,137.62746687192703 180.01884725387208,138.17168269038666 180.07050879509188,138.29261946835322 180.07050879509188,138.35308784764493 180.01884725387208,138.71589798893547 180.07050879509188,138.89730297302594 180.07050879509188,139.1391761949635 180.1221703365445,139.1391761949635 180.17383187776431,139.3810493144556 180.1221703365445,139.62292233121116 180.1221703365445,139.864795245172 180.1221703365445,140.1066680564545 180.22549341898412,140.65088150603697 180.17383187776431,140.71134963515215 180.32881650165655,140.95322208688594 180.32881650165655,141.3160305719939 180.32881650165655,141.43696668220218 180.27715496043675,141.6183707996388 180.17383187776431,141.6183707996388 179.81220108852722,141.67883882601745 179.70887800608762,141.7997748591588 179.7605395470746,141.7997748591588 179.70887800608762,141.8602428660961 179.55389338219538,141.92071086680517 179.50223184074275,142.1021148300497 179.50223184074275,142.16258280485636 179.50223184074275,142.2230507733184 179.60555492318235,142.16258280485636 179.60555492318235,142.16258280485636 179.55389338219538,142.34398669120856 179.60555492318235,142.5858584495727 179.55389338219538,142.5858584495727 179.60555492318235,142.5858584495727 179.70887800608762,142.64632637321483 179.70887800608762,142.64632637321483 179.70887800608762,142.64632637321483 179.7605395470746,142.5858584495727 179.7605395470746,142.5858584495727 179.81220108852722,142.46492258331273 179.81220108852722,142.52539051964413 179.91552417096682,142.46492258331273 179.86386262997985,142.46492258331273 179.81220108852722,142.5858584495727 179.81220108852722,142.52539051964413 179.86386262997985,142.64632637321483 179.86386262997985,142.40445464040386 179.81220108852722,142.34398669120856 179.7605395470746,142.28351873566862 179.70887800608762,142.04164684878197 179.70887800608762,141.7997748591588 179.7605395470746,141.73930684564402 180.22549341898412,141.5579027668573 180.32881650165655,141.6183707996388 180.32881650165655,141.6183707996388 180.43213958432898,141.73930684564402 180.48380112554878,141.98117886087857 180.53546266676858,142.2230507733184 180.53546266676858,142.40445464040386 180.53546266676858,142.64632637321483 180.7421088318806,143.06960165838245 180.7421088318806,143.432408795401 180.7421088318806,143.432408795401 180.7421088318806,143.432408795401 180.7421088318806,143.432408795401 180.84543191455305,143.85568349645473 180.89709345577285,144.097554612963 180.89709345577285,144.27895788295427 181.00041653844528,144.58129653788637 181.05207807966508,144.88363503239816 181.1037396211177,145.00457038515015 181.1037396211177,145.54877915530233 181.1554011623375,145.73018196306657 181.25872424500994,145.9115847130306 181.31038578646258,146.33485757175367 181.25872424500994,146.2743900398491 181.25872424500994,146.2743900398491 181.20706270379014,146.33485757175367 181.20706270379014,146.39532509743003 181.20706270379014,146.33485757175367 181.20706270379014,146.39532509743003 181.20706270379014,146.39532509743003 181.1554011623375,146.33485757175367 181.1037396211177,146.2743900398491 181.1037396211177,146.21392250130884 180.84543191455305,146.57672763551818 180.79377037333325,146.51626012928318 180.84543191455305,146.45579261647072 180.89709345577285,146.45579261647072 180.89709345577285,146.45579261647072 180.6904472906608,146.51626012928318 180.48380112554878,146.51626012928318 180.32881650165655,146.45579261647072 180.1221703365445,146.57672763551818 180.01884725387208,146.57672763551818 180.07050879509188,146.57672763551818 180.07050879509188,146.57672763551818 179.81220108852722,146.63719513540855 179.55389338219538,146.69766262895428 179.39890875807032,146.69766262895428 179.14060105173849,146.75813011603896 178.93395488662645,146.81859759666258 178.36567793227732,146.9395325386431 178.1073702259455,147.0 177.7974009779282,146.81859759666258 177.74573943647556,146.51626012928318 177.59075481258333,146.33485757175367 177.4357701886911,145.8511171360733 177.4357701886911,145.36737628967967 177.4357701886911,144.88363503239816 177.3841086474713,144.7022319548414 177.3841086474713,144.5208288197755 177.3324471062515,144.33942562690936 177.28078556479886,144.1580223760102 177.22912402357906,143.91615128534613 177.17746248235926,143.67428009171272 176.8674932345748,142.40445464040386 176.81583169312216,142.34398669120856 176.7641701521352,142.16258280485636 176.60918552801013,141.6183707996388 176.5575239865575,141.67883882601745 176.40253936266527,140.83228587388294 176.24755473877303,140.71134963515215 176.24755473877303,140.16713624313707 176.29921627999283,140.22760442341678 176.24755473877303,140.22760442341678 176.14423165633343,139.3810493144556 176.14423165633343,139.0182395967422 176.14423165633343,138.83683465135982 175.9375854912214,138.35308784764493 175.88592394976877,138.17168269038666 175.83426240854897,137.92980905732838 175.78260086709633,137.74840376526117 175.73093932610936,137.56699841533555 175.62761624343693,136.96231349842856 175.47263161931187,136.47856510273414 175.42097007809207,136.17622214660514 175.26598545419984,135.99481629603542 175.2143239127472,135.69247308321064 175.16266237176023,135.39012971002376 175.16266237176023,135.2691923158127 174.80103158252314,134.72497372387443 174.95601620641537,134.3621610403643 174.80103158252314,134.1807546117925 174.6460469586309,134.2412234278163 174.38773925206624,134.3016922371462 174.12943154550157,134.3621610403643 173.92278538038954,134.54356741090305 173.6644776740577,134.54356741090305 173.2511853436008,134.785442482098 172.8895545543637,134.8459112336859 172.47626222413965,134.72497372387443 171.90798526979052,134.72497372387443 171.54635448055342,134.8459112336859 171.39136985689402,134.785442482098 171.13306215032935,134.8459112336859 170.9264159849845,134.8459112336859 170.77143136085942,134.9668487176532 170.20315440674312,135.14825489581563 170.09983132430352,135.32966101606144 169.5315543699544,135.32966101606144 169.27324666338973,135.32966101606144 169.0666004982777,135.39012971002376 168.2916773785837,135.69247308321064 168.03336967225187,135.69247308321064 167.77506196592003,135.8134103877237 167.3101080940105,135.87387903017225 167.3101080940105,135.93434766639257 166.8451542223338,136.05528491945006 166.53518497454934,136.11575353622902 166.17355418531224,136.23669075075304 165.9669080202002,136.23669075075304 165.65693877241574,136.29715934826527 165.5019541485235,136.29715934826527 165.29530798341148,136.29715934826527 165.0886618180666,136.41809652443044 164.83035411173478,136.41809652443044 164.67536948784254,136.539033674635 164.21041561593302,136.5995022400748 163.95210790960118,136.5995022400748 163.64213866158389,136.5995022400748 163.38383095525205,136.65997079928638 162.86721554212272,136.5995022400748 162.09229242266156,136.7809078982682 161.78232317464426,136.84137643809663 161.52401546831243,136.90184497146402 161.2657077619806,136.96231349842856 160.95573851419613,136.96231349842856 159.81918460549787,137.14371904084692 159.612538440153,137.14371904084692 159.30256919236854,137.08325053320732 159.09592302748933,137.14371904084692 158.68263069703244,137.2041875423165 158.47598453168757,137.2041875423165 157.6493998710066,137.56699841533555 157.13278445787728,137.8088722023531 156.04789209039882,138.65542964817723 155.53127667773515,138.47402458719444 155.37629205384292,137.86934063315857 155.42795359529555,137.62746687192703 154.96299972338602,136.84137643809663 154.8596766407136,136.5995022400748 154.8080150994938,136.35762793954927 154.70469201658852,136.05528491945006 154.65303047560155,135.99481629603542 154.18807660392486,136.11575353622902 153.9297688973602,136.05528491945006 153.9297688973602,136.05528491945006 153.77478427323513,136.05528491945006 153.67146119079553,136.11575353622902 153.41315348423086,136.17622214660514 153.15484577789903,136.29715934826527 152.89653807133436,136.35762793954927 152.37992265820503,136.47856510273414 152.1216149518732,136.47856510273414 151.60499953851104,136.539033674635 151.19170720828697,136.65997079928638 150.72675333661027,136.65997079928638 150.3134610063862,136.65997079928638 150.15847638249397,136.7204393518623 149.69352251081727,136.84137643809663 149.17690709768794,136.96231349842856 148.86693784990348,136.90184497146402 148.66029168479145,136.96231349842856 148.50530706066638,136.96231349842856 148.24699935433455,137.02278201887384 147.93703010655008,137.02278201887384 147.73038394143805,137.02278201887384 147.21376852830872,137.14371904084692 147.0071223631967,137.14371904084692 146.74881465663202,137.14371904084692 146.69715311541222,137.2041875423165 146.38718386762775,137.3251245256979 146.1288761610631,137.3251245256979 145.56059920671396,137.38559300772613 144.99232225236483,137.44606148340972 144.6823530048132,137.50652995251585 144.47570683946833,137.50652995251585 143.959091426339,137.62746687192703 143.75244526122697,137.74840376526117 143.5457990958821,137.8088722023531 143.3391529310029,137.86934063315857 143.18416830711067,137.92980905732838 142.925860600546,137.99027747532818 142.35758364619687,137.99027747532818 142.2025990220718,138.05074588680873 142.2025990220718,138.11121429182822 142.2025990220718,137.99027747532818 141.78930669184774,138.05074588680873 141.01438357238658,137.92980905732838 140.54942970047705,137.86934063315857 140.29112199414521,137.86934063315857 140.08447582903318,137.86934063315857 139.6711834988091,137.99027747532818 139.77450658124872,137.8088722023531 139.92949120514095,137.68793532182463 139.82616812270135,137.14371904084692 139.87782966368832,136.90184497146402 139.72284503979608,136.65997079928638 139.6711834988091,136.41809652443044 139.56786041590385,136.11575353622902 139.56786041590385,135.87387903017225 139.46453733323142,135.39012971002376 139.51619887445122,134.90637997892918 139.4128757917788,134.72497372387443 139.36121425079182,134.54356741090305 139.20622962689959,134.3621610403643 139.10290654399432,134.1807546117925 139.15456808544695,134.05981696094386 139.2578911681194,133.75747272081207 139.15456808544695,133.4551283203764 139.15456808544695,133.21325268462533 139.15456808544695,132.9109079951886 139.10290654399432,132.9109079951886 139.10290654399432,132.85043903812766 139.10290654399432,132.78997007466387 139.10290654399432,132.48762516042916 139.10290654399432,131.64105854730587 139.05124500300735,131.3991821409436 138.99958346155472,131.157305631903 138.99958346155472,130.9154290203005 138.99958346155472,130.85495985118905 138.89626037911512,130.4316754885367 138.7929372964427,129.82698299607728 138.7412757552229,129.58510581951123 138.7412757552229,129.28275920415763 138.68961421377026,129.04088179621613" stroke="#4dd2ff" stroke-linecap="round" stroke-linejoin="round" stroke-width="0.5"><title>2022-09-04 4.0km</title></polyline><polyline fill="none" points="61.214285714086145,190.94807783898432 55.55714285699651,166.37078835477587 60.700000000186265,189.30960475374013 59.02857142826542,189.4585569279734 63.27142857108265,191.99074157106224 51.957142856903374,187.0753203087952 31.642857143189758,186.47951054549776 46.042857143096626,188.41589138633572 61.72857142845169,192.13969347253442 59.41428571427241,190.65017377852928 14.542857142630965,179.92558709159493 13.257142857648432,179.62768078048248 13.0,179.47872760216706 14.542857142630965,179.92558709159493 14.542857142630965,179.92558709159493 14.542857142630965,180.07454022439197 39.871428571175784,188.266939105466 49.25714285764843,186.6284630090231 62.371428571641445,191.54388577712234 59.92857142863795,190.50122172536794 63.78571428544819,192.28864535782486 60.31428571464494,190.65017377852928 63.65714285708964,192.13969347253442 60.05714285699651,190.65017377852928 61.60000000009313,191.2459818383213 59.285714285913855,190.3522696569562 61.72857142845169,191.39493381523062 56.07142857136205,188.86274813837372 14.542857142630965,180.07454022439197 14.542857142630965,180.07454022439197 14.542857142630965,180.07454022439197 18.785714285913855,180.5213995311642 47.1999999997206,189.30960475374013 54.01428571389988,189.607509088004 61.72857142845169,191.39493381523062 59.41428571427241,190.3522696569562 67.0,193.62921164522413 61.214285714086145,191.09702984627802 61.8571428572759,191.39493381523062 59.542857143096626,190.3522696569562 61.72857142845169,191.39493381523062" stroke="#4dd2ff" stroke-linecap="round" stroke-linejoin="round" stroke-width="0.5"><title>2022-07-31 3.1km</title></polyline><polyline fill="none" points="187.0,173.92705343547277 186.75751295348164,174.05513453454478 186.2538860103814,174.20456238907354 185.7316062176833,174.22590921711526 185.45181347150356,174.22590921711526 185.06010362692177,174.20456238907354 184.966839378234,174.20456238907354 184.85492227983195,174.20456238907354 184.76165803114418,174.20456238907354 184.6683937824564,174.18321555890725 184.23937823832966,174.16186872664548 184.1461139896419,174.16186872664548 183.94093264243565,174.14052189240465 183.49326424882747,174.11917505606834 183.25077720207628,174.09782821757835 182.74715025909245,174.05513453454478 182.4113989637699,174.11917505606834 182.43005181360058,174.31129650866205 182.61658031085972,174.71688569041726 182.67253886011895,174.82361956121167 182.72849740937818,174.9090066205681 182.80310880835168,175.03708714732784 182.80310880835168,175.01574039799743 182.91502590687014,175.2292077975144 182.97098445601296,175.42132827977184 182.933678756468,175.46402169748035 182.97098445601296,175.39998156778165 182.2621761658229,173.71358477119065 181.4974093263736,173.6922378933814 181.23626943002455,173.71358477119065 180.73264248715714,173.77762539229298 180.47150259069167,173.84166599465243 179.98652849753853,173.88435971921717 179.74404145078734,173.90570657841454 179.25906735751778,173.991093994322 178.53160621761344,174.05513453454478 178.3450777203543,174.07648137709475 177.97202072537038,174.14052189240465 177.8041450777091,174.16186872664548 177.63626943004783,174.18321555890725 177.30051813472528,174.26860286702868 177.15129533677828,174.31129650866205 176.983419689117,174.37533695554885 176.6849740933394,174.5247645923664 176.51709844567813,174.5888049770001 176.34922279790044,174.65284534306556 176.05077720212284,174.802272791203 175.90155440417584,174.88765985882492 175.75233160634525,174.99439364667342 175.26735751295928,175.079780639644 175.08082901558373,175.01574039799743 174.67046632128768,174.8663130950008 174.46528497408144,174.802272791203 174.03626943007112,174.69553891004762 173.81243523326702,174.65284534306556 173.32746113999747,174.48207099224965 173.1409326425055,174.4180305764312 172.6932642487809,174.26860286702868 172.4880829016911,174.20456238907354 172.07772020727862,174.07648137709475 171.87253886007238,173.991093994322 171.59274611400906,173.90570657841454 171.4248704664642,173.86301285793888 171.2569948186865,173.82031912922685 170.9585492227925,173.71358477119065 170.8093264248455,173.670891013433 170.6601036270149,173.58550347307755 170.30569948197808,173.5001158995874 170.1378238342004,173.45742210038588 169.9886010363698,173.41472829288978 169.69015544035938,173.30799373784976 169.5409326425288,173.26529990127892 169.39170984458178,173.2226060565008 169.0746113989735,173.0945244722534 168.90673575131223,173.05183059429692 168.73886010365095,173.00913670794398 168.27253886009566,172.85970804063254 168.14196891197935,172.81701411707036 167.9554404146038,172.77432018514082 167.6569948187098,172.66758531903906 167.48911917104851,172.62489135815122 167.32124352338724,172.5821973888378 167.0414507772075,172.49680942553096 166.7430051814299,172.45411543143564 166.5937823834829,172.47546242951648 166.38860103627667,172.43276843123022 166.42590673582163,172.41142142901663 166.46321243525017,172.43276843123022 166.48186528496444,172.39007442472212 166.50051813479513,172.30468638667662 166.5191709845094,172.1766042675008 166.53782383422367,171.87774569905014 166.53782383422367,171.87774569905014 166.50051813479513,172.0698691111611 166.48186528496444,172.15525724034524 166.50051813479513,172.19795129260456 166.48186528496444,172.28333937202115 166.23937823832966,172.43276843123022 166.10880829021335,172.41142142901663 165.9222797928378,172.43276843123022 165.56787564768456,172.45411543143564 165.40000000002328,172.45411543143564 165.21347150264774,172.45411543143564 164.87772020720877,172.45411543143564 164.7098445596639,172.45411543143564 164.54196891188622,172.47546242951648 164.20621761656366,172.47546242951648 164.01968911918812,172.49680942553096 163.85181347152684,172.49680942553096 163.5160621762043,172.49680942553096 163.34818652865943,172.51815641947906 163.21761658031028,172.49680942553096 162.88186528498773,172.51815641947906 162.73264248704072,172.49680942553096 162.56476683937944,172.51815641947906 162.2290155440569,172.51815641947906 162.0797927461099,172.53950341136078 161.93056994816288,172.53950341136078 161.44559585489333,172.56085040114704 161.29637305706274,172.56085040114704 161.0911917098565,172.56085040114704 160.75544041453395,172.5821973888378 160.58756476687267,172.5821973888378 160.45699481875636,172.5821973888378 160.13989637314808,172.56085040114704 159.8041450777091,172.60354437453498 159.65492227987852,172.5821973888378 159.46839378238656,172.62489135815122 159.132642487064,172.62489135815122 158.96476683940273,172.60354437453498 158.81554404157214,172.60354437453498 158.51709844556171,172.60354437453498 158.34922279790044,172.60354437453498 158.2373056996148,172.60354437453498 158.12538860109635,172.62489135815122 158.03212435240857,172.62489135815122 157.90155440417584,172.62489135815122 157.82694300520234,172.62489135815122 157.75233160634525,172.62489135815122 157.65906735754106,172.62489135815122 157.6217616579961,172.62489135815122 157.6404145078268,172.62489135815122 157.54715025913902,172.62489135815122 157.49119170987979,172.62489135815122 157.37927461147774,172.64623833964288 157.26735751295928,172.62489135815122 156.81968911923468,172.66758531903906 156.63316062185913,172.66758531903906 156.44663212436717,172.68893229642708 156.14818652858958,172.68893229642708 155.9616580310976,172.68893229642708 155.77512953372207,172.68893229642708 155.12227979279123,172.73162624493125 154.97305699484423,172.71027927169052 154.73056994832586,172.73162624493125 154.3948186528869,172.75297321603284 154.2455958550563,172.73162624493125 154.0963730571093,172.75297321603284 153.7792746113846,172.75297321603284 153.6487046632683,172.75297321603284 153.4994818653213,172.75297321603284 153.31295336782932,172.75297321603284 153.182383419713,172.73162624493125 153.1077720207395,172.73162624493125 153.033160621766,172.75297321603284 153.01450777205173,172.71027927169052 153.01450777205173,172.71027927169052 153.033160621766,172.71027927169052 152.90259067364968,172.75297321603284 152.82797927455977,172.75297321603284 152.75336787558626,172.75297321603284 152.77202072541695,172.75297321603284 152.79067357513122,172.75297321603284 152.82797927455977,172.73162624493125 152.82797927455977,172.73162624493125 152.82797927455977,172.73162624493125 152.82797927455977,172.73162624493125 152.82797927455977,172.73162624493125 152.82797927455977,172.73162624493125 152.82797927455977,172.73162624493125 152.82797927455977,172.71027927169052 152.82797927455977,172.71027927169052 152.82797927455977,172.71027927169052 152.75336787558626,172.73162624493125 152.5854922280414,172.75297321603284 152.39896373066586,172.75297321603284 152.10051813477185,172.77432018514082 151.78341968916357,172.77432018514082 151.63419689121656,172.79566715210967 151.46632124355529,172.77432018514082 151.13056994823273,172.79566715210967 150.96269430057146,172.79566715210967 150.79481865291018,172.79566715210967 150.4777202073019,172.81701411707036 150.30984455964062,172.81701411707036 150.1606217615772,172.81701411707036 149.84352331608534,172.81701411707036 149.69430051825475,172.81701411707036 149.48911917104851,172.8383610798628 149.15336787572596,172.85970804063254 148.98549222794827,172.85970804063254 148.48186528496444,172.9024019559438 148.3699481865624,172.881054999365 148.2953367877053,172.9024019559438 148.18341968918685,172.9024019559438 148.0715025906684,172.881054999365 147.82901554415002,172.85970804063254 147.71709844563156,172.85970804063254 147.6238341969438,172.85970804063254 147.53056994825602,172.85970804063254 147.4559585492825,172.85970804063254 147.26943005190697,172.85970804063254 147.19481865293346,172.85970804063254 147.12020725395996,172.85970804063254 147.0269430052722,172.881054999365 146.97098445601296,172.9024019559438 146.7844559586374,172.9024019559438 146.67253886011895,172.9024019559438 146.54196891200263,172.9237489105144 146.43005181348417,172.9024019559438 146.16891191713512,172.9237489105144 146.09430051816162,172.9237489105144 145.94507772033103,172.945095862975 145.85181347164325,172.945095862975 145.77720207255334,172.945095862975 145.70259067357983,172.96644281341287 145.62797927472275,172.96644281341287 145.53471502591856,172.96644281341287 145.46010362694506,172.96644281341287 145.29222797928378,172.98778976172616 145.198963730596,173.00913670794398 145.1430051814532,173.00913670794398 145.04974093276542,173.03048365215363 144.95647668396123,173.03048365215363 144.63937823835295,173.03048365215363 144.5274611399509,173.03048365215363 144.41554404143244,173.05183059429692 144.3036269431468,173.05183059429692 144.19170984462835,173.05183059429692 144.1544041450834,173.05183059429692 144.09844559594058,173.07317753430107 144.04248704668134,173.07317753430107 143.96787564770784,173.0945244722534 143.89326424873434,173.0945244722534 143.80000000004657,173.0945244722534 143.72538860118948,173.0945244722534 143.65077720209956,173.11587140811025 143.57616580312606,173.11587140811025 143.3896373057505,173.1372183419444 143.315025906777,173.15856527368305 143.1844559586607,173.15856527368305 143.07253886014223,173.17991220338445 142.9419689120259,173.17991220338445 142.568911917042,173.20125913100492 142.40103626949713,173.20125913100492 142.23316062183585,173.2226060565008 141.91606217622757,173.24395297991578 141.76683937828057,173.26529990127892 141.61761658044998,173.26529990127892 141.2259067358682,173.30799373784976 141.0020725389477,173.30799373784976 140.49844559596386,173.35068756608234 140.29326424875762,173.37203447708453 139.95751295343507,173.39338138599123 139.45388601045124,173.4360751976492 138.98756476689596,173.45742210038588 138.8756476684939,173.4787690010562 138.74507772026118,173.45742210038588 138.6518134715734,173.4787690010562 138.33471502596512,173.5001158995874 138.22279792744666,173.5001158995874 138.1295336788753,173.5001158995874 137.9056994819548,173.52146279608132 137.79378238343634,173.54280969046522 137.70051813474856,173.5641565828264 137.58860103634652,173.58550347307755 137.47668393782806,173.606850361306 137.29015544056892,173.64954413149098 137.19689119176473,173.6922378933814 136.97305699484423,173.75627852063917 136.87979274615645,173.7989722617931 136.78652849746868,173.84166599465243 136.6932642487809,173.86301285793888 136.60000000009313,173.92705343547277 136.3948186528869,173.991093994322 136.30155440419912,174.03378768984112 136.20829015551135,174.07648137709475 136.11502590682358,174.11917505606834 136.00310880830511,174.18321555890725 135.81658031092957,174.28994968885672 135.7233160622418,174.3539901419863 135.63005181355402,174.4180305764312 135.53678756486624,174.48207099224965 135.44352331617847,174.5247645923664 135.27564766840078,174.6314985564968 135.21968911925796,174.69553891004762 135.14507772028446,174.75957924495742 135.0518134715967,174.82361956121167 134.9772020726232,174.88765985882492 134.82797927467618,175.01574039799743 134.77202072541695,175.05843389454822 134.71606217615772,175.12247412365105 134.6601036270149,175.16516759940714 134.62279792758636,175.2292077975144 134.5295336788986,175.29324797690788 134.5295336788986,175.29324797690788 134.45492227980867,175.39998156778165 134.38031088083517,175.4426749896229 134.34300518140662,175.5067151068797 134.24974093271885,175.6347952853539 134.26839378243312,175.6134485941002 134.15647668403108,175.78422206586401 134.08186528505757,175.84826208354207 134.02590673579834,175.9336487447581 133.93264248711057,176.06172867442365 133.9699481865391,176.0403820246138 133.9886010363698,176.0403820246138 133.95129533682484,176.0403820246138 133.95129533682484,176.0403820246138 133.95129533682484,176.0403820246138 133.80207253887784,176.25384842886706 133.72746114002075,176.40327478849213 133.63419689121656,176.57404764654348 133.447668393841,176.97963265258295 133.41036269429605,177.12905851872347 133.27979274617974,177.49194948504737 133.20518134720623,177.6413750029169 133.149222797947,178.00426512336708 133.11191709851846,178.1750367374334 133.0746113989735,178.3671546445985 133.0,178.85812186676776 133.0,178.9435073586501 133.0,179.0075464558322 133.0,179.07158553430054 133.0,179.13562459417153 133.0,179.24235631903866 133.0,179.30639532915666 133.0,179.5838974905637 133.0186528498307,179.7973604532017 133.05595854925923,179.94678440371354 133.0186528498307,179.92543813132215 133.0,180.07486199475534 133.0,180.18159326356545 133.0186528498307,180.2883244806144 133.03730569954496,180.35236318591342 133.03730569954496,180.4377480973344 133.05595854925923,180.56582540222735 133.0932642488042,181.05678771308158 133.0932642488042,181.27024924525176 133.11191709851846,181.63313337427098 133.11191709851846,181.69717168774514 133.11191709851846,181.7612099825783 133.13056994823273,181.86794043258124 133.11191709851846,181.95332475520263 133.13056994823273,182.0387090446893 133.13056994823273,182.08140117699804 133.13056994823273,182.25216962331615 133.149222797947,182.3588998348423 133.16787564766128,182.52966806551558 133.20518134720623,183.12735582816822 133.2238341969205,183.38350722890755 133.2424870467512,183.8958091348759 133.27979274617974,184.1519596400758 133.298445595894,184.62156812437752 133.33575129543897,184.83502619471983 133.42901554412674,185.51809062660323 133.447668393841,185.75289353479457 133.48497409326956,186.1798072708334 133.50362694310024,186.32922688258986 133.50362694310024,186.41460947228188 133.59689119178802,186.96959549668827 133.6155440415023,187.0549778376153 133.63419689121656,187.16170571710973 133.65284974093083,187.24708798342908 133.65284974093083,187.33247021659918 133.6715025906451,187.43919796138653 133.6715025906451,187.43919796138653 133.6901554404758,187.4818890447932 133.87668393785134,187.3965068696998 133.95129533682484,187.37516132074234 133.9699481865391,187.37516132074234 133.9886010363698,187.3538157696894 133.9886010363698,187.31112466136983 133.9699481865391,187.24708798342908 133.9699481865391,187.2043968544749 133.95129533682484,187.1403601453203 133.95129533682484,187.1403601453203 133.95129533682484,187.09766899562965 133.95129533682484,187.0549778376153 133.93264248711057,187.0336322554649 133.93264248711057,186.99094108499412 133.93264248711057,186.9482499063015 133.91398963727988,186.90555871918332 133.93264248711057,186.88421312256833 133.91398963727988,186.8201763202378 133.91398963727988,186.79883071534277 133.91398963727988,186.73479388811393 133.9886010363698,186.73479388811393 134.04455958551262,186.73479388811393 134.10051813477185,186.73479388811393 134.11917098448612,186.71344827490975 134.17512953374535,186.71344827490975 134.17512953374535,186.71344827490975 134.19378238345962,186.71344827490975 134.19378238345962,186.71344827490975 134.23108808288816,186.73479388811393 134.23108808288816,186.73479388811393 134.24974093271885,186.75613949923718 134.24974093271885,186.77748510833771 134.24974093271885,186.79883071534277 134.26839378243312,186.79883071534277 134.26839378243312,186.79883071534277 134.24974093271885,186.8628675239015 134.24974093271885,186.88421312256833 134.26839378243312,186.92690431381925 134.26839378243312,186.9482499063015 134.26839378243312,186.96959549668827 134.2870466321474,187.09766899562965 134.30569948186167,187.2043968544749 134.32435233169235,187.28977910416143 134.34300518140662,187.3965068696998 134.34300518140662,187.50323458337516 134.3616580311209,187.71668985532597 134.38031088083517,187.78072639646416 134.39896373066586,187.7593808848469 134.38031088083517,187.82341741355776 134.38031088083517,187.9087994228321 134.39896373066586,187.97283590801817 134.41761658038013,188.0368723745487 134.4362694300944,188.12225430094986 134.41761658038013,188.10090882248187 134.41761658038013,188.10090882248187 134.38031088083517,187.82341741355776 134.3616580311209,187.7593808848469 134.3616580311209,187.69534433743684 134.3616580311209,187.6099622452457 134.3616580311209,187.6099622452457 134.38031088083517,187.6099622452457 134.38031088083517,187.5672711866937 134.3616580311209,187.6099622452457 134.34300518140662,187.6099622452457 134.34300518140662,187.6099622452457 134.3616580311209,187.6099622452457 134.34300518140662,187.6099622452457 134.34300518140662,187.63130777141487 134.3616580311209,187.6099622452457 134.3616580311209,187.6099622452457 134.3616580311209,187.8020719060878 134.3616580311209,187.82341741355776 134.38031088083517,187.82341741355776 134.38031088083517,187.8020719060878 134.39896373066586,187.78072639646416 134.39896373066586,187.78072639646416 134.39896373066586,187.78072639646416 134.39896373066586,187.78072639646416 134.39896373066586,187.78072639646416 134.39896373066586,187.78072639646416 134.39896373066586,187.78072639646416 134.39896373066586,187.78072639646416 134.39896373066586,187.78072639646416 134.41761658038013,187.78072639646416 134.41761658038013,187.78072639646416 134.39896373066586,187.78072639646416 134.39896373066586,187.78072639646416 134.39896373066586,187.78072639646416 134.39896373066586,187.78072639646416 134.38031088083517,187.78072639646416 134.38031088083517,187.78072639646416 134.38031088083517,187.8020719060878 134.38031088083517,187.8020719060878 134.3616580311209,187.8020719060878 134.3616580311209,187.8020719060878 134.3616580311209,187.82341741355776 134.38031088083517,187.8447629189759 134.38031088083517,187.8447629189759 134.38031088083517,187.8447629189759 134.38031088083517,187.8447629189759 134.3616580311209,187.82341741355776 134.3616580311209,187.8020719060878 134.3616580311209,187.7593808848469 134.38031088083517,187.71668985532597 134.38031088083517,187.71668985532597 134.38031088083517,187.71668985532597 134.32435233169235,187.3538157696894 134.32435233169235,187.31112466136983 134.32435233169235,187.26843354482844 134.30569948186167,187.2043968544749 134.30569948186167,187.16170571710973 134.30569948186167,187.09766899562965 134.30569948186167,187.0549778376153 134.2870466321474,187.0549778376153 134.30569948186167,187.01228667127725 134.2870466321474,186.99094108499412 134.2870466321474,186.99094108499412 134.30569948186167,186.96959549668827 134.30569948186167,186.9482499063015 134.30569948186167,186.9482499063015 134.2870466321474,186.92690431381925 134.26839378243312,186.90555871918332 134.26839378243312,186.88421312256833 134.26839378243312,186.8628675239015 134.26839378243312,186.84152192313923 134.26839378243312,186.79883071534277 134.26839378243312,186.77748510833771 134.26839378243312,186.75613949923718 134.26839378243312,186.75613949923718 134.23108808288816,186.69210265965376 134.2124352331739,186.69210265965376 134.2124352331739,186.71344827490975 134.2124352331739,186.71344827490975 134.2124352331739,186.73479388811393 134.15647668403108,186.73479388811393 134.00725388596766,186.75613949923718 133.95129533682484,186.75613949923718 133.93264248711057,186.75613949923718 133.93264248711057,186.73479388811393 133.9699481865391,186.73479388811393 133.9699481865391,186.73479388811393 133.9699481865391,186.75613949923718 133.93264248711057,186.73479388811393 133.93264248711057,186.77748510833771 133.93264248711057,186.84152192313923 133.95129533682484,186.90555871918332 133.93264248711057,186.96959549668827" stroke="#4dd2ff" stroke-linecap="round" stroke-linejoin="round" stroke-width="0.5"><title>2022-07-25 3.9km</title></polyline><polyline fill="none" points="13.048214285867289,229.3594988207915 13.241071428405121,228.7450688420795 13.144642857136205,226.73420226870803 13.771428571315482,226.17562690901104 13.771428571315482,225.22604748856975 14.253571428591385,227.34863450576086 13.0,229.19192707678303 14.39821428572759,229.97392810950987 14.880357142770663,230.81178511859616 15.410714285448194,230.92349928955082 15.603571428451687,230.64421381952707 15.844642857089639,230.30907106713858 16.471428571501747,230.02978528331732 18.59285714267753,228.63335422624368 20.56964285718277,227.01348973473068 21.485714285634458,225.89633901516208 21.4375,227.90720866795164 21.72678571427241,228.80092614132445 22.980357142863795,227.5720642391243 23.269642856903374,228.4099249264109 23.70357142854482,227.79549388121814 25.246428571408615,228.52163958764868 26.017857142724097,228.91264072275953 27.36785714281723,229.02435528143542 27.89821428572759,230.30907106713858 29.05535714281723,230.92349928955082 28.524999999906868,231.4262127763359 29.248214285820723,231.03521343762986 29.923214285634458,232.3757814358105 30.887499999953434,234.8334809016087 31.5625,235.67133046896197 31.5625,236.3416091989493 30.260714285774156,238.52000940061407 30.550000000046566,238.40829678089358 31.755357142770663,237.40288217546185 32.86428571399301,237.06774356315145 32.9124999998603,237.01188710780116 30.98392857122235,238.29658413818106 31.32142857159488,238.91100339061813 34.45535714295693,238.63172199775 35.32321428577416,237.9614460731973 36.625,238.85514712351141 35.85357142868452,240.92182521132054 35.949999999953434,240.36326433561044 37.299999999813735,239.74884671409382 36.86607142840512,240.75425700843334 34.35892857145518,243.21191883954452 32.33392857131548,243.43534209474456 33.58749999990687,243.43534209474456 35.13035714277066,241.64795349707128 35.32321428577416,244.1614670449053 47.762499999953434,244.7758797116112 49.449999999953434,244.72002404317027 47.56964285694994,247.62451124249492 47.52142857154831,243.71462103590602 45.785714285681024,241.42452951159794 39.6624999998603,244.60831268911716 40.0,241.70380947907688 35.32321428577416,242.8767837852356 34.02142857131548,245.72542520309798 40.723214285681024,239.02271590795135 37.8303571427241,240.92182521132054 35.75714285718277,241.75966545543633 36.43214285699651,240.75425700843334 37.299999999813735,240.19569596182555 31.176785714225844,241.75966545543633 30.839285714086145,242.82092792296316 30.839285714086145,243.71462103590602 36.191071428358555,240.25155209208606 37.15535714267753,240.36326433561044 36.33571428572759,240.47497655643383 34.64821428549476,239.52542195329443 37.15535714267753,238.35244046227308 37.73392857145518,237.62630780303152 37.9749999998603,237.57045140472474 40.144642857369035,237.23531289503444 38.84285714291036,238.52000940061407 39.1803571425844,239.02271590795135 40.38571428577416,240.47497655643383 40.77142857131548,240.64254484465346 42.362500000046566,242.0948011938599 42.941071428591385,242.59750441659708 43.13392857159488,242.65336030168692 43.32678571413271,242.8767837852356 43.808928571175784,243.21191883954452 45.496428571408615,243.71462103590602 45.737500000046566,244.04975557688158 46.316071428358555,244.60831268911716 46.65357142849825,244.8875910314382 47.183928571408615,246.11641404411057 47.473214285681024,246.9542463341495 48.0999999998603,248.07135405857116 48.34107142849825,248.35063063330017 50.848214285681024,249.74701136886142 51.18571428558789,249.91457681776956 52.14999999990687,250.19385245162994 52.96964285708964,250.36141776345903 53.40357142849825,250.64069316943642 54.27142857131548,251.03167849831516 54.464285714086145,251.03167849831516 54.65714285708964,251.25509856076678 54.85000000009313,251.70193841203582 54.99464285722934,251.8136483177077 55.23571428586729,251.98121313372394 55.28392857150175,252.0370680608903 55.38035714277066,252.09292298258515 55.52499999990687,252.14877789834281 55.71785714267753,252.2604877129197 55.81428571417928,252.42805239197332 56.200000000186265,252.59561701962957 56.34464285708964,252.7073267431697 56.489285714458674,252.8748912853771 56.68214285699651,252.98660095158266 56.971428571268916,253.09831059526186 57.16428571427241,253.15416540845763 57.40535714291036,253.3775846043136 57.50178571417928,253.43343938904582 57.598214285681024,253.43343938904582 57.69464285718277,253.54514894122258 58.0803571427241,253.65685847075656 58.27321428572759,253.8802774613141 58.61071428563446,254.15955107129412 58.89999999990687,254.3271151689114 58.996428571175784,254.27126047533238 59.237500000046566,254.3271151689114 59.3821428574156,254.43882453866536 59.526785714318976,254.49467921507312 59.76785714295693,254.55053388571832 59.86428571422584,254.6063885508338 60.25,254.6063885508338 60.49107142863795,254.49467921507312 60.924999999813735,254.49467921507312 61.262499999953434,254.6063885508338 61.60000000009313,254.6063885508338 61.60000000009313,254.71809786366066 61.88928571436554,254.77395251143025 62.27499999990687,254.71809786366066 62.51607142854482,254.66224320995389 62.70892857131548,254.71809786366066 62.901785714318976,254.66224320995389 63.04642857145518,254.55053388571832 63.1428571427241,254.6063885508338 63.2874999998603,254.55053388571832 63.62500000023283,254.49467921507312 63.67321428563446,254.43882453866536 63.91428571450524,254.43882453866536 64.20357142831199,254.38296985661145 64.39642857131548,254.38296985661145 64.58928571431898,254.38296985661145 64.83035714295693,254.27126047533238 65.07142857136205,254.21540577622363 65.21607142849825,254.15955107129412 65.31249999976717,254.15955107129412 65.84285714291036,254.21540577622363 66.08392857154831,254.27126047533238 66.27678571408615,254.27126047533238 66.18035714281723,254.3271151689114 66.42142857145518,254.21540577622363 66.66250000009313,254.27126047533238 66.80714285722934,254.27126047533238 67.0,254.27126047533238 66.75892857136205,254.27126047533238 66.51785714295693,254.27126047533238 66.46964285708964,254.27126047533238 66.32499999995343,254.27126047533238 66.22857142868452,254.27126047533238 65.84285714291036,254.15955107129412 65.7946428572759,254.10369636060204 65.64999999990687,254.10369636060204 65.45714285690337,254.04784164443845 64.97500000009313,254.15955107129412 64.15535714291036,254.49467921507312 63.96249999990687,254.38296985661145 63.67321428563446,254.3271151689114 62.99821428558789,254.38296985661145 62.51607142854482,254.49467921507312 62.082142857136205,254.49467921507312 61.9375,254.55053388571832 61.35892857145518,254.71809786366066 60.78035714267753,254.77395251143025 60.49107142863795,254.71809786366066 60.29821428586729,254.66224320995389 59.816071428591385,254.55053388571832 59.76785714295693,254.49467921507312 59.71964285708964,254.49467921507312 58.61071428563446,254.21540577622363 58.17678571422584,253.8802774613141 57.7428571425844,253.54514894122258 57.50178571417928,253.48929416801548 57.308928571408615,253.43343938904582 57.06785714300349,253.2658750177361 56.63392857136205,252.98660095158266 56.5374999998603,252.8748912853771 56.29642857145518,252.7631815962959 55.862499999813735,252.4839072736795 55.621428571408615,252.37219750473741 55.47678571427241,252.2604877129197 55.28392857150175,252.2604877129197 55.042857142863795,252.2604877129197 54.65714285708964,251.75779336772393 54.512499999953434,251.70193841203582 54.31964285718277,251.4785185318906 53.8375000001397,251.19924355379771 53.355357142863795,251.03167849831516 53.30714285722934,250.91996843286324 53.21071428549476,250.86411339160986 52.92142857145518,250.5289830241818 52.487500000046566,250.19385245162994 52.246428571408615,250.08214221522212 51.76428571436554,249.85872167377966 51.4749999998603,249.6911562079331 51.18571428558789,249.52359069074737 50.848214285681024,249.24431471445132 50.89642857131548,249.132604284212 50.89642857131548,248.85332810867112 50.800000000046566,248.74161759845447 50.848214285681024,248.46234122331953 50.848214285681024,248.35063063330017 50.558928571408615,248.07135405857116 50.31785714300349,248.01549872662872 49.401785714318976,248.40648593124934 49.112499999813735,248.2389200204634 48.871428571408615,247.23352347902255 48.871428571408615,247.0101017744746 48.48571428586729,246.61911357205827 48.34107142849825,246.73082451563096 47.90714285708964,246.67496904655127 47.473214285681024,246.2839806046686 47.32857142854482,246.00470297515858 46.894642857136205,245.5020028827712 46.74999999976717,245.11101360264 46.55714285722934,244.83173537440598 45.9303571425844,244.6641683690832 45.54464285704307,244.10561131383292 45.496428571408615,243.8821883322089 45.54464285704307,243.54705368849682 45.448214285541326,243.6029094766709 45.01428571413271,243.71462103590602 44.7249999998603,243.6029094766709 44.5803571427241,243.54705368849682 44.387500000186265,243.37948628957383 44.00178571417928,243.04435133794323 43.808928571175784,242.98849549284205 43.71249999990687,242.9326396418037 43.56785714277066,242.8767837852356 43.471428571268916,242.70921618118882 43.230357142863795,242.59750441659708 42.55535714281723,242.26236898603383 42.362500000046566,242.15065713023068 42.073214285541326,241.98308930383064 41.832142857136205,241.75966545543633 41.78392857150175,241.70380947907688 41.73571428563446,241.42452951159794 41.63928571413271,241.3128174848971 41.49464285722934,241.03353731782408 41.15714285708964,240.92182521132054 40.964285714318976,240.75425700843334 40.77142857131548,240.75425700843334 40.24107142863795,240.5866887543234 39.855357142863795,240.5866887543234 39.37321428558789,240.19569596182555 39.276785714318976,239.8605590601801 39.276785714318976,239.6371343448991 39.08392857131548,239.41370953869773 38.987500000046566,239.35785332275555 38.746428571408615,239.24614087393275 38.55357142840512,238.9668596520787 38.36071428563446,238.91100339061813 38.11964285699651,238.63172199775 37.8303571427241,238.52000940061407 37.348214285681024,238.4641530936351 37.20357142854482,238.4641530936351 37.20357142854482,238.24072780821007 37.058928571408615,237.9055897090584 36.86607142840512,237.84973333927337 36.72142857150175,237.68216419569217 36.43214285699651,237.1236000128556 36.191071428358555,236.67674825590802 35.99821428558789,236.6208917607437 35.46785714291036,236.5650352598168 34.98571428563446,236.5650352598168 34.60000000009313,236.22989613428945 34.40714285708964,235.89475680340547 34.31071428558789,235.89475680340547 34.1178571425844,235.72718706110027 33.73214285704307,235.11276423325762 33.63571428577416,235.00105091766454 33.29821428563446,234.7776242181426 33.105357142630965,234.55419742746744 32.816071428591385,234.33077054534806 32.67142857145518,234.21905707014957 32.816071428591385,234.163200324052 32.38214285718277,234.55419742746744 32.04464285704307,234.72176752903033 31.658928571268916,234.163200324052 31.610714285634458,233.93977328232722 31.2249999998603,233.6604893517797 30.887499999953434,233.4370621049893 30.74285714281723,233.2136347667547 30.501785714412108,232.99020733725047 30.357142857043073,232.82263670529937 29.923214285634458,232.31992450152757 29.730357142630965,231.98478277563117 29.392857142956927,231.64964084461099 29.151785714318976,231.53792682191124 28.669642857043073,231.48206980200484 28.42857142863795,231.14692756300792 28.380357142770663,230.755928024475 28.091071428498253,230.30907106713858 28.042857143096626,230.36492820677813 28.042857143096626,230.58835670829285 28.235714285634458,231.09107050299644 28.332142856903374,231.59378383605508 28.139285714365542,231.4262127763359 27.850000000093132,231.64964084461099 27.801785714225844,231.87306882144185 26.885714285774156,231.20278461708222 26.78928571427241,230.86764220683835 26.74107142863795,230.36492820677813 26.21071428549476,229.97392810950987 26.355357142863795,229.52707051346079 26.25892857136205,229.08021255239146 26.21071428549476,228.91264072275953 26.1624999998603,228.63335422624368 26.1624999998603,228.46578225988196 25.873214285587892,228.13063817314105 25.68035714281723,228.13063817314105 25.535714285681024,228.13063817314105 25.34285714267753,228.07478080544388 25.439285713946447,227.68377907160902 24.86071428586729,227.51620681432541 23.896428571548313,227.51620681432541 23.510714285774156,227.34863450576086 23.510714285774156,227.18106214597356 23.221428571501747,226.90177476551617 22.498214285820723,226.73420226870803 21.871428571641445,226.90177476551617 21.67857142840512,227.01348973473068 21.533928571501747,227.1252046812442 21.341071428498253,227.18106214597356 20.90714285708964,227.4603493839386 20.56964285718277,227.5720642391243 20.376785714179277,227.68377907160902 20.32857142854482,227.85135127743706 20.232142857043073,227.85135127743706 19.17142857145518,228.85678343492327 19.123214285587892,228.68921153701376 18.785714285681024,228.7450688420795 18.255357143003494,228.85678343492327 17.387499999953434,229.52707051346079 17.001785714179277,229.58292773290304 16.857142857043073,229.69464215479093 16.66428571403958,229.86221374484012 16.423214285634458,230.08564245159505 16.567857142770663,230.25321392185288 16.567857142770663,230.30907106713858 16.760714285541326,230.4766424689442 15.121428571408615,230.5324995915871 14.542857142630965,230.08564245159505 14.494642856996506,230.1414996139356 14.639285714132711,230.1414996139356 14.832142857136205,230.4766424689442 14.735714285634458,230.5324995915871 14.494642856996506,230.1414996139356 14.494642856996506,229.08021255239146 14.39821428572759,228.7450688420795 14.301785714458674,228.68921153701376 14.446428571362048,228.18649553519208 15.314285714179277,227.62792165827705 15.169642857275903,227.5720642391243 15.024999999906868,227.23691960511496" stroke="#4dd2ff" stroke-linecap="round" stroke-linejoin="round" stroke-width="0.5"><title>2019-05-06 3.4km</title></polyline><polyline fill="none" points="168.7589285708964,242.3276118998765 167.55357142863795,242.79308963153744 167.23214285681024,242.88618514948757 166.58928571408615,243.16547164594522 166.1071428572759,243.3516625961638 166.02678571408615,243.3516625961638 165.86607142863795,243.4447580568376 165.78571428591385,243.4447580568376 161.2857142854482,244.56190284580225 143.92857142863795,249.9614166970714 137.66071428591385,253.87138952763053 136.6964285708964,254.3368613666389 133.96428571408615,252.1025943714194 133.0,251.0785535023315 141.67857142863795,255.64018125273287 141.5178571427241,255.5470870367717 136.6964285708964,248.00642399507342 136.29464285681024,244.56190284580225 134.36607142863795,246.7030931984773 134.2053571427241,252.00949979457073 135.16964285681024,252.84735064482084 136.2142857145518,253.7782951311674 136.6964285708964,254.24376701790607 145.9375,258.24681543622864 141.1160714281723,255.36089857696788 134.92857142863795,252.00949979457073 142.16071428591385,255.82636965578422 139.58928571408615,254.52305003610672 143.36607142863795,256.47802876716014 148.75,259.2708482554881 144.8125,257.68825159571134 137.41964285681024,254.61614435631782 137.09821428591385,254.42995570605854 146.09821428591385,258.33990937651834 141.1160714281723,255.36089857696788 133.88392857136205,251.45093213318614 134.52678571408615,246.88928342610598 135.25,241.76903830794618 135.7321428572759,238.13830162008526 136.13392857136205,243.63094895036193 136.9375,253.7782951311674 137.0178571427241,254.24376701790607 137.0178571427241,254.3368613666389 137.0178571427241,254.3368613666389 149.3928571427241,259.7363173389458 149.9553571427241,260.01559867465403 141.35714285681024,255.45399281161372 134.52678571408615,252.19568893895485 136.8571428572759,254.24376701790607 134.2053571427241,252.00949979457073 146.4196428572759,258.1537214866257 148.50892857136205,259.2708482554881 148.50892857136205,259.2708482554881 137.17857142863795,254.52305003610672 134.2857142854482,252.1025943714194 134.2053571427241,252.00949979457073 135.16964285681024,252.84735064482084 134.2053571427241,252.00949979457073 134.125,252.00949979457073 135.0892857145518,252.84735064482084 136.9375,254.3368613666389 137.0178571427241,254.42995570605854 134.2053571427241,252.00949979457073 187.0,219.98440132534597 141.4375,251.35783748986432 140.07142857136205,252.2887834967114 137.25892857136205,254.24376701790607 146.09821428591385,258.24681543622864 139.50892857136205,254.61614435631782 163.93749999953434,243.81713980523637 138.22321428591385,238.2313976130681 137.33928571408615,238.13830162008526 137.09821428591385,243.81713980523637 136.9375,254.24376701790607 136.375,245.95833190710982 136.4553571427241,246.33071262860904 145.9375,257.03659334918484 144.41071428591385,257.502063572756 149.79464285681024,259.92250490549486 168.67857142863795,255.82636965578422 137.8214285718277,254.42995570605854 157.0267857145518,244.37571214267518 157.26785714318976,243.537853508431 157.75000000046566,243.91023521864554 159.11607142863795,244.00333062245045 163.69642857136205,240.186411272618 163.05357142863795,239.81402804149548 162.33035714318976,239.7209322101553 161.9285714281723,239.53474051854573 161.44642857136205,238.88306929852115 160.1607142854482,238.51068553543882 159.83928571408615,238.78997337212786 159.83928571408615,239.06926112313522 158.7142857145518,239.1623570212978 158.39285714318976,239.34854878904298 158.3125,239.53474051854573 157.8303571427241,240.27950705651892 157.26785714318976,240.55879435164388 156.46428571408615,240.6518900974188 156.30357142863795,240.00021967606153 156.625,240.93117727834033 156.46428571408615,241.30356005305657 157.8303571427241,243.3516625961638 158.39285714318976,243.4447580568376 159.4375,243.16547164594522 160.40178571408615,242.97928065794986 160.88392857136205,242.97928065794986 162.25,242.3276118998765 163.05357142863795,241.95522954297485 164.0178571427241,241.30356005305657 164.09821428591385,240.6518900974188 163.53571428591385,239.7209322101553 162.25,239.34854878904298 161.2857142854482,239.06926112313522 161.52678571408615,239.25545291008893 162.8928571427241,240.09331547899637 161.04464285681024,243.3516625961638 160.6428571427241,243.81713980523637 155.9017857145518,243.3516625961638 154.77678571408615,242.88618514948757 154.21428571408615,242.42070746514946 153.00892857136205,241.58284703432582 152.52678571408615,241.210464373813 151.80357142863795,240.186411272618 151.9642857145518,239.1623570212978 153.4107142854482,238.32449359667953 154.13392857136205,237.9521096055396 154.61607142863795,238.04520561755635 155.2589285718277,238.04520561755635 155.4196428572759,238.04520561755635 155.82142857136205,237.48662940232316 156.3839285708964,238.13830162008526 156.2232142854482,238.6968774361303 156.625,238.32449359667953 157.8303571427241,238.4175895708031 157.91071428591385,238.6968774361303 158.07142857136205,238.51068553543882 157.99107142863795,238.60378149076132 159.75892857136205,238.88306929852115 160.5625,238.2313976130681" stroke="#4dd2ff" stroke-linecap="round" stroke-linejoin="round" stroke-width="0.5"><title>2019-04-30 5.1km</title></polyline></svg>