<?xml version="1.0" encoding="utf-8" ?>
<svg baseProfile="full" height="300mm" version="1.1" viewBox="0,0,200,300" width="200mm" xmlns="http://www.w3.org/2000/svg" xmlns:ev="http://www.w3.org/2001/xml-events" xmlns:xlink="http://www.w3.org/1999/xlink"><defs /><rect fill="#222222" height="300" width="200" x="0" y="0" /><text fill="#FFFFFF" style="font-size:12px; font-family:Arial; font-weight:bold;" x="10" y="20">Over 3km Runs</text><text fill="#FFFFFF" style="font-size:4px; font-family:Arial" x="10" y="280">ATHLETE</text><text fill="#FFFFFF" style="font-size:9px; font-family:Arial" x="10" y="290">arinic</text><text fill="#FFFFFF" style="font-size:4px; font-family:Arial" x="120" y="280">STATISTICS</text><text fill="#FFFFFF" style="font-size:3px; font-family:Arial" x="120" y="285">Number: 3</text><text fill="#FFFFFF" style="font-size:3px; font-family:Arial" x="120" y="290">Weekly: 1.0</text><text fill="#FFFFFF" style="font-size:3px; font-family:Arial" x="141" y="285">Total: 12.3 km</text><text fill="#FFFFFF" style="font-size:3px; font-family:Arial" x="141" y="290">Avg: 4.1 km</text><text fill="#FFFFFF" style="font-size:3px; font-family:Arial" x="167" y="285">Min: 3.4 km</text><text fill="#FFFFFF" style="font-size:3px; font-family:Arial" x="167" y="290">Max: 5.1 km</text><polyline fill="none" points="95.5,65.89058015320916 95.13626943016425,66.08270180181717 94.3808290156303,66.30684358358849 93.59740932646673,66.33886382565834 93.17772020737175,66.33886382565834 92.59015544038266,66.30684358358849 92.45025906746741,66.30684358358849 92.28238341968972,66.30684358358849 92.14248704677448,66.30684358358849 92.00259067374282,66.27482333834632 91.3590673574945,66.24280308996094 91.21917098446283,66.24280308996094 90.9113989637699,66.21078283860697 90.23989637324121,66.17876258408069 89.87616580317263,66.14674232638208 89.12072538875509,66.08270180181717 88.61709844565485,66.17876258408069 88.64507772028446,66.46694476300036 88.92487046634778,67.07532853560406 89.00880829023663,67.23542934181751 89.09274611400906,67.36350993087399 89.2046632124111,67.55563072100631 89.2046632124111,67.5236105969816 89.37253886030521,67.84381169627886 89.45647668396123,68.13199241965776 89.400518134702,68.1960325461987 89.45647668396123,68.09997235168703 88.39326424885076,65.5703771567787 87.2461139896186,65.53835684008664 86.85440414515324,65.5703771567787 86.0989637307357,65.66643808843219 85.7072538860375,65.76249899197137 84.97979274624959,65.82653957881848 84.616062176181,65.85855986762908 83.88860103627667,65.98664099146845 82.79740932653658,66.08270180181717 82.51761658047326,66.11472206562757 81.95803108799737,66.21078283860697 81.70621761656366,66.24280308996094 81.45440414501354,66.27482333834632 80.95077720214613,66.40290430054301 80.72694300522562,66.46694476300036 80.4751295336755,66.56300543333055 80.02746114006732,66.78714688852779 79.7756476685172,66.88320746549289 79.52383419696707,66.97926801460562 79.07616580324247,67.20340918679722 78.85233160632197,67.33148978825193 78.62849740940146,67.4915904699883 77.90103626949713,67.61967095945147 77.6212435234338,67.5236105969816 77.00569948204793,67.29946964248666 76.69792746123858,67.20340918679722 76.05440414510667,67.04330836507143 75.71865284990054,66.97926801460562 74.9911917099962,66.72310648838175 74.71139896370005,66.62704586464679 74.03989637317136,66.40290430054301 73.73212435247842,66.30684358358849 73.11658031097613,66.11472206562757 72.80880829016678,65.98664099146845 72.3891191710718,65.85855986762908 72.13730569963809,65.79451928689377 71.88549222808797,65.73047869381844 71.43782383424696,65.5703771567787 71.21398963732645,65.50633652016404 70.99015544052236,65.3782552096236 70.45854922290891,65.25017384940293 70.20673575135879,65.18613315059338 69.9829015545547,65.12209243932739 69.53523316059727,64.96199060676736 69.31139896379318,64.89794985193294 69.08756476687267,64.83390908475849 68.61191709851846,64.6417867083801 68.36010362696834,64.5777458914381 68.10829015541822,64.51370506192325 67.40880829025991,64.28956206093426 67.21295336796902,64.22552117559826 66.9331606219057,64.16148027771851 66.48549222806469,64.00137797856587 66.23367875663098,63.9373370372341 65.98186528508086,63.87329608327127 65.56217616586946,63.74521413829643 65.11450777214486,63.68117314713891 64.89067357522435,63.713193644274725 64.58290155453142,63.649152646859875 64.63886010379065,63.61713214352494 64.69481865293346,63.649152646859875 64.72279792744666,63.5851116370759 64.7507772021927,63.45702958002221 64.77875647682231,63.26490640125121 64.80673575133551,62.816618548560655 64.80673575133551,62.816618548560655 64.7507772021927,63.10480366673437 64.72279792744666,63.232885860517854 64.7507772021927,63.29692693889956 64.72279792744666,63.42500905803172 64.3590673574945,63.649152646859875 64.16321243543644,63.61713214352494 63.8834196892567,63.649152646859875 63.351813471643254,63.68117314713891 63.10000000009313,63.68117314713891 62.820207253913395,63.68117314713891 62.31658031092957,63.68117314713891 62.06476683949586,63.68117314713891 61.81295336794574,63.713193644274725 61.309326424845494,63.713193644274725 61.02953367889859,63.74521413829643 60.777720207348466,63.74521413829643 60.27409326436464,63.74521413829643 60.02227979293093,63.77723462920403 59.826424870523624,63.74521413829643 59.322797927539796,63.77723462920403 59.09896373061929,63.74521413829643 58.84715025906917,63.77723462920403 58.34352331608534,63.77723462920403 58.11968911928125,63.80925511705573 57.895854922244325,63.80925511705573 57.16839378233999,63.841275601706 56.9445595855359,63.841275601706 56.63678756484296,63.841275601706 56.13316062185913,63.87329608327127 55.88134715030901,63.87329608327127 55.68549222801812,63.87329608327127 55.20984455966391,63.841275601706 54.70621761656366,63.90531656180974 54.48238341975957,63.87329608327127 54.20259067369625,63.9373370372341 53.69896373071242,63.9373370372341 53.4471502591623,63.90531656180974 53.22331606224179,63.90531656180974 52.77564766840078,63.90531656180974 52.52383419696707,63.90531656180974 52.35595854942221,63.90531656180974 52.18808290164452,63.9373370372341 52.048186528729275,63.9373370372341 51.85233160632197,63.9373370372341 51.74041450791992,63.9373370372341 51.62849740940146,63.9373370372341 51.4886010363698,63.9373370372341 51.43264248711057,63.9373370372341 51.460621761740185,63.9373370372341 51.320725388708524,63.9373370372341 51.236787564936094,63.9373370372341 51.0689119171584,63.96935750945704 50.901036269497126,63.9373370372341 50.22953367885202,64.00137797856587 49.9497409327887,64.00137797856587 49.66994818649255,64.0333984446479 49.22227979276795,64.0333984446479 48.94248704658821,64.0333984446479 48.662694300641306,64.0333984446479 47.68341968918685,64.09743936738232 47.45958549226634,64.06541890752851 47.09585492243059,64.09743936738232 46.592227979330346,64.12945982403471 46.368393782526255,64.09743936738232 46.14455958572216,64.12945982403471 45.66891191713512,64.12945982403471 45.47305699484423,64.12945982403471 45.24922279804014,64.12945982403471 44.9694300518604,64.12945982403471 44.77357512968592,64.09743936738232 44.66165803116746,64.09743936738232 44.549740932649,64.12945982403471 44.5217616581358,64.06541890752851 44.5217616581358,64.06541890752851 44.549740932649,64.06541890752851 44.353886010474525,64.12945982403471 44.241968911956064,64.12945982403471 44.1300518134376,64.12945982403471 44.158031088183634,64.12945982403471 44.186010362696834,64.12945982403471 44.241968911956064,64.09743936738232 44.241968911956064,64.09743936738232 44.241968911956064,64.09743936738232 44.241968911956064,64.09743936738232 44.241968911956064,64.09743936738232 44.241968911956064,64.09743936738232 44.241968911956064,64.09743936738232 44.241968911956064,64.06541890752851 44.241968911956064,64.06541890752851 44.241968911956064,64.06541890752851 44.1300518134376,64.09743936738232 43.8782383420039,64.12945982403471 43.598445595940575,64.12945982403471 43.15077720209956,64.16148027771851 42.67512953374535,64.16148027771851 42.45129533694126,64.19350072817178 42.199481865391135,64.16148027771851 41.69585492240731,64.19350072817178 41.444041450857185,64.19350072817178 41.19222797942348,64.19350072817178 40.71658031095285,64.22552117559826 40.46476683951914,64.22552117559826 40.24093264248222,64.22552117559826 39.76528497412801,64.22552117559826 39.54145077732392,64.22552117559826 39.233678756514564,64.25754161979421 38.730051813530736,64.28956206093426 38.478238341980614,64.28956206093426 37.72279792744666,64.35360293393023 37.55492227978539,64.32158249904751 37.44300518149976,64.35360293393023 37.27512953383848,64.35360293393023 37.10725388606079,64.32158249904751 36.74352331610862,64.28956206093426 36.575647668447345,64.28956206093426 36.43575129529927,64.28956206093426 36.295854922384024,64.28956206093426 36.18393782386556,64.28956206093426 35.90414507780224,64.28956206093426 35.792227979400195,64.28956206093426 35.68031088099815,64.28956206093426 35.54041450796649,64.32158249904751 35.45647668407764,64.35360293393023 35.176683937897906,64.35360293393023 35.00880829023663,64.35360293393023 34.81295336806215,64.38562336578616 34.64507772028446,64.35360293393023 34.25336787570268,64.38562336578616 34.14145077730063,64.38562336578616 33.91761658038013,64.41764379446977 33.77772020746488,64.41764379446977 33.665803108830005,64.41764379446977 33.55388601042796,64.44966422009747 33.441968912025914,64.44966422009747 33.30207253887784,64.44966422009747 33.19015544047579,64.44966422009747 32.93834196892567,64.48168464258197 32.798445596010424,64.51370506192325 32.71450777212158,64.51370506192325 32.57461139908992,64.54572547823773 32.434715025825426,64.54572547823773 31.959067357471213,64.54572547823773 31.791191709926352,64.54572547823773 31.623316062265076,64.5777458914381 31.4554404146038,64.5777458914381 31.287564766942523,64.5777458914381 31.231606217683293,64.5777458914381 31.147668393910863,64.60976630146615 31.063730570138432,64.60976630146615 30.95181347161997,64.6417867083801 30.83989637310151,64.6417867083801 30.70000000006985,64.6417867083801 30.588082901667804,64.6417867083801 30.476165803149343,64.67380711217993 30.364248704747297,64.67380711217993 30.084455958683975,64.70582751292386 29.972538860165514,64.73784791052458 29.776683937991038,64.73784791052458 29.608808290213346,64.7698683050694 29.41295336803887,64.7698683050694 28.853367875679396,64.8018886965001 28.60155440424569,64.8018886965001 28.349740932695568,64.83390908475849 27.874093264341354,64.86592946987366 27.650259067420848,64.89794985193294 27.426424870616756,64.89794985193294 26.838860103744082,64.96199060676736 26.50310880842153,64.96199060676736 25.74766839388758,65.02603134911624 25.439896373078227,65.05805171560496 24.9362694300944,65.09007207897957 24.180829015676863,65.15411279647378 23.48134715028573,65.18613315059338 23.313471502740867,65.21815350159886 23.117616580449976,65.18613315059338 22.9777202073019,65.21815350159886 22.502072538947687,65.25017384940293 22.33419689128641,65.25017384940293 22.19430051825475,65.25017384940293 21.858549222815782,65.28219419412198 21.690673575154506,65.31421453569783 21.550777202122845,65.34623487424687 21.38290155446157,65.3782552096236 21.215025906800292,65.41027554197353 20.93523316073697,65.47431619724375 20.79533678770531,65.53835684008664 20.459585492266342,65.63441778093693 20.319689119118266,65.69845839269692 20.17979274620302,65.76249899197137 20.03989637317136,65.79451928689377 19.9000000001397,65.89058015320916 19.592227979330346,65.98664099146845 19.452331606298685,66.05068153477623 19.312435233267024,66.11472206562757 19.172538860235363,66.17876258408069 19.004663212574087,66.27482333834632 18.72487046639435,66.43492453329964 18.58497409336269,66.53098521297215 18.445077720331028,66.62704586464679 18.305181347299367,66.72310648838175 18.16528497415129,66.78714688852779 17.913471502717584,66.94724783475976 17.82953367882874,67.04330836507143 17.717616580426693,67.13936886744341 17.577720207395032,67.23542934181751 17.46580310887657,67.33148978825193 17.241968911956064,67.5236105969816 17.158031088183634,67.5876508418005 17.07409326429479,67.68371118546929 16.990155440522358,67.74775139911799 16.934196891263127,67.84381169627886 16.79430051834788,67.93987196535454 16.79430051834788,67.93987196535454 16.68238341982942,68.09997235168703 16.570466321194544,68.16401248442708 16.51450777205173,68.26007266031229 16.374611399136484,68.45219292803085 16.402590673649684,68.42017289114301 16.234715025988407,68.67633309878875 16.12279792758636,68.7723931253131 16.038860103697516,68.90047311712988 15.898963730665855,69.09259301165002 15.95492227980867,69.06057303692796 15.9829015545547,69.06057303692796 15.92694300529547,69.06057303692796 15.92694300529547,69.06057303692796 15.92694300529547,69.06057303692796 15.703108808374964,69.38077264331514 15.591191709972918,69.60491218275274 15.451295336824842,69.86107146981522 15.17150259076152,70.46944897886715 15.11554404150229,70.69358777807793 14.919689119211398,71.23792422757833 14.807772020809352,71.46206250437535 14.723834196920507,72.00639768506517 14.667875647661276,72.26255510616465 14.611917098518461,72.55073196688318 14.5,73.28718280015164 14.5,73.41526103796787 14.5,73.5113196837483 14.5,73.60737830144353 14.5,73.7034368912573 14.5,73.863534478558 14.5,73.95959299374954 14.5,74.37584623583825 14.52797927474603,74.69604067981709 14.583937824005261,74.92017660557758 14.52797927474603,74.88815719698323 14.5,75.11229299212573 14.5,75.2723898953409 14.52797927474603,75.43248672090704 14.55595854925923,75.5285447788774 14.55595854925923,75.65662214599433 14.583937824005261,75.84873810331919 14.639896373264492,76.58518156962236 14.639896373264492,76.9053738678922 14.667875647661276,77.44970006140647 14.667875647661276,77.54575753162499 14.667875647661276,77.64181497387472 14.695854922407307,77.80191064885003 14.667875647661276,77.92998713278212 14.695854922407307,78.05806356703397 14.695854922407307,78.12210176550434 14.695854922407307,78.37825443496695 14.723834196920507,78.53834975225618 14.751813471550122,78.79450209825882 14.807772020809352,79.69103374224505 14.835751295438968,80.07526084335404 14.863730570068583,80.84371370231383 14.919689119211398,81.22793946010643 14.947668393957429,81.932352186559 15.003626943100244,82.2525392920652 15.14352331624832,83.27713593989029 15.17150259076152,83.62934030219913 15.227461139904335,84.26971090625739 15.255440414650366,84.49384032387752 15.255440414650366,84.621914208401 15.395336787682027,85.45439324501785 15.423316062311642,85.58246675643022 15.451295336824842,85.74255857567186 15.479274611454457,85.8706319751509 15.479274611454457,85.99870532489149 15.507253886084072,86.15879694206524 15.507253886084072,86.15879694206524 15.535233160713688,86.22283356718253 15.815025906893425,86.09476030454971 15.92694300529547,86.06274198109168 15.95492227980867,86.06274198109168 15.9829015545547,86.03072365454864 15.9829015545547,85.96668699206202 15.95492227980867,85.8706319751509 15.95492227980867,85.80659528169781 15.92694300529547,85.71054021798773 15.92694300529547,85.71054021798773 15.92694300529547,85.64650349345175 15.92694300529547,85.58246675643022 15.898963730665855,85.55044838320464 15.898963730665855,85.48641162746935 15.898963730665855,85.42237485945225 15.87098445603624,85.35833807877498 15.898963730665855,85.32631968383794 15.87098445603624,85.23026448034216 15.87098445603624,85.19824607300689 15.87098445603624,85.10219083217089 15.9829015545547,85.10219083217089 16.06683937832713,85.10219083217089 16.150777202215977,85.10219083217089 16.178756476845592,85.07017241237918 16.262694300618023,85.07017241237918 16.262694300618023,85.07017241237918 16.290673575247638,85.07017241237918 16.290673575247638,85.07017241237918 16.346632124390453,85.10219083217089 16.346632124390453,85.10219083217089 16.374611399136484,85.13420924884849 16.374611399136484,85.1662276624993 16.374611399136484,85.19824607300689 16.402590673649684,85.19824607300689 16.402590673649684,85.19824607300689 16.374611399136484,85.294301285845 16.374611399136484,85.32631968383794 16.402590673649684,85.39035647074343 16.402590673649684,85.42237485945225 16.402590673649684,85.45439324501785 16.4305699482793,85.64650349345175 16.4585492227925,85.80659528169781 16.48652849753853,85.93466865623486 16.51450777205173,86.09476030454971 16.51450777205173,86.25485187507002 16.54248704679776,86.57503478298895 16.570466321194544,86.67108959468897 16.598445595940575,86.6390713272558 16.570466321194544,86.73512612032937 16.570466321194544,86.86319913424086 16.598445595940575,86.95925386203453 16.62642487057019,87.05530856183032 16.654404145199805,87.18338145143935 16.62642487057019,87.15136323371553 16.62642487057019,87.15136323371553 16.570466321194544,86.73512612032937 16.54248704679776,86.6390713272558 16.54248704679776,86.54301650615525 16.54248704679776,86.414943367854 16.54248704679776,86.414943367854 16.570466321194544,86.414943367854 16.570466321194544,86.3509067800187 16.54248704679776,86.414943367854 16.51450777205173,86.414943367854 16.51450777205173,86.414943367854 16.54248704679776,86.414943367854 16.51450777205173,86.414943367854 16.51450777205173,86.44696165714413 16.54248704679776,86.414943367854 16.54248704679776,86.414943367854 16.54248704679776,86.70310785912443 16.54248704679776,86.73512612032937 16.570466321194544,86.73512612032937 16.570466321194544,86.70310785912443 16.598445595940575,86.67108959468897 16.598445595940575,86.67108959468897 16.598445595940575,86.67108959468897 16.598445595940575,86.67108959468897 16.598445595940575,86.67108959468897 16.598445595940575,86.67108959468897 16.598445595940575,86.67108959468897 16.598445595940575,86.67108959468897 16.598445595940575,86.67108959468897 16.62642487057019,86.67108959468897 16.62642487057019,86.67108959468897 16.598445595940575,86.67108959468897 16.598445595940575,86.67108959468897 16.598445595940575,86.67108959468897 16.598445595940575,86.67108959468897 16.570466321194544,86.67108959468897 16.570466321194544,86.67108959468897 16.570466321194544,86.70310785912443 16.570466321194544,86.70310785912443 16.54248704679776,86.70310785912443 16.54248704679776,86.70310785912443 16.54248704679776,86.73512612032937 16.570466321194544,86.7671443784493 16.570466321194544,86.7671443784493 16.570466321194544,86.7671443784493 16.570466321194544,86.7671443784493 16.54248704679776,86.73512612032937 16.54248704679776,86.70310785912443 16.54248704679776,86.6390713272558 16.570466321194544,86.57503478298895 16.570466321194544,86.57503478298895 16.570466321194544,86.57503478298895 16.48652849753853,86.03072365454864 16.48652849753853,85.96668699206202 16.48652849753853,85.90265031723538 16.4585492227925,85.80659528169781 16.4585492227925,85.74255857567186 16.4585492227925,85.64650349345175 16.4585492227925,85.58246675643022 16.4305699482793,85.58246675643022 16.4585492227925,85.51843000692315 16.4305699482793,85.48641162746935 16.4305699482793,85.48641162746935 16.4585492227925,85.45439324501785 16.4585492227925,85.42237485945225 16.4585492227925,85.42237485945225 16.4305699482793,85.39035647074343 16.402590673649684,85.35833807877498 16.402590673649684,85.32631968383794 16.402590673649684,85.294301285845 16.402590673649684,85.26228288470884 16.402590673649684,85.19824607300689 16.402590673649684,85.1662276624993 16.402590673649684,85.13420924884849 16.402590673649684,85.13420924884849 16.346632124390453,85.03815398950246 16.318652849760838,85.03815398950246 16.318652849760838,85.07017241237918 16.318652849760838,85.07017241237918 16.318652849760838,85.10219083217089 16.234715025988407,85.10219083217089 16.0108808290679,85.13420924884849 15.92694300529547,85.13420924884849 15.898963730665855,85.13420924884849 15.898963730665855,85.10219083217089 15.95492227980867,85.10219083217089 15.95492227980867,85.10219083217089 15.95492227980867,85.13420924884849 15.898963730665855,85.10219083217089 15.898963730665855,85.1662276624993 15.898963730665855,85.26228288470884 15.92694300529547,85.35833807877498 15.898963730665855,85.45439324501785" stroke="#4dd2ff" stroke-linecap="round" stroke-linejoin="round" stroke-width="0.5"><title>2022-07-25 3.9km</title></polyline><polyline fill="none" points="104.57232142845169,59.039248231158126 104.8616071427241,58.11760326317744 104.71696428582072,55.10130340309115 105.65714285662398,54.263440363516565 105.65714285662398,52.83907123282552 106.3803571430035,56.022951758641284 104.5,58.787890615232754 106.59732142835855,59.960892164264806 107.32053571380675,61.21767767786514 108.11607142817229,61.38524893432623 108.40535714291036,60.9663207292906 108.76696428563446,60.46360660070786 109.70714285736904,60.04467792500509 112.88928571389988,57.95003133936552 115.85446428554133,55.520234602096025 117.22857142845169,53.84450852271402 117.15625,56.860813001869246 117.59017857117578,58.20138921198668 119.47053571417928,56.35809635865735 119.90446428535506,57.614887389645446 120.55535714281723,56.6932408218272 122.8696428569965,57.78245938150212 124.02678571408615,58.3689610841102 126.05178571445867,58.536532922124024 126.84732142835855,60.46360660070786 128.583035713993,61.38524893432623 127.78750000009313,62.13931916450383 128.87232142873108,61.552820156444795 129.8848214284517,63.56367215368664 131.33124999981374,67.25022135238396 132.34375,68.50699570344295 132.34375,69.51241379842395 130.39107142854482,72.780014100892 130.82500000018626,72.61244517134037 132.6330357142724,71.10432326322189 134.29642857098952,70.60161534469808 134.36874999990687,70.51783066167263 131.47589285718277,72.44487620727159 131.9821428572759,73.3665050858981 136.68303571408615,72.94758299656678 137.98482142854482,71.94216910982504 139.9375,73.28272068523802 138.78035714291036,76.3827378169517 138.92499999981374,75.54489650344476 140.9499999997206,74.62327007111162 140.2991071427241,76.1313855125918 136.53839285718277,79.81787825928768 133.50089285708964,80.15301314211683 135.38124999962747,80.15301314211683 137.6955357142724,77.47193024557782 137.98482142854482,81.24220056732884 156.64374999981374,82.16381956735859 159.1750000002794,82.08003606478451 156.35446428554133,86.43676686374238 156.28214285708964,80.57193155382993 153.67857142863795,77.13679426739691 144.49374999990687,81.91246903367573 145.0,77.55571421858622 137.98482142854482,79.3151756778243 136.03214285708964,83.58813780470518 146.08482142863795,73.53407386195613 141.74553571408615,76.3827378169517 138.63571428554133,77.63949818297988 139.6482142857276,76.1313855125918 140.9499999997206,75.29354394279653 131.76517857098952,77.63949818297988 131.25892857136205,79.23139188438654 131.25892857136205,80.57193155382993 139.28660714253783,75.37732813809998 140.73303571389988,75.54489650344476 139.50357142882422,75.71246483462164 136.97232142835855,74.28813292994164 140.73303571389988,72.52866069343872 141.60089285718277,71.43946170451818 141.96249999990687,71.355677107058 145.21696428582072,70.85296934255166 143.26428571436554,72.780014100892 143.770535713993,73.53407386195613 145.57857142854482,75.71246483462164 146.15714285708964,75.96381726698019 148.54375000018626,78.14220179076074 149.41160714253783,78.89625662489561 149.7008928572759,78.98004045255948 149.99017857108265,79.3151756778243 150.7133928569965,79.81787825928768 153.2446428569965,80.57193155382993 153.60625000018626,81.07463336526416 154.47410714253783,81.91246903367573 154.98035714263096,82.3313865471282 155.7758928569965,84.17462106613675 156.20982142863795,85.43136950122425 157.14999999990687,87.10703108785674 157.51160714309663,87.52594594995026 161.27232142863795,89.62051705329213 161.77857142826542,89.87186522665434 163.22500000009313,90.2907786773867 164.45446428563446,90.54212664521765 165.10535714263096,90.96103975415463 166.40714285708964,91.54751774744364 166.69642857136205,91.54751774744364 166.98571428563446,91.88264784112107 167.27500000037253,92.55290761805372 167.4919642857276,92.72047247656155 167.85357142891735,92.97181970061501 167.92589285736904,93.05560209136456 168.0705357142724,93.13938447384862 168.28750000009313,93.22316684748512 168.57678571389988,93.39073156937957 168.72142857126892,93.64207858790178 169.3000000002794,93.89342552947346 169.51696428563446,94.06099011475453 169.73392857145518,94.31233692809474 170.0232142857276,94.47990142740309 170.45714285690337,94.6474658928928 170.74642857117578,94.73124811268644 171.10803571436554,95.0663769064704 171.25267857126892,95.15015908359783 171.39732142863795,95.15015908359783 171.541964286007,95.31772341183387 172.12053571408615,95.48528770613484 172.40982142835855,95.82041619200027 172.9160714284517,96.23932660691207 173.35000000009313,96.4906727533089 173.4946428569965,96.40689071302768 173.8562499997206,96.4906727533089 174.073214286007,96.65823680796893 174.29017857136205,96.74201882263878 174.6517857145518,96.82580082851928 174.79642857145518,96.90958282619249 175.375,96.90958282619249 175.7366071427241,96.74201882263878 176.3874999997206,96.74201882263878 176.89374999981374,96.90958282619249 177.39999999990687,96.90958282619249 177.39999999990687,97.07714679546189 177.8339285715483,97.16092876717448 178.41249999962747,97.07714679546189 178.77410714281723,96.99336481490172 179.06339285708964,97.07714679546189 179.35267857136205,96.99336481490172 179.56964285718277,96.82580082851928 179.71428571408615,96.90958282619249 179.93124999990687,96.82580082851928 180.4375,96.74201882263878 180.5098214284517,96.65823680796893 180.87142857164145,96.65823680796893 181.30535714235157,96.57445478497539 181.59464285708964,96.57445478497539 181.8839285718277,96.57445478497539 182.24553571408615,96.40689071302768 182.60714285681024,96.32310866430635 182.82410714263096,96.23932660691207 182.96874999953434,96.23932660691207 183.76428571436554,96.32310866430635 184.12589285708964,96.40689071302768 184.41517857136205,96.40689071302768 184.270535713993,96.4906727533089 184.63214285718277,96.32310866430635 184.99375000037253,96.40689071302768 185.2107142857276,96.40689071302768 185.5,96.40689071302768 185.1383928572759,96.40689071302768 184.7767857145518,96.40689071302768 184.70446428563446,96.40689071302768 184.48749999981374,96.40689071302768 184.34285714291036,96.40689071302768 183.76428571436554,96.23932660691207 183.69196428591385,96.15554454090307 183.47500000009313,96.15554454090307 183.18571428535506,96.07176246662857 182.46249999990687,96.23932660691207 181.23303571436554,96.74201882263878 180.94374999962747,96.57445478497539 180.5098214284517,96.4906727533089 179.49732142826542,96.57445478497539 178.77410714281723,96.74201882263878 178.12321428582072,96.74201882263878 177.90625,96.82580082851928 177.03839285718277,97.07714679546189 176.17053571389988,97.16092876717448 175.7366071427241,97.07714679546189 175.4473214284517,96.99336481490172 174.7241071430035,96.82580082851928 174.6517857145518,96.74201882263878 174.57946428563446,96.74201882263878 172.9160714284517,96.32310866430635 172.26517857098952,95.82041619200027 171.614285713993,95.31772341183387 171.25267857126892,95.23394125199411 170.9633928569965,95.15015908359783 170.6017857142724,94.89881252660416 169.9508928572759,94.47990142740309 169.80624999990687,94.31233692809474 169.44464285718277,94.14477239438565 168.7937499997206,93.72586091049016 168.4321428569965,93.55829625704791 168.21517857164145,93.39073156937957 167.92589285736904,93.39073156937957 167.56428571417928,93.39073156937957 166.98571428563446,92.6366900515859 166.76874999981374,92.55290761805372 166.47946428554133,92.21777779783588 165.75625000009313,91.79886533069657 165.03303571417928,91.54751774744364 164.9607142857276,91.37995264923666 164.81607142835855,91.2961700874148 164.38214285718277,90.7934745362727 163.73125000018626,90.2907786773867 163.3696428569965,90.12321332277497 162.6464285715483,89.78808251064038 162.21249999990687,89.53673431189964 161.77857142826542,89.28538603609195 161.27232142863795,88.86647207167698 161.34464285708964,88.69890642631799 161.34464285708964,88.27999216294847 161.20000000018626,88.1124263976817 161.27232142863795,87.69351183495019 161.27232142863795,87.52594594995026 160.83839285746217,87.10703108785674 160.47678571473807,87.02324808994308 159.10267857136205,87.609728896874 158.6687499997206,87.35838003066601 158.3071428569965,85.85028521850472 158.3071428569965,85.5151526616537 157.7285714284517,84.9286703580874 157.51160714309663,85.09623677341733 156.86071428563446,85.012453569856 156.20982142863795,84.42597090703202 155.99285714281723,84.00705446273787 155.34196428582072,83.25300432415679 155.12499999953434,82.66652040393092 154.8357142857276,82.24760306160897 153.895535713993,81.9962525535957 153.3169642854482,81.15841697074939 153.2446428569965,80.82328249834245 153.3169642854482,80.32058053271612 153.17232142807916,80.40436421497725 152.5214285715483,80.57193155382993 152.08749999990687,80.40436421497725 151.87053571408615,80.32058053271612 151.5812500002794,80.06922943436075 151.00267857126892,79.56652700691484 150.7133928569965,79.48274323920486 150.56875000009313,79.39895946270553 150.3517857142724,79.3151756778243 150.20714285690337,79.06382427178323 149.84553571417928,78.89625662489561 148.83303571445867,78.39355347905075 148.54375000018626,78.22598569531692 148.10982142807916,77.97463395568775 147.74821428535506,77.63949818297988 147.67589285736904,77.55571421858622 147.6035714284517,77.13679426739691 147.45892857108265,76.96922622731654 147.2419642857276,76.55030597670702 146.73571428563446,76.3827378169517 146.44642857136205,76.1313855125918 146.15714285708964,76.1313855125918 145.3616071427241,75.88003313151421 144.78303571464494,75.88003313151421 144.05982142826542,75.29354394279653 143.91517857136205,74.79083859024104 143.91517857136205,74.45570151734864 143.62589285708964,74.12056430801749 143.48125000018626,74.03677998407511 143.1196428569965,73.86921131087001 142.8303571427241,73.45028947817627 142.5410714284517,73.3665050858981 142.1794642857276,72.94758299656678 141.74553571408615,72.780014100892 141.02232142863795,72.69622964039445 140.80535714281723,72.69622964039445 140.80535714281723,72.36109171237331 140.5883928569965,71.8583845635876 140.2991071427241,71.77460000891006 140.08214285690337,71.52324629353825 139.6482142857276,70.6854000192834 139.28660714253783,70.01512238383293 138.99732142826542,69.93133764114464 138.20178571436554,69.8475528897252 137.4785714284517,69.8475528897252 136.89999999990687,69.34484420140507 136.61071428563446,68.8421352051082 136.46607142873108,68.8421352051082 136.176785713993,68.5907805916504 135.5982142854482,67.66914634988643 135.45357142854482,67.50157637649681 134.9473214284517,67.16643632715568 134.65803571417928,66.83129614114296 134.2241071430035,66.49615581799299 134.00714285718277,66.32858560525347 134.2241071430035,66.24480048607802 133.57321428554133,66.83129614114296 133.0669642854482,67.0826512935455 132.48839285690337,66.24480048607802 132.4160714284517,65.90965992346173 131.83749999990687,65.49073402769864 131.33124999981374,65.15559315745486 131.11428571445867,64.82045215013204 130.75267857173458,64.4853110058466 130.5357142854482,64.23395505797816 129.8848214284517,63.479886752262246 129.59553571417928,62.97717416344676 129.0892857145518,62.474461266887374 128.72767857136205,62.30689023289597 128.0044642854482,62.22310470294906 127.6428571427241,61.72039134451188 127.57053571427241,61.13389203668339 127.13660714263096,60.46360660070786 127.06428571464494,60.54739231010899 127.06428571464494,60.882535062439274 127.35357142845169,61.63660575443646 127.49821428535506,62.390675754111726 127.20892857154831,62.13931916450383 126.77499999990687,62.474461266887374 126.70267857098952,62.80960323213367 125.32857142854482,61.804176925623324 125.18392857164145,61.30146331025753 125.1116071427241,60.54739231010899 124.31607142835855,59.960892164264806 124.53303571417928,59.290605770249385 124.3883928572759,58.620318828558084 124.31607142835855,58.3689610841102 124.24374999990687,57.95003133936552 124.24374999990687,57.69867338979384 123.80982142826542,57.19595725968247 123.52053571445867,57.19595725968247 123.30357142863795,57.19595725968247 123.01428571389988,57.11217120819492 123.15892857126892,56.52566860738443 122.29107142845169,56.27431022148812 120.84464285708964,56.27431022148812 120.26607142854482,56.022951758641284 120.26607142854482,55.771593218960334 119.83214285736904,55.35266214830335 118.74732142873108,55.10130340309115 117.80714285746217,55.35266214830335 117.5178571427241,55.520234602096025 117.30089285690337,55.687807021837216 117.01160714309663,55.771593218960334 116.36071428563446,56.190524075878784 115.85446428554133,56.35809635865735 115.56517857126892,56.52566860738443 115.49285714281723,56.77702691615559 115.3482142854482,56.77702691615559 113.75714285718277,58.285175152355805 113.68482142826542,58.03381730552064 113.17857142863795,58.11760326317744 112.38303571427241,58.285175152355805 111.08124999981374,59.290605770249385 110.50267857126892,59.37439159938367 110.2857142854482,59.541963232157286 109.99642857117578,59.793320617231075 109.63482142845169,60.12846367736347 109.85178571427241,60.37982088275021 109.85178571427241,60.46360660070786 110.14107142854482,60.71496370335808 107.6821428569965,60.79874938732246 106.81428571417928,60.12846367736347 106.74196428572759,60.212249420874286 106.95892857108265,60.212249420874286 107.24821428535506,60.71496370335808 107.10357142845169,60.79874938732246 106.74196428572759,60.212249420874286 106.74196428572759,58.620318828558084 106.59732142835855,58.11760326317744 106.45267857145518,58.03381730552064 106.6696428572759,57.27974330278812 107.97142857126892,56.44188248744467 107.75446428591385,56.35809635865735 107.53749999962747,55.85537940764334" stroke="#4dd2ff" stroke-linecap="round" stroke-linejoin="round" stroke-width="0.5"><title>2019-05-06 3.4km</title></polyline><polyline fill="none" points="68.13839285634458,228.49141784990206 66.3303571427241,229.18963444733527 65.8482142854482,229.32927772426046 64.88392857136205,229.74820746900514 64.1607142854482,230.02749389433302 64.04017857089639,230.02749389433302 63.7991071427241,230.1671370853437 63.67857142863795,230.1671370853437 56.92857142817229,231.84285426873248 30.892857142724097,239.9421250456944 21.49107142863795,245.8070842915913 20.04464285634458,246.5052920500748 15.946428570896387,243.15389155724552 14.5,241.61783025355544 27.517857142724097,248.46027187921572 27.276785714086145,248.32063055527397 20.04464285634458,237.00963599269744 19.441964284982532,231.84285426873248 16.549107142724097,235.05463979777414 16.308035714086145,243.0142496919725 17.754464285448194,244.27102596731856 19.32142857136205,245.6674426967511 20.04464285634458,246.3656505269464 33.90624999953434,252.37022315443028 26.674107142258435,248.04134786559734 17.392857142724097,243.0142496919725 28.24107142863795,248.73955448367633 24.38392857136205,246.7845750541892 30.049107142724097,249.71704315079842 38.125,253.90627238329034 32.21874999953434,251.53237739368342 21.129464284982532,246.92421653459314 20.64732142863795,246.64493355923332 34.14732142817229,252.50986406486481 26.674107142258435,248.04134786559734 15.825892857275903,242.17639819986653 16.79017857136205,235.33392513927538 17.875,227.65355746203568 18.598214285913855,222.207452430157 19.200892856810242,230.446423425572 20.40625,245.6674426967511 20.526785714086145,246.3656505269464 20.526785714086145,246.5052920500748 20.526785714086145,246.5052920500748 39.089285714086145,254.60447600844782 39.933035714086145,255.02339801203925 27.035714285448194,248.18098921747878 16.79017857136205,243.29353340854868 20.285714285448194,246.3656505269464 16.308035714086145,243.0142496919725 34.62946428544819,252.2305822300259 37.76339285681024,253.90627238329034 37.76339285681024,253.90627238329034 20.767857142724097,246.7845750541892 16.42857142817229,243.15389155724552 16.308035714086145,243.0142496919725 17.754464285448194,244.27102596731856 16.308035714086145,243.0142496919725 16.1875,243.0142496919725 17.63392857182771,244.27102596731856 20.40625,246.5052920500748 20.526785714086145,246.64493355923332 16.308035714086145,243.0142496919725 95.5,194.97660198807716 27.15625,242.036756234942 25.107142857275903,243.4331752450671 20.888392856810242,246.3656505269464 34.14732142817229,252.37022315443028 24.263392856810242,246.92421653459314 60.90624999906868,230.72570970794186 22.33482142863795,222.34709641966037 21.008928570896387,222.207452430157 20.64732142863795,230.72570970794186 20.40625,246.3656505269464 19.5625,233.93749786075205 19.683035714086145,234.49606894294266 33.90624999953434,250.55489002389368 31.61607142863795,251.25309535919223 39.69196428498253,254.8837573583005 68.0178571427241,248.73955448367633 21.732142857275903,246.64493355923332 50.54017857136205,231.56356821407098 50.90178571455181,230.3067802627338 51.625,230.86535282805562 53.67410714318976,231.00499593373388 60.54464285681024,225.2796169089852 59.5803571427241,224.72104206227232 58.49553571455181,224.58139831526205 57.892857142258435,224.3021107778186 57.16964285681024,223.32460394781083 55.24107142817229,222.76602830318734 54.75892857136205,223.1849600581918 54.75892857136205,223.60389168479014 53.07142857136205,223.743535532034 52.58928571455181,224.02282318356447 52.46874999953434,224.3021107778186 51.745535714086145,225.4192605848657 50.90178571455181,225.83819152752403 49.69642857089639,225.97783514624462 49.4553571427241,225.0003295141505 49.9375,226.3967659175396 49.69642857089639,226.95534007961396 51.745535714086145,230.02749389433302 52.58928571455181,230.1671370853437 54.15625,229.74820746900514 55.60267857136205,229.468920986983 56.3258928572759,229.468920986983 58.375,228.49141784990206 59.5803571427241,227.9328443146078 61.026785714086145,226.95534007961396 61.14732142863795,225.97783514624462 60.30357142863795,224.58139831526205 58.375,224.02282318356447 56.92857142817229,223.60389168479014 57.29017857136205,223.8831793651916 59.339285714086145,225.13997321855277 56.56696428544819,230.02749389433302 55.964285714086145,230.72570970794186 48.85267857136205,230.02749389433302 47.16517857136205,229.32927772426046 46.32142857136205,228.6310611978406 44.51339285681024,227.37427055160515 43.79017857089639,226.81569656077772 42.7053571427241,225.2796169089852 42.94642857136205,223.743535532034 45.11607142817229,222.4867403950775 46.20089285681024,221.92816440830939 46.9241071427241,222.06780842633452 47.8883928572759,222.06780842633452 48.129464285913855,222.06780842633452 48.73214285681024,221.22994410351384 49.57589285634458,222.207452430157 49.33482142817229,223.04531615425367 49.9375,222.4867403950775 51.745535714086145,222.62638435629196 51.86607142863795,223.04531615425367 52.10714285681024,222.76602830318734 51.98660714318976,222.9056722362293 54.63839285681024,223.32460394781083 55.84374999953434,222.34709641966037" stroke="#4dd2ff" stroke-linecap="round" stroke-linejoin="round" stroke-width="0.5"><title>2019-04-30 5.1km</title></polyline></svg>