<?xml version="1.0" encoding="utf-8" ?>
<svg baseProfile="full" height="300mm" version="1.1" viewBox="0,0,200,300" width="200mm" xmlns="http://www.w3.org/2000/svg" xmlns:ev="http://www.w3.org/2001/xml-events" xmlns:xlink="http://www.w3.org/1999/xlink"><defs /><rect fill="#222222" height="300" width="200" x="0" y="0" /><text fill="#FFFFFF" style="font-size:12px; font-family:Arial; font-weight:bold;" x="10" y="20">Over 3km Runs</text><text fill="#FFFFFF" style="font-size:4px; font-family:Arial" x="10" y="280">ATHLETE</text><text fill="#FFFFFF" style="font-size:9px; font-family:Arial" x="10" y="290">arinic</text><text fill="#FFFFFF" style="font-size:4px; font-family:Arial" x="120" y="280">STATISTICS</text><text fill="#FFFFFF" style="font-size:3px; font-family:Arial" x="120" y="285">Number: 2</text><text fill="#FFFFFF" style="font-size:3px; font-family:Arial" x="120" y="290">Weekly: 1.0</text><text fill="#FFFFFF" style="font-size:3px; font-family:Arial" x="141" y="285">Total: 8.4 km</text><text fill="#FFFFFF" style="font-size:3px; font-family:Arial" x="141" y="290">Avg: 4.2 km</text><text fill="#FFFFFF" style="font-size:3px; font-family:Arial" x="167" y="285">Min: 3.4 km</text><text fill="#FFFFFF" style="font-size:3px; font-family:Arial" x="167" y="290">Max: 5.1 km</text><polyline fill="none" points="46.09642857173458,68.71899764158297 46.48214285681024,67.49013768415898 46.28928571427241,63.46840453741606 47.542857142630965,62.35125381802209 47.542857142630965,60.452094977139495 48.50714285718277,64.69726901152171 46.0,68.38385415356606 48.79642857145518,69.94785621901974 49.760714285541326,71.62357023719233 50.82142857089639,71.84699857910164 51.207142856903374,71.28842763905413 51.68928571417928,70.61814213427715 52.94285714300349,70.05957056663465 57.18571428535506,67.26670845248736 61.13928571436554,64.02697946946137 62.971428571268916,61.79267803032417 62.875,65.81441733590327 63.45357142854482,67.6018522826489 65.96071428572759,65.1441284782486 66.53928571380675,66.81984985282179 67.40714285708964,65.59098776243627 70.49285714281723,67.04327917529736 72.0357142854482,67.82528144551907 74.73571428563446,68.04871056287084 75.79642857145518,70.61814213427715 78.11071428563446,71.84699857910164 77.04999999981374,72.85242555267178 78.49642857164145,72.07042687525973 79.84642857126892,74.75156287162099 81.77499999990687,79.66696180321742 83.125,81.34266093792394 83.125,82.6832183978986 80.52142857154831,87.04001880122814 81.10000000009313,86.81659356178716 83.51071428554133,84.80576435092371 85.72857142798603,84.1354871263029 85.8249999997206,84.02377421560232 81.9678571424447,86.59316827636212 82.64285714318976,87.82200678123627 88.91071428591385,87.26344399549998 90.64642857154831,85.92289214639459 93.25,87.71029424702283 91.70714285736904,91.84365042264108 91.89999999990687,90.72652867122088 94.59999999962747,89.49769342818763 93.73214285681024,91.50851401686668 88.71785714291036,96.42383767908905 84.66785714263096,96.87068418948911 87.17499999981374,96.87068418948911 90.26071428554133,93.29590699414257 90.64642857154831,98.32293408981059 115.52499999990687,99.55175942322239 118.89999999990687,99.44004808634054 115.13928571389988,105.24902248498984 115.04285714309663,97.42924207181204 111.57142857136205,92.84905902319588 99.3249999997206,99.21662537823431 100.0,93.40761895815376 90.64642857154831,95.7535675704712 88.04285714263096,101.45085040619597 101.44642857136205,88.0454318159027 95.6607142854482,91.84365042264108 91.51428571436554,93.51933091063984 92.86428571399301,91.50851401686668 94.59999999962747,90.3913919236511 82.35357142845169,93.51933091063984 81.67857142817229,95.64185584592633 81.67857142817229,97.42924207181204 92.38214285671711,90.50310418417212 94.31071428535506,90.72652867122088 92.67142857145518,90.94995311286766 89.29642857098952,89.05084390658885 94.31071428535506,86.70488092454616 95.46785714291036,85.25261560606305 95.9499999997206,85.14090280944947 100.28928571473807,84.47062579006888 97.68571428582072,87.04001880122814 98.3607142851688,88.0454318159027 100.77142857154831,90.94995311286766 101.54285714263096,91.28508968930691 104.72500000009313,94.18960238771979 105.88214285718277,95.19500883319415 106.26785714318976,95.30672060337383 106.65357142826542,95.7535675704712 107.61785714235157,96.42383767908905 110.99285714281723,97.42924207181204 111.47500000009313,98.09951115376316 112.63214285671711,99.21662537823431 113.3071428569965,99.77518206287641 114.36785714281723,102.23282808822114 114.94642857136205,103.908492668299 116.1999999997206,106.14270811714232 116.6821428569965,106.70126126660034 121.69642857136205,109.49402273772284 122.37142857117578,109.82915363553911 124.29999999981374,110.38770490325987 125.93928571417928,110.72283552691806 126.8071428569965,111.28138633887284 128.54285714263096,112.06335699663032 128.9285714281723,112.06335699663032 129.31428571417928,112.51019712153357 129.70000000018626,113.40387682407163 129.98928571445867,113.6272966354154 130.47142857173458,113.96242626744788 130.5678571430035,114.07413612178061 130.76071428554133,114.1858459651703 131.04999999981374,114.29755579668563 131.43571428535506,114.52097542583942 131.62857142835855,114.85610478394665 132.40000000037253,115.19123403925914 132.68928571417928,115.41465348633938 132.97857142891735,115.74978257075418 133.364285713993,115.97320190316532 133.94285714253783,116.19662119052373 134.32857142854482,116.30833081691526 134.81071428582072,116.7551692086272 135.00357142835855,116.86687877809163 135.19642857136205,116.86687877809163 135.38928571436554,117.09029788244516 136.1607142854482,117.31371694151312 136.54642857145518,117.76055492262822 137.22142857126892,118.31910214258824 137.79999999981374,118.65423033782281 137.99285714235157,118.54252095066477 138.47500000009313,118.65423033782281 138.7642857148312,118.87764907733072 139.05357142863795,118.98935843014624 139.53571428591385,119.10106777143665 139.7285714284517,119.2127771016676 140.5,119.2127771016676 140.9821428572759,118.98935843014624 141.84999999962747,118.98935843014624 142.52499999990687,119.2127771016676 143.20000000018626,119.2127771016676 143.20000000018626,119.43619572732132 143.77857142873108,119.5479050228605 144.54999999981374,119.43619572732132 145.03214285708964,119.32448641990777 145.41785714263096,119.43619572732132 145.80357142863795,119.32448641990777 146.09285714291036,119.10106777143665 146.2857142854482,119.2127771016676 146.5749999997206,119.10106777143665 147.25000000046566,118.98935843014624 147.34642857126892,118.87764907733072 147.82857142901048,118.87764907733072 148.40714285662398,118.7659397132229 148.79285714263096,118.7659397132229 149.17857142863795,118.7659397132229 149.66071428591385,118.54252095066477 150.1428571427241,118.43081155244727 150.4321428569965,118.31910214258824 150.62499999953434,118.31910214258824 151.68571428582072,118.43081155244727 152.16785714309663,118.54252095066477 152.5535714281723,118.54252095066477 152.36071428563446,118.65423033782281 152.84285714291036,118.43081155244727 153.32500000018626,118.54252095066477 153.61428571445867,118.54252095066477 154.0,118.54252095066477 153.5178571427241,118.54252095066477 153.03571428591385,118.54252095066477 152.93928571417928,118.54252095066477 152.64999999990687,118.54252095066477 152.45714285736904,118.54252095066477 151.68571428582072,118.31910214258824 151.5892857145518,118.20739272120409 151.29999999981374,118.20739272120409 150.91428571380675,118.0956832888769 149.95000000018626,118.31910214258824 148.31071428582072,118.98935843014624 147.92499999981374,118.7659397132229 147.34642857126892,118.65423033782281 145.99642857117578,118.7659397132229 145.03214285708964,118.98935843014624 144.1642857142724,118.98935843014624 143.875,119.10106777143665 142.71785714291036,119.43619572732132 141.56071428535506,119.5479050228605 140.9821428572759,119.43619572732132 140.59642857173458,119.32448641990777 139.63214285718277,119.10106777143665 139.53571428591385,118.98935843014624 139.43928571417928,118.98935843014624 137.22142857126892,118.43081155244727 136.3535714284517,117.76055492262822 135.4857142851688,117.09029788244516 135.00357142835855,116.97858833603095 134.61785714281723,116.86687877809163 134.135714286007,116.53175003547221 133.2678571427241,115.97320190316532 133.0749999997206,115.74978257075418 132.59285714291036,115.52636319259182 131.72499999962747,114.96781454735901 131.24285714281723,114.74439500947483 130.95357142854482,114.52097542583942 130.5678571430035,114.52097542583942 130.0857142857276,114.52097542583942 129.31428571417928,113.51558673544787 129.02499999990687,113.40387682407163 128.63928571436554,112.95703706378117 127.6750000002794,112.39848710759543 126.71071428572759,112.06335699663032 126.61428571445867,111.83993686572649 126.42142857098952,111.72822678321972 125.84285714291036,111.0579660483636 124.97500000009313,110.38770490325987 124.49285714281723,110.16428443044424 123.52857142873108,109.71744334755931 122.9499999997206,109.38231241586618 122.37142857117578,109.04718138149474 121.69642857136205,108.48862942890264 121.79285714263096,108.26520856842399 121.79285714263096,107.70665621734224 121.60000000009313,107.48323519690894 121.69642857136205,106.92468244663905 121.69642857136205,106.70126126660034 121.11785714281723,106.14270811714232 120.63571428600699,106.03099745325744 118.80357142863795,106.81297186249867 118.22499999962747,106.47784004092682 117.74285714281723,104.4670469580451 117.74285714281723,104.02020354894921 116.97142857173458,103.23822714411654 116.6821428569965,103.46164903126191 115.81428571417928,103.34993809310254 114.94642857136205,102.56796120933723 114.65714285708964,102.00940595031716 113.78928571427241,101.00400576554239 113.49999999953434,100.22202720528003 113.11428571445867,99.66347074881196 111.8607142851688,99.3283367381664 111.08928571408615,98.21122262766585 110.99285714281723,97.7643766644178 111.08928571408615,97.09410737699363 110.89642857108265,97.2058189533418 110.02857142826542,97.42924207181204 109.4499999997206,97.2058189533418 109.1607142854482,97.09410737699363 108.77500000037253,96.75897257914767 108.00357142835855,96.08870267588645 107.61785714235157,95.9769909856841 107.42499999981374,95.86527928360738 107.13571428554133,95.7535675704712 106.94285714253783,95.41843236237764 106.46071428572759,95.19500883319415 105.11071428563446,94.52473797206767 104.72500000009313,94.30131426046137 104.14642857108265,93.96617860766128 103.66428571427241,93.51933091063984 103.5678571430035,93.40761895815376 103.47142857126892,92.84905902319588 103.27857142826542,92.62563496979419 102.98928571445867,92.06707463564817 102.31428571417928,91.84365042264108 101.92857142863795,91.50851401686668 101.54285714263096,91.50851401686668 100.4821428572759,91.17337750864681 99.71071428572759,91.17337750864681 98.74642857117578,90.3913919236511 98.55357142863795,89.72111812036019 98.55357142863795,89.27426868979819 98.16785714263096,88.82741907739546 97.97500000009313,88.71570664551109 97.49285714281723,88.49228174786549 97.10714285681024,87.93371930415742 96.72142857126892,87.82200678123627 96.23928571399301,87.26344399549998 95.6607142854482,87.04001880122814 94.69642857136205,86.92830618727021 94.40714285708964,86.92830618727021 94.40714285708964,86.48145561642013 94.11785714281723,85.81117941811681 93.73214285681024,85.69946667854674 93.4428571430035,85.36432839138433 92.86428571399301,84.24720002571121 92.38214285671711,83.35349651181605 91.99642857117578,83.24178352148738 90.93571428582072,83.13007051963359 89.97142857126892,83.13007051963359 89.20000000018626,82.4597922685789 88.81428571417928,81.78951360681094 88.62142857117578,81.78951360681094 88.2357142851688,81.45437412220053 87.46428571408615,80.22552846651524 87.27142857154831,80.00210183532909 86.59642857126892,79.55524843628518 86.21071428526193,79.10839485493489 85.63214285718277,78.66154109069612 85.34285714291036,78.43811414029915 85.63214285718277,78.32640064810403 84.76428571436554,79.10839485493489 84.08928571408615,79.44353505806066 83.31785714253783,78.32640064810403 83.22142857126892,77.87954656465445 82.4499999997206,77.32097870355938 81.77499999990687,76.87412420997862 81.48571428563446,76.42726953350939 81.00357142882422,75.98041467450093 80.71428571408615,75.64527341059875 79.84642857126892,74.63984900305513 79.46071428526193,73.96956555126235 78.78571428591385,73.29928168922197 78.30357142863795,73.07585364382248 77.33928571408615,72.96413960400969 76.8571428572759,72.29385512601584 76.76071428554133,71.51185604895 76.1821428569965,70.61814213427715 76.08571428619325,70.72985641355626 76.08571428619325,71.1767134165857 76.47142857126892,72.18214100599289 76.66428571380675,73.18756767211016 76.27857142873108,72.85242555267178 75.70000000018626,73.29928168922197 75.60357142845169,73.7461376428837 73.77142857154831,72.40556923416443 73.57857142854482,71.73528441367671 73.4821428572759,70.72985641355626 72.42142857098952,69.94785621901974 72.71071428572759,69.05414102692157 72.5178571427241,68.16042510478292 72.42142857098952,67.82528144551907 72.3249999997206,67.26670845248736 72.3249999997206,66.93156451976392 71.74642857117578,66.2612763462821 71.36071428563446,66.2612763462821 71.07142857136205,66.2612763462821 70.68571428535506,66.14956161088776 70.8785714278929,65.36755814321805 69.72142857173458,65.03241362865083 67.79285714309663,65.03241362865083 67.02142857154831,64.69726901152171 67.02142857154831,64.36212429194711 66.4428571430035,63.80354953103233 64.99642857164145,63.46840453741606 63.74285714328289,63.80354953103233 63.35714285681024,64.02697946946137 63.06785714300349,64.25040936248843 62.68214285699651,64.36212429194711 61.81428571417928,64.92069876787718 61.13928571436554,65.1441284782486 60.753571428358555,65.36755814321805 60.65714285708964,65.70270255487412 60.464285714086145,65.70270255487412 58.34285714291036,67.71356686984655 58.246428571175784,67.37842307402752 57.57142857136205,67.49013768415898 56.51071428600699,67.71356686984655 54.77499999990687,69.05414102692157 54.003571428358555,69.16585546580609 53.714285714086145,69.38928430958185 53.32857142807916,69.72442748968024 52.846428571268916,70.1712849031901 53.135714285541326,70.50642784370575 53.135714285541326,70.61814213427715 53.52142857108265,70.95328493788838 50.24285714281723,71.06499918317422 49.08571428526193,70.1712849031901 48.98928571399301,70.28299922787119 49.27857142826542,70.28299922787119 49.66428571427241,70.95328493788838 49.471428571268916,71.06499918317422 48.98928571399301,70.28299922787119 48.98928571399301,68.16042510478292 48.79642857145518,67.49013768415898 48.60357142891735,67.37842307402752 48.8928571427241,66.37299107038416 50.628571428358555,65.25584331655409 50.33928571455181,65.1441284782486 50.049999999813735,64.47383921022993" stroke="#4dd2ff" stroke-linecap="round" stroke-linejoin="round" stroke-width="0.5"><title>2019-05-06 3.4km</title></polyline><polyline fill="none" points="117.51785714179277,214.655223799753 115.1071428572759,215.58617926307488 114.46428571362048,215.77237029897515 113.17857142817229,216.33094329189043 112.2142857145518,216.7033251923276 112.05357142817229,216.7033251923276 111.7321428572759,216.8895161136752 111.57142857182771,216.8895161136752 102.57142857089639,219.1238056916045 67.8571428572759,229.9228333941428 55.32142857182771,237.74277905526105 53.392857141792774,238.67372273327783 47.92857142817229,234.2051887428388 46.0,232.15710700466298 63.3571428572759,241.28036250546575 63.03571428544819,241.0941740735434 53.392857141792774,226.01284799014684 52.589285713620484,219.1238056916045 48.7321428572759,223.40618639695458 48.41071428544819,234.01899958914146 50.339285713620484,235.69470128964167 52.42857142910361,237.5565902623348 53.392857141792774,238.48753403581213 71.875,246.4936308724573 62.23214285634458,240.72179715393577 49.8571428572759,234.01899958914146 64.32142857182771,241.65273931156844 59.17857142817229,239.04610007221345 66.7321428572759,242.95605753432028 77.5,248.54169651097618 69.625,245.37650319142267 54.839285713620484,239.23228871263564 54.19642857182771,238.85991141211707 72.19642857182771,246.67981875303667 62.23214285634458,240.72179715393577 47.7678571427241,232.90186426637229 49.05357142817229,223.77856685221195 50.5,213.53807661589235 51.46428571455181,206.27660324017052 52.2678571427241,217.26189790072385 53.875,237.5565902623348 54.03571428544819,238.48753403581213 54.03571428544819,238.67372273327783 54.03571428544819,238.67372273327783 78.7857142854482,249.47263467789162 79.9107142854482,250.03119734930806 62.714285713620484,240.90798562322743 49.05357142817229,234.3913778779097 53.71428571455181,238.48753403581213 48.41071428544819,234.01899958914146 72.8392857145518,246.30744297325145 77.0178571427241,248.54169651097618 77.0178571427241,248.54169651097618 54.3571428572759,239.04610007221345 48.57142857089639,234.2051887428388 48.41071428544819,234.01899958914146 50.339285713620484,235.69470128964167 48.41071428544819,234.01899958914146 48.25,234.01899958914146 50.17857142910361,235.69470128964167 53.875,238.67372273327783 54.03571428544819,238.85991141211707 48.41071428544819,234.01899958914146 154.0,169.96880265069194 62.875,232.71567497972865 60.1428571427241,234.5775669934228 54.5178571427241,238.48753403581213 72.19642857182771,246.4936308724573 59.0178571427241,239.23228871263564 107.87499999906868,217.63427961047273 56.44642857182771,206.46279522613622 54.67857142817229,206.27660324017052 54.19642857182771,217.63427961047273 53.875,238.48753403581213 52.75,221.91666381421965 52.91071428544819,222.66142525721807 71.875,244.07318669836968 68.82142857182771,245.00412714551203 79.58928571362048,249.84500981098972 117.3571428572759,241.65273931156844 55.64285714365542,238.85991141211707 94.05357142910361,218.75142428535037 94.53571428637952,217.075707016862 95.50000000093132,217.82047043729108 98.2321428572759,218.0066612449009 107.3928571427241,210.37282254523598 106.1071428572759,209.62805608299095 104.66071428637952,209.4418644203106 103.85714285634458,209.06948103709146 102.8928571427241,207.7661385970423 100.32142857089639,207.02137107087765 99.67857142817229,207.57994674425572 99.67857142817229,208.13852224627044 97.42857142910361,208.3247140425956 96.78571428637952,208.69709757808596 96.625,209.06948103709146 95.6607142854482,210.55901411303785 94.53571428637952,211.11758870328777 92.92857142817229,211.3037801948376 92.6071428572759,210.00043935212307 93.25,211.86235455668066 92.92857142817229,212.60712010611314 95.6607142854482,216.7033251923276 96.78571428637952,216.8895161136752 98.875,216.33094329189043 100.80357142817229,215.95856131589971 101.7678571427241,215.95856131589971 104.5,214.655223799753 106.1071428572759,213.9104590859497 108.0357142854482,212.60712010611314 108.19642857182771,211.3037801948376 107.07142857182771,209.4418644203106 104.5,208.69709757808596 102.57142857089639,208.13852224627044 103.05357142817229,208.51090582017787 105.7857142854482,210.18663095799275 102.08928571362048,216.7033251923276 101.2857142854482,217.63427961047273 91.80357142910361,216.7033251923276 89.55357142817229,215.77237029897515 88.42857142817229,214.84141493029892 86.0178571427241,213.16569406865165 85.05357142817229,212.42092874762602 83.6071428572759,210.37282254523598 83.92857142910361,208.3247140425956 86.82142857089639,206.64898719335906 88.2678571427241,205.90421921107918 89.2321428572759,206.0904112351127 90.51785714365542,206.0904112351127 90.8392857145518,206.0904112351127 91.6428571427241,204.97325880464632 92.76785714179277,206.27660324017052 92.44642857089639,207.39375487226062 93.25,206.64898719335906 95.6607142854482,206.8351791416062 95.82142857182771,207.39375487226062 96.1428571427241,207.02137107087765 95.9821428572759,207.20756298152264 99.5178571427241,207.7661385970423 101.125,206.46279522613622" stroke="#4dd2ff" stroke-linecap="round" stroke-linejoin="round" stroke-width="0.5"><title>2019-04-30 5.1km</title></polyline></svg>