<?xml version="1.0" encoding="utf-8" ?>
<svg baseProfile="full" height="200mm" version="1.1" viewBox="0,0,200,200" width="200mm" xmlns="http://www.w3.org/2000/svg" xmlns:ev="http://www.w3.org/2001/xml-events" xmlns:xlink="http://www.w3.org/1999/xlink"><defs /><rect fill="#1a1a1a" height="200" width="200" x="0" y="0" /><text alignment-baseline="middle" fill="#e1ed5e" style="dominant-baseline: central; font-size:9.0px; font-family:Arial;" text-anchor="middle" x="100.0" y="100.0">2022</text><line stroke="#e1ed5e" stroke-width="0.3" x1="100.0" x2="100.0" y1="15.0" y2="10.0" /><path d="M 100.0 14.0 a86.0,86.0 0 0,1 42.46469731375804,11.215312516191453" fill="none" id="id37" stroke="none" /><text fill="#e1ed5e" style="font-size:6.75px; font-family:Arial;" text-anchor="middle"><textPath startOffset="22.20632615414155" xlink:href="#id37">January</textPath></text><path d="M 106.40334571778207 80.00007090966166 l 10.98302610542765 -34.30390189551901 a57.01922469584677,57.01922469584677 0 0,0 0.9321752047858841,0.3073235089975562 l -11.571884132455951 34.109764662262215" fill="#79ff26" stroke="none" /><line stroke="#e1ed5e" stroke-width="0.3" x1="143.23703022742887" x2="145.7803849466894" y1="26.81831364943548" y2="22.513508569990506" /><path d="M 143.74570117128098 25.957352633546492 a86.0,86.0 0 0,1 28.547481713284135,27.462654790039103" fill="none" id="id38" stroke="none" /><text fill="#e1ed5e" style="font-size:6.75px; font-family:Arial;" text-anchor="middle"><textPath startOffset="19.985693538727396" xlink:href="#id38">February</textPath></text><line stroke="#e1ed5e" stroke-width="0.3" x1="172.23445277983987" x2="176.4835382374775" y1="55.19839476539836" y2="52.563006222186495" /><path d="M 173.08426987136738 54.67131705675599 a86.0,86.0 0 0,1 12.851231095245387,41.99856678651699" fill="none" id="id39" stroke="none" /><text fill="#e1ed5e" style="font-size:6.75px; font-family:Arial;" text-anchor="middle"><textPath startOffset="22.20632615414155" xlink:href="#id39">March</textPath></text><path d="M 120.28053869075195 94.5502522615342 l 9.7849808295943 -2.6294014158178918 a31.132107462963127,31.132107462963127 0 0,0 0.13461474067833223,0.5187255086422908 l -9.828791902142935 2.4605794816267506" fill="#ff0d01" stroke="none" /><path d="M 120.45610955862082 95.25157060432595 l 20.817350172188235 -4.832283343730952 a42.370845339050234,42.370845339050234 0 0,0 0.1588011121738956,0.7118742481066231 l -20.897445671364167 4.473230926074364" fill="#ffbe11" stroke="none" /><line stroke="#e1ed5e" stroke-width="0.3" x1="184.98032266829074" x2="189.97916517819016" y1="98.17113171792111" y2="98.06355123074" /><path d="M 185.9800911702706 98.14961562048488 a86.0,86.0 0 0,1 -9.607161424134198,41.387399972396054" fill="none" id="id40" stroke="none" /><text fill="#e1ed5e" style="font-size:6.75px; font-family:Arial;" text-anchor="middle"><textPath startOffset="21.466115282336823" xlink:href="#id40">April</textPath></text><path d="M 120.8583938346157 102.4346265915055 l 25.85151299115392 3.017431805054085 a47.027017090514846,47.027017090514846 0 0,0 -0.10076879969980226,0.8032264809138535 l -25.79574268220727 -3.4619760402553332" fill="#fdff18" stroke="none" /><line stroke="#e1ed5e" stroke-width="0.3" x1="174.80103733775053" x2="179.2010983576182" y1="140.37084112569926" y2="142.7455964860345" /><path d="M 175.68104954172406 140.8457921977663 a86.0,86.0 0 0,1 -30.038265399797805,32.042727171017184" fill="none" id="id41" stroke="none" /><text fill="#e1ed5e" style="font-size:6.75px; font-family:Arial;" text-anchor="middle"><textPath startOffset="22.206326154141568" xlink:href="#id41">May</textPath></text><path d="M 114.0293411484842 115.62618273729858 l 24.769130767886256 27.588392036845836 a58.07599242333708,58.07599242333708 0 0,0 -0.7496162789945041,0.6614492098223866 l -24.290572135985165 -28.010664388440514" fill="#6cff28" stroke="none" /><line stroke="#e1ed5e" stroke-width="0.3" x1="143.8653032363475" x2="146.44561519142675" y1="172.8068346515853" y2="177.08958963109032" /><path d="M 144.38136562736335 173.6633856474863 a86.0,86.0 0 0,1 -40.68145358897372,12.25698825130547" fill="none" id="id42" stroke="none" /><text fill="#e1ed5e" style="font-size:6.75px; font-family:Arial;" text-anchor="middle"><textPath startOffset="21.466115282336833" xlink:href="#id42">June</textPath></text><line stroke="#e1ed5e" stroke-width="0.3" x1="102.19456741930631" x2="102.32365962044197" y1="184.97166512339345" y2="189.96999836594603" /><path d="M 102.22038585953345 185.97133177190398 a86.0,86.0 0 0,1 -42.740103519485714,-10.115201625700543" fill="none" id="id43" stroke="none" /><text fill="#e1ed5e" style="font-size:6.75px; font-family:Arial;" text-anchor="middle"><textPath startOffset="22.20632615414155" xlink:href="#id43">July</textPath></text><path d="M 94.81253420990036 120.34920634021253 l -7.545820042089929 29.600474539158313 a51.54713559486332,51.54713559486332 0 0,0 -0.8579150731474666,-0.22658316828700723 l 8.054225558048884 -29.466200021567726" fill="#bfff1e" stroke="none" /><path d="M 94.46302465271185 120.25689768951611 l -7.984936362723439 29.2127070849622 a51.28434354494982,51.28434354494982 0 0,0 -0.8495345087382561,-0.2400869379402776 l 8.486602039566309 -29.070931353683402" fill="#c3ff1e" stroke="none" /><path d="M 94.11515582081647 120.15858648285463 l -2.622831926352474 8.984534272699147 a30.359546111388063,30.359546111388063 0 0,0 -0.5003904130374632,-0.1507635266830385 l 2.777097313830183 -8.938055376910382" fill="#ff0000" stroke="none" /><path d="M 93.08242187328487 119.8279376855182 l -11.161102267650152 31.991202153541863 a54.882255223903364,54.882255223903364 0 0,0 -0.8893027581533961,-0.3188723291971939 l 11.710124586433276 -31.79434228330471" fill="#94ff23" stroke="none" /><path d="M 92.06813273071674 119.44442032107085 l -13.24974936968401 32.480838010323865 a56.07934857166452,56.07934857166452 0 0,0 -0.8906696800685876,-0.3722999985041208 l 13.806890509250058 -32.24795296879977" fill="#85ff25" stroke="none" /><path d="M 91.7346041902142 119.30500536409082 l -11.09091011158742 25.90439515834791 a49.17882140230763,49.17882140230763 0 0,0 -0.7753376671906356,-0.3398852482226796 l 11.535168453435798 -25.709645356830777" fill="#dfff1b" stroke="none" /><path d="M 90.7491055286396 118.85261126421891 l -12.348734729993044 25.16577139543165 a49.032254624964835,49.032254624964835 0 0,0 -0.7545038799791086,-0.3783239086651386 l 12.780092517654914 -24.949479645857213" fill="#e1ff1b" stroke="none" /><path d="M 90.10565033884886 118.52300852407294 l -13.2923788399601 24.884389069502756 a49.212056901038025,49.212056901038025 0 0,0 -0.7437516305434244,-0.4055526901359504 l 13.718753282372166 -24.651895727607037" fill="#deff1b" stroke="none" /><line stroke="#e1ed5e" stroke-width="0.3" x1="58.666819895761336" x2="56.23545636021788" y1="174.27360380694188" y2="178.64263932499728" /><path d="M 58.180547188652646 175.14741091055294 a86.0,86.0 0 0,1 -31.652253787137756,-30.449443065178592" fill="none" id="id44" stroke="none" /><text fill="#e1ed5e" style="font-size:6.75px; font-family:Arial;" text-anchor="middle"><textPath startOffset="22.20632615414155" xlink:href="#id44">August</textPath></text><path d="M 88.24862548938628 117.40417183066458 l -35.25412353184113 52.212515491993734 a84.0,84.0 0 0,0 -1.191372461508439,-0.8194368425395955 l 36.14765287797246 -51.59793786008904" fill="#4dd2ff" stroke="none" /><line stroke="#e1ed5e" stroke-width="0.3" x1="26.63291911575756" x2="22.317208475507996" y1="142.92168965132927" y2="145.44649492493687" /><path d="M 25.769776987707644 143.4266507060508 a86.0,86.0 0 0,1 -11.730757126820373,-40.83630448921669" fill="none" id="id45" stroke="none" /><text fill="#e1ed5e" style="font-size:6.75px; font-family:Arial;" text-anchor="middle"><textPath startOffset="21.46611528233685" xlink:href="#id45">September</textPath></text><path d="M 81.35079622478065 109.6543875284942 l -32.33647879560511 16.740065761656627 a57.41260307370523,57.41260307370523 0 0,0 -0.4467830459684753,-0.8815453360143682 l 32.619840511359854 -16.180966213939573" fill="#75ff27" stroke="none" /><path d="M 81.02952815118164 109.00673069616217 l -21.768131836701503 10.334993392583248 a45.096963544910736,45.096963544910736 0 0,0 -0.326900121665924,-0.7041137796683103 l 21.942806575207253 -9.958759545636111" fill="#ffe615" stroke="none" /><path d="M 80.87730276802145 108.67885076344099 l -25.8113980362154 11.714522738846382 a49.34534020933411,49.34534020933411 0 0,0 -0.34438093022123645,-0.7764880837384914 l 26.00922005116792 -11.268486318615194" fill="#ddff1b" stroke="none" /><path d="M 80.73074385275274 108.34839909993369 l -16.682412304751292 7.2276498275520735 a39.18080862710542,39.18080862710542 0 0,0 -0.26278945005808607,-0.6211566331886919 l 16.804352736001686 -6.939418668697223" fill="#ff8e0d" stroke="none" /><path d="M 80.45479744820244 107.68017299344265 l -26.549199629180542 10.432352668087201 a49.5253217885693,49.5253217885693 0 0,0 -0.30494797201115403,-0.7961229276583484 l 26.724841880785206 -9.973806173595694" fill="#daff1c" stroke="none" /><path d="M 79.58551787078972 104.9243191809786 l -13.892830010895981 3.3511861269721432 a35.29129714788908,35.29129714788908 0 0,0 -0.13736622173547935,-0.5917700880284102 l 13.948456798562017 -3.111547381595159" fill="#ff5107" stroke="none" /><path d="M 79.29508885075956 103.50808413554451 l -28.94045453456185 4.903452552698739 a50.352917326964445,50.352917326964445 0 0,0 -0.13743528018916984,-0.8558096209301942 l 29.020571569112313 -4.404563702075331" fill="#cfff1d" stroke="none" /><line stroke="#e1ed5e" stroke-width="0.3" x1="15.007084014347285" x2="10.007500721073583" y1="101.09737516637583" y2="101.16192664675087" /><path d="M 14.007167355692545 101.11028546245083 a86.0,86.0 0 0,1 10.666146001902534,-42.60595125391555" fill="none" id="id46" stroke="none" /><text fill="#e1ed5e" style="font-size:6.75px; font-family:Arial;" text-anchor="middle"><textPath startOffset="22.20632615414155" xlink:href="#id46">October</textPath></text><line stroke="#e1ed5e" stroke-width="0.3" x1="26.266209847984243" x2="21.928928074336255" y1="57.711370442889674" y2="55.22380399835377" /><path d="M 25.398753493254645 57.213857153982495 a86.0,86.0 0 0,1 29.58750427330803,-30.492523968695096" fill="none" id="id47" stroke="none" /><text fill="#e1ed5e" style="font-size:6.75px; font-family:Arial;" text-anchor="middle"><textPath startOffset="21.46611528233685" xlink:href="#id47">November</textPath></text><line stroke="#e1ed5e" stroke-width="0.3" x1="56.762969772571076" x2="54.21961505331055" y1="26.818313649435495" y2="22.513508569990535" /><path d="M 56.25429882871897 25.957352633546506 a86.0,86.0 0 0,1 42.265352541879196,-11.944610805530505" fill="none" id="id48" stroke="none" /><text fill="#e1ed5e" style="font-size:6.75px; font-family:Arial;" text-anchor="middle"><textPath startOffset="22.20632615414155" xlink:href="#id48">December</textPath></text></svg>