<?xml version="1.0" encoding="utf-8" ?>
<svg baseProfile="full" height="300mm" version="1.1" viewBox="0,0,200,300" width="200mm" xmlns="http://www.w3.org/2000/svg" xmlns:ev="http://www.w3.org/2001/xml-events" xmlns:xlink="http://www.w3.org/1999/xlink"><defs /><rect fill="#222222" height="300" width="200" x="0" y="0" /><text fill="#FFFFFF" style="font-size:12px; font-family:Arial; font-weight:bold;" x="10" y="20">Over 3km Runs</text><text fill="#FFFFFF" style="font-size:4px; font-family:Arial" x="10" y="280">ATHLETE</text><text fill="#FFFFFF" style="font-size:9px; font-family:Arial" x="10" y="290">arinic</text><text fill="#FFFFFF" style="font-size:4px; font-family:Arial" x="120" y="280">STATISTICS</text><text fill="#FFFFFF" style="font-size:3px; font-family:Arial" x="120" y="285">Number: 4</text><text fill="#FFFFFF" style="font-size:3px; font-family:Arial" x="120" y="290">Weekly: 1.3</text><text fill="#FFFFFF" style="font-size:3px; font-family:Arial" x="141" y="285">Total: 15.4 km</text><text fill="#FFFFFF" style="font-size:3px; font-family:Arial" x="141" y="290">Avg: 3.9 km</text><text fill="#FFFFFF" style="font-size:3px; font-family:Arial" x="167" y="285">Min: 3.1 km</text><text fill="#FFFFFF" style="font-size:3px; font-family:Arial" x="167" y="290">Max: 5.1 km</text><polyline fill="none" points="86.82142857089639,91.42211675853468 78.33571428526193,54.556182532338426 86.04999999888241,88.96440713084303 83.5428571421653,89.18783539207652 89.907142855227,92.98611235665157 72.9357142848894,85.61298046330921 42.46428571455181,84.71926581836306 64.06428571417928,87.62383707961999 87.59285714197904,93.20954020903446 84.12142857071012,90.97526066796854 16.814285713247955,74.88838063762523 14.885714286006987,74.44152117078193 14.5,74.218091403367 16.814285713247955,74.88838063762523 16.814285713247955,74.88838063762523 16.814285713247955,75.11181033682078 54.807142856530845,87.40040865843184 68.88571428600699,84.94269451359287 88.55714285653085,92.31582866585813 84.89285714179277,90.75183258811012 90.67857142817229,93.4329680367373 85.47142857126892,90.97526066796854 90.48571428470314,93.20954020903446 85.0857142843306,90.97526066796854 87.3999999994412,91.86897275759839 83.92857142817229,90.52840448566712 87.59285714197904,92.09240072290413 79.10714285634458,88.29412220767699 16.814285713247955,75.11181033682078 16.814285713247955,75.11181033682078 16.814285713247955,75.11181033682078 23.17857142817229,75.78209929703735 65.79999999888241,88.96440713084303 76.02142857015133,89.41126363212243 87.59285714197904,92.09240072290413 84.12142857071012,90.52840448566712 95.5,95.4438174678944 86.82142857089639,91.64554476970807 87.7857142854482,92.09240072290413 84.31428571417928,90.52840448566712 87.59285714197904,92.09240072290413" stroke="#4dd2ff" stroke-linecap="round" stroke-linejoin="round" stroke-width="0.5"><title>2022-07-31 3.1km</title></polyline><polyline fill="none" points="185.5,65.89058015320916 185.13626943016425,66.08270180181717 184.3808290156303,66.30684358358849 183.59740932646673,66.33886382565834 183.17772020737175,66.33886382565834 182.59015544038266,66.30684358358849 182.4502590674674,66.30684358358849 182.28238341968972,66.30684358358849 182.14248704677448,66.30684358358849 182.00259067374282,66.27482333834632 181.3590673574945,66.24280308996094 181.21917098446283,66.24280308996094 180.9113989637699,66.21078283860697 180.2398963732412,66.17876258408069 179.87616580317263,66.14674232638208 179.1207253887551,66.08270180181717 178.61709844565485,66.17876258408069 178.64507772028446,66.46694476300036 178.92487046634778,67.07532853560406 179.00880829023663,67.23542934181751 179.09274611400906,67.36350993087399 179.2046632124111,67.55563072100631 179.2046632124111,67.5236105969816 179.3725388603052,67.84381169627886 179.45647668396123,68.13199241965776 179.400518134702,68.1960325461987 179.45647668396123,68.09997235168703 178.39326424885076,65.5703771567787 177.2461139896186,65.53835684008664 176.85440414515324,65.5703771567787 176.0989637307357,65.66643808843219 175.7072538860375,65.76249899197137 174.9797927462496,65.82653957881848 174.616062176181,65.85855986762908 173.88860103627667,65.98664099146845 172.79740932653658,66.08270180181717 172.51761658047326,66.11472206562757 171.95803108799737,66.21078283860697 171.70621761656366,66.24280308996094 171.45440414501354,66.27482333834632 170.95077720214613,66.40290430054301 170.72694300522562,66.46694476300036 170.4751295336755,66.56300543333055 170.02746114006732,66.78714688852779 169.7756476685172,66.88320746549289 169.52383419696707,66.97926801460562 169.07616580324247,67.20340918679722 168.85233160632197,67.33148978825193 168.62849740940146,67.4915904699883 167.90103626949713,67.61967095945147 167.6212435234338,67.5236105969816 167.00569948204793,67.29946964248666 166.69792746123858,67.20340918679722 166.05440414510667,67.04330836507143 165.71865284990054,66.97926801460562 164.9911917099962,66.72310648838175 164.71139896370005,66.62704586464679 164.03989637317136,66.40290430054301 163.73212435247842,66.30684358358849 163.11658031097613,66.11472206562757 162.80880829016678,65.98664099146845 162.3891191710718,65.85855986762908 162.1373056996381,65.79451928689377 161.88549222808797,65.73047869381844 161.43782383424696,65.5703771567787 161.21398963732645,65.50633652016404 160.99015544052236,65.3782552096236 160.4585492229089,65.25017384940293 160.2067357513588,65.18613315059338 159.9829015545547,65.12209243932739 159.53523316059727,64.96199060676736 159.31139896379318,64.89794985193294 159.08756476687267,64.83390908475849 158.61191709851846,64.6417867083801 158.36010362696834,64.5777458914381 158.10829015541822,64.51370506192325 157.4088082902599,64.28956206093426 157.21295336796902,64.22552117559826 156.9331606219057,64.16148027771851 156.4854922280647,64.00137797856587 156.23367875663098,63.9373370372341 155.98186528508086,63.87329608327127 155.56217616586946,63.74521413829643 155.11450777214486,63.68117314713891 154.89067357522435,63.713193644274725 154.58290155453142,63.649152646859875 154.63886010379065,63.61713214352494 154.69481865293346,63.649152646859875 154.72279792744666,63.5851116370759 154.7507772021927,63.45702958002221 154.7787564768223,63.26490640125121 154.8067357513355,62.816618548560655 154.8067357513355,62.816618548560655 154.7507772021927,63.10480366673437 154.72279792744666,63.232885860517854 154.7507772021927,63.29692693889956 154.72279792744666,63.42500905803172 154.3590673574945,63.649152646859875 154.16321243543644,63.61713214352494 153.8834196892567,63.649152646859875 153.35181347164325,63.68117314713891 153.10000000009313,63.68117314713891 152.8202072539134,63.68117314713891 152.31658031092957,63.68117314713891 152.06476683949586,63.68117314713891 151.81295336794574,63.713193644274725 151.3093264248455,63.713193644274725 151.0295336788986,63.74521413829643 150.77772020734847,63.74521413829643 150.27409326436464,63.74521413829643 150.02227979293093,63.77723462920403 149.82642487052362,63.74521413829643 149.3227979275398,63.77723462920403 149.0989637306193,63.74521413829643 148.84715025906917,63.77723462920403 148.34352331608534,63.77723462920403 148.11968911928125,63.80925511705573 147.89585492224433,63.80925511705573 147.16839378234,63.841275601706 146.9445595855359,63.841275601706 146.63678756484296,63.841275601706 146.13316062185913,63.87329608327127 145.881347150309,63.87329608327127 145.68549222801812,63.87329608327127 145.2098445596639,63.841275601706 144.70621761656366,63.90531656180974 144.48238341975957,63.87329608327127 144.20259067369625,63.9373370372341 143.69896373071242,63.9373370372341 143.4471502591623,63.90531656180974 143.2233160622418,63.90531656180974 142.77564766840078,63.90531656180974 142.52383419696707,63.90531656180974 142.3559585494222,63.90531656180974 142.18808290164452,63.9373370372341 142.04818652872927,63.9373370372341 141.85233160632197,63.9373370372341 141.74041450791992,63.9373370372341 141.62849740940146,63.9373370372341 141.4886010363698,63.9373370372341 141.43264248711057,63.9373370372341 141.46062176174019,63.9373370372341 141.32072538870852,63.9373370372341 141.2367875649361,63.9373370372341 141.0689119171584,63.96935750945704 140.90103626949713,63.9373370372341 140.22953367885202,64.00137797856587 139.9497409327887,64.00137797856587 139.66994818649255,64.0333984446479 139.22227979276795,64.0333984446479 138.9424870465882,64.0333984446479 138.6626943006413,64.0333984446479 137.68341968918685,64.09743936738232 137.45958549226634,64.06541890752851 137.0958549224306,64.09743936738232 136.59222797933035,64.12945982403471 136.36839378252625,64.09743936738232 136.14455958572216,64.12945982403471 135.66891191713512,64.12945982403471 135.47305699484423,64.12945982403471 135.24922279804014,64.12945982403471 134.9694300518604,64.12945982403471 134.77357512968592,64.09743936738232 134.66165803116746,64.09743936738232 134.549740932649,64.12945982403471 134.5217616581358,64.06541890752851 134.5217616581358,64.06541890752851 134.549740932649,64.06541890752851 134.35388601047453,64.12945982403471 134.24196891195606,64.12945982403471 134.1300518134376,64.12945982403471 134.15803108818363,64.12945982403471 134.18601036269683,64.12945982403471 134.24196891195606,64.09743936738232 134.24196891195606,64.09743936738232 134.24196891195606,64.09743936738232 134.24196891195606,64.09743936738232 134.24196891195606,64.09743936738232 134.24196891195606,64.09743936738232 134.24196891195606,64.09743936738232 134.24196891195606,64.06541890752851 134.24196891195606,64.06541890752851 134.24196891195606,64.06541890752851 134.1300518134376,64.09743936738232 133.8782383420039,64.12945982403471 133.59844559594058,64.12945982403471 133.15077720209956,64.16148027771851 132.67512953374535,64.16148027771851 132.45129533694126,64.19350072817178 132.19948186539114,64.16148027771851 131.6958549224073,64.19350072817178 131.44404145085718,64.19350072817178 131.19222797942348,64.19350072817178 130.71658031095285,64.22552117559826 130.46476683951914,64.22552117559826 130.24093264248222,64.22552117559826 129.765284974128,64.22552117559826 129.54145077732392,64.22552117559826 129.23367875651456,64.25754161979421 128.73005181353074,64.28956206093426 128.4782383419806,64.28956206093426 127.72279792744666,64.35360293393023 127.55492227978539,64.32158249904751 127.44300518149976,64.35360293393023 127.27512953383848,64.35360293393023 127.10725388606079,64.32158249904751 126.74352331610862,64.28956206093426 126.57564766844735,64.28956206093426 126.43575129529927,64.28956206093426 126.29585492238402,64.28956206093426 126.18393782386556,64.28956206093426 125.90414507780224,64.28956206093426 125.7922279794002,64.28956206093426 125.68031088099815,64.28956206093426 125.54041450796649,64.32158249904751 125.45647668407764,64.35360293393023 125.1766839378979,64.35360293393023 125.00880829023663,64.35360293393023 124.81295336806215,64.38562336578616 124.64507772028446,64.35360293393023 124.25336787570268,64.38562336578616 124.14145077730063,64.38562336578616 123.91761658038013,64.41764379446977 123.77772020746488,64.41764379446977 123.66580310883,64.41764379446977 123.55388601042796,64.44966422009747 123.44196891202591,64.44966422009747 123.30207253887784,64.44966422009747 123.19015544047579,64.44966422009747 122.93834196892567,64.48168464258197 122.79844559601042,64.51370506192325 122.71450777212158,64.51370506192325 122.57461139908992,64.54572547823773 122.43471502582543,64.54572547823773 121.95906735747121,64.54572547823773 121.79119170992635,64.54572547823773 121.62331606226508,64.5777458914381 121.4554404146038,64.5777458914381 121.28756476694252,64.5777458914381 121.2316062176833,64.5777458914381 121.14766839391086,64.60976630146615 121.06373057013843,64.60976630146615 120.95181347161997,64.6417867083801 120.83989637310151,64.6417867083801 120.70000000006985,64.6417867083801 120.5880829016678,64.6417867083801 120.47616580314934,64.67380711217993 120.3642487047473,64.67380711217993 120.08445595868398,64.70582751292386 119.97253886016551,64.73784791052458 119.77668393799104,64.73784791052458 119.60880829021335,64.7698683050694 119.41295336803887,64.7698683050694 118.8533678756794,64.8018886965001 118.60155440424569,64.8018886965001 118.34974093269557,64.83390908475849 117.87409326434135,64.86592946987366 117.65025906742085,64.89794985193294 117.42642487061676,64.89794985193294 116.83886010374408,64.96199060676736 116.50310880842153,64.96199060676736 115.74766839388758,65.02603134911624 115.43989637307823,65.05805171560496 114.9362694300944,65.09007207897957 114.18082901567686,65.15411279647378 113.48134715028573,65.18613315059338 113.31347150274087,65.21815350159886 113.11761658044998,65.18613315059338 112.9777202073019,65.21815350159886 112.50207253894769,65.25017384940293 112.33419689128641,65.25017384940293 112.19430051825475,65.25017384940293 111.85854922281578,65.28219419412198 111.6906735751545,65.31421453569783 111.55077720212284,65.34623487424687 111.38290155446157,65.3782552096236 111.21502590680029,65.41027554197353 110.93523316073697,65.47431619724375 110.79533678770531,65.53835684008664 110.45958549226634,65.63441778093693 110.31968911911827,65.69845839269692 110.17979274620302,65.76249899197137 110.03989637317136,65.79451928689377 109.9000000001397,65.89058015320916 109.59222797933035,65.98664099146845 109.45233160629869,66.05068153477623 109.31243523326702,66.11472206562757 109.17253886023536,66.17876258408069 109.00466321257409,66.27482333834632 108.72487046639435,66.43492453329964 108.58497409336269,66.53098521297215 108.44507772033103,66.62704586464679 108.30518134729937,66.72310648838175 108.16528497415129,66.78714688852779 107.91347150271758,66.94724783475976 107.82953367882874,67.04330836507143 107.7176165804267,67.13936886744341 107.57772020739503,67.23542934181751 107.46580310887657,67.33148978825193 107.24196891195606,67.5236105969816 107.15803108818363,67.5876508418005 107.07409326429479,67.68371118546929 106.99015544052236,67.74775139911799 106.93419689126313,67.84381169627886 106.79430051834788,67.93987196535454 106.79430051834788,67.93987196535454 106.68238341982942,68.09997235168703 106.57046632119454,68.16401248442708 106.51450777205173,68.26007266031229 106.37461139913648,68.45219292803085 106.40259067364968,68.42017289114301 106.23471502598841,68.67633309878875 106.12279792758636,68.7723931253131 106.03886010369752,68.90047311712988 105.89896373066586,69.09259301165002 105.95492227980867,69.06057303692796 105.9829015545547,69.06057303692796 105.92694300529547,69.06057303692796 105.92694300529547,69.06057303692796 105.92694300529547,69.06057303692796 105.70310880837496,69.38077264331514 105.59119170997292,69.60491218275274 105.45129533682484,69.86107146981522 105.17150259076152,70.46944897886715 105.11554404150229,70.69358777807793 104.9196891192114,71.23792422757833 104.80777202080935,71.46206250437535 104.7238341969205,72.00639768506517 104.66787564766128,72.26255510616465 104.61191709851846,72.55073196688318 104.5,73.28718280015164 104.5,73.41526103796787 104.5,73.5113196837483 104.5,73.60737830144353 104.5,73.7034368912573 104.5,73.863534478558 104.5,73.95959299374954 104.5,74.37584623583825 104.52797927474603,74.69604067981709 104.58393782400526,74.92017660557758 104.52797927474603,74.88815719698323 104.5,75.11229299212573 104.5,75.2723898953409 104.52797927474603,75.43248672090704 104.55595854925923,75.5285447788774 104.55595854925923,75.65662214599433 104.58393782400526,75.84873810331919 104.63989637326449,76.58518156962236 104.63989637326449,76.9053738678922 104.66787564766128,77.44970006140647 104.66787564766128,77.54575753162499 104.66787564766128,77.64181497387472 104.6958549224073,77.80191064885003 104.66787564766128,77.92998713278212 104.6958549224073,78.05806356703397 104.6958549224073,78.12210176550434 104.6958549224073,78.37825443496695 104.7238341969205,78.53834975225618 104.75181347155012,78.79450209825882 104.80777202080935,79.69103374224505 104.83575129543897,80.07526084335404 104.86373057006858,80.84371370231383 104.9196891192114,81.22793946010643 104.94766839395743,81.932352186559 105.00362694310024,82.2525392920652 105.14352331624832,83.27713593989029 105.17150259076152,83.62934030219913 105.22746113990434,84.26971090625739 105.25544041465037,84.49384032387752 105.25544041465037,84.621914208401 105.39533678768203,85.45439324501785 105.42331606231164,85.58246675643022 105.45129533682484,85.74255857567186 105.47927461145446,85.8706319751509 105.47927461145446,85.99870532489149 105.50725388608407,86.15879694206524 105.50725388608407,86.15879694206524 105.53523316071369,86.22283356718253 105.81502590689342,86.09476030454971 105.92694300529547,86.06274198109168 105.95492227980867,86.06274198109168 105.9829015545547,86.03072365454864 105.9829015545547,85.96668699206202 105.95492227980867,85.8706319751509 105.95492227980867,85.80659528169781 105.92694300529547,85.71054021798773 105.92694300529547,85.71054021798773 105.92694300529547,85.64650349345175 105.92694300529547,85.58246675643022 105.89896373066586,85.55044838320464 105.89896373066586,85.48641162746935 105.89896373066586,85.42237485945225 105.87098445603624,85.35833807877498 105.89896373066586,85.32631968383794 105.87098445603624,85.23026448034216 105.87098445603624,85.19824607300689 105.87098445603624,85.10219083217089 105.9829015545547,85.10219083217089 106.06683937832713,85.10219083217089 106.15077720221598,85.10219083217089 106.17875647684559,85.07017241237918 106.26269430061802,85.07017241237918 106.26269430061802,85.07017241237918 106.29067357524764,85.07017241237918 106.29067357524764,85.07017241237918 106.34663212439045,85.10219083217089 106.34663212439045,85.10219083217089 106.37461139913648,85.13420924884849 106.37461139913648,85.1662276624993 106.37461139913648,85.19824607300689 106.40259067364968,85.19824607300689 106.40259067364968,85.19824607300689 106.37461139913648,85.294301285845 106.37461139913648,85.32631968383794 106.40259067364968,85.39035647074343 106.40259067364968,85.42237485945225 106.40259067364968,85.45439324501785 106.4305699482793,85.64650349345175 106.4585492227925,85.80659528169781 106.48652849753853,85.93466865623486 106.51450777205173,86.09476030454971 106.51450777205173,86.25485187507002 106.54248704679776,86.57503478298895 106.57046632119454,86.67108959468897 106.59844559594058,86.6390713272558 106.57046632119454,86.73512612032937 106.57046632119454,86.86319913424086 106.59844559594058,86.95925386203453 106.62642487057019,87.05530856183032 106.6544041451998,87.18338145143935 106.62642487057019,87.15136323371553 106.62642487057019,87.15136323371553 106.57046632119454,86.73512612032937 106.54248704679776,86.6390713272558 106.54248704679776,86.54301650615525 106.54248704679776,86.414943367854 106.54248704679776,86.414943367854 106.57046632119454,86.414943367854 106.57046632119454,86.3509067800187 106.54248704679776,86.414943367854 106.51450777205173,86.414943367854 106.51450777205173,86.414943367854 106.54248704679776,86.414943367854 106.51450777205173,86.414943367854 106.51450777205173,86.44696165714413 106.54248704679776,86.414943367854 106.54248704679776,86.414943367854 106.54248704679776,86.70310785912443 106.54248704679776,86.73512612032937 106.57046632119454,86.73512612032937 106.57046632119454,86.70310785912443 106.59844559594058,86.67108959468897 106.59844559594058,86.67108959468897 106.59844559594058,86.67108959468897 106.59844559594058,86.67108959468897 106.59844559594058,86.67108959468897 106.59844559594058,86.67108959468897 106.59844559594058,86.67108959468897 106.59844559594058,86.67108959468897 106.59844559594058,86.67108959468897 106.62642487057019,86.67108959468897 106.62642487057019,86.67108959468897 106.59844559594058,86.67108959468897 106.59844559594058,86.67108959468897 106.59844559594058,86.67108959468897 106.59844559594058,86.67108959468897 106.57046632119454,86.67108959468897 106.57046632119454,86.67108959468897 106.57046632119454,86.70310785912443 106.57046632119454,86.70310785912443 106.54248704679776,86.70310785912443 106.54248704679776,86.70310785912443 106.54248704679776,86.73512612032937 106.57046632119454,86.7671443784493 106.57046632119454,86.7671443784493 106.57046632119454,86.7671443784493 106.57046632119454,86.7671443784493 106.54248704679776,86.73512612032937 106.54248704679776,86.70310785912443 106.54248704679776,86.6390713272558 106.57046632119454,86.57503478298895 106.57046632119454,86.57503478298895 106.57046632119454,86.57503478298895 106.48652849753853,86.03072365454864 106.48652849753853,85.96668699206202 106.48652849753853,85.90265031723538 106.4585492227925,85.80659528169781 106.4585492227925,85.74255857567186 106.4585492227925,85.64650349345175 106.4585492227925,85.58246675643022 106.4305699482793,85.58246675643022 106.4585492227925,85.51843000692315 106.4305699482793,85.48641162746935 106.4305699482793,85.48641162746935 106.4585492227925,85.45439324501785 106.4585492227925,85.42237485945225 106.4585492227925,85.42237485945225 106.4305699482793,85.39035647074343 106.40259067364968,85.35833807877498 106.40259067364968,85.32631968383794 106.40259067364968,85.294301285845 106.40259067364968,85.26228288470884 106.40259067364968,85.19824607300689 106.40259067364968,85.1662276624993 106.40259067364968,85.13420924884849 106.40259067364968,85.13420924884849 106.34663212439045,85.03815398950246 106.31865284976084,85.03815398950246 106.31865284976084,85.07017241237918 106.31865284976084,85.07017241237918 106.31865284976084,85.10219083217089 106.23471502598841,85.10219083217089 106.0108808290679,85.13420924884849 105.92694300529547,85.13420924884849 105.89896373066586,85.13420924884849 105.89896373066586,85.10219083217089 105.95492227980867,85.10219083217089 105.95492227980867,85.10219083217089 105.95492227980867,85.13420924884849 105.89896373066586,85.10219083217089 105.89896373066586,85.1662276624993 105.89896373066586,85.26228288470884 105.92694300529547,85.35833807877498 105.89896373066586,85.45439324501785" stroke="#4dd2ff" stroke-linecap="round" stroke-linejoin="round" stroke-width="0.5"><title>2022-07-25 3.9km</title></polyline><polyline fill="none" points="14.572321428451687,209.03924823115813 14.861607142724097,208.11760326317744 14.716964285820723,205.10130340309115 15.657142856623977,204.26344036351657 15.657142856623977,202.83907123282552 16.380357143003494,206.02295175864128 14.5,208.78789061523275 16.597321428358555,209.9608921642648 17.32053571380675,211.21767767786514 18.11607142817229,211.38524893432623 18.40535714291036,210.9663207292906 18.766964285634458,210.46360660070786 19.707142857369035,210.0446779250051 22.88928571389988,207.95003133936552 25.854464285541326,205.52023460209602 27.228571428451687,203.84450852271402 27.15625,206.86081300186925 27.590178571175784,208.20138921198668 29.470535714179277,206.35809635865735 29.90446428535506,207.61488738964545 30.55535714281723,206.6932408218272 32.86964285699651,207.78245938150212 34.026785714086145,208.3689610841102 36.051785714458674,208.53653292212402 36.847321428358555,210.46360660070786 38.58303571399301,211.38524893432623 37.78750000009313,212.13931916450383 38.872321428731084,211.5528201564448 39.88482142845169,213.56367215368664 41.331249999813735,217.25022135238396 42.34375,218.50699570344295 42.34375,219.51241379842395 40.39107142854482,222.780014100892 40.825000000186265,222.61244517134037 42.63303571427241,221.1043232632219 44.29642857098952,220.60161534469808 44.36874999990687,220.51783066167263 41.47589285718277,222.4448762072716 41.9821428572759,223.3665050858981 46.683035714086145,222.94758299656678 47.98482142854482,221.94216910982504 49.9375,223.28272068523802 48.78035714291036,226.3827378169517 48.924999999813735,225.54489650344476 50.9499999997206,224.62327007111162 50.2991071427241,226.1313855125918 46.53839285718277,229.81787825928768 43.50089285708964,230.15301314211683 45.38124999962747,230.15301314211683 47.69553571427241,227.47193024557782 47.98482142854482,231.24220056732884 66.64374999981374,232.1638195673586 69.1750000002794,232.0800360647845 66.35446428554133,236.43676686374238 66.28214285708964,230.57193155382993 63.67857142863795,227.1367942673969 54.49374999990687,231.91246903367573 55.0,227.55571421858622 47.98482142854482,229.3151756778243 46.03214285708964,233.58813780470518 56.08482142863795,223.53407386195613 51.745535714086145,226.3827378169517 48.635714285541326,227.63949818297988 49.64821428572759,226.1313855125918 50.9499999997206,225.29354394279653 41.76517857098952,227.63949818297988 41.25892857136205,229.23139188438654 41.25892857136205,230.57193155382993 49.28660714253783,225.37732813809998 50.73303571389988,225.54489650344476 49.503571428824216,225.71246483462164 46.972321428358555,224.28813292994164 50.73303571389988,222.52866069343872 51.60089285718277,221.43946170451818 51.96249999990687,221.355677107058 55.21696428582072,220.85296934255166 53.26428571436554,222.780014100892 53.77053571399301,223.53407386195613 55.57857142854482,225.71246483462164 56.15714285708964,225.9638172669802 58.543750000186265,228.14220179076074 59.41160714253783,228.8962566248956 59.7008928572759,228.98004045255948 59.99017857108265,229.3151756778243 60.71339285699651,229.81787825928768 63.24464285699651,230.57193155382993 63.606250000186265,231.07463336526416 64.47410714253783,231.91246903367573 64.98035714263096,232.3313865471282 65.7758928569965,234.17462106613675 66.20982142863795,235.43136950122425 67.14999999990687,237.10703108785674 67.51160714309663,237.52594594995026 71.27232142863795,239.62051705329213 71.77857142826542,239.87186522665434 73.22500000009313,240.2907786773867 74.45446428563446,240.54212664521765 75.10535714263096,240.96103975415463 76.40714285708964,241.54751774744364 76.69642857136205,241.54751774744364 76.98571428563446,241.88264784112107 77.27500000037253,242.55290761805372 77.49196428572759,242.72047247656155 77.85357142891735,242.97181970061501 77.92589285736904,243.05560209136456 78.07053571427241,243.13938447384862 78.28750000009313,243.22316684748512 78.57678571389988,243.39073156937957 78.72142857126892,243.64207858790178 79.3000000002794,243.89342552947346 79.51696428563446,244.06099011475453 79.73392857145518,244.31233692809474 80.02321428572759,244.4799014274031 80.45714285690337,244.6474658928928 80.74642857117578,244.73124811268644 81.10803571436554,245.0663769064704 81.25267857126892,245.15015908359783 81.39732142863795,245.15015908359783 81.54196428600699,245.31772341183387 82.12053571408615,245.48528770613484 82.40982142835855,245.82041619200027 82.91607142845169,246.23932660691207 83.35000000009313,246.4906727533089 83.4946428569965,246.40689071302768 83.8562499997206,246.4906727533089 84.07321428600699,246.65823680796893 84.29017857136205,246.74201882263878 84.6517857145518,246.82580082851928 84.79642857145518,246.9095828261925 85.375,246.9095828261925 85.7366071427241,246.74201882263878 86.3874999997206,246.74201882263878 86.89374999981374,246.9095828261925 87.39999999990687,246.9095828261925 87.39999999990687,247.07714679546189 87.83392857154831,247.16092876717448 88.41249999962747,247.07714679546189 88.77410714281723,246.99336481490172 89.06339285708964,247.07714679546189 89.35267857136205,246.99336481490172 89.56964285718277,246.82580082851928 89.71428571408615,246.9095828261925 89.93124999990687,246.82580082851928 90.4375,246.74201882263878 90.50982142845169,246.65823680796893 90.87142857164145,246.65823680796893 91.30535714235157,246.5744547849754 91.59464285708964,246.5744547849754 91.88392857182771,246.5744547849754 92.24553571408615,246.40689071302768 92.60714285681024,246.32310866430635 92.82410714263096,246.23932660691207 92.96874999953434,246.23932660691207 93.76428571436554,246.32310866430635 94.12589285708964,246.40689071302768 94.41517857136205,246.40689071302768 94.27053571399301,246.4906727533089 94.63214285718277,246.32310866430635 94.99375000037253,246.40689071302768 95.21071428572759,246.40689071302768 95.5,246.40689071302768 95.1383928572759,246.40689071302768 94.7767857145518,246.40689071302768 94.70446428563446,246.40689071302768 94.48749999981374,246.40689071302768 94.34285714291036,246.40689071302768 93.76428571436554,246.23932660691207 93.69196428591385,246.15554454090307 93.47500000009313,246.15554454090307 93.18571428535506,246.07176246662857 92.46249999990687,246.23932660691207 91.23303571436554,246.74201882263878 90.94374999962747,246.5744547849754 90.50982142845169,246.4906727533089 89.49732142826542,246.5744547849754 88.77410714281723,246.74201882263878 88.12321428582072,246.74201882263878 87.90625,246.82580082851928 87.03839285718277,247.07714679546189 86.17053571389988,247.16092876717448 85.7366071427241,247.07714679546189 85.44732142845169,246.99336481490172 84.7241071430035,246.82580082851928 84.6517857145518,246.74201882263878 84.57946428563446,246.74201882263878 82.91607142845169,246.32310866430635 82.26517857098952,245.82041619200027 81.61428571399301,245.31772341183387 81.25267857126892,245.2339412519941 80.9633928569965,245.15015908359783 80.60178571427241,244.89881252660416 79.9508928572759,244.4799014274031 79.80624999990687,244.31233692809474 79.44464285718277,244.14477239438565 78.7937499997206,243.72586091049016 78.4321428569965,243.5582962570479 78.21517857164145,243.39073156937957 77.92589285736904,243.39073156937957 77.56428571417928,243.39073156937957 76.98571428563446,242.6366900515859 76.76874999981374,242.55290761805372 76.47946428554133,242.21777779783588 75.75625000009313,241.79886533069657 75.03303571417928,241.54751774744364 74.96071428572759,241.37995264923666 74.81607142835855,241.2961700874148 74.38214285718277,240.7934745362727 73.73125000018626,240.2907786773867 73.3696428569965,240.12321332277497 72.64642857154831,239.78808251064038 72.21249999990687,239.53673431189964 71.77857142826542,239.28538603609195 71.27232142863795,238.86647207167698 71.34464285708964,238.698906426318 71.34464285708964,238.27999216294847 71.20000000018626,238.1124263976817 71.27232142863795,237.6935118349502 71.27232142863795,237.52594594995026 70.83839285746217,237.10703108785674 70.47678571473807,237.02324808994308 69.10267857136205,237.609728896874 68.6687499997206,237.358380030666 68.3071428569965,235.85028521850472 68.3071428569965,235.5151526616537 67.72857142845169,234.9286703580874 67.51160714309663,235.09623677341733 66.86071428563446,235.012453569856 66.20982142863795,234.42597090703202 65.99285714281723,234.00705446273787 65.34196428582072,233.2530043241568 65.12499999953434,232.66652040393092 64.83571428572759,232.24760306160897 63.89553571399301,231.9962525535957 63.31696428544819,231.15841697074939 63.24464285699651,230.82328249834245 63.31696428544819,230.32058053271612 63.17232142807916,230.40436421497725 62.52142857154831,230.57193155382993 62.08749999990687,230.40436421497725 61.870535714086145,230.32058053271612 61.5812500002794,230.06922943436075 61.002678571268916,229.56652700691484 60.71339285699651,229.48274323920486 60.56875000009313,229.39895946270553 60.35178571427241,229.3151756778243 60.207142856903374,229.06382427178323 59.84553571417928,228.8962566248956 58.833035714458674,228.39355347905075 58.543750000186265,228.22598569531692 58.10982142807916,227.97463395568775 57.74821428535506,227.63949818297988 57.675892857369035,227.55571421858622 57.60357142845169,227.1367942673969 57.45892857108265,226.96922622731654 57.24196428572759,226.55030597670702 56.73571428563446,226.3827378169517 56.44642857136205,226.1313855125918 56.15714285708964,226.1313855125918 55.3616071427241,225.8800331315142 54.78303571464494,225.8800331315142 54.05982142826542,225.29354394279653 53.91517857136205,224.79083859024104 53.91517857136205,224.45570151734864 53.62589285708964,224.1205643080175 53.481250000186265,224.0367799840751 53.11964285699651,223.86921131087 52.8303571427241,223.45028947817627 52.54107142845169,223.3665050858981 52.17946428572759,222.94758299656678 51.745535714086145,222.780014100892 51.02232142863795,222.69622964039445 50.80535714281723,222.69622964039445 50.80535714281723,222.3610917123733 50.58839285699651,221.8583845635876 50.2991071427241,221.77460000891006 50.082142856903374,221.52324629353825 49.64821428572759,220.6854000192834 49.28660714253783,220.01512238383293 48.99732142826542,219.93133764114464 48.20178571436554,219.8475528897252 47.47857142845169,219.8475528897252 46.89999999990687,219.34484420140507 46.61071428563446,218.8421352051082 46.466071428731084,218.8421352051082 46.17678571399301,218.5907805916504 45.59821428544819,217.66914634988643 45.45357142854482,217.5015763764968 44.94732142845169,217.16643632715568 44.65803571417928,216.83129614114296 44.22410714300349,216.49615581799299 44.00714285718277,216.32858560525347 44.22410714300349,216.24480048607802 43.573214285541326,216.83129614114296 43.06696428544819,217.0826512935455 42.488392856903374,216.24480048607802 42.41607142845169,215.90965992346173 41.83749999990687,215.49073402769864 41.331249999813735,215.15559315745486 41.114285714458674,214.82045215013204 40.75267857173458,214.4853110058466 40.53571428544819,214.23395505797816 39.88482142845169,213.47988675226225 39.59553571417928,212.97717416344676 39.08928571455181,212.47446126688737 38.72767857136205,212.30689023289597 38.00446428544819,212.22310470294906 37.6428571427241,211.72039134451188 37.57053571427241,211.1338920366834 37.136607142630965,210.46360660070786 37.06428571464494,210.547392310109 37.06428571464494,210.88253506243927 37.35357142845169,211.63660575443646 37.49821428535506,212.39067575411173 37.20892857154831,212.13931916450383 36.77499999990687,212.47446126688737 36.70267857098952,212.80960323213367 35.32857142854482,211.80417692562332 35.183928571641445,211.30146331025753 35.1116071427241,210.547392310109 34.316071428358555,209.9608921642648 34.53303571417928,209.29060577024939 34.3883928572759,208.62031882855808 34.316071428358555,208.3689610841102 34.24374999990687,207.95003133936552 34.24374999990687,207.69867338979384 33.80982142826542,207.19595725968247 33.520535714458674,207.19595725968247 33.30357142863795,207.19595725968247 33.01428571389988,207.11217120819492 33.158928571268916,206.52566860738443 32.29107142845169,206.27431022148812 30.84464285708964,206.27431022148812 30.26607142854482,206.02295175864128 30.26607142854482,205.77159321896033 29.832142857369035,205.35266214830335 28.747321428731084,205.10130340309115 27.807142857462168,205.35266214830335 27.517857142724097,205.52023460209602 27.300892856903374,205.68780702183722 27.011607143096626,205.77159321896033 26.360714285634458,206.19052407587878 25.854464285541326,206.35809635865735 25.565178571268916,206.52566860738443 25.49285714281723,206.7770269161556 25.348214285448194,206.7770269161556 23.75714285718277,208.2851751523558 23.684821428265423,208.03381730552064 23.17857142863795,208.11760326317744 22.38303571427241,208.2851751523558 21.081249999813735,209.29060577024939 20.502678571268916,209.37439159938367 20.285714285448194,209.5419632321573 19.996428571175784,209.79332061723107 19.634821428451687,210.12846367736347 19.85178571427241,210.3798208827502 19.85178571427241,210.46360660070786 20.14107142854482,210.71496370335808 17.682142856996506,210.79874938732246 16.814285714179277,210.12846367736347 16.74196428572759,210.2122494208743 16.95892857108265,210.2122494208743 17.24821428535506,210.71496370335808 17.103571428451687,210.79874938732246 16.74196428572759,210.2122494208743 16.74196428572759,208.62031882855808 16.597321428358555,208.11760326317744 16.45267857145518,208.03381730552064 16.669642857275903,207.27974330278812 17.971428571268916,206.44188248744467 17.754464285913855,206.35809635865735 17.53749999962747,205.85537940764334" stroke="#4dd2ff" stroke-linecap="round" stroke-linejoin="round" stroke-width="0.5"><title>2019-05-06 3.4km</title></polyline><polyline fill="none" points="158.13839285634458,228.49141784990206 156.3303571427241,229.18963444733527 155.8482142854482,229.32927772426046 154.88392857136205,229.74820746900514 154.1607142854482,230.02749389433302 154.0401785708964,230.02749389433302 153.7991071427241,230.1671370853437 153.67857142863795,230.1671370853437 146.9285714281723,231.84285426873248 120.8928571427241,239.9421250456944 111.49107142863795,245.8070842915913 110.04464285634458,246.5052920500748 105.94642857089639,243.15389155724552 104.5,241.61783025355544 117.5178571427241,248.46027187921572 117.27678571408615,248.32063055527397 110.04464285634458,237.00963599269744 109.44196428498253,231.84285426873248 106.5491071427241,235.05463979777414 106.30803571408615,243.0142496919725 107.7544642854482,244.27102596731856 109.32142857136205,245.6674426967511 110.04464285634458,246.3656505269464 123.90624999953434,252.37022315443028 116.67410714225844,248.04134786559734 107.3928571427241,243.0142496919725 118.24107142863795,248.73955448367633 114.38392857136205,246.7845750541892 120.0491071427241,249.71704315079842 128.125,253.90627238329034 122.21874999953434,251.53237739368342 111.12946428498253,246.92421653459314 110.64732142863795,246.64493355923332 124.14732142817229,252.50986406486481 116.67410714225844,248.04134786559734 105.8258928572759,242.17639819986653 106.79017857136205,235.33392513927538 107.875,227.65355746203568 108.59821428591385,222.207452430157 109.20089285681024,230.446423425572 110.40625,245.6674426967511 110.52678571408615,246.3656505269464 110.52678571408615,246.5052920500748 110.52678571408615,246.5052920500748 129.08928571408615,254.60447600844782 129.93303571408615,255.02339801203925 117.0357142854482,248.18098921747878 106.79017857136205,243.29353340854868 110.2857142854482,246.3656505269464 106.30803571408615,243.0142496919725 124.6294642854482,252.2305822300259 127.76339285681024,253.90627238329034 127.76339285681024,253.90627238329034 110.7678571427241,246.7845750541892 106.42857142817229,243.15389155724552 106.30803571408615,243.0142496919725 107.7544642854482,244.27102596731856 106.30803571408615,243.0142496919725 106.1875,243.0142496919725 107.63392857182771,244.27102596731856 110.40625,246.5052920500748 110.52678571408615,246.64493355923332 106.30803571408615,243.0142496919725 185.5,194.97660198807716 117.15625,242.036756234942 115.1071428572759,243.4331752450671 110.88839285681024,246.3656505269464 124.14732142817229,252.37022315443028 114.26339285681024,246.92421653459314 150.90624999906868,230.72570970794186 112.33482142863795,222.34709641966037 111.00892857089639,222.207452430157 110.64732142863795,230.72570970794186 110.40625,246.3656505269464 109.5625,233.93749786075205 109.68303571408615,234.49606894294266 123.90624999953434,250.55489002389368 121.61607142863795,251.25309535919223 129.69196428498253,254.8837573583005 158.0178571427241,248.73955448367633 111.7321428572759,246.64493355923332 140.54017857136205,231.56356821407098 140.9017857145518,230.3067802627338 141.625,230.86535282805562 143.67410714318976,231.00499593373388 150.54464285681024,225.2796169089852 149.5803571427241,224.72104206227232 148.4955357145518,224.58139831526205 147.89285714225844,224.3021107778186 147.16964285681024,223.32460394781083 145.2410714281723,222.76602830318734 144.75892857136205,223.1849600581918 144.75892857136205,223.60389168479014 143.07142857136205,223.743535532034 142.5892857145518,224.02282318356447 142.46874999953434,224.3021107778186 141.74553571408615,225.4192605848657 140.9017857145518,225.83819152752403 139.6964285708964,225.97783514624462 139.4553571427241,225.0003295141505 139.9375,226.3967659175396 139.6964285708964,226.95534007961396 141.74553571408615,230.02749389433302 142.5892857145518,230.1671370853437 144.15625,229.74820746900514 145.60267857136205,229.468920986983 146.3258928572759,229.468920986983 148.375,228.49141784990206 149.5803571427241,227.9328443146078 151.02678571408615,226.95534007961396 151.14732142863795,225.97783514624462 150.30357142863795,224.58139831526205 148.375,224.02282318356447 146.9285714281723,223.60389168479014 147.29017857136205,223.8831793651916 149.33928571408615,225.13997321855277 146.5669642854482,230.02749389433302 145.96428571408615,230.72570970794186 138.85267857136205,230.02749389433302 137.16517857136205,229.32927772426046 136.32142857136205,228.6310611978406 134.51339285681024,227.37427055160515 133.7901785708964,226.81569656077772 132.7053571427241,225.2796169089852 132.94642857136205,223.743535532034 135.1160714281723,222.4867403950775 136.20089285681024,221.92816440830939 136.9241071427241,222.06780842633452 137.8883928572759,222.06780842633452 138.12946428591385,222.06780842633452 138.73214285681024,221.22994410351384 139.57589285634458,222.207452430157 139.3348214281723,223.04531615425367 139.9375,222.4867403950775 141.74553571408615,222.62638435629196 141.86607142863795,223.04531615425367 142.10714285681024,222.76602830318734 141.98660714318976,222.9056722362293 144.63839285681024,223.32460394781083 145.84374999953434,222.34709641966037" stroke="#4dd2ff" stroke-linecap="round" stroke-linejoin="round" stroke-width="0.5"><title>2019-04-30 5.1km</title></polyline></svg>