<?xml version="1.0" encoding="utf-8" ?>
<svg baseProfile="full" height="200mm" version="1.1" viewBox="0,0,200,200" width="200mm" xmlns="http://www.w3.org/2000/svg" xmlns:ev="http://www.w3.org/2001/xml-events" xmlns:xlink="http://www.w3.org/1999/xlink"><defs /><rect fill="#1a1a1a" height="200" width="200" x="0" y="0" /><text alignment-baseline="middle" fill="#e1ed5e" style="dominant-baseline: central; font-size:9.0px; font-family:Arial;" text-anchor="middle" x="100.0" y="100.0">2024</text><line stroke="#e1ed5e" stroke-width="0.3" x1="100.0" x2="100.0" y1="15.0" y2="10.0" /><path d="M 100.0 14.0 a86.0,86.0 0 0,1 42.35913384403234,11.155469271406648" fill="none" id="id61" stroke="none" /><text fill="#e1ed5e" style="font-size:6.75px; font-family:Arial;" text-anchor="middle"><textPath startOffset="22.145653131862478" xlink:href="#id61">January</textPath></text><line stroke="#e1ed5e" stroke-width="0.3" x1="143.13028292997686" x2="145.6673583964461" y1="26.7553504044142" y2="22.446841604673864" /><path d="M 143.63769802327073 25.89364864446614 a86.0,86.0 0 0,1 29.32050498858742,28.57503671076993" fill="none" id="id62" stroke="none" /><text fill="#e1ed5e" style="font-size:6.75px; font-family:Arial;" text-anchor="middle"><textPath startOffset="20.669276256404974" xlink:href="#id62">February</textPath></text><line stroke="#e1ed5e" stroke-width="0.3" x1="172.87174338648825" x2="177.1583165268699" y1="56.24261187166439" y2="53.66864786411523" /><path d="M 173.72905801456457 55.72781907015455 a86.0,86.0 0 0,1 12.242430191666344,42.057860355516425" fill="none" id="id63" stroke="none" /><text fill="#e1ed5e" style="font-size:6.75px; font-family:Arial;" text-anchor="middle"><textPath startOffset="22.145653131862474" xlink:href="#id63">March</textPath></text><line stroke="#e1ed5e" stroke-width="0.3" x1="184.99686870605535" x2="189.99668451229388" y1="99.2704041080226" y2="99.22748670261217" /><path d="M 185.99683186730306 99.26182062694052 a86.0,86.0 0 0,1 -10.086455211305974,41.156179273409016" fill="none" id="id64" stroke="none" /><text fill="#e1ed5e" style="font-size:6.75px; font-family:Arial;" text-anchor="middle"><textPath startOffset="21.40746469413373" xlink:href="#id64">April</textPath></text><line stroke="#e1ed5e" stroke-width="0.3" x1="174.33088141563837" x2="178.70328620479359" y1="141.23008692659167" y2="143.65538615756765" /><path d="M 175.20536237346943 141.71514677278685 a86.0,86.0 0 0,1 -30.301960400862466,31.631185727798858" fill="none" id="id65" stroke="none" /><text fill="#e1ed5e" style="font-size:6.75px; font-family:Arial;" text-anchor="middle"><textPath startOffset="22.145653131862474" xlink:href="#id65">May</textPath></text><line stroke="#e1ed5e" stroke-width="0.3" x1="143.1302829299769" x2="145.66735839644613" y1="173.24464959558577" y2="177.55315839532614" /><path d="M 143.63769802327073 174.10635135553383 a86.0,86.0 0 0,1 -40.68552437913181,11.842963189579606" fill="none" id="id66" stroke="none" /><text fill="#e1ed5e" style="font-size:6.75px; font-family:Arial;" text-anchor="middle"><textPath startOffset="21.407464694133747" xlink:href="#id66">June</textPath></text><line stroke="#e1ed5e" stroke-width="0.3" x1="101.45913802915013" x2="101.54496967792366" y1="184.9874750549273" y2="189.98673829345242" /><path d="M 101.47630435890484 185.9873277026323 a86.0,86.0 0 0,1 -42.54439059252881,-10.42667462771756" fill="none" id="id67" stroke="none" /><text fill="#e1ed5e" style="font-size:6.75px; font-family:Arial;" text-anchor="middle"><textPath startOffset="22.145653131862474" xlink:href="#id67">July</textPath></text><line stroke="#e1ed5e" stroke-width="0.3" x1="58.13341422392154" x2="55.67067388415222" y1="173.97424548756322" y2="178.32567169271397" /><path d="M 57.64086615596768 174.84453072859336 a86.0,86.0 0 0,1 -31.369924170532247,-30.572349798747897" fill="none" id="id68" stroke="none" /><text fill="#e1ed5e" style="font-size:6.75px; font-family:Arial;" text-anchor="middle"><textPath startOffset="22.145653131862474" xlink:href="#id68">August</textPath></text><path d="M 89.03521579738668 117.91015095944536 l -10.77956401354164 17.607607700434365 a41.64526215029583,41.64526215029583 0 0,0 -0.6065054776912635,-0.378504275030527 l 11.080233620022614 -17.41996762856229" fill="#ff0000" stroke="none" /><path d="M 82.78059297857968 112.02048342749411 l -17.81589983252706 12.43688173561288 a42.727455307703636,42.727455307703636 0 0,0 -0.41468066245116747,-0.6050314793979926 l 18.026770231793552 -12.129215521144836" fill="#ff1702" stroke="none" /><line stroke="#e1ed5e" stroke-width="0.3" x1="26.387840678322732" x2="22.057713659400548" y1="142.50000000000003" y2="145.00000000000006" /><path d="M 25.521815274538298 143.00000000000003 a86.0,86.0 0 0,1 -11.493303480769221,-40.785679425670985" fill="none" id="id69" stroke="none" /><text fill="#e1ed5e" style="font-size:6.75px; font-family:Arial;" text-anchor="middle"><textPath startOffset="21.40746469413373" xlink:href="#id69">September</textPath></text><path d="M 80.05021161711548 106.5578916946017 l -23.194759828932533 7.624578262240412 a45.415795649515324,45.415795649515324 0 0,0 -0.23710350782079645,-0.7427233612184446 l 23.322228052530583 -7.225285867330576" fill="#ff4f07" stroke="none" /><path d="M 79.83685265289637 105.86919833188381 l -30.173158887397413 8.782966803792 a52.42546774704621,52.42546774704621 0 0,0 -0.24410672809532902,-0.8662486616144812 l 30.319484107567316 -8.263710218274522" fill="#ffd614" stroke="none" /><path d="M 79.64726062577567 105.17358676015961 l -33.607756950572735 8.54296039472434 a55.67655547419032,55.67655547419032 0 0,0 -0.22751156858538424,-0.9283248383415128 l 33.749456045674414 -7.964779731774726" fill="#edff1a" stroke="none" /><path d="M 79.2786578344484 103.40968896794605 l -24.96761492935764 4.108411535334035 a46.30337607127453,46.30337607127453 0 0,0 -0.12232581968547425,-0.7854195130028807 l 25.034462241181384 -3.6792038403997047" fill="#ff6108" stroke="none" /><line stroke="#e1ed5e" stroke-width="0.3" x1="15.003131293944662" x2="10.003315487706104" y1="100.72959589197737" y2="100.7725132973878" /><path d="M 14.003168132696942 100.73817937305945 a86.0,86.0 0 0,1 10.791469493833604,-42.45332614584628" fill="none" id="id70" stroke="none" /><text fill="#e1ed5e" style="font-size:6.75px; font-family:Arial;" text-anchor="middle"><textPath startOffset="22.145653131862435" xlink:href="#id70">October</textPath></text><path d="M 79.2786578344484 96.59031103205396 l -62.16402649665483 -10.229066903838117 a84.0,84.0 0 0,0 0.24634073003106272,-1.4208278683176294 l 61.97927094913153 11.29468780507634" fill="#4dd2ff" stroke="none" /><path d="M 79.407916724674 95.88100663000787 l -43.760280317404245 -8.753281641608536 a65.62714502357414,65.62714502357414 0 0,0 0.23045218600474388,-1.1027971346631404 l 43.60357042057514 9.503195227557086" fill="#4dff2c" stroke="none" /><line stroke="#e1ed5e" stroke-width="0.3" x1="26.387840678322718" x2="22.05771365940052" y1="57.49999999999999" y2="54.99999999999999" /><path d="M 25.521815274538284 56.99999999999999 a86.0,86.0 0 0,1 29.574782752854787,-30.34633250058573" fill="none" id="id71" stroke="none" /><text fill="#e1ed5e" style="font-size:6.75px; font-family:Arial;" text-anchor="middle"><textPath startOffset="21.40746469413373" xlink:href="#id71">November</textPath></text><path d="M 83.8745106332314 86.54754324733833 l -19.509592710913463 -16.275596122153512 a46.40707060794664,46.40707060794664 0 0,0 0.5155724697401499,-0.6073430729653612 l 19.2273256776662 16.60810597756843" fill="#ff6309" stroke="none" /><path d="M 84.34580500576568 86.00192230759919 l -18.004220592457163 -16.099485073308635 a45.152543939874036,45.152543939874036 0 0,0 0.5216243320310532,-0.5733565160355332 l 17.725198559584243 16.406179164901825" fill="#ff4906" stroke="none" /><path d="M 85.08716467003674 85.21462403516908 l -19.58972303326513 -19.42229050915475 a48.58591338241388,48.58591338241388 0 0,0 0.592304113988717,-0.5872417160835642 l 19.253426999146438 19.755712235466987" fill="#ff8e0d" stroke="none" /><path d="M 86.13680546590413 84.22622945171909 l -15.578781146909659 -17.725793187772204 a44.59877467494826,44.59877467494826 0 0,0 0.5794029004170894,-0.5004744255731345 l 15.272198766729721 17.99061174581005" fill="#ff3e05" stroke="none" /><path d="M 86.40962598614128 83.9905735841838 l -17.77995769279218 -20.944745455041502 a48.473792197910385,48.473792197910385 0 0,0 0.6389899905182763,-0.5330681765568898 l 17.417793368111994 21.246875815510272" fill="#ff8c0c" stroke="none" /><path d="M 86.96720088162412 83.53348406188908 l -26.866856713748927 -33.945395786858455 a64.29108320201267,64.29108320201267 0 0,0 0.8712668060914704,-0.6775023382268925 l 26.280179963022213 34.40159917670615" fill="#61ff29" stroke="none" /><path d="M 88.4268655584334 82.4767994020092 l -14.334188822776145 -21.703788841234864 a47.01006380753249,47.01006380753249 0 0,0 0.6772009395377409,-0.4389534672987276 l 13.959502250981378 21.946656150237498" fill="#ff6f0a" stroke="none" /><path d="M 89.03521579738668 82.08984904055464 l -22.667938560015497 -37.026374076066915 a64.41414303866284,64.41414303866284 0 0,0 0.9480143632226029,-0.5692553864501065 l 22.02899144023546 37.41004346305294" fill="#5fff29" stroke="none" /><line stroke="#e1ed5e" stroke-width="0.3" x1="56.869717070023135" x2="54.33264160355391" y1="26.7553504044142" y2="22.446841604673864" /><path d="M 56.362301976729285 25.89364864446614 a86.0,86.0 0 0,1 42.16139366436587,-11.88097634709845" fill="none" id="id72" stroke="none" /><text fill="#e1ed5e" style="font-size:6.75px; font-family:Arial;" text-anchor="middle"><textPath startOffset="22.145653131862474" xlink:href="#id72">December</textPath></text></svg>